<svg xmlns="http://www.w3.org/2000/svg" xmlns:xlink="http://www.w3.org/1999/xlink" width="1050" height="340">
<defs>
<clipPath id="clip_1">
<path transform="matrix(2.4,0,0,-2.4,-185.40001,1836.6001)" d="M77.25 642.75H398.75V765.25H77.25Z" clip-rule="evenodd"/>
</clipPath>
<path id="font_2_1" d="M.6799927 0 .34498597 .37606813 .673996 .7441406H.5299988L.21398926 .38606263V.7441406H.09399414V0H.21398926V.36106874L.5309906 0H.6799927Z"/>
<path id="font_2_2" d="M.09399414 0H.5249939V.10899353H.21398926V.32714845H.5V.43014527H.21398926V.63513186H.5249939V.7441406H.09399414V0Z"/>
<path id="font_2_3" d="M.35798646 .29110719C.5130005 .31210328 .57899478 .40811158 .57899478 .51512148 .57899478 .6551361 .48098756 .7441406 .30599977 .7441406H.09399414V0H.21398926V.28710938H.22200012L.46299745 0H.6119995L.35798646 .29110719M.21398926 .38310243V.63414H.30099488C.40098573 .63414 .45799256 .5881195 .45799256 .5101166 .45799256 .43310548 .4079895 .38310243 .29499818 .38310243H.21398926Z"/>
<path id="font_2_4" d="M.70399478 .7441406H.58799746V.20103455H.58699038L.21199036 .7441406H.09399414V0H.20899964V.5531006H.20999146L.59199526 0H.70399478V.7441406Z"/>
<path id="font_2_5" d="M.09399414 0H.5339966V.10998535H.21398926V.7441406H.09399414V0Z"/>
<path id="font_3_1" d="M.1665039 .5917969C.18017578 .5686849 .21663411 .5199382 .2758789 .44555665 .3351237 .37117515 .3660482 .33382163 .36865235 .3334961 .31819663 .28955079 .25016276 .21565755 .16455078 .111816409 .14469402 .08805338 .13134766 .07259115 .12451172 .06542969H.37060548C.4539388 .06542969 .50634768 .07185873 .52783206 .0847168 .5493164 .09757487 .5641276 .122558597 .5722656 .15966797 .57389327 .16845703 .5751953 .17415364 .5761719 .17675781 .5797526 .18001302 .5838216 .18164063 .5883789 .18164063L.59033206 .18016052C.5909831 .17291768 .5913086 .16633606 .5913086 .16041565L.5883789 .059265138 .58935549 .024719239C.58935549 .013865153 .5885417 .004816691 .58691409-.0024261475 .5755208-.0034128826 .5678711-.00390625 .56396487-.00390625L.5317383-.0023498536C.52652999-.0018208822 .5211589-.0015563965 .515625-.0015563965L.4633789-.0031280518 .40527345-.0048828127 .28076173 0 .19238281 .0014648438C.14453125 .0014648438 .10839844-.00039164225 .083984378-.0041046144 .065104167-.0072275798 .05419922-.0087890629 .05126953-.0087890629 .04736328-.0087890629 .040364583-.008244832 .030273438-.007156372L.029296875 .0063934328C.0797526 .05256653 .16780599 .15140789 .29345704 .30291749 .285319 .31401573 .2722982 .33033244 .25439454 .35186769L.18261719 .44244386 .111816409 .5315399C.07047526 .5808258 .049804689 .60872396 .049804689 .6152344 .049804689 .6191406 .0546875 .62109377 .064453128 .62109377L.09765625 .6201172 .14550781 .62060549 .23095703 .6191406 .3798828 .62158206 .43115235 .6196289 .5 .6201172C.507487 .6188151 .5126953 .61816409 .515625 .61816409 .5211589 .61816409 .5289714 .61865237 .5390625 .6196289 .54036459 .6199544 .5418294 .6201172 .54345706 .6201172 .54833987 .6201172 .5519206 .6193034 .5541992 .6176758 .55615237 .6150716 .5571289 .6121419 .5571289 .6088867 .5571289 .60530599 .5566406 .601237 .55566409 .5966797 .55403646 .586263 .55322268 .5776367 .55322268 .5708008 .55322268 .5369466 .554362 .5083008 .5566406 .48486329 .55598959 .48291017 .5548503 .48160807 .55322268 .48095704 .5496419 .48095704 .5465495 .4814453 .5439453 .48242188 .5413411 .4860128 .5366211 .49647523 .52978518 .5138092 .52197268 .5343984 .5130208 .5526988 .5029297 .5687103 .49283854 .58473208 .48413087 .5938873 .47680665 .59617617 .46948243 .59846499 .44108073 .5996094 .39160157 .5996094 .3372396 .5996094 .26220704 .5970052 .1665039 .5917969Z"/>
<clipPath id="clip_4">
<path transform="matrix(2.4,0,0,-2.4,-185.40001,1836.6001)" d="M117.341 762.05H146.15001V711.042H117.341Z"/>
</clipPath>
<path id="font_5_6" d="M.07499695 .41796876H.62098696V.5159607H.07499695V.41796876M.07499695 .22816468H.62098696V.32617188H.07499695V.22816468Z"/>
<clipPath id="clip_6">
<path transform="matrix(2.4,0,0,-2.4,-185.40001,1836.6001)" d="M339.905 730.05H358.393V710.75698H339.905Z"/>
</clipPath>
<clipPath id="clip_7">
<path transform="matrix(2.4,0,0,-2.4,-185.40001,1836.6001)" d="M339.905 730.148H357.151V720.05H339.905Z"/>
</clipPath>
</defs>
<g clip-path="url(#clip_1)">
<use data-text="K" xlink:href="#font_2_1" transform="matrix(13.753465,0,0,-13.753465,487.3344,71.200809)" fill="#466699"/>
<use data-text="E" xlink:href="#font_2_2" transform="matrix(13.753465,0,0,-13.753465,496.71424,71.200809)" fill="#466699"/>
<use data-text="R" xlink:href="#font_2_3" transform="matrix(13.753465,0,0,-13.753465,504.81507,71.200809)" fill="#466699"/>
<use data-text="N" xlink:href="#font_2_4" transform="matrix(13.753465,0,0,-13.753465,513.5897,71.200809)" fill="#466699"/>
<use data-text="E" xlink:href="#font_2_2" transform="matrix(13.753465,0,0,-13.753465,524.565,71.200809)" fill="#466699"/>
<use data-text="L" xlink:href="#font_2_5" transform="matrix(13.753465,0,0,-13.753465,532.66586,71.200809)" fill="#466699"/>
<use data-text="Σ" xlink:href="#font_3_1" transform="matrix(88.90825,0,0,-88.90825,5.2658388,170.83203)" fill="#466699"/>
<path transform="matrix(2.4,0,0,2.4,-24.240479,-13.919922)" d="M66.32 17.352C66.32 20.688 63.613 23.391 60.277 23.391 56.941 23.391 54.238 20.688 54.238 17.352 54.238 14.016 56.941 11.309 60.277 11.309 63.613 11.309 66.32 14.016 66.32 17.352" fill="#ffa372"/>
<path transform="matrix(2.4,0,0,2.4,-24.240479,-13.919922)" d="M83.672 17.352C83.672 20.688 80.969 23.391 77.633 23.391 74.297 23.391 71.59 20.688 71.59 17.352 71.59 14.016 74.297 11.309 77.633 11.309 80.969 11.309 83.672 14.016 83.672 17.352" fill="#ffa372"/>
<path transform="matrix(2.4,0,0,2.4,-24.240479,-13.919922)" d="M100.211 17.352C100.211 20.688 97.504 23.391 94.168 23.391 90.832 23.391 88.129 20.688 88.129 17.352 88.129 14.016 90.832 11.309 94.168 11.309 97.504 11.309 100.211 14.016 100.211 17.352" fill="#ffa372"/>
<path transform="matrix(2.4,0,0,2.4,-24.240479,-13.919922)" d="M117.359 17.352C117.359 20.688 114.652 23.391 111.316 23.391 107.98 23.391 105.277 20.688 105.277 17.352 105.277 14.016 107.98 11.309 111.316 11.309 114.652 11.309 117.359 14.016 117.359 17.352" fill="#ffa372"/>
<path transform="matrix(2.4,0,0,2.4,-24.240479,-13.919922)" d="M134.102 17.352C134.102 20.688 131.395 23.391 128.059 23.391 124.723 23.391 122.02 20.688 122.02 17.352 122.02 14.016 124.723 11.309 128.059 11.309 131.395 11.309 134.102 14.016 134.102 17.352" fill="#ffa372"/>
<path transform="matrix(2.4,0,0,2.4,-24.240479,-13.919922)" d="M151.047 17.352C151.047 20.688 148.34 23.391 145.004 23.391 141.668 23.391 138.965 20.688 138.965 17.352 138.965 14.016 141.668 11.309 145.004 11.309 148.34 11.309 151.047 14.016 151.047 17.352" fill="#ffa372"/>
<path transform="matrix(2.4,0,0,2.4,-24.240479,-13.919922)" d="M167.785 17.352C167.785 20.688 165.082 23.391 161.746 23.391 158.41 23.391 155.703 20.688 155.703 17.352 155.703 14.016 158.41 11.309 161.746 11.309 165.082 11.309 167.785 14.016 167.785 17.352" fill="#ffa372"/>
<path transform="matrix(2.4,0,0,2.4,-24.240479,-13.919922)" d="M66.32 117.797C66.32 121.133 63.613 123.836 60.277 123.836 56.941 123.836 54.238 121.133 54.238 117.797 54.238 114.461 56.941 111.754 60.277 111.754 63.613 111.754 66.32 114.461 66.32 117.797" fill="#ffa372"/>
<path transform="matrix(2.4,0,0,2.4,-24.240479,-13.919922)" d="M83.672 117.797C83.672 121.133 80.969 123.836 77.633 123.836 74.297 123.836 71.59 121.133 71.59 117.797 71.59 114.461 74.297 111.754 77.633 111.754 80.969 111.754 83.672 114.461 83.672 117.797" fill="#ffa372"/>
<path transform="matrix(2.4,0,0,2.4,-24.240479,-13.919922)" d="M100.211 117.797C100.211 121.133 97.504 123.836 94.168 123.836 90.832 123.836 88.129 121.133 88.129 117.797 88.129 114.461 90.832 111.754 94.168 111.754 97.504 111.754 100.211 114.461 100.211 117.797" fill="#ffa372"/>
<path transform="matrix(2.4,0,0,2.4,-24.240479,-13.919922)" d="M117.359 117.797C117.359 121.133 114.652 123.836 111.316 123.836 107.98 123.836 105.277 121.133 105.277 117.797 105.277 114.461 107.98 111.754 111.316 111.754 114.652 111.754 117.359 114.461 117.359 117.797" fill="#ffa372"/>
<path transform="matrix(2.4,0,0,2.4,-24.240479,-13.919922)" d="M134.102 117.797C134.102 121.133 131.395 123.836 128.059 123.836 124.723 123.836 122.02 121.133 122.02 117.797 122.02 114.461 124.723 111.754 128.059 111.754 131.395 111.754 134.102 114.461 134.102 117.797" fill="#ffa372"/>
<path transform="matrix(2.4,0,0,2.4,-24.240479,-13.919922)" d="M151.047 117.797C151.047 121.133 148.34 123.836 145.004 123.836 141.668 123.836 138.965 121.133 138.965 117.797 138.965 114.461 141.668 111.754 145.004 111.754 148.34 111.754 151.047 114.461 151.047 117.797" fill="#ffa372"/>
<path transform="matrix(2.4,0,0,2.4,-24.240479,-13.919922)" d="M167.785 117.797C167.785 121.133 165.082 123.836 161.746 123.836 158.41 123.836 155.703 121.133 155.703 117.797 155.703 114.461 158.41 111.754 161.746 111.754 165.082 111.754 167.785 114.461 167.785 117.797" fill="#ffa372"/>
<path transform="matrix(2.4,0,0,2.4,-24.240479,-13.919922)" d="M161.746 95.156C165.082 95.156 167.785 97.859 167.785 101.195 167.785 104.531 165.082 107.238 161.746 107.238 158.41 107.238 155.703 104.531 155.703 101.195 155.703 97.859 158.41 95.156 161.746 95.156" fill="#ffa372"/>
<path transform="matrix(2.4,0,0,2.4,-24.240479,-13.919922)" d="M161.746 78.617C165.082 78.617 167.785 81.324 167.785 84.66 167.785 87.996 165.082 90.699 161.746 90.699 158.41 90.699 155.703 87.996 155.703 84.66 155.703 81.324 158.41 78.617 161.746 78.617" fill="#ffa372"/>
<path transform="matrix(2.4,0,0,2.4,-24.240479,-13.919922)" d="M161.746 61.469C165.082 61.469 167.785 64.176 167.785 67.512 167.785 70.848 165.082 73.551 161.746 73.551 158.41 73.551 155.703 70.848 155.703 67.512 155.703 64.176 158.41 61.469 161.746 61.469" fill="#ffa372"/>
<path transform="matrix(2.4,0,0,2.4,-24.240479,-13.919922)" d="M161.746 44.73C165.082 44.73 167.785 47.434 167.785 50.77 167.785 54.105 165.082 56.812 161.746 56.812 158.41 56.812 155.703 54.105 155.703 50.77 155.703 47.434 158.41 44.73 161.746 44.73" fill="#ffa372"/>
<path transform="matrix(2.4,0,0,2.4,-24.240479,-13.919922)" d="M161.746 27.785C165.082 27.785 167.785 30.488 167.785 33.824 167.785 37.16 165.082 39.867 161.746 39.867 158.41 39.867 155.703 37.16 155.703 33.824 155.703 30.488 158.41 27.785 161.746 27.785" fill="#ffa372"/>
<path transform="matrix(2.4,0,0,2.4,-24.240479,-13.919922)" d="M60.277 95.156C63.613 95.156 66.32 97.859 66.32 101.195 66.32 104.531 63.613 107.238 60.277 107.238 56.941 107.238 54.238 104.531 54.238 101.195 54.238 97.859 56.941 95.156 60.277 95.156" fill="#ffa372"/>
<path transform="matrix(2.4,0,0,2.4,-24.240479,-13.919922)" d="M60.277 78.617C63.613 78.617 66.32 81.324 66.32 84.66 66.32 87.996 63.613 90.699 60.277 90.699 56.941 90.699 54.238 87.996 54.238 84.66 54.238 81.324 56.941 78.617 60.277 78.617" fill="#ffa372"/>
<path transform="matrix(2.4,0,0,2.4,-24.240479,-13.919922)" d="M60.277 61.469C63.613 61.469 66.32 64.176 66.32 67.512 66.32 70.848 63.613 73.551 60.277 73.551 56.941 73.551 54.238 70.848 54.238 67.512 54.238 64.176 56.941 61.469 60.277 61.469" fill="#ffa372"/>
<path transform="matrix(2.4,0,0,2.4,-24.240479,-13.919922)" d="M60.277 44.73C63.613 44.73 66.32 47.434 66.32 50.77 66.32 54.105 63.613 56.812 60.277 56.812 56.941 56.812 54.238 54.105 54.238 50.77 54.238 47.434 56.941 44.73 60.277 44.73" fill="#ffa372"/>
<path transform="matrix(2.4,0,0,2.4,-24.240479,-13.919922)" d="M60.277 27.785C63.613 27.785 66.32 30.488 66.32 33.824 66.32 37.16 63.613 39.867 60.277 39.867 56.941 39.867 54.238 37.16 54.238 33.824 54.238 30.488 56.941 27.785 60.277 27.785" fill="#ffa372"/>
<path transform="matrix(2.4,0,0,2.4,-24.240479,-13.919922)" d="M77.633 95.156C80.969 95.156 83.672 97.859 83.672 101.195 83.672 104.531 80.969 107.238 77.633 107.238 74.297 107.238 71.59 104.531 71.59 101.195 71.59 97.859 74.297 95.156 77.633 95.156" fill="#bc658d"/>
<path transform="matrix(2.4,0,0,2.4,-24.240479,-13.919922)" d="M77.633 78.617C80.969 78.617 83.672 81.324 83.672 84.66 83.672 87.996 80.969 90.699 77.633 90.699 74.297 90.699 71.59 87.996 71.59 84.66 71.59 81.324 74.297 78.617 77.633 78.617" fill="#bc658d"/>
<path transform="matrix(2.4,0,0,2.4,-24.240479,-13.919922)" d="M77.633 61.469C80.969 61.469 83.672 64.176 83.672 67.512 83.672 70.848 80.969 73.551 77.633 73.551 74.297 73.551 71.59 70.848 71.59 67.512 71.59 64.176 74.297 61.469 77.633 61.469" fill="#bc658d"/>
<path transform="matrix(2.4,0,0,2.4,-24.240479,-13.919922)" d="M77.633 44.73C80.969 44.73 83.672 47.434 83.672 50.77 83.672 54.105 80.969 56.812 77.633 56.812 74.297 56.812 71.59 54.105 71.59 50.77 71.59 47.434 74.297 44.73 77.633 44.73" fill="#bc658d"/>
<path transform="matrix(2.4,0,0,2.4,-24.240479,-13.919922)" d="M77.633 27.785C80.969 27.785 83.672 30.488 83.672 33.824 83.672 37.16 80.969 39.867 77.633 39.867 74.297 39.867 71.59 37.16 71.59 33.824 71.59 30.488 74.297 27.785 77.633 27.785" fill="#bc658d"/>
<path transform="matrix(2.4,0,0,2.4,-24.240479,-13.919922)" d="M145.004 95.156C148.34 95.156 151.047 97.859 151.047 101.195 151.047 104.531 148.34 107.238 145.004 107.238 141.668 107.238 138.965 104.531 138.965 101.195 138.965 97.859 141.668 95.156 145.004 95.156" fill="#bc658d"/>
<path transform="matrix(2.4,0,0,2.4,-24.240479,-13.919922)" d="M145.004 78.617C148.34 78.617 151.047 81.324 151.047 84.66 151.047 87.996 148.34 90.699 145.004 90.699 141.668 90.699 138.965 87.996 138.965 84.66 138.965 81.324 141.668 78.617 145.004 78.617" fill="#bc658d"/>
<path transform="matrix(2.4,0,0,2.4,-24.240479,-13.919922)" d="M145.004 61.469C148.34 61.469 151.047 64.176 151.047 67.512 151.047 70.848 148.34 73.551 145.004 73.551 141.668 73.551 138.965 70.848 138.965 67.512 138.965 64.176 141.668 61.469 145.004 61.469" fill="#bc658d"/>
<path transform="matrix(2.4,0,0,2.4,-24.240479,-13.919922)" d="M145.004 44.73C148.34 44.73 151.047 47.434 151.047 50.77 151.047 54.105 148.34 56.812 145.004 56.812 141.668 56.812 138.965 54.105 138.965 50.77 138.965 47.434 141.668 44.73 145.004 44.73" fill="#bc658d"/>
<path transform="matrix(2.4,0,0,2.4,-24.240479,-13.919922)" d="M145.004 27.785C148.34 27.785 151.047 30.488 151.047 33.824 151.047 37.16 148.34 39.867 145.004 39.867 141.668 39.867 138.965 37.16 138.965 33.824 138.965 30.488 141.668 27.785 145.004 27.785" fill="#bc658d"/>
<path transform="matrix(2.4,0,0,2.4,-24.240479,-13.919922)" d="M99.926 101.195C99.926 104.531 97.223 107.238 93.887 107.238 90.547 107.238 87.844 104.531 87.844 101.195 87.844 97.859 90.547 95.156 93.887 95.156 97.223 95.156 99.926 97.859 99.926 101.195" fill="#bc658d"/>
<path transform="matrix(2.4,0,0,2.4,-24.240479,-13.919922)" d="M117.074 101.195C117.074 104.531 114.371 107.238 111.035 107.238 107.699 107.238 104.992 104.531 104.992 101.195 104.992 97.859 107.699 95.156 111.035 95.156 114.371 95.156 117.074 97.859 117.074 101.195" fill="#bc658d"/>
<path transform="matrix(2.4,0,0,2.4,-24.240479,-13.919922)" d="M133.816 101.195C133.816 104.531 131.113 107.238 127.777 107.238 124.438 107.238 121.734 104.531 121.734 101.195 121.734 97.859 124.438 95.156 127.777 95.156 131.113 95.156 133.816 97.859 133.816 101.195" fill="#bc658d"/>
<path transform="matrix(2.4,0,0,2.4,-24.240479,-13.919922)" d="M99.926 33.824C99.926 37.16 97.223 39.867 93.887 39.867 90.547 39.867 87.844 37.16 87.844 33.824 87.844 30.488 90.547 27.785 93.887 27.785 97.223 27.785 99.926 30.488 99.926 33.824" fill="#bc658d"/>
<path transform="matrix(2.4,0,0,2.4,-24.240479,-13.919922)" d="M117.074 33.824C117.074 37.16 114.371 39.867 111.035 39.867 107.699 39.867 104.992 37.16 104.992 33.824 104.992 30.488 107.699 27.785 111.035 27.785 114.371 27.785 117.074 30.488 117.074 33.824" fill="#bc658d"/>
<path transform="matrix(2.4,0,0,2.4,-24.240479,-13.919922)" d="M133.816 33.824C133.816 37.16 131.113 39.867 127.777 39.867 124.438 39.867 121.734 37.16 121.734 33.824 121.734 30.488 124.438 27.785 127.777 27.785 131.113 27.785 133.816 30.488 133.816 33.824" fill="#bc658d"/>
<path transform="matrix(2.4,0,0,2.4,-24.240479,-13.919922)" d="M99.926 50.77C99.926 54.105 97.223 56.812 93.887 56.812 90.547 56.812 87.844 54.105 87.844 50.77 87.844 47.434 90.547 44.73 93.887 44.73 97.223 44.73 99.926 47.434 99.926 50.77" fill="#ffa372"/>
<path transform="matrix(2.4,0,0,2.4,-24.240479,-13.919922)" d="M117.074 50.77C117.074 54.105 114.371 56.812 111.035 56.812 107.699 56.812 104.992 54.105 104.992 50.77 104.992 47.434 107.699 44.73 111.035 44.73 114.371 44.73 117.074 47.434 117.074 50.77" fill="#ffa372"/>
<path transform="matrix(2.4,0,0,2.4,-24.240479,-13.919922)" d="M133.816 50.77C133.816 54.105 131.113 56.812 127.777 56.812 124.438 56.812 121.734 54.105 121.734 50.77 121.734 47.434 124.438 44.73 127.777 44.73 131.113 44.73 133.816 47.434 133.816 50.77" fill="#ffa372"/>
<path transform="matrix(2.4,0,0,2.4,-24.240479,-13.919922)" d="M99.926 67.512C99.926 70.848 97.223 73.551 93.887 73.551 90.547 73.551 87.844 70.848 87.844 67.512 87.844 64.176 90.547 61.469 93.887 61.469 97.223 61.469 99.926 64.176 99.926 67.512" fill="#ffa372"/>
<path transform="matrix(2.4,0,0,2.4,-24.240479,-13.919922)" d="M117.074 67.512C117.074 70.848 114.371 73.551 111.035 73.551 107.699 73.551 104.992 70.848 104.992 67.512 104.992 64.176 107.699 61.469 111.035 61.469 114.371 61.469 117.074 64.176 117.074 67.512" fill="#ffa372"/>
<path transform="matrix(2.4,0,0,2.4,-24.240479,-13.919922)" d="M133.816 67.512C133.816 70.848 131.113 73.551 127.777 73.551 124.438 73.551 121.734 70.848 121.734 67.512 121.734 64.176 124.438 61.469 127.777 61.469 131.113 61.469 133.816 64.176 133.816 67.512" fill="#ffa372"/>
<path transform="matrix(2.4,0,0,2.4,-24.240479,-13.919922)" d="M99.926 84.355C99.926 87.691 97.223 90.395 93.887 90.395 90.547 90.395 87.844 87.691 87.844 84.355 87.844 81.016 90.547 78.312 93.887 78.312 97.223 78.312 99.926 81.016 99.926 84.355" fill="#ffa372"/>
<path transform="matrix(2.4,0,0,2.4,-24.240479,-13.919922)" d="M117.074 84.355C117.074 87.691 114.371 90.395 111.035 90.395 107.699 90.395 104.992 87.691 104.992 84.355 104.992 81.016 107.699 78.312 111.035 78.312 114.371 78.312 117.074 81.016 117.074 84.355" fill="#ffa372"/>
<path transform="matrix(2.4,0,0,2.4,-24.240479,-13.919922)" d="M133.816 84.355C133.816 87.691 131.113 90.395 127.777 90.395 124.438 90.395 121.734 87.691 121.734 84.355 121.734 81.016 124.438 78.312 127.777 78.312 131.113 78.312 133.816 81.016 133.816 84.355" fill="#ffa372"/>
<path transform="matrix(2.4,0,0,2.4,-24.240479,-13.919922)" d="M102.578 92.629H53.102C52.434 92.629 51.762 92.609 51.098 92.629 51.066 92.629 51.039 92.629 51.008 92.629 51.23 92.852 51.453 93.074 51.676 93.297V43.82C51.676 43.152 51.695 42.48 51.676 41.812 51.672 41.785 51.676 41.754 51.676 41.727 51.453 41.949 51.23 42.172 51.008 42.391H100.484C101.152 42.391 101.824 42.414 102.488 42.391 102.52 42.391 102.547 42.391 102.578 42.391 102.355 42.172 102.133 41.949 101.91 41.727V91.203C101.91 91.871 101.898 92.539 101.91 93.207 101.91 93.238 101.91 93.266 101.91 93.297 101.91 94.152 103.242 94.152 103.242 93.297V43.82C103.242 43.152 103.254 42.48 103.242 41.812 103.242 41.785 103.242 41.754 103.242 41.727 103.242 41.367 102.938 41.059 102.578 41.059H53.102C52.434 41.059 51.766 41.051 51.098 41.059 51.066 41.059 51.039 41.059 51.008 41.059 50.648 41.059 50.344 41.363 50.344 41.727V91.203C50.344 91.871 50.332 92.539 50.344 93.207 50.344 93.238 50.344 93.266 50.344 93.297 50.344 93.656 50.648 93.961 51.008 93.961H100.484C101.152 93.961 101.82 93.973 102.488 93.961 102.52 93.961 102.547 93.961 102.578 93.961 103.434 93.961 103.438 92.629 102.578 92.629" fill="#397774"/>
<path transform="matrix(2.4,0,0,2.4,-24.240479,-13.919922)" d="M249.898 92.691H200.422C199.754 92.691 199.082 92.668 198.414 92.691 198.387 92.691 198.355 92.691 198.328 92.691 198.551 92.914 198.773 93.137 198.992 93.359V43.883C198.992 43.215 199.016 42.543 198.992 41.875 198.992 41.848 198.992 41.816 198.992 41.789 198.773 42.012 198.551 42.234 198.328 42.453H247.805C248.469 42.453 249.141 42.477 249.809 42.453 249.84 42.453 249.867 42.453 249.898 42.453 249.676 42.234 249.453 42.012 249.23 41.789V91.266C249.23 91.934 249.219 92.602 249.23 93.27 249.23 93.301 249.23 93.328 249.23 93.359 249.23 94.215 250.562 94.215 250.562 93.359V43.883C250.562 43.215 250.574 42.543 250.562 41.875 250.562 41.848 250.562 41.816 250.562 41.789 250.562 41.43 250.258 41.121 249.898 41.121H200.422C199.754 41.121 199.082 41.109 198.414 41.121 198.387 41.121 198.355 41.121 198.328 41.121 197.969 41.121 197.66 41.426 197.66 41.789V91.266C197.66 91.934 197.652 92.602 197.66 93.27 197.66 93.301 197.66 93.328 197.66 93.359 197.66 93.719 197.965 94.023 198.328 94.023H247.805C248.473 94.023 249.141 94.035 249.809 94.023 249.84 94.023 249.867 94.023 249.898 94.023 250.754 94.023 250.754 92.691 249.898 92.691" fill="#466699"/>
<path transform="matrix(2.4,0,0,2.4,95.759998,2.880005)" d="M.789 6.582C.785 4.719 .777 2.867 .773 1.062V.828H1.008C3.238 .824 5.422 .824 7.586 .824 18.426 .793 30.266 .77 37.277 .973 27.723 .898 17.82 .832 7.586 .824 16.332 .801 11.543 .828 1.008 .844H.789V1.062C.793 2.254 .793 3.52 .797 4.844 .789 5.145 .789 5.789 .789 6.582M.703 10.301C.746 12.309 .797 14.258 .852 16.289 .859 17.008 .863 17.719 .871 18.434 .883 19.32 .879 20.273 .867 21.262 .922 25.086 .973 28.895 1.027 32.715 .906 28.895 .797 24.914 .762 20.094 .789 31.789 1.055 41.918 1.25 52.629L1.008 52.391C1.691 52.379 2.383 52.367 3.078 52.355 6.539 52.324 10.039 52.305 13.617 52.293 16.141 52.289 18.609 52.305 21.055 52.32 14.375 52.379 7.699 52.469 1.008 52.559L1.082 52.629C.848 35.492 .59 18.41 .43 1.062L.426 .488 1.008 .484C7.965 .418 14.969 .371 22.035 .348 14.949 .441 8.035 .531 1.008 .625L.566 .633 .574 1.062C.617 4.098 .66 7.18 .703 10.301M48.289 51.898C42.387 51.875 37.047 51.836 31.566 51.773 27.316 51.734 23.301 51.742 19.219 51.77 15.125 51.797 10.98 51.828 6.516 51.859 4.629 51.871 2.801 51.879 1.008 51.887L1.75 52.629C1.742 50.141 1.738 47.699 1.73 45.188 1.633 36.383 1.562 26.699 1.562 16.707 1.547 15.629 1.508 12.469 1.648 12.766 1.613 8.824 1.578 4.926 1.543 1.062L1.008 1.598C6.648 1.555 12.227 1.535 17.793 1.578 21.734 1.594 25.84 1.477 29.781 1.492 36.191 1.539 42.496 1.395 48.77 1.41 49.641 1.434 51.527 1.504 52.258 1.496 52.363 1.496 52.473 1.492 52.578 1.492L52.148 1.062C52.215 5.297 52.191 9.383 52.148 13.391 52.105 17.398 52.043 21.332 52.016 25.309 52.004 28.477 51.984 30.918 52.008 33.957 51.957 34.203 51.969 34.938 51.953 35.789 51.961 36.941 52.016 40.746 52.074 44.426 52.133 48.102 52.195 51.66 52.227 52.277 52.242 52.586 52.223 46.254 52.215 39.91 52.219 36.738 52.219 33.562 52.219 31.207 52.223 28.852 52.234 27.32 52.25 27.441 52.285 28.047 52.289 44.32 52.312 45.789 52.402 30.66 52.531 21.055 52.602 15.5 52.676 9.945 52.707 8.453 52.711 9.461 52.715 11.48 52.59 23.484 52.488 32.727 52.5 35.641 52.414 39.711 52.418 45.332 52.438 43.676 52.488 41.18 52.539 38.895 52.59 36.605 52.645 34.527 52.648 33.723 52.742 26.34 52.824 27.512 52.824 19.008 52.824 14.191 52.914 7 52.98 1.062L52.984 .66 52.578 .656C49.887 .629 47.477 .605 45.641 .586 47.199 .641 49.797 .73 52.578 .797L52.848 .805 52.84 1.062C52.773 3.809 52.719 6.719 52.73 8.977 52.691 5.547 52.711 3.156 52.758 1.062L52.762 .887 52.578 .883C48.609 .797 45.711 .629 38.98 .648 38.02 .648 36.91 .633 35.711 .613 34.562 .629 33.48 .641 32.125 .66 23.656 .668 16.23 .57 7.898 .609 8.613 .613 9.07 .547 9.797 .535 16.98 .414 23.086 .562 30.684 .531 32.141 .512 34.168 .613 35.711 .613 38.844 .621 41.621 .551 44.547 .516 38.73 .43 31.863 .449 25.586 .434 24.281 .422 22.711 .355 21.699 .316 24.594 .312 27.504 .312 30.43 .309 37.32 .328 45.641 .477 52.578 .516H53.129L53.125 1.062C53.105 4.438 53.113 7.48 53.168 9.902 53.164 10.125 53.16 10.34 53.148 10.785 53.156 10.895 53.16 11.051 53.164 11.223 53.156 12.664 53.164 14.391 53.203 15.961L53.199 11.973C53.277 8.492 53.316 4.824 53.332 1.062L53.336 .309 52.578 .305C45.246 .27 37.562 .301 30.148 .246 27.672 .215 23.566 .332 21.09 .297 14.504 .234 7.656 .254 1.008 .328L.266 .336 .273 1.062C.281 1.777 .293 2.484 .301 3.188 .469 19.758 .648 36.273 .863 52.629V52.777H1.008C10.719 52.645 20.363 52.516 29.934 52.387 30.535 52.391 31.133 52.391 31.727 52.395 31.469 52.406 31.223 52.418 30.977 52.43 31.531 52.418 32.086 52.41 32.637 52.398 35.938 52.406 39.176 52.395 42.34 52.344 43.625 52.309 40.012 52.332 38.977 52.285 39.699 52.281 40.422 52.277 40.422 52.277 40.422 52.277 40.266 52.25 40.109 52.227 40.68 52.238 40.988 52.211 41.367 52.195 34.227 52.16 27.047 52.121 19.84 52.113 20.641 52.035 22.777 52.055 23.785 52.047 26.176 52.074 28.57 52.098 30.734 52.082 36.809 52.121 43.004 52.035 48.82 52.051 49.883 52.039 50.938 52.027 51.961 52.016 52.188 51.773 52.23 51.707 52.145 51.773 52.098 51.805 52.023 51.871 51.922 51.961 51.918 51.969 51.91 51.969 51.898 51.969L51.871 51.965C51.855 51.965 51.836 51.965 51.816 51.965 51.777 51.961 51.734 51.961 51.691 51.957 51.605 51.957 51.512 51.953 51.41 51.949 50.602 51.922 49.367 51.898 48.289 51.898" fill="#e6222e" fill-opacity=".8"/>
<g clip-path="url(#clip_4)">
<path transform="matrix(2.4,0,0,2.4,95.759998,2.880005)" d="M14.797 52.676C19.258 52.586 23.785 52.496 28.242 52.402 26.574 52.488 25.105 52.566 23.117 52.637 17.734 52.793 11.578 52.812 5.855 52.918 4.258 52.945 2.652 52.973 1.008 53.004L.645 53.008 .637 52.629C.391 37.727 .262 22.238 .207 6.414 .195 5.551 .184 3.641 .207 2.203 .352 19.523 .492 36.055 .734 52.629L.738 52.91 1.008 52.902C5.594 52.828 10.184 52.754 14.797 52.676" fill="#e6222e" fill-opacity=".8"/>
</g>
<path transform="matrix(2.4,0,0,2.4,95.759998,2.880005)" d="M28.102 .074C31.312 .098 34.516 .121 37.586 .117 34.797 .184 30.996 .199 27.934 .207 23.625 .199 19.312 .195 15.055 .188 19.312 .129 23.625 .086 28.102 .074" fill="#e6222e" fill-opacity=".8"/>
<path transform="matrix(2.4,0,0,2.4,95.759998,2.880005)" d="M.207 2.203 .195 1.062 .191 .258 1.008 .25 2.523 .238C6.613 .203 10.809 .188 15.055 .188 10.562 .25 6.125 .312 1.621 .375 1.625 .34 1.398 .312 1.008 .293L.285 .258 .242 1.062C.227 1.352 .215 1.754 .207 2.203" fill="#e6222e" fill-opacity=".8"/>
<path transform="matrix(2.4,0,0,2.4,-24.240479,-13.919922)" d="M182.695 66.891 184.328 65.254 184.996 65.922 183.359 67.555 185 69.199 184.301 69.898 182.66 68.254 181.059 69.855 180.395 69.191 181.996 67.59 180.352 65.949 181.051 65.25 182.695 66.891Z" fill="#466699"/>
<path transform="matrix(2.4,0,0,2.4,-24.240479,-13.919922)" d="M230.93 50.363C230.93 53.699 228.223 56.402 224.887 56.402 221.551 56.402 218.848 53.699 218.848 50.363 218.848 47.023 221.551 44.32 224.887 44.32 228.223 44.32 230.93 47.023 230.93 50.363" fill="#f6d887"/>
<path transform="matrix(2.4,0,0,2.4,-24.240479,-13.919922)" d="M247.535 50.363C247.535 53.699 244.828 56.402 241.492 56.402 238.156 56.402 235.453 53.699 235.453 50.363 235.453 47.023 238.156 44.32 241.492 44.32 244.828 44.32 247.535 47.023 247.535 50.363" fill="#f6d887"/>
<path transform="matrix(2.4,0,0,2.4,-24.240479,-13.919922)" d="M213.184 50.363C213.184 53.699 210.477 56.402 207.141 56.402 203.805 56.402 201.102 53.699 201.102 50.363 201.102 47.023 203.805 44.32 207.141 44.32 210.477 44.32 213.184 47.023 213.184 50.363" fill="#f6d887"/>
<path transform="matrix(2.4,0,0,2.4,-24.240479,-13.919922)" d="M230.93 67.512C230.93 70.848 228.223 73.551 224.887 73.551 221.551 73.551 218.848 70.848 218.848 67.512 218.848 64.176 221.551 61.469 224.887 61.469 228.223 61.469 230.93 64.176 230.93 67.512" fill="#bc658d"/>
<path transform="matrix(2.4,0,0,2.4,-24.240479,-13.919922)" d="M247.535 67.512C247.535 70.848 244.828 73.551 241.492 73.551 238.156 73.551 235.453 70.848 235.453 67.512 235.453 64.176 238.156 61.469 241.492 61.469 244.828 61.469 247.535 64.176 247.535 67.512" fill="#bc658d"/>
<path transform="matrix(2.4,0,0,2.4,-24.240479,-13.919922)" d="M213.184 67.512C213.184 70.848 210.477 73.551 207.141 73.551 203.805 73.551 201.102 70.848 201.102 67.512 201.102 64.176 203.805 61.469 207.141 61.469 210.477 61.469 213.184 64.176 213.184 67.512" fill="#f6d887"/>
<path transform="matrix(2.4,0,0,2.4,-24.240479,-13.919922)" d="M230.93 84.66C230.93 87.996 228.223 90.699 224.887 90.699 221.551 90.699 218.848 87.996 218.848 84.66 218.848 81.324 221.551 78.617 224.887 78.617 228.223 78.617 230.93 81.324 230.93 84.66" fill="#bc658d"/>
<path transform="matrix(2.4,0,0,2.4,-24.240479,-13.919922)" d="M247.535 84.66C247.535 87.996 244.828 90.699 241.492 90.699 238.156 90.699 235.453 87.996 235.453 84.66 235.453 81.324 238.156 78.617 241.492 78.617 244.828 78.617 247.535 81.324 247.535 84.66" fill="#f6d887"/>
<path transform="matrix(2.4,0,0,2.4,-24.240479,-13.919922)" d="M213.184 84.66C213.184 87.996 210.477 90.699 207.141 90.699 203.805 90.699 201.102 87.996 201.102 84.66 201.102 81.324 203.805 78.617 207.141 78.617 210.477 78.617 213.184 81.324 213.184 84.66" fill="#f6d887"/>
<path transform="matrix(2.4,0,0,2.4,-24.240479,-13.919922)" d="M305.988 50.363C305.988 53.699 303.281 56.402 299.945 56.402 296.609 56.402 293.906 53.699 293.906 50.363 293.906 47.023 296.609 44.32 299.945 44.32 303.281 44.32 305.988 47.023 305.988 50.363" fill="#bc658d"/>
<path transform="matrix(2.4,0,0,2.4,-24.240479,-13.919922)" d="M322.594 50.363C322.594 53.699 319.887 56.402 316.551 56.402 313.215 56.402 310.512 53.699 310.512 50.363 310.512 47.023 313.215 44.32 316.551 44.32 319.887 44.32 322.594 47.023 322.594 50.363" fill="#bc658d"/>
<path transform="matrix(2.4,0,0,2.4,-24.240479,-13.919922)" d="M288.242 50.363C288.242 53.699 285.535 56.402 282.199 56.402 278.863 56.402 276.16 53.699 276.16 50.363 276.16 47.023 278.863 44.32 282.199 44.32 285.535 44.32 288.242 47.023 288.242 50.363" fill="#a9294f"/>
<path transform="matrix(2.4,0,0,2.4,-24.240479,-13.919922)" d="M305.988 67.512C305.988 70.848 303.281 73.551 299.945 73.551 296.609 73.551 293.906 70.848 293.906 67.512 293.906 64.176 296.609 61.469 299.945 61.469 303.281 61.469 305.988 64.176 305.988 67.512" fill="#f6d887"/>
<path transform="matrix(2.4,0,0,2.4,-24.240479,-13.919922)" d="M322.594 67.512C322.594 70.848 319.887 73.551 316.551 73.551 313.215 73.551 310.512 70.848 310.512 67.512 310.512 64.176 313.215 61.469 316.551 61.469 319.887 61.469 322.594 64.176 322.594 67.512" fill="#bc658d"/>
<path transform="matrix(2.4,0,0,2.4,-24.240479,-13.919922)" d="M288.242 67.512C288.242 70.848 285.535 73.551 282.199 73.551 278.863 73.551 276.16 70.848 276.16 67.512 276.16 64.176 278.863 61.469 282.199 61.469 285.535 61.469 288.242 64.176 288.242 67.512" fill="#bc658d"/>
<path transform="matrix(2.4,0,0,2.4,-24.240479,-13.919922)" d="M305.988 84.66C305.988 87.996 303.281 90.699 299.945 90.699 296.609 90.699 293.906 87.996 293.906 84.66 293.906 81.324 296.609 78.617 299.945 78.617 303.281 78.617 305.988 81.324 305.988 84.66" fill="#bc658d"/>
<path transform="matrix(2.4,0,0,2.4,-24.240479,-13.919922)" d="M322.594 84.66C322.594 87.996 319.887 90.699 316.551 90.699 313.215 90.699 310.512 87.996 310.512 84.66 310.512 81.324 313.215 78.617 316.551 78.617 319.887 78.617 322.594 81.324 322.594 84.66" fill="#ffa372"/>
<path transform="matrix(2.4,0,0,2.4,-24.240479,-13.919922)" d="M288.242 84.66C288.242 87.996 285.535 90.699 282.199 90.699 278.863 90.699 276.16 87.996 276.16 84.66 276.16 81.324 278.863 78.617 282.199 78.617 285.535 78.617 288.242 81.324 288.242 84.66" fill="#bc658d"/>
<use data-text="=" xlink:href="#font_5_6" transform="matrix(23.029034,0,0,-23.029034,598.8816,154.90076)" fill="#466699"/>
<g clip-path="url(#clip_6)">
<path transform="matrix(2.4,0,0,2.4,628.56246,82.08008)" d="M1.656 8.816C1.449 9.945 1.461 11.102 1.688 12.203 1.828 12.957 2.074 13.707 2.406 14.406 2.742 15.105 3.164 15.758 3.645 16.312 4.125 16.867 4.652 17.332 5.18 17.691 5.703 18.051 6.227 18.305 6.688 18.465 6.086 18.188 5.512 17.84 4.973 17.43 4.438 17.016 3.941 16.535 3.504 16 2.617 14.93 1.984 13.617 1.688 12.203 1.723 12.371 1.754 12.523 1.781 12.652 1.816 12.785 1.848 12.898 1.875 12.996 1.926 13.191 1.977 13.316 1.996 13.383 2.043 13.52 2.012 13.418 1.918 13.125 1.836 12.832 1.699 12.34 1.613 11.684 1.527 11.031 1.488 10.211 1.598 9.301 1.602 9.215 1.613 9.035 1.656 8.816M1.785 7.766C1.992 7.23 2.262 6.742 2.574 6.266L2.723 6.004C2.773 5.922 2.828 5.836 2.883 5.754 2.949 5.648 3.02 5.543 3.09 5.434 3.125 5.375 3.16 5.32 3.195 5.262 3.23 5.207 3.27 5.148 3.305 5.09 3.977 4.262 4.777 3.562 5.672 3.027 5.203 3.258 4.738 3.543 4.285 3.91 3.836 4.277 3.398 4.727 3.008 5.285 3.992 3.82 5.367 2.816 6.816 2.254 7.547 1.977 8.297 1.805 9.051 1.727 9.805 1.66 10.559 1.672 11.305 1.785 11.758 1.828 12.207 1.918 12.652 2.031 13.098 2.145 13.539 2.293 13.965 2.48 14.57 2.73 15.141 3.035 15.672 3.387 14.883 2.766 13.984 2.266 13.016 1.945 12.047 1.625 11.008 1.461 9.965 1.488 8.922 1.516 7.871 1.715 6.875 2.113 5.883 2.508 4.949 3.082 4.133 3.809 2.504 5.266 1.371 7.367 1.121 9.648 .84 11.914 1.445 14.344 2.844 16.266 1.164 13.691 .77 10.516 1.785 7.766M18.391 9.516C18.336 8.812 18.191 8.152 17.953 7.543 17.719 6.93 17.398 6.363 17 5.848 16.398 5.039 15.715 4.344 14.914 3.77 14.113 3.195 13.184 2.742 12.105 2.527 11.039 2.305 10 2.324 8.957 2.551 7.898 2.727 6.809 3.148 5.836 3.84 4.867 4.527 4.016 5.465 3.441 6.586 3.41 6.645 3.355 6.727 3.305 6.828 3.254 6.926 3.203 7.035 3.16 7.141 3.082 7.352 3.047 7.527 3.145 7.523 2.672 8.625 2.449 9.836 2.508 11.031 2.566 12.227 2.914 13.406 3.539 14.414 3.789 14.844 4.047 15.281 4.352 15.695 4.652 16.109 4.996 16.5 5.391 16.812 5.719 17.062 6.047 17.301 6.387 17.52 6.73 17.738 7.086 17.941 7.449 18.117 7.816 18.289 8.195 18.445 8.586 18.562 8.977 18.672 9.375 18.766 9.777 18.801 9.891 18.805 10.074 18.785 10.246 18.773 10.418 18.762 10.586 18.738 10.68 18.75 11.789 18.852 12.875 18.617 13.82 18.176 14.773 17.734 15.598 17.094 16.301 16.363 16.863 15.797 17.219 15.293 17.633 14.66 17.605 14.562 17.703 14.41 17.789 14.215 17.855 14.086 18.008 13.824 18.176 13.48 18.34 13.137 18.516 12.711 18.652 12.273 18.941 11.406 19.012 10.512 19.07 10.363 19.078 10.344 19.082 10.43 19.082 10.598 19.086 10.762 19.078 11.008 19.051 11.309 18.996 11.902 18.848 12.711 18.547 13.469 18.266 14.238 17.844 14.949 17.488 15.445 17.133 15.941 16.859 16.23 16.898 16.227 16.973 16.199 17.742 15.391 18.262 14.383 18.527 13.883 18.738 13.352 18.867 12.918 19 12.484 19.066 12.156 19.094 12.066 18.945 13.047 18.656 13.922 18.277 14.66 17.91 15.406 17.465 16.02 17.027 16.527 16.137 17.543 15.25 18.121 14.586 18.492 14.25 18.672 13.969 18.809 13.738 18.906 13.621 18.953 13.52 18.996 13.434 19.031 13.344 19.066 13.27 19.094 13.207 19.117 12.965 19.211 12.93 19.223 13.066 19.191 13.203 19.156 13.504 19.07 13.906 18.906 14.301 18.742 14.797 18.5 15.309 18.172 15.816 17.84 16.344 17.422 16.812 16.938 17.281 16.453 17.695 15.914 18.016 15.375 18.469 14.738 18.93 13.699 19.246 12.246 19.188 12.684 19.078 13.359 18.891 13.969 18.711 14.578 18.469 15.113 18.352 15.301 18.098 15.746 17.895 16.055 17.719 16.297 17.551 16.547 17.406 16.727 17.258 16.91 17.176 17 17.094 17.094 17.004 17.191 16.91 17.289 16.801 17.387 16.676 17.504 16.418 17.723 16.086 17.996 15.574 18.305 15.152 18.555 14.641 18.832 14.066 19.074 13.492 19.312 12.859 19.516 12.215 19.648 11.57 19.785 10.914 19.848 10.32 19.848 9.723 19.848 9.184 19.789 8.758 19.715 9.211 19.742 9.965 19.746 10.742 19.656 11.527 19.57 12.324 19.387 12.941 19.25 12.266 19.371 11.73 19.438 11.27 19.492 10.805 19.535 10.406 19.586 10 19.602 9.598 19.625 9.18 19.625 8.688 19.559 8.195 19.492 7.621 19.355 6.945 19.043 6.691 18.934 6.395 18.812 6.078 18.66 5.938 18.57 5.801 18.484 5.668 18.383 5.598 18.332 5.527 18.281 5.453 18.23 5.383 18.172 5.312 18.113 5.234 18.055 4.25 17.332 3.434 16.504 2.785 15.555 2.141 14.609 1.66 13.539 1.434 12.348 1.488 12.547 1.422 12.699 1.473 12.91 1.57 13.43 1.734 13.918 1.938 14.375 2.141 14.836 2.387 15.27 2.672 15.676 2.957 16.082 3.273 16.473 3.625 16.848 3.98 17.219 4.367 17.582 4.801 17.934 4.957 18.078 5.184 18.203 5.414 18.328 5.527 18.387 5.645 18.441 5.758 18.5 5.871 18.555 5.98 18.605 6.078 18.66 6.477 18.883 6.852 19.086 7.238 19.266 7.621 19.449 8.012 19.602 8.422 19.734 7.578 19.582 6.68 19.258 5.852 18.777 5.016 18.305 4.25 17.684 3.609 17.008 3.469 16.871 3.316 16.723 3.16 16.586 3.012 16.445 2.859 16.316 2.754 16.203 3.008 16.559 3.285 16.902 3.59 17.219 3.891 17.539 4.215 17.836 4.562 18.113 5.172 18.586 5.895 19.012 6.676 19.32 7.066 19.48 7.473 19.602 7.879 19.711 8.086 19.758 8.285 19.812 8.492 19.844 8.594 19.863 8.699 19.883 8.801 19.898 8.902 19.914 9.004 19.926 9.105 19.941 9.922 20.047 10.711 20.043 11.426 19.988 12.145 19.934 12.785 19.828 13.328 19.742 13.387 19.719 13.449 19.695 13.57 19.645 13.605 19.645 13.648 19.641 13.699 19.625 14.102 19.496 14.574 19.32 15.016 19.172 14.656 19.332 14.293 19.484 13.922 19.602 12.516 20.238 10.793 20.445 9.109 20.176 7.418 19.91 5.793 19.152 4.445 18.121 4.141 17.895 3.781 17.543 3.465 17.156 3.145 16.77 2.852 16.367 2.625 16.07 1.953 15.195 1.438 14.156 1.148 13.059 1.004 12.512 .91 11.949 .871 11.391 .836 10.828 .852 10.27 .914 9.723 1.121 7.746 1.957 5.871 3.227 4.422 4.488 2.969 6.176 1.934 7.98 1.48 9.785 1.023 11.688 1.145 13.355 1.77 15.023 2.391 16.453 3.52 17.418 4.91 17.516 5.035 17.621 5.152 17.711 5.281 17.688 5.215 17.66 5.148 17.633 5.086 17.711 5.211 17.777 5.348 17.852 5.477 18.098 5.832 18.312 6.207 18.484 6.598 18.648 6.992 18.781 7.398 18.859 7.809 18.879 7.984 18.836 7.836 18.758 7.625 18.742 7.57 18.723 7.516 18.699 7.457 18.676 7.398 18.652 7.34 18.629 7.285 18.578 7.176 18.535 7.078 18.492 7.027 18.527 7.113 18.551 7.207 18.574 7.273 18.594 7.34 18.609 7.383 18.609 7.383 18.609 7.383 18.559 7.363 18.508 7.348 18.582 7.473 18.562 7.566 18.566 7.672 18.418 7.246 18.238 6.828 18.023 6.43 17.805 6.035 17.551 5.652 17.273 5.297 16.715 4.578 16.031 3.953 15.27 3.449 15.332 3.547 15.469 3.676 15.621 3.797 15.766 3.922 15.922 4.039 16.012 4.133 16.484 4.5 16.918 4.926 17.223 5.379 17.457 5.676 17.668 6 17.84 6.344 17.934 6.512 18.004 6.691 18.082 6.863 18.148 7.043 18.223 7.219 18.277 7.402 18.512 8.125 18.613 8.871 18.656 9.582 18.652 9.715 18.645 9.848 18.637 9.977 18.621 10.105 18.605 10.234 18.586 10.363 18.57 10.453 18.551 10.473 18.531 10.441 18.523 10.43 18.512 10.402 18.504 10.363 18.492 10.332 18.48 10.293 18.473 10.246 18.449 10.152 18.438 10.031 18.422 9.906 18.402 9.777 18.398 9.641 18.391 9.516" fill="#e6222e" fill-opacity=".8"/>
</g>
<g clip-path="url(#clip_7)">
<path transform="matrix(2.4,0,0,2.4,628.56246,82.08008)" d="M14.434 2.133C15.508 2.754 16.449 3.586 17.148 4.555 16.93 4.141 16.715 3.777 16.348 3.359 16.094 3.082 15.797 2.832 15.48 2.594 15.156 2.363 14.812 2.145 14.445 1.961 13.719 1.586 12.918 1.324 12.129 1.137 10.988 .867 9.77 .828 8.562 1.035 7.355 1.242 6.168 1.703 5.102 2.395 4.039 3.082 3.098 4.004 2.371 5.09 1.645 6.176 1.137 7.426 .902 8.742 .871 8.867 .844 9.078 .809 9.309 .797 9.426 .789 9.547 .781 9.668 .773 9.785 .773 9.906 .781 10.016 .895 8.336 1.441 6.727 2.316 5.375 2.75 4.695 3.277 4.086 3.852 3.543 4.43 3.004 5.074 2.547 5.754 2.168 6.438 1.797 7.164 1.512 7.902 1.32 8.645 1.129 9.406 1.039 10.16 1.039 10.914 1.035 11.664 1.133 12.383 1.316 13.102 1.5 13.797 1.773 14.434 2.133" fill="#e6222e" fill-opacity=".8"/>
</g>
<path transform="matrix(2.4,0,0,2.4,628.56246,82.08008)" d="M3.824 17.875C4.203 18.199 4.602 18.504 5.012 18.773 5.426 19.039 5.848 19.281 6.273 19.496 5.906 19.266 5.48 18.988 5.062 18.684 4.641 18.379 4.242 18.039 3.902 17.715 2.926 16.824 2.129 15.738 1.586 14.547 2.062 15.766 2.809 16.918 3.824 17.875" fill="#e6222e" fill-opacity=".8"/>
<path transform="matrix(2.4,0,0,2.4,628.56246,82.08008)" d="M.781 10.016C.773 10.148 .762 10.281 .758 10.418 .758 10.551 .754 10.688 .754 10.824 .766 12.07 1.047 13.359 1.586 14.547 1.086 13.258 .879 11.891 .926 10.543 .883 10.547 .852 10.492 .824 10.395 .797 10.301 .789 10.168 .781 10.016" fill="#e6222e" fill-opacity=".8"/>
<path transform="matrix(2.4,0,0,2.4,-24.240479,-13.919922)" d="M290.828 67.574C290.82 69.371 290.262 71.121 289.223 72.586 288.227 73.984 286.793 75.082 285.18 75.668 283.477 76.289 281.598 76.359 279.852 75.867 278.172 75.391 276.668 74.398 275.555 73.055 274.434 71.707 273.742 70 273.613 68.25 273.48 66.453 273.898 64.652 274.832 63.109 275.734 61.625 277.078 60.438 278.656 59.715 280.281 58.973 282.156 58.766 283.906 59.121 285.633 59.469 287.223 60.348 288.438 61.617 289.656 62.891 290.453 64.52 290.727 66.254 290.797 66.691 290.824 67.133 290.828 67.574 290.828 68 291.492 68.004 291.492 67.574 291.488 65.66 290.898 63.766 289.785 62.207 288.688 60.672 287.148 59.492 285.379 58.844 283.562 58.18 281.531 58.109 279.676 58.637 277.875 59.148 276.242 60.211 275.055 61.652 273.836 63.137 273.098 64.957 272.949 66.875 272.801 68.785 273.262 70.734 274.258 72.371 275.219 73.961 276.664 75.262 278.363 76.023 280.152 76.832 282.16 77.059 284.082 76.668 285.914 76.297 287.621 75.348 288.91 74 290.211 72.641 291.094 70.887 291.379 69.023 291.453 68.543 291.492 68.059 291.492 67.574 291.492 67.145 290.828 67.145 290.828 67.574" fill="#397774"/>
</g>
</svg>