<svg xmlns="http://www.w3.org/2000/svg" xmlns:xlink="http://www.w3.org/1999/xlink" width="1050" height="340">
<defs>
<clipPath id="clip_1">
<path transform="matrix(2.4,0,0,-2.4,0,1900.8)" d="M0 .028H611.971V791.999H0Z" clip-rule="evenodd"/>
</clipPath>
<path id="font_2_1" d="M.19799805 .54003909H.057998659V-.21842957H.19799805V.063583377C.23199463 .0035858155 .27999879-.024414063 .34799195-.024414063 .47799684-.024414063 .57398989 .097579959 .57398989 .26176454 .57398989 .33784486 .5519867 .41392518 .5159912 .463974 .47999574 .5150299 .41299439 .5490265 .34799195 .5490265 .27999879 .5490265 .23199463 .5200348 .19799805 .45996095V.54003909M.31599427 .43193055C.3869934 .43193055 .43399049 .36386109 .43399049 .25975038 .43399049 .16064453 .38598634 .09257507 .31599427 .09257507 .24499512 .09257507 .19799805 .16064453 .19799805 .26176454 .19799805 .36386109 .24499512 .43193055 .31599427 .43193055Z"/>
<path id="font_2_2" d="M.06298828 .54003909V0H.20298767V.28701783C.20298767 .36901856 .24398804 .41001893 .32598878 .41001893 .34098817 .41001893 .35099793 .4090271 .36999513 .40602113V.54803469C.3619995 .5490265 .35899354 .5490265 .35299684 .5490265 .2889862 .5490265 .23399353 .5070343 .20298767 .434021V.54003909H.06298828Z"/>
<path id="font_2_3" d="M.30099488 .5488281C.13598633 .5488281 .034988405 .43981935 .034988405 .26268006 .034988405 .08454895 .13598633-.0234375 .3019867-.0234375 .46699525-.0234375 .56900027 .08454895 .56900027 .25868226 .56900027 .44181825 .46998597 .5488281 .30099488 .5488281M.3019867 .43582154C.3789978 .43582154 .42900086 .36676026 .42900086 .26068116 .42900086 .15960694 .3769989 .08955383 .3019867 .08955383 .22599793 .08955383 .1749878 .15861511 .1749878 .26268006 .1749878 .36676026 .22599793 .43582154 .3019867 .43582154Z"/>
<path id="font_2_4" d="M.20999146 .54003909H.069992069V-.062820438C.069992069-.093811038 .05899048-.10481262 .0289917-.10481262 .019989014-.10481262 .0129852299-.10380554 .0039978029-.10079956V-.21278382C.0309906-.21577454 .06498718-.21777344 .08699036-.21777344 .17399597-.21777344 .20999146-.18177796 .20999146-.093811038V.54003909M.20999146 .7285156H.069992069V.60350039H.20999146V.7285156Z"/>
<path id="font_2_5" d="M.5239868 .22558594C.5249939 .23757935 .5249939 .24258423 .5249939 .24957276 .5249939 .3035736 .5169983 .35365296 .5039978 .39172364 .46798707 .4898224 .3809967 .5488281 .27198792 .5488281 .116989139 .5488281 .021987915 .43681336 .021987915 .25558473 .021987915 .08255005 .115997318-.0234375 .2689972-.0234375 .3899994-.0234375 .48799134 .044555665 .5189972 .15156555H.3809967C.3639984 .108566287 .32499696 .08355713 .27398683 .08355713 .23399353 .08355713 .20199585 .10055542 .18199158 .13056946 .16899109 .15057373 .1639862 .1745758 .1619873 .22558594H.5239868M.1639862 .318573C.17298889 .40174867 .20799256 .44181825 .269989 .44181825 .33399964 .44181825 .37199403 .39874269 .3789978 .318573H.1639862Z"/>
<path id="font_2_6" d="M.29100038-.023162842C.41600038-.024169922 .5109863 .061828615 .5219879 .18682862H.3880005C.37098695 .11683655 .34298707 .08984375 .2889862 .08984375 .2579956 .08984375 .22799683 .10183716 .21199036 .12184143 .18798828 .15083313 .17399597 .20283509 .17399597 .25982667 .17399597 .31082154 .18399048 .3578186 .20098877 .38981629 .21699524 .41981507 .24798584 .43582154 .28799439 .43582154 .34498597 .43582154 .37199403 .40882875 .3880005 .3378296H.5219879C.5119934 .46981813 .4249878 .5488281 .2889862 .5488281 .1269989 .5488281 .033996583 .44282533 .033996583 .25883485 .033996583 .094833377 .10998535-.0031585694 .24798584-.02116394L.20498657-.10612488C.22399903-.09715271 .23498535-.09416199 .2539978-.09416199 .2849884-.09416199 .30499269-.10812378 .30499269-.12905884 .30499269-.15197754 .27999879-.16992188 .24798584-.16992188 .21998596-.16992188 .19400025-.16294861 .14399719-.14001465L.125-.19192505C.18699646-.21392823 .21798706-.21992493 .2630005-.21992493 .34599305-.21992493 .3919983-.18693543 .3919983-.12705994 .3919983-.0831604 .36299134-.056167604 .31498719-.056167604 .2999878-.056167604 .2869873-.058166505 .27398683-.06317139L.29100038-.023162842Z"/>
<path id="font_2_7" d="M.5239868 .016555787C.5 .03955078 .49198915 .05555725 .49198915 .08255005V.38278199C.49198915 .4928131 .4169922 .5488281 .2709961 .5488281 .125 .5488281 .04899597 .4868164 .039993287 .36175538H.1749878C.18199158 .4178009 .20498657 .43582154 .27398683 .43582154 .32798768 .43582154 .35499574 .4178009 .35499574 .3817749 .35499574 .36376954 .34599305 .34875489 .33099366 .3397522 .31199647 .32974244 .31199647 .32974244 .24299622 .3187256L.18699646 .30871583C.07998657 .29071046 .027999878 .235672 .027999878 .13859558 .027999878 .041549684 .09298706-.0234375 .19198609-.0234375 .2519989-.0234375 .30599977 .0015563965 .35598756 .05355835 .35598756 .025558472 .35899354 .015548706 .37199403-.00044250489H.5239868V.016555787M.35499574 .21664429C.35499574 .1355896 .31498719 .08955383 .24398804 .08955383 .19699097 .08955383 .16799927 .11457825 .16799927 .15460205 .16799927 .19664002 .18998719 .21664429 .24798584 .22866822L.29599 .2376709C.33299256 .24467469 .33898927 .24667359 .35499574 .25468446V.21664429M.3869934 .7488251C.3829956 .7168274 .37098695 .7008209 .34999085 .7008209 .34298707 .7008209 .32299806 .7038269 .31698609 .7068176L.24499512 .7318268C.20899964 .7448273 .20799256 .7448273 .18998719 .7448273 .13398743 .7448273 .09899902 .698822 .09498596 .6208191H.1579895C.16299439 .6528168 .17399597 .66581729 .19799805 .66581729 .20698548 .66581729 .21699524 .66381838 .22799683 .65982058L.2999878 .6338196C.31999208 .625824 .33898927 .6218262 .35398866 .6218262 .41299439 .6218262 .44499208 .66381838 .44898988 .7488251H.3869934Z"/>
<path id="font_2_8" d="M0 0Z"/>
<path id="font_2_9" d="M.40499879 0H.54499819V.7285156H.40499879V.46981813C.36999513 .52381899 .32398988 .5488281 .2559967 .5488281 .1269989 .5488281 .0289917 .42481996 .0289917 .2618866 .0289917 .18891907 .050994874 .11495972 .08699036 .06297302 .12399292 .009994507 .18998719-.023010254 .2559967-.023010254 .32398988-.023010254 .36999513 .0009918213 .40499879 .054977418V0M.2869873 .43182374C.35798646 .43182374 .40499879 .36384584 .40499879 .2598877 .40499879 .16192627 .35699464 .09396362 .2869873 .09396362 .21699524 .09396362 .16899109 .16293335 .16899109 .2618866 .16899109 .362854 .21699524 .43182374 .2869873 .43182374Z"/>
<path id="font_2_10" d="M.20298767 .7285156C.08799744 .5545044 .039993287 .4185028 .039993287 .2645111 .039993287 .10951233 .08799744-.026489258 .20298767-.20050049H.30299378C.19599915 .005508423 .16299439 .116500858 .16299439 .2645111 .16299439 .41151429 .19699097 .5245056 .30299378 .7285156H.20298767Z"/>
<path id="font_2_11" d="M.35499574 .27201844 .5309906 .54003909H.36299134L.27598573 .37701417 .18798828 .54003909H.019989014L.19599915 .27201844 .015991211 0H.18399048L.27598573 .16799927 .36698915 0H.5349884L.35499574 .27201844Z"/>
<path id="font_3_1" d="M.048828126 .31445313H.31201173V.234375H.048828126V.31445313Z"/>
<path id="font_3_2" d="M0 0Z"/>
<path id="font_3_3" d="M.3178711 .6640625C.26708985 .6640625 .22892253 .6390584 .20336914 .5890503 .17781575 .5390422 .16503906 .4638672 .16503906 .3635254 .16503906 .26350913 .17781575 .1884969 .20336914 .13848877 .22892253 .08848063 .26708985 .06347656 .3178711 .06347656 .36897788 .06347656 .40730796 .08848063 .43286134 .13848877 .4584147 .1884969 .4711914 .26350913 .4711914 .3635254 .4711914 .4638672 .4584147 .5390422 .43286134 .5890503 .40730796 .6390584 .36897788 .6640625 .3178711 .6640625M.3178711 .7421875C.3995768 .7421875 .46199546 .7098592 .50512698 .64520266 .5482585 .5805461 .5698242 .48665367 .5698242 .3635254 .5698242 .24072266 .5482585 .146993 .50512698 .082336429 .46199546 .01767985 .3995768-.0146484379 .3178711-.0146484379 .23616536-.0146484379 .17374675 .01767985 .13061524 .082336429 .08748373 .146993 .06591797 .24072266 .06591797 .3635254 .06591797 .48665367 .08748373 .5805461 .13061524 .64520266 .17374675 .7098592 .23616536 .7421875 .3178711 .7421875Z"/>
<path id="font_2_12" d="M.12199402-.20050049C.23699951-.026489258 .2849884 .10951233 .2849884 .26350404 .2849884 .4185028 .23699951 .5545044 .12199402 .7285156H.021987915C.1289978 .5225067 .1619873 .41151429 .1619873 .26350404 .1619873 .116500858 .12799073 .0035095216 .021987915-.20050049H.12199402Z"/>
<path id="font_2_13" d="M.05999756 .54003909V0H.19999695V.3240204C.19999695 .39102174 .23599243 .4300232 .29599 .4300232 .34298707 .4300232 .37199403 .40301515 .37199403 .36001588V0H.5119934V.3240204C.5119934 .39001466 .5479889 .4300232 .60798647 .4300232 .6549988 .4300232 .6839905 .40301515 .6839905 .36001588V0H.82398989V.38201905C.82398989 .48703004 .7599945 .5490265 .6519928 .5490265 .58299258 .5490265 .5359955 .5250244 .49398805 .46902467 .46798707 .5200348 .4139862 .5490265 .34700013 .5490265 .2849884 .5490265 .24499512 .5290375 .19898987 .47302247V.54003909H.05999756Z"/>
<path id="font_4_1" d="M.22607422 .3251953C.22835286 .25878907 .23828125 .21191406 .25585938 .18457031 .28548179 .1373698 .31461589 .11360677 .34326173 .11328125 .37223307 .11295573 .40169273 .13671875 .43164063 .18457031 .44921876 .21289063 .45914714 .25976563 .46142579 .3251953H.22607422M.4609375 .4501953C.45703126 .50358077 .44710288 .54557296 .43115235 .5761719 .40641276 .62369796 .37727867 .64746096 .34375 .64746096 .30989585 .64746096 .28076173 .62369796 .25634767 .5761719 .24007161 .5445964 .23014324 .5026042 .2265625 .4501953H.4609375M.34375 .7675781C.45279948 .7675781 .5301921 .7320709 .57592776 .6610565 .6216634 .5900523 .64453127 .4947815 .64453127 .37524415 .64453127 .2557068 .6210124 .1613261 .5739746 .09210205 .5269368 .022888184 .4501953-.01171875 .34375-.01171875 .23730469-.01171875 .16056316 .022888184 .11352539 .09210205 .06648763 .1613261 .04296875 .2557068 .04296875 .37524415 .04296875 .4947815 .065836589 .5900523 .111572269 .6610565 .15730794 .7320709 .23470052 .7675781 .34375 .7675781Z"/>
<path id="font_3_4" d="M.47021485 .6087189 .29492188 .5136719 .47021485 .4181366 .44189454 .3701172 .27783204 .46957398V.28515626H.22216797V.46957398L.05810547 .3701172 .029785157 .4181366 .20507813 .5136719 .029785157 .6087189 .05810547 .65722659 .22216797 .5577698V.7421875H.27783204V.5577698L.44189454 .65722659 .47021485 .6087189Z"/>
<path id="font_3_5" d="M-.0029296876 .7294922H.61376956V.6464844H.35498048V0H.25585938V.6464844H-.0029296876V.7294922Z"/>
<path id="font_3_6" d="M.3100586 .75878909C.2664388 .68391928 .23404949 .6098633 .21289063 .5366211 .19173177 .4633789 .18115235 .38916017 .18115235 .31396485 .18115235 .23876953 .19181316 .16430664 .21313477 .09057617 .23445638 .016845704 .2667643-.057291669 .3100586-.13183594H.2319336C.18310547-.055338544 .14656575 .019856772 .12231445 .09375 .09806315 .16764324 .0859375 .24104817 .0859375 .31396485 .0859375 .386556 .09798177 .4596354 .12207031 .5332031 .14615886 .6067708 .18277996 .6819661 .2319336 .75878909H.3100586Z"/>
<path id="font_4_2" d="M.22216797 .27978517 .024902344 .546875H.20996094L.32177735 .38476563 .4350586 .546875H.6201172L.42285157 .28076173 .6298828 0H.44482423L.32177735 .17285156 .20019531 0H.015136719L.22216797 .27978517Z"/>
<path id="font_3_7" d="M.080078128 .75878909H.15820313C.20703125 .6819661 .24357097 .6067708 .26782228 .5332031 .29207359 .4596354 .30419923 .386556 .30419923 .31396485 .30419923 .24104817 .29207359 .16764324 .26782228 .09375 .24357097 .019856772 .20703125-.055338544 .15820313-.13183594H.080078128C.1233724-.057291669 .15568035 .016845704 .17700196 .09057617 .19832357 .16430664 .20898438 .23876953 .20898438 .31396485 .20898438 .38916017 .19832357 .4633789 .17700196 .5366211 .15568035 .6098633 .1233724 .68391928 .080078128 .75878909Z"/>
<path id="font_3_8" d="M.10595703 .45410157H.7319336V.3720703H.10595703V.45410157M.10595703 .2548828H.7319336V.171875H.10595703V.2548828Z"/>
<path id="font_3_9" d="M.45996095 .6279297V.35546876H.7319336V.27246095H.45996095V0H.3779297V.27246095H.10595703V.35546876H.3779297V.6279297H.45996095Z"/>
<path id="font_3_10" d="M.46142579 .3466797H.15039063C.15527344 .24934896 .16894531 .18001302 .19140625 .13867188 .21940105 .087890628 .25764976 .0625 .30615235 .0625 .35498048 .0625 .39290367 .08805338 .41992188 .13916016 .4436849 .18408203 .45751954 .25325523 .46142579 .3466797M.45996095 .4296875C.45084635 .52213546 .4375 .58463546 .41992188 .6171875 .3919271 .6686198 .3540039 .69433596 .30615235 .69433596 .25634767 .69433596 .21826172 .6689453 .19189453 .61816409 .1710612 .57714846 .15755208 .51432296 .15136719 .4296875H.45996095M.30615235 .7675781C.38427735 .7675781 .44563804 .73305258 .49023438 .66400149 .53483077 .5952759 .5571289 .5 .5571289 .37817384 .5571289 .25668336 .53483077 .16140747 .49023438 .09234619 .44563804 .022969565 .38427735-.01171875 .30615235-.01171875 .22770183-.01171875 .16634114 .022969565 .12207031 .09234619 .07747396 .16140747 .05517578 .25668336 .05517578 .37817384 .05517578 .5 .07747396 .5952759 .12207031 .66400149 .16634114 .73305258 .22770183 .7675781 .30615235 .7675781Z"/>
<path id="font_3_11" d="M.20996094 .76464846V-.23535156H.12695313V.76464846H.20996094Z"/>
<path id="font_3_12" d="M.12402344 .08300781H.28515626V.63964846L.10986328 .6044922V.69433596L.2841797 .7294922H.3828125V.08300781H.5439453V0H.12402344V.08300781Z"/>
<path id="font_2_14" d="M.34999085 0 .5359955 .54003909H.3880005L.2789917 .14500427 .1619873 .54003909H.01399231L.20298767 0H.34999085Z"/>
<path id="font_2_15" d="M.30099488 .52853396H.22299195V.6735382H.08299255V.52853396H.01399231V.43554688H.08299255V.1035614C.08299255 .018554688 .12799073-.0234375 .21998596-.0234375 .2519989-.0234375 .2749939-.020446778 .30099488-.012451172V.08555603C.2869873 .08355713 .27999879 .08255005 .2689972 .08255005 .23199463 .08255005 .22299195 .093551639 .22299195 .14155579V.43554688H.30099488V.52853396Z"/>
<path id="font_2_16" d="M.54100039 0V.54003909H.40098573V.20201111C.40098573 .13800049 .35699464 .09599304 .28799439 .09599304 .22799683 .09599304 .19799805 .12800598 .19799805 .19300843V.54003909H.057998659V.16400147C.057998659 .04399109 .12298584-.023010254 .23899842-.023010254 .31199647-.023010254 .36099244 .0029907227 .40098573 .06399536V0H.54100039Z"/>
<path id="font_2_17" d="M.06298828 .54003909V0H.20298767V.3240204C.20298767 .38801576 .24699402 .4300232 .31599427 .4300232 .37599183 .4300232 .4059906 .39701844 .4059906 .33302308V0H.54599V.36201478C.54599 .48202516 .48098756 .5490265 .36499024 .5490265 .2919922 .5490265 .24299622 .5230255 .20298767 .46202088V.54003909H.06298828Z"/>
<path id="font_2_18" d="M.20698548 .54003909H.066986087V0H.20698548V.54003909M.20698548 .7285156H.066986087V.60350039H.20698548V.7285156Z"/>
<path id="font_2_19" d="M.5239868 .016555787C.5 .03955078 .49198915 .05555725 .49198915 .08255005V.38278199C.49198915 .4928131 .4169922 .5488281 .2709961 .5488281 .125 .5488281 .04899597 .4868164 .039993287 .36175538H.1749878C.18199158 .4178009 .20498657 .43582154 .27398683 .43582154 .32798768 .43582154 .35499574 .4178009 .35499574 .3817749 .35499574 .36376954 .34599305 .34875489 .33099366 .3397522 .31199647 .32974244 .31199647 .32974244 .24299622 .3187256L.18699646 .30871583C.07998657 .29071046 .027999878 .235672 .027999878 .13859558 .027999878 .041549684 .09298706-.0234375 .19198609-.0234375 .2519989-.0234375 .30599977 .0015563965 .35598756 .05355835 .35598756 .025558472 .35899354 .015548706 .37199403-.00044250489H.5239868V.016555787M.35499574 .21664429C.35499574 .1355896 .31498719 .08955383 .24398804 .08955383 .19699097 .08955383 .16799927 .11457825 .16799927 .15460205 .16799927 .19664002 .18998719 .21664429 .24798584 .22866822L.29599 .2376709C.33299256 .24467469 .33898927 .24667359 .35499574 .25468446V.21664429M.41099549 .7568207H.2849884L.21499634 .6068268H.2849884L.41099549 .7568207Z"/>
<path id="font_4_3" d="M.37695313-.13183594H.2319336C.1821289-.051432294 .14534505 .024983725 .12158203 .09741211 .09781901 .1698405 .0859375 .24169922 .0859375 .31298829 .0859375 .38427735 .09790039 .45646159 .12182617 .529541 .14575196 .6026204 .18245442 .67903646 .2319336 .75878909H.37695313C.33528648 .6816406 .30403648 .6062012 .28320313 .5324707 .26236979 .45874024 .25195313 .38590495 .25195313 .31396485 .25195313 .24202474 .26228843 .16910808 .28295899 .095214847 .30362956 .021321616 .33496095-.05436198 .37695313-.13183594Z"/>
<path id="font_4_4" d="M.32910157 .24511719C.29264323 .24511719 .2652181 .23895264 .24682617 .22662354 .22843425 .21429444 .21923828 .1961263 .21923828 .17211914 .21923828 .15006511 .22664388 .13279216 .24145508 .12030029 .25626628 .10780843 .27685548 .1015625 .30322267 .1015625 .33610026 .1015625 .36376954 .11332194 .38623048 .13684082 .4086914 .1603597 .41992188 .189799 .41992188 .22515869V.24511719H.32910157M.5961914 .31134034V0H.41992188V.08105469C.39648438 .04767863 .3701172 .023381552 .3408203 .008163452 .31152345-.007044474 .2758789-.0146484379 .23388672-.0146484379 .1772461-.0146484379 .13126628 .0018717448 .095947269 .03491211 .060628255 .06795248 .04296875 .110839847 .04296875 .16357422 .04296875 .22770183 .06502279 .2747396 .10913086 .3046875 .15323894 .3346354 .22249349 .34960938 .31689454 .34960938H.41992188V.3635559C.41992188 .39146934 .40901695 .411911 .38720704 .42488099 .36539714 .43785096 .33138023 .44433595 .28515626 .44433595 .24772136 .44433595 .21289063 .44059245 .18066406 .43310548 .1484375 .4256185 .118489589 .41438804 .09082031 .39941407V.5332031C.1282552 .54215499 .16585286 .5489502 .20361328 .55358889 .2413737 .55822756 .27913413 .5605469 .31689454 .5605469 .41552735 .5605469 .48673503 .54100546 .5305176 .5019226 .5743001 .46283976 .5961914 .39931236 .5961914 .31134034Z"/>
<path id="font_4_5" d="M.080078128-.13183594C.12174479-.05436198 .1529948 .021321616 .17382813 .095214847 .19466146 .16910808 .20507813 .24202474 .20507813 .31396485 .20507813 .38590495 .19466146 .45874024 .17382813 .5324707 .1529948 .6062012 .12174479 .6816406 .080078128 .75878909H.22509766C.2745768 .67903646 .3112793 .6026204 .33520509 .529541 .35913087 .45646159 .37109376 .38427735 .37109376 .31298829 .37109376 .24169922 .35921226 .1698405 .33544923 .09741211 .3116862 .024983725 .27490235-.051432294 .22509766-.13183594H.080078128Z"/>
<path id="font_4_6" d="M.375 .11230469C.4124349 .11230469 .44099937 .12601726 .46069337 .15344239 .48038737 .18086751 .49023438 .22070313 .49023438 .27294923 .49023438 .3251953 .48038737 .3650309 .46069337 .39245606 .44099937 .4198812 .4124349 .43359376 .375 .43359376 .3375651 .43359376 .3088379 .4197998 .28881837 .3922119 .26879884 .36462403 .25878907 .32486979 .25878907 .27294923 .25878907 .22102864 .26879884 .18127442 .28881837 .15368653 .3088379 .12609864 .3375651 .11230469 .375 .11230469M.25878907 .46679688C.2828776 .4988607 .3095703 .52250167 .3388672 .5377197 .36816407 .5529378 .40185548 .5605469 .4399414 .5605469 .5073242 .5605469 .5626628 .533727 .60595706 .48008729 .6492513 .42644755 .67089846 .35740153 .67089846 .27294923 .67089846 .1884969 .6492513 .11945089 .60595706 .06581116 .5626628 .012171428 .5073242-.0146484379 .4399414-.0146484379 .40185548-.0146484379 .36816407-.007039388 .3388672 .008178711 .3095703 .02339681 .2828776 .04703776 .25878907 .07910156V0H.083984378V.7597656H.25878907V.46679688Z"/>
<path id="font_3_13" d="M.09814453 .7294922H.24511719L.43115235 .23339844 .61816409 .7294922H.7651367V0H.6689453V.640625L.48095704 .140625H.38183595L.19384766 .640625V0H.09814453V.7294922Z"/>
<path id="font_2_20" d="M.5049896 .36576844C.5029907 .47982789 .4149933 .5488281 .269989 .5488281 .1329956 .5488281 .04798889 .47982789 .04798889 .36875917 .04798889 .33273316 .05899048 .30171205 .07798767 .28070069 .09700012 .26168824 .11399841 .25268556 .1659851 .235672L.33299256 .18362427C.36799623 .17262268 .37998963 .16160584 .37998963 .1395874 .37998963 .10656738 .34098817 .08654785 .27598573 .08654785 .23899842 .08654785 .21099854 .092559818 .19299317 .10557556 .17799378 .11657715 .17199707 .12757874 .1659851 .15660095H.0289917C.032989503 .03755188 .11999512-.0234375 .28399659-.0234375 .35899354-.0234375 .41600038-.007446289 .45599366 .024551392 .49598695 .056549074 .519989 .10656738 .519989 .15960694 .519989 .22966004 .4850006 .27468873 .4139862 .29571534L.23699951 .34675599C.19799805 .35876466 .18798828 .36676026 .18798828 .3887787 .18798828 .41880799 .21998596 .4388275 .2689972 .4388275 .33599855 .4388275 .36898805 .41479493 .36999513 .36576844H.5049896Z"/>
<path id="font_2_21" d="M.5239868 .016555787C.5 .03955078 .49198915 .05555725 .49198915 .08255005V.38278199C.49198915 .4928131 .4169922 .5488281 .2709961 .5488281 .125 .5488281 .04899597 .4868164 .039993287 .36175538H.1749878C.18199158 .4178009 .20498657 .43582154 .27398683 .43582154 .32798768 .43582154 .35499574 .4178009 .35499574 .3817749 .35499574 .36376954 .34599305 .34875489 .33099366 .3397522 .31199647 .32974244 .31199647 .32974244 .24299622 .3187256L.18699646 .30871583C.07998657 .29071046 .027999878 .235672 .027999878 .13859558 .027999878 .041549684 .09298706-.0234375 .19198609-.0234375 .2519989-.0234375 .30599977 .0015563965 .35598756 .05355835 .35598756 .025558472 .35899354 .015548706 .37199403-.00044250489H.5239868V.016555787M.35499574 .21664429C.35499574 .1355896 .31498719 .08955383 .24398804 .08955383 .19699097 .08955383 .16799927 .11457825 .16799927 .15460205 .16799927 .19664002 .18998719 .21664429 .24798584 .22866822L.29599 .2376709C.33299256 .24467469 .33898927 .24667359 .35499574 .25468446V.21664429Z"/>
<path id="font_2_22" d="M.3999939 .54003909V.45703126C.36099244 .5200348 .31799317 .5490265 .26098634 .5490265 .21299744 .5490265 .1599884 .5250244 .12298584 .4860382 .068984989 .43003846 .040985109 .35203553 .040985109 .2570343 .040985109 .091033939 .1289978-.022964478 .2579956-.022964478 .31599427-.022964478 .35099793-.003967285 .3999939 .055023195V-.017974854C.3999939-.082977298 .35398866-.12797547 .28799439-.12797547 .23799134-.12797547 .20698548-.10597229 .19599915-.064971927H.051986696C.052993776-.10696411 .067993167-.13597107 .10499573-.16596985 .147995-.20097351 .20698548-.2179718 .2829895-.2179718 .43899537-.2179718 .5329895-.14297486 .5329895-.017974854V.54003909H.3999939M.2869873 .43203736C.35299684 .43203736 .4019928 .35902406 .4019928 .2590332 .4019928 .161026 .35499574 .09402466 .2849884 .09402466 .22399903 .09402466 .18099976 .161026 .18099976 .2590332 .18099976 .3610382 .22399903 .43203736 .2869873 .43203736Z"/>
</defs>
<g>
<g clip-path="url(#clip_1)">
<path transform="matrix(2.4,0,0,-2.4,0,1900.8)" d="M0 792H611.972V.028H0V792Z" fill="#ffffff" fill-rule="evenodd"/>
<path transform="matrix(2.4,0,0,-2.4,0,1900.8)" stroke-width=".62361" stroke-linecap="butt" stroke-miterlimit="3.8637033" stroke-linejoin="miter" fill="none" stroke="#466699" d="M389.339 738.283V733.096H358.611L309.061 713.764"/>
<path transform="matrix(2.4,0,0,-2.4,0,1900.8)" stroke-width=".62361" stroke-linecap="butt" stroke-miterlimit="3.8637033" stroke-linejoin="miter" fill="none" stroke="#466699" d="M396.028 768.898V761.811H330.406L268.129 727.087"/>
<path transform="matrix(2.4,0,0,-2.4,0,1900.8)" stroke-width=".62361" stroke-linecap="butt" stroke-miterlimit="3.8637033" stroke-linejoin="miter" fill="none" stroke="#a9294f" d="M400.422 754.016V747.411H348.321L292.819 727.398"/>
<path transform="matrix(2.4,0,0,-2.4,0,1900.8)" d="M13.805 770.372C15.279 769.493 16.724 768.614 18.198 767.707 22.139 765.298 26.107 762.888 30.047 760.479 35.915 756.907 41.754 753.335 47.622 749.735L69.08 736.639C76.876 731.877 84.671 727.115 92.466 722.353 100.375 717.534 108.312 712.715 116.22 707.868 123.562 703.389 130.932 698.882 138.274 694.403 144.51 690.605 150.718 686.835 156.926 683.036 161.433 680.287 165.912 677.565 170.419 674.816 172.517 673.54 174.614 672.208 176.74 670.961 176.825 670.904 176.939 670.847 177.024 670.791 177.591 670.45 178.129 671.357 177.534 671.698 176.088 672.576 174.614 673.483 173.169 674.362 169.2 676.8 165.231 679.209 161.263 681.619 155.424 685.191 149.556 688.762 143.717 692.334 136.545 696.699 129.402 701.065 122.23 705.43 114.435 710.192 106.639 714.926 98.844 719.688 90.935 724.507 83.027 729.354 75.118 734.173 67.748 738.652 60.406 743.159 53.036 747.638 46.828 751.465 40.592 755.263 34.384 759.061 29.906 761.783 25.427 764.532 20.948 767.254 18.822 768.529 16.724 769.861 14.598 771.109 14.513 771.165 14.428 771.222 14.343 771.279 13.748 771.647 13.238 770.74 13.805 770.372Z" fill="#a9294f" fill-rule="evenodd"/>
<path transform="matrix(2.4,0,0,-2.4,0,1900.8)" stroke-width=".82203" stroke-linecap="round" stroke-miterlimit="3.8637033" stroke-linejoin="miter" fill="none" stroke="#a9294f" d="M30.557 688.139 31.096 688.961"/>
<path transform="matrix(2.4,0,0,-2.4,0,1900.8)" stroke-width=".82203" stroke-linecap="round" stroke-dasharray="1.81414,2.63617" stroke-miterlimit="10" stroke-linejoin="miter" fill="none" stroke="#a9294f" d="M32.513 691.143 80.419 765.581"/>
<path transform="matrix(2.4,0,0,-2.4,0,1900.8)" stroke-width=".82203" stroke-linecap="round" stroke-miterlimit="3.8637033" stroke-linejoin="miter" fill="none" stroke="#a9294f" d="M81.099 766.687 81.638 767.509"/>
<path transform="matrix(2.4,0,0,-2.4,0,1900.8)" d="M31.011 687.855C31.493 688.592 31.946 689.301 32.4 690.038L35.745 695.169C37.106 697.266 38.438 699.392 39.77 701.461 40.932 703.276 42.094 705.061 43.257 706.876 43.824 707.726 44.419 708.605 44.929 709.483 44.957 709.512 44.957 709.512 44.957 709.54 45.326 710.079 44.419 710.617 44.05 710.05 43.597 709.342 43.143 708.605 42.661 707.896L39.345 702.737C38.013 700.639 36.68 698.542 35.32 696.444 34.157 694.658 33.024 692.844 31.833 691.058 31.266 690.18 30.671 689.329 30.132 688.422 30.132 688.422 30.132 688.394 30.104 688.394 29.735 687.827 30.643 687.288 31.011 687.855Z" fill="#a9294f" fill-rule="evenodd"/>
<path transform="matrix(2.4,0,0,-2.4,0,1900.8)" d="M64.29 739.729C65.282 740.126 66.274 740.494 67.238 740.891 69.619 741.827 71.972 742.734 74.353 743.641 77.187 744.803 80.05 745.909 82.913 747.014 85.38 747.978 87.846 748.942 90.34 749.906 91.531 750.359 92.75 750.813 93.94 751.294 93.969 751.323 93.969 751.323 93.997 751.323 94.252 751.436 94.45 751.663 94.365 751.975 94.28 752.23 93.969 752.428 93.713 752.343 92.721 751.946 91.729 751.55 90.765 751.181 88.356 750.246 86.003 749.339 83.622 748.403 80.787 747.298 77.924 746.192 75.061 745.087 72.595 744.123 70.129 743.131 67.663 742.167 66.472 741.713 65.254 741.231 64.063 740.778 64.035 740.75 64.035 740.75 64.006 740.75 63.751 740.636 63.553 740.409 63.638 740.098 63.723 739.843 64.035 739.644 64.29 739.729Z" fill="#a9294f" fill-rule="evenodd"/>
<path transform="matrix(2.4,0,0,-2.4,0,1900.8)" stroke-width=".82203" stroke-linecap="round" stroke-miterlimit="3.8637033" stroke-linejoin="miter" fill="none" stroke="#a9294f" d="M78.009 761.783 78.661 761.357"/>
<path transform="matrix(2.4,0,0,-2.4,0,1900.8)" stroke-width=".82203" stroke-linecap="round" stroke-dasharray="1.55902,3.11805" stroke-miterlimit="10" stroke-linejoin="miter" fill="none" stroke="#a9294f" d="M81.298 759.742 95.953 750.699"/>
<path transform="matrix(2.4,0,0,-2.4,0,1900.8)" stroke-width=".82203" stroke-linecap="round" stroke-miterlimit="3.8637033" stroke-linejoin="miter" fill="none" stroke="#a9294f" d="M97.257 749.906 97.88 749.509"/>
<path transform="matrix(2.4,0,0,-2.4,0,1900.8)" d="M30.047 767.509V691.37C30.047 690.35 29.991 689.301 30.047 688.28 30.047 688.224 30.047 688.167 30.047 688.139 30.047 687.855 30.274 687.6 30.557 687.6H180.17C182.211 687.6 184.224 687.572 186.236 687.6 186.321 687.6 186.435 687.6 186.52 687.6 187.172 687.6 187.172 688.649 186.52 688.649H32.91C32.23 688.649 31.521 688.706 30.841 688.649 30.756 688.649 30.643 688.649 30.557 688.649L31.096 688.139V764.249C31.096 765.298 31.153 766.346 31.096 767.367 31.096 767.395 31.096 767.452 31.096 767.509 31.096 768.161 30.047 768.161 30.047 767.509Z" fill="#466699" fill-rule="evenodd"/>
<path transform="matrix(2.4,0,0,-2.4,0,1900.8)" d="M183.373 690.548C184.28 689.641 185.244 688.734 186.151 687.827V688.564C185.187 687.6 184.224 686.665 183.26 685.701 182.806 685.247 183.543 684.482 183.997 684.964 184.989 685.928 185.924 686.863 186.888 687.827 187.087 688.025 187.087 688.365 186.888 688.564 185.981 689.471 185.046 690.378 184.11 691.285 183.657 691.795 182.891 691.03 183.373 690.548Z" fill="#466699" fill-rule="evenodd"/>
<path transform="matrix(2.4,0,0,-2.4,0,1900.8)" d="M41.301 709.512 45.099 710.22C44.901 710.334 44.674 710.476 44.476 710.589 44.674 709.427 44.901 708.265 45.128 707.102 45.156 706.932 45.184 706.791 45.213 706.62 45.269 706.337 45.609 706.167 45.893 706.252 46.176 706.337 46.29 706.62 46.261 706.904L45.581 710.362C45.553 710.532 45.524 710.702 45.468 710.872 45.411 711.156 45.099 711.269 44.844 711.241 43.569 710.986 42.293 710.759 41.046 710.504 40.762 710.476 40.592 710.135 40.677 709.88 40.762 709.597 41.046 709.455 41.301 709.512Z" fill="#a9294f" fill-rule="evenodd"/>
<path transform="matrix(2.4,0,0,-2.4,0,1900.8)" d="M28.148 765.78C29.055 766.687 29.991 767.65 30.898 768.557H30.161C31.124 767.594 32.06 766.63 33.024 765.694 33.477 765.213 34.214 765.95 33.761 766.431 32.797 767.367 31.861 768.331 30.898 769.294 30.699 769.493 30.359 769.493 30.161 769.294 29.225 768.387 28.318 767.452 27.411 766.517 26.929 766.063 27.666 765.326 28.148 765.78Z" fill="#466699" fill-rule="evenodd"/>
<path transform="matrix(2.4,0,0,-2.4,0,1900.8)" d="M62.929 767.509C62.929 766.063 61.795 764.929 60.35 764.929 58.932 764.929 57.798 766.063 57.798 767.509 57.798 768.898 58.932 770.06 60.35 770.06 61.795 770.06 62.929 768.898 62.929 767.509Z" fill="#4c9b95" fill-rule="evenodd"/>
<path transform="matrix(2.4,0,0,-2.4,0,1900.8)" d="M59.272 754.413C59.272 752.995 58.11 751.833 56.721 751.833 55.276 751.833 54.142 752.995 54.142 754.413 54.142 755.802 55.276 756.964 56.721 756.964 58.11 756.964 59.272 755.802 59.272 754.413Z" fill="#4c9b95" fill-rule="evenodd"/>
<path transform="matrix(2.4,0,0,-2.4,0,1900.8)" d="M75.345 757.928C76.592 757.332 77.783 756.624 78.888 755.773 79.03 755.688 79.228 755.773 79.313 755.887 79.937 756.935 80.617 757.871 81.383 758.75 81.666 759.033 81.213 759.487 80.957 759.175 80.135 758.268 79.398 757.304 78.775 756.227 78.917 756.255 79.058 756.283 79.2 756.312 78.094 757.191 76.904 757.899 75.657 758.466 75.317 758.636 74.976 758.098 75.345 757.928Z" fill="#466699" fill-rule="evenodd"/>
<path transform="matrix(2.4,0,0,-2.4,0,1900.8)" d="M60.406 734.712C61.313 734.627 62.107 734.173 62.844 733.663 63.241 733.408 63.609 733.096 63.978 732.813 64.29 732.557 64.715 732.416 65.027 732.784 65.14 732.954 65.225 733.181 65.31 733.351 65.424 733.55 65.509 733.72 65.622 733.89 65.849 734.315 66.161 734.712 66.444 735.08 67.011 735.789 67.635 736.441 68.343 737.008 68.655 737.235 68.23 737.688 67.918 737.433 66.557 736.384 65.424 735.024 64.658 733.436 64.63 733.408 64.545 733.181 64.517 733.181 64.517 733.153 64.375 733.294 64.346 733.294 64.176 733.465 63.978 733.606 63.808 733.748 63.496 734.003 63.156 734.23 62.816 734.485 62.079 734.939 61.257 735.25 60.406 735.335 60.009 735.364 60.009 734.74 60.406 734.712Z" fill="#466699" fill-rule="evenodd"/>
<path transform="matrix(2.4,0,0,-2.4,0,1900.8)" d="M64.828 736.072C64.828 735.761 64.573 735.506 64.29 735.506 63.978 735.506 63.694 735.761 63.694 736.072 63.694 736.356 63.978 736.639 64.29 736.639 64.573 736.639 64.828 736.356 64.828 736.072Z" fill="#466699" fill-rule="evenodd"/>
<path transform="matrix(2.4,0,0,-2.4,0,1900.8)" stroke-width=".62361" stroke-linecap="butt" stroke-miterlimit="3.8637033" stroke-linejoin="miter" fill="none" stroke="#466699" d="M65.906 740.778C65.906 740.183 65.424 739.672 64.828 739.672 64.233 739.672 63.723 740.183 63.723 740.778 63.723 741.402 64.233 741.883 64.828 741.883 65.424 741.883 65.906 741.402 65.906 740.778Z"/>
<path transform="matrix(2.4,0,0,-2.4,0,1900.8)" stroke-width=".62361" stroke-linecap="butt" stroke-miterlimit="3.8637033" stroke-linejoin="miter" fill="none" stroke="#466699" d="M94.904 751.833C94.904 751.238 94.422 750.728 93.798 750.728 93.203 750.728 92.721 751.238 92.721 751.833 92.721 752.457 93.203 752.939 93.798 752.939 94.422 752.939 94.904 752.457 94.904 751.833Z"/>
<path transform="matrix(2.4,0,0,-2.4,0,1900.8)" d="M49.323 740.353 51.902 741.798 51.874 738.85 51.846 735.931 46.772 738.907 49.323 740.353Z" fill="#466699" fill-rule="evenodd"/>
<path transform="matrix(2.4,0,0,-2.4,0,1900.8)" d="M40.11 748.091 42.661 749.537 42.605 743.641 37.531 746.646 40.11 748.091Z" fill="#466699" fill-rule="evenodd"/>
<path transform="matrix(2.4,0,0,-2.4,0,1900.8)" d="M42.633 731.112 45.213 732.557 45.184 729.638 45.156 726.661 42.605 728.192 40.082 729.666 42.633 731.112Z" fill="#466699" fill-rule="evenodd"/>
<use data-text="p" xlink:href="#font_2_1" transform="matrix(17.5512,0,0,-17.5512,225.38881,26.395142)" fill="#466699"/>
<use data-text="r" xlink:href="#font_2_2" transform="matrix(17.5512,0,0,-17.5512,235.9722,26.395142)" fill="#466699"/>
<use data-text="o" xlink:href="#font_2_3" transform="matrix(17.5512,0,0,-17.5512,242.92249,26.395142)" fill="#466699"/>
<use data-text="j" xlink:href="#font_2_4" transform="matrix(17.5512,0,0,-17.5512,253.71648,26.395142)" fill="#466699"/>
<use data-text="e" xlink:href="#font_2_5" transform="matrix(17.5512,0,0,-17.5512,258.5255,26.395142)" fill="#466699"/>
<use data-text="ç" xlink:href="#font_2_6" transform="matrix(17.5512,0,0,-17.5512,268.37174,26.395142)" fill="#466699"/>
<use data-text="ã" xlink:href="#font_2_7" transform="matrix(17.5512,0,0,-17.5512,278.218,26.395142)" fill="#466699"/>
<use data-text="o" xlink:href="#font_2_3" transform="matrix(17.5512,0,0,-17.5512,287.83607,26.395142)" fill="#466699"/>
<use data-text=" " xlink:href="#font_2_8" transform="matrix(17.5512,0,0,-17.5512,298.63008,26.395142)" fill="#466699"/>
<use data-text="d" xlink:href="#font_2_9" transform="matrix(17.5512,0,0,-17.5512,303.4391,26.395142)" fill="#466699"/>
<use data-text="e" xlink:href="#font_2_5" transform="matrix(17.5512,0,0,-17.5512,314.23307,26.395142)" fill="#466699"/>
<use data-text=" " xlink:href="#font_2_8" transform="matrix(17.5512,0,0,-17.5512,323.8511,26.395142)" fill="#466699"/>
<use data-text="(" xlink:href="#font_2_10" transform="matrix(17.5512,0,0,-17.5512,334.7832,28.57434)" fill="#466699"/>
<use data-text="x" xlink:href="#font_2_11" transform="matrix(17.5512,0,0,-17.5512,340.55757,28.57434)" fill="#466699"/>
<use data-text=" " xlink:href="#font_2_8" transform="matrix(17.5512,0,0,-17.5512,350.40376,28.57434)" fill="#466699"/>
<use data-text="-" xlink:href="#font_3_1" transform="matrix(17.5512,0,0,-17.5512,349.4088,28.778443)" fill="#466699"/>
<use data-text=" " xlink:href="#font_3_2" transform="matrix(17.5512,0,0,-17.5512,355.65705,28.778443)" fill="#466699"/>
<use data-text="x" xlink:href="#font_2_11" transform="matrix(17.5512,0,0,-17.5512,361.1784,28.57434)" fill="#466699"/>
<use data-text="0" xlink:href="#font_3_3" transform="matrix(10.3416,0,0,-10.3416,371.52003,34.288698)" fill="#466699"/>
<use data-text=")" xlink:href="#font_2_12" transform="matrix(17.5512,0,0,-17.5512,378.732,28.57434)" fill="#466699"/>
<use data-text=" " xlink:href="#font_2_8" transform="matrix(17.5512,0,0,-17.5512,384.50636,28.57434)" fill="#466699"/>
<use data-text="e" xlink:href="#font_2_5" transform="matrix(17.5512,0,0,-17.5512,389.3154,28.57434)" fill="#466699"/>
<use data-text="m" xlink:href="#font_2_13" transform="matrix(17.5512,0,0,-17.5512,399.1616,28.57434)" fill="#466699"/>
<use data-text=" " xlink:href="#font_2_8" transform="matrix(17.5512,0,0,-17.5512,414.7646,28.57434)" fill="#466699"/>
<use data-text="θ" xlink:href="#font_4_1" transform="matrix(17.5512,0,0,-17.5512,416.14805,28.778443)" fill="#466699"/>
<use data-text="*" xlink:href="#font_3_4" transform="matrix(17.5512,0,0,-17.5512,428.39524,28.778443)" fill="#466699"/>
<use data-text="θ" xlink:href="#font_4_1" transform="matrix(15.852,0,0,-15.852,266.616,59.25598)" fill="#466699"/>
<use data-text="*" xlink:href="#font_3_4" transform="matrix(15.852,0,0,-15.852,277.704,59.25598)" fill="#466699"/>
<use data-text="T" xlink:href="#font_3_5" transform="matrix(9.388801,0,0,-9.388801,286.548,54.016847)" fill="#466699"/>
<use data-text=" " xlink:href="#font_3_2" transform="matrix(15.852,0,0,-15.852,292.332,59.25598)" fill="#466699"/>
<use data-text="(" xlink:href="#font_3_6" transform="matrix(15.852,0,0,-15.852,297.09364,59.25598)" fill="#466699"/>
<use data-text="x" xlink:href="#font_4_2" transform="matrix(15.852,0,0,-15.852,303.3528,59.25598)" fill="#466699"/>
<use data-text=" " xlink:href="#font_3_2" transform="matrix(15.852,0,0,-15.852,313.4208,59.25598)" fill="#466699"/>
<use data-text="-" xlink:href="#font_3_1" transform="matrix(15.852,0,0,-15.852,318.22395,59.25598)" fill="#466699"/>
<use data-text=" " xlink:href="#font_3_2" transform="matrix(15.852,0,0,-15.852,323.9782,59.25598)" fill="#466699"/>
<use data-text="x" xlink:href="#font_4_2" transform="matrix(15.852,0,0,-15.852,329.06883,59.25598)" fill="#466699"/>
<use data-text="0" xlink:href="#font_3_3" transform="matrix(9.388801,0,0,-9.388801,335.53199,64.833499)" fill="#466699"/>
<use data-text=")" xlink:href="#font_3_7" transform="matrix(15.852,0,0,-15.852,341.9952,59.25598)" fill="#466699"/>
<use data-text=" " xlink:href="#font_3_2" transform="matrix(15.852,0,0,-15.852,348.00309,59.25598)" fill="#466699"/>
<use data-text="=" xlink:href="#font_3_8" transform="matrix(15.852,0,0,-15.852,352.80625,59.25598)" fill="#466699"/>
<use data-text=" " xlink:href="#font_3_2" transform="matrix(15.852,0,0,-15.852,366.23289,59.25598)" fill="#466699"/>
<use data-text="=" xlink:href="#font_3_8" transform="matrix(15.852,0,0,-15.852,266.616,90.95752)" fill="#466699"/>
<use data-text=" " xlink:href="#font_3_2" transform="matrix(15.852,0,0,-15.852,279.8207,90.95752)" fill="#466699"/>
<use data-text="θ" xlink:href="#font_4_1" transform="matrix(15.852,0,0,-15.852,284.84883,90.95752)" fill="#466699"/>
<use data-text="*" xlink:href="#font_3_4" transform="matrix(15.852,0,0,-15.852,295.9368,90.95752)" fill="#466699"/>
<use data-text="T" xlink:href="#font_3_5" transform="matrix(9.388801,0,0,-9.388801,301.9248,85.924808)" fill="#466699"/>
<use data-text="x" xlink:href="#font_4_2" transform="matrix(15.852,0,0,-15.852,307.70643,90.95752)" fill="#466699"/>
<use data-text=" " xlink:href="#font_3_2" transform="matrix(15.852,0,0,-15.852,317.5032,90.95752)" fill="#466699"/>
<use data-text="-" xlink:href="#font_3_1" transform="matrix(15.852,0,0,-15.852,322.30638,90.95752)" fill="#466699"/>
<use data-text=" " xlink:href="#font_3_2" transform="matrix(15.852,0,0,-15.852,328.06068,90.95752)" fill="#466699"/>
<use data-text="θ" xlink:href="#font_4_1" transform="matrix(15.852,0,0,-15.852,333.1512,90.95752)" fill="#466699"/>
<use data-text="*" xlink:href="#font_3_4" transform="matrix(15.852,0,0,-15.852,344.172,90.95752)" fill="#466699"/>
<use data-text="T" xlink:href="#font_3_5" transform="matrix(9.388801,0,0,-9.388801,351.58564,85.924808)" fill="#466699"/>
<use data-text="x" xlink:href="#font_4_2" transform="matrix(15.852,0,0,-15.852,357.36964,90.95752)" fill="#466699"/>
<use data-text="0" xlink:href="#font_3_3" transform="matrix(9.388801,0,0,-9.388801,366.6888,96.46802)" fill="#466699"/>
<use data-text=" " xlink:href="#font_3_2" transform="matrix(15.852,0,0,-15.852,373.22163,90.95752)" fill="#466699"/>
<use data-text="=" xlink:href="#font_3_8" transform="matrix(15.852,0,0,-15.852,377.98323,90.95752)" fill="#466699"/>
<use data-text="=" xlink:href="#font_3_8" transform="matrix(15.852,0,0,-15.852,266.616,122.86548)" fill="#466699"/>
<use data-text=" " xlink:href="#font_3_2" transform="matrix(15.852,0,0,-15.852,279.8207,122.86548)" fill="#466699"/>
<use data-text="θ" xlink:href="#font_4_1" transform="matrix(15.852,0,0,-15.852,284.84883,122.86548)" fill="#466699"/>
<use data-text="*" xlink:href="#font_3_4" transform="matrix(15.852,0,0,-15.852,295.9368,122.86548)" fill="#466699"/>
<use data-text="T" xlink:href="#font_3_5" transform="matrix(9.388801,0,0,-9.388801,301.9248,117.62634)" fill="#466699"/>
<use data-text="x" xlink:href="#font_4_2" transform="matrix(15.852,0,0,-15.852,307.70643,122.86548)" fill="#466699"/>
<use data-text=" " xlink:href="#font_3_2" transform="matrix(15.852,0,0,-15.852,317.5032,122.86548)" fill="#466699"/>
<use data-text="+" xlink:href="#font_3_9" transform="matrix(15.852,0,0,-15.852,322.30638,122.86548)" fill="#466699"/>
<use data-text="θ" xlink:href="#font_3_10" transform="matrix(11.9736,0,0,-11.9736,339.81843,111.84473)" fill="#466699"/>
<use data-text="0" xlink:href="#font_3_3" transform="matrix(6.9384005,0,0,-6.9384005,347.7768,115.924808)" fill="#466699"/>
<path transform="matrix(2.4,0,0,-2.4,0,1900.8)" d="M140.343 742.876H148.847V742.337H140.343V742.876Z" fill="#466699" fill-rule="evenodd"/>
<use data-text="|" xlink:href="#font_3_11" transform="matrix(11.9736,0,0,-11.9736,336.96,131.77674)" fill="#466699"/>
<use data-text=" " xlink:href="#font_3_2" transform="matrix(11.9736,0,0,-11.9736,341.01905,131.77674)" fill="#466699"/>
<use data-text="θ" xlink:href="#font_4_1" transform="matrix(11.9736,0,0,-11.9736,344.64723,131.77674)" fill="#466699"/>
<use data-text=" " xlink:href="#font_3_2" transform="matrix(11.9736,0,0,-11.9736,352.812,131.77674)" fill="#466699"/>
<use data-text="|" xlink:href="#font_3_11" transform="matrix(11.9736,0,0,-11.9736,356.4041,131.77674)" fill="#466699"/>
<use data-text="1" xlink:href="#font_3_12" transform="matrix(11.4984,0,0,-11.4984,362.60884,153.13916)" fill="#466699"/>
<path transform="matrix(2.4,0,0,-2.4,0,1900.8)" d="M148.45 726.52H156.784V725.981H148.45V726.52Z" fill="#466699" fill-rule="evenodd"/>
<use data-text="|" xlink:href="#font_3_11" transform="matrix(11.4984,0,0,-11.4984,356.4168,170.62317)" fill="#466699"/>
<use data-text=" " xlink:href="#font_3_2" transform="matrix(11.4984,0,0,-11.4984,360.0043,170.62317)" fill="#466699"/>
<use data-text="θ" xlink:href="#font_4_1" transform="matrix(11.4984,0,0,-11.4984,363.83283,170.62317)" fill="#466699"/>
<use data-text=" " xlink:href="#font_3_2" transform="matrix(11.4984,0,0,-11.4984,371.52003,170.62317)" fill="#466699"/>
<use data-text="|" xlink:href="#font_3_11" transform="matrix(11.4984,0,0,-11.4984,375.10755,170.62317)" fill="#466699"/>
<use data-text="(" xlink:href="#font_3_6" transform="matrix(15.578401,0,0,-15.578401,380.9088,163.41126)" fill="#466699"/>
<use data-text="θ" xlink:href="#font_4_1" transform="matrix(15.578401,0,0,-15.578401,386.8944,163.41126)" fill="#466699"/>
<use data-text="*" xlink:href="#font_3_4" transform="matrix(15.578401,0,0,-15.578401,397.7112,163.41126)" fill="#466699"/>
<use data-text="T" xlink:href="#font_3_5" transform="matrix(9.115201,0,0,-9.115201,405.80885,158.37842)" fill="#466699"/>
<use data-text="x" xlink:href="#font_4_2" transform="matrix(15.578401,0,0,-15.578401,411.3864,163.41126)" fill="#466699"/>
<use data-text=" " xlink:href="#font_3_2" transform="matrix(15.578401,0,0,-15.578401,421.45445,163.41126)" fill="#466699"/>
<use data-text="+" xlink:href="#font_3_9" transform="matrix(15.578401,0,0,-15.578401,426.25257,163.41126)" fill="#466699"/>
<use data-text=" " xlink:href="#font_3_2" transform="matrix(15.578401,0,0,-15.578401,439.1982,163.41126)" fill="#466699"/>
<use data-text="θ" xlink:href="#font_3_10" transform="matrix(15.578401,0,0,-15.578401,443.99638,163.41126)" fill="#466699"/>
<use data-text="0" xlink:href="#font_3_3" transform="matrix(9.115201,0,0,-9.115201,449.55125,168.71765)" fill="#466699"/>
<use data-text=")" xlink:href="#font_3_7" transform="matrix(15.578401,0,0,-15.578401,455.74324,163.41126)" fill="#466699"/>
<use data-text="θ" xlink:href="#font_3_10" transform="matrix(17.5512,0,0,-17.5512,335.53199,215.52478)" fill="#466699"/>
<use data-text="0" xlink:href="#font_3_3" transform="matrix(10.3416,0,0,-10.3416,347.028,221.3064)" fill="#466699"/>
<use data-text=" " xlink:href="#font_3_2" transform="matrix(17.5512,0,0,-17.5512,353.9688,215.52478)" fill="#466699"/>
<use data-text="+" xlink:href="#font_3_9" transform="matrix(17.5512,0,0,-17.5512,359.54643,215.52478)" fill="#466699"/>
<use data-text=" " xlink:href="#font_3_2" transform="matrix(17.5512,0,0,-17.5512,374.21925,215.52478)" fill="#466699"/>
<use data-text="θ" xlink:href="#font_4_1" transform="matrix(17.5512,0,0,-17.5512,379.6848,215.52478)" fill="#466699"/>
<use data-text="*" xlink:href="#font_3_4" transform="matrix(17.5512,0,0,-17.5512,391.65843,215.52478)" fill="#466699"/>
<use data-text="T" xlink:href="#font_3_5" transform="matrix(10.3416,0,0,-10.3416,397.44004,209.53675)" fill="#466699"/>
<use data-text="x" xlink:href="#font_4_2" transform="matrix(17.5512,0,0,-17.5512,403.6992,215.52478)" fill="#466699"/>
<use data-text=" " xlink:href="#font_3_2" transform="matrix(17.5512,0,0,-17.5512,414.9912,215.52478)" fill="#466699"/>
<use data-text="=" xlink:href="#font_3_8" transform="matrix(17.5512,0,0,-17.5512,420.5198,215.52478)" fill="#466699"/>
<use data-text=" " xlink:href="#font_3_2" transform="matrix(17.5512,0,0,-17.5512,435.19267,215.52478)" fill="#466699"/>
<use data-text="0" xlink:href="#font_3_3" transform="matrix(17.5512,0,0,-17.5512,440.72126,215.52478)" fill="#466699"/>
<use data-text="θ" xlink:href="#font_4_1" transform="matrix(14.6256,0,0,-14.6256,146.60881,277.90797)" fill="#466699"/>
<path transform="matrix(2.4,0,0,-2.4,0,1900.8)" d="M58.564 673.143H69.024V672.463H58.564V673.143Z" fill="#466699" fill-rule="evenodd"/>
<use data-text="|" xlink:href="#font_3_11" transform="matrix(14.6256,0,0,-14.6256,140.6208,302.67115)" fill="#466699"/>
<use data-text=" " xlink:href="#font_3_2" transform="matrix(14.6256,0,0,-14.6256,145.418,302.67115)" fill="#466699"/>
<use data-text="θ" xlink:href="#font_4_1" transform="matrix(14.6256,0,0,-14.6256,150.00962,302.67115)" fill="#466699"/>
<use data-text=" " xlink:href="#font_3_2" transform="matrix(14.6256,0,0,-14.6256,160.0776,302.67115)" fill="#466699"/>
<use data-text="|" xlink:href="#font_3_11" transform="matrix(14.6256,0,0,-14.6256,164.62616,302.67115)" fill="#466699"/>
<use data-text="θ" xlink:href="#font_4_1" transform="matrix(19.6608,0,0,-19.6608,88.1016,294.03114)" fill="#466699"/>
<use data-text="*" xlink:href="#font_3_4" transform="matrix(19.6608,0,0,-19.6608,101.503208,294.03114)" fill="#466699"/>
<use data-text=" " xlink:href="#font_3_2" transform="matrix(19.6608,0,0,-19.6608,111.3336,294.03114)" fill="#466699"/>
<use data-text="=" xlink:href="#font_3_8" transform="matrix(19.6608,0,0,-19.6608,117.56608,294.03114)" fill="#466699"/>
<use data-text="v" xlink:href="#font_2_14" transform="matrix(16.056002,0,0,-16.056002,92.65921,330.02149)" fill="#466699"/>
<use data-text="e" xlink:href="#font_2_5" transform="matrix(16.056002,0,0,-16.056002,101.52212,330.02149)" fill="#466699"/>
<use data-text="t" xlink:href="#font_2_15" transform="matrix(16.056002,0,0,-16.056002,110.385028,330.02149)" fill="#466699"/>
<use data-text="o" xlink:href="#font_2_3" transform="matrix(16.056002,0,0,-16.056002,115.87618,330.02149)" fill="#466699"/>
<use data-text="r" xlink:href="#font_2_2" transform="matrix(16.056002,0,0,-16.056002,125.6864,330.02149)" fill="#466699"/>
<use data-text=" " xlink:href="#font_2_8" transform="matrix(16.056002,0,0,-16.056002,131.91613,330.02149)" fill="#466699"/>
<use data-text="u" xlink:href="#font_2_16" transform="matrix(16.056002,0,0,-16.056002,136.45998,330.02149)" fill="#466699"/>
<use data-text="n" xlink:href="#font_2_17" transform="matrix(16.056002,0,0,-16.056002,146.27019,330.02149)" fill="#466699"/>
<use data-text="i" xlink:href="#font_2_18" transform="matrix(16.056002,0,0,-16.056002,156.08042,330.02149)" fill="#466699"/>
<use data-text="t" xlink:href="#font_2_15" transform="matrix(16.056002,0,0,-16.056002,160.62424,330.02149)" fill="#466699"/>
<use data-text="á" xlink:href="#font_2_19" transform="matrix(16.056002,0,0,-16.056002,166.11539,330.02149)" fill="#466699"/>
<use data-text="r" xlink:href="#font_2_2" transform="matrix(16.056002,0,0,-16.056002,174.97832,330.02149)" fill="#466699"/>
<use data-text="i" xlink:href="#font_2_18" transform="matrix(16.056002,0,0,-16.056002,181.20804,330.02149)" fill="#466699"/>
<use data-text="o" xlink:href="#font_2_3" transform="matrix(16.056002,0,0,-16.056002,185.99272,330.02149)" fill="#466699"/>
<use data-text="x" xlink:href="#font_4_2" transform="matrix(17.69121,-4.410914,-4.410914,-17.69121,140.14562,111.57117)" fill="#466699"/>
<path transform="matrix(2.4,0,0,-2.4,0,1900.8)" d="M85.238 782.929C82.261 782.504 79.37 781.427 76.734 779.953 74.126 778.45 71.66 776.523 69.874 774.057 68.4 772.044 67.38 769.606 66.784 767.169 66.217 764.702 65.991 762.123 66.444 759.628 66.841 757.474 67.861 755.348 69.761 754.101 69.987 753.959 70.214 753.846 70.441 753.704 70.696 753.591 71.008 753.647 71.178 753.902 71.291 754.129 71.235 754.498 70.98 754.611 70.101 755.065 69.364 755.688 68.825 756.454 68.202 757.332 67.833 758.211 67.578 759.231 67.039 761.471 67.181 763.909 67.635 766.148 68.145 768.501 68.995 770.797 70.271 772.809 71.802 775.191 74.013 777.061 76.394 778.535 78.888 780.066 81.638 781.2 84.501 781.767 84.841 781.824 85.181 781.88 85.521 781.937 85.805 781.965 85.946 782.334 85.89 782.561 85.805 782.872 85.521 782.986 85.238 782.929Z" fill="#466699" fill-rule="evenodd"/>
<path transform="matrix(2.4,0,0,-2.4,0,1900.8)" d="M151.795 742.082C153.241 741.969 154.12 740.806 154.063 739.332 154.035 738.397 153.666 737.49 153.184 736.696 153.043 736.441 152.872 736.186 152.702 735.959 152.561 735.789 152.646 735.874 152.674 735.902 152.646 735.874 152.617 735.874 152.589 735.846 152.532 735.761 152.504 735.704 152.447 735.647 152.362 735.562 152.277 735.477 152.192 735.392 152.135 735.364 152.079 735.335 152.022 735.279 152.022 735.25 151.994 735.25 151.965 735.222 152.05 735.307 151.965 735.222 151.937 735.194 151.71 735.052 151.483 734.882 151.228 734.769 151.115 734.712 151.002 734.655 150.86 734.598 150.831 734.57 150.803 734.57 150.775 734.542 150.775 734.542 150.86 734.57 150.746 734.542 150.69 734.513 150.605 734.485 150.548 734.457 149.953 734.23 149.357 734.088 148.734 733.975 147.43 733.72 146.041 733.635 144.595 733.55 141.761 733.436 138.841 733.55 136.063 732.841 134.929 732.557 133.795 732.076 132.945 731.254 132.491 730.828 132.151 730.318 131.896 729.751 131.613 729.184 131.386 728.504 131.528 727.852 131.839 726.633 133.342 726.406 134.391 726.321 136.035 726.151 137.735 726.18 139.38 725.953 139.805 725.896 140.23 725.839 140.655 725.726 141.307 725.613 141.591 726.605 140.939 726.746 139.153 727.115 137.339 727.172 135.553 727.257 134.844 727.313 134.22 727.342 133.569 727.483 133.455 727.512 133.342 727.54 133.228 727.569 133.143 727.597 133.087 727.625 133.03 727.654 133.143 727.597 132.973 727.654 132.945 727.682 132.888 727.71 132.86 727.739 132.803 727.767 132.775 727.795 132.746 727.795 132.718 727.824 132.746 727.824 132.831 727.739 132.746 727.795 132.718 727.824 132.69 727.852 132.661 727.88 132.576 727.965 132.69 727.824 132.605 727.937 132.605 727.994 132.576 728.022 132.548 728.079 132.605 727.937 132.548 728.079 132.548 728.107 132.52 728.135 132.52 728.164 132.52 728.192 132.52 728.192 132.52 728.079 132.52 728.164 132.52 728.22 132.52 728.277 132.52 728.362 132.52 728.391 132.52 728.391 132.52 728.419 132.548 728.561 132.52 728.362 132.52 728.447 132.548 728.504 132.548 728.561 132.576 728.646 132.605 728.787 132.661 728.957 132.746 729.099 132.831 729.354 133.03 729.694 133.2 729.978 133.228 730.006 133.257 730.063 133.313 730.12 133.342 730.176 133.228 730.035 133.313 730.12 133.313 730.148 133.342 730.176 133.37 730.205 133.455 730.29 133.54 730.403 133.654 730.488 133.739 730.573 133.824 730.658 133.909 730.743 133.937 730.772 133.965 730.772 133.994 730.8 133.965 730.8 133.909 730.743 133.994 730.8 134.05 730.828 134.107 730.885 134.164 730.913 134.391 731.083 134.646 731.225 134.901 731.339 134.957 731.367 135.014 731.367 135.071 731.395 135.043 731.395 135.184 731.452 135.128 731.424 135.043 731.395 135.184 731.452 135.184 731.452 135.326 731.509 135.439 731.565 135.581 731.594 135.893 731.707 136.176 731.792 136.488 731.877 136.8 731.934 137.083 731.991 137.395 732.047 137.764 732.104 138.019 732.161 138.331 732.189 139.039 732.274 139.748 732.331 140.457 732.359 141.931 732.444 143.433 732.472 144.935 732.529 146.353 732.614 147.77 732.699 149.187 732.983 150.35 733.238 151.54 733.606 152.504 734.343 153.099 734.797 153.553 735.335 153.95 735.959 154.545 736.838 154.942 737.83 155.083 738.907 155.282 740.58 154.545 742.224 152.957 742.876 152.589 743.046 152.192 743.102 151.795 743.131 151.512 743.159 151.285 742.876 151.285 742.62 151.285 742.309 151.512 742.11 151.795 742.082Z" fill="#466699" fill-rule="evenodd"/>
<path transform="matrix(2.4,0,0,-2.4,0,1900.8)" d="M37.701 677.282C40.195 681.449 41.046 686.494 40.167 691.228 39.94 692.561 39.543 693.836 39.033 695.083 38.92 695.339 38.693 695.509 38.353 695.452 38.126 695.367 37.871 695.055 37.984 694.8 39.798 690.548 39.912 685.701 38.438 681.335 38.013 680.088 37.474 678.898 36.794 677.792 36.454 677.225 37.361 676.687 37.701 677.282Z" fill="#466699" fill-rule="evenodd"/>
<path transform="matrix(2.4,0,0,-2.4,0,1900.8)" d="M37.446 657.496C36.595 657.666 35.745 657.893 34.98 658.29 34.384 658.602 33.959 658.97 33.647 659.537 33.364 660.132 33.335 660.898 33.449 661.606 33.619 662.428 33.931 663.25 34.271 664.016 34.639 664.781 35.065 665.546 35.461 666.283 35.802 666.879 34.894 667.417 34.583 666.822 33.732 665.263 32.797 663.704 32.457 661.946 32.287 661.039 32.287 660.104 32.655 659.225 32.967 658.517 33.506 657.95 34.157 657.553 35.065 656.957 36.113 656.674 37.162 656.447 37.814 656.306 38.098 657.326 37.446 657.496Z" fill="#466699" fill-rule="evenodd"/>
<path transform="matrix(2.4,0,0,-2.4,0,1900.8)" d="M69.42 757.786C69.704 756.51 69.959 755.263 70.214 753.987 70.328 754.214 70.469 754.441 70.583 754.639 69.42 754.413 68.287 754.157 67.153 753.931 66.954 753.902 66.784 753.874 66.614 753.817 66.331 753.761 66.189 753.449 66.246 753.194 66.331 752.91 66.614 752.769 66.898 752.825L70.356 753.534C70.526 753.562 70.696 753.591 70.866 753.647 71.15 753.704 71.263 754.016 71.206 754.271 70.951 755.546 70.696 756.794 70.441 758.069 70.384 758.324 70.044 758.523 69.789 758.466 69.506 758.353 69.364 758.069 69.42 757.786Z" fill="#466699" fill-rule="evenodd"/>
<path transform="matrix(2.4,0,0,-2.4,0,1900.8)" d="M98.419 778.479C98.872 775.162 101.225 772.356 104.343 771.137 105.222 770.825 106.129 770.655 107.065 770.627 107.745 770.598 107.745 771.676 107.065 771.704 104.145 771.761 101.48 773.66 100.176 776.239 99.836 776.948 99.581 777.713 99.496 778.479 99.439 778.762 99.269 779.017 98.957 779.017 98.702 779.017 98.391 778.762 98.419 778.479Z" fill="#466699" fill-rule="evenodd"/>
<path transform="matrix(2.4,0,0,-2.4,0,1900.8)" d="M105.052 773.15C105.846 772.384 106.611 771.591 107.376 770.825V771.562L104.939 769.181C104.457 768.671 105.194 767.934 105.704 768.416L108.113 770.825C108.312 771.024 108.312 771.364 108.113 771.562 107.348 772.356 106.583 773.121 105.817 773.887 105.335 774.369 104.598 773.631 105.052 773.15Z" fill="#466699" fill-rule="evenodd"/>
<path transform="matrix(2.4,0,0,-2.4,0,1900.8)" d="M139.153 728.674C140.031 727.739 140.967 726.803 141.846 725.868V726.605C140.825 725.698 139.861 724.762 138.869 723.827 138.387 723.373 139.124 722.636 139.635 723.09 140.598 723.997 141.591 724.961 142.583 725.868 142.781 726.066 142.753 726.406 142.583 726.605 141.704 727.54 140.769 728.476 139.89 729.411 139.436 729.921 138.699 729.184 139.153 728.674Z" fill="#466699" fill-rule="evenodd"/>
<path transform="matrix(2.4,0,0,-2.4,0,1900.8)" d="M37.644 691.228C37.928 692.476 38.211 693.751 38.494 695.027L37.871 694.658C39.175 694.346 40.507 694.063 41.811 693.751 42.463 693.609 42.746 694.602 42.094 694.772 40.791 695.055 39.43 695.367 38.126 695.65 37.871 695.735 37.559 695.594 37.502 695.31 37.219 694.035 36.907 692.787 36.624 691.512 36.482 690.86 37.474 690.576 37.644 691.228Z" fill="#466699" fill-rule="evenodd"/>
<path transform="matrix(2.4,0,0,-2.4,0,1900.8)" d="M31.436 664.98C32.683 665.32 33.931 665.66 35.178 666.028 34.98 666.142 34.753 666.255 34.554 666.397 34.923 665.093 35.263 663.817 35.631 662.513 35.83 661.89 36.822 662.145 36.652 662.797 36.283 664.101 35.915 665.376 35.546 666.68 35.49 666.964 35.178 667.134 34.923 667.049 33.647 666.709 32.4 666.312 31.153 665.972 30.529 665.802 30.784 664.781 31.436 664.98Z" fill="#466699" fill-rule="evenodd"/>
<use data-text="0" xlink:href="#font_3_3" transform="matrix(10.495495,-2.616821,-2.616821,-10.495495,151.9152,114.974369)" fill="#466699"/>
<use data-text="(" xlink:href="#font_4_3" transform="matrix(19.1856,0,0,-19.1856,3.6048,25.919922)" fill="#466699"/>
<use data-text="a" xlink:href="#font_4_4" transform="matrix(19.1856,0,0,-19.1856,12.468548,25.919922)" fill="#466699"/>
<use data-text=")" xlink:href="#font_4_5" transform="matrix(19.1856,0,0,-19.1856,25.399643,25.919922)" fill="#466699"/>
<path transform="matrix(2.4,0,0,-2.4,0,1900.8)" d="M79.143 758.92C79.143 758.636 78.917 758.381 78.605 758.381 78.293 758.381 78.009 758.636 78.009 758.92 78.009 759.26 78.293 759.515 78.605 759.515 78.917 759.515 79.143 759.26 79.143 758.92Z" fill="#466699" fill-rule="evenodd"/>
<use data-text="x" xlink:href="#font_4_2" transform="matrix(21.3624,0,0,-21.3624,229.6752,93.33838)" fill="#466699"/>
<use data-text="(" xlink:href="#font_4_3" transform="matrix(19.1856,0,0,-19.1856,485.06404,30.47754)" fill="#466699"/>
<use data-text="b" xlink:href="#font_4_6" transform="matrix(19.1856,0,0,-19.1856,493.92778,30.47754)" fill="#466699"/>
<use data-text=")" xlink:href="#font_4_5" transform="matrix(19.1856,0,0,-19.1856,507.5879,30.47754)" fill="#466699"/>
<use data-text="1" xlink:href="#font_3_12" transform="matrix(14.899201,0,0,-14.899201,814.54086,302.87513)" fill="#466699"/>
<use data-text="|" xlink:href="#font_3_11" transform="matrix(14.899201,0,0,-14.899201,806.85366,325.1903)" fill="#466699"/>
<use data-text=" " xlink:href="#font_3_2" transform="matrix(14.899201,0,0,-14.899201,811.666,325.1903)" fill="#466699"/>
<use data-text="θ" xlink:href="#font_4_1" transform="matrix(17.5512,0,0,-17.5512,814.54086,325.46156)" fill="#466699"/>
<path transform="matrix(2.4,0,0,-2.4,0,1900.8)" d="M336.132 663.732H346.706V663.052H336.132V663.732Z" fill="#466699" fill-rule="evenodd"/>
<use data-text=" " xlink:href="#font_3_2" transform="matrix(14.899201,0,0,-14.899201,826.3104,325.1903)" fill="#466699"/>
<use data-text="|" xlink:href="#font_3_11" transform="matrix(14.899201,0,0,-14.899201,830.86807,325.1903)" fill="#466699"/>
<path transform="matrix(2.4,0,0,-2.4,0,1900.8)" d="M224.957 768.472C226.431 767.565 227.877 766.687 229.351 765.78 233.291 763.37 237.26 760.961 241.228 758.551 247.068 754.98 252.907 751.408 258.775 747.808 265.918 743.443 273.09 739.077 280.261 734.712 288.028 729.95 295.824 725.187 303.619 720.425L327.373 705.94C334.743 701.461 342.113 696.983 349.483 692.476 355.691 688.677 361.899 684.907 368.135 681.109 372.614 678.359 377.093 675.638 381.572 672.888 383.669 671.613 385.767 670.309 387.893 669.033 387.978 668.976 388.091 668.92 388.176 668.863 388.743 668.523 389.282 669.43 388.715 669.77 387.241 670.649 385.767 671.556 384.321 672.435 380.353 674.872 376.413 677.282 372.444 679.691 366.605 683.263 360.737 686.835 354.898 690.406 347.726 694.772 340.583 699.137 333.411 703.502 325.587 708.265 317.792 713.027 309.997 717.761 302.088 722.608 294.18 727.427 286.271 732.246 278.901 736.753 271.559 741.231 264.189 745.71 257.981 749.509 251.773 753.335 245.537 757.134 241.058 759.855 236.58 762.605 232.101 765.326 229.975 766.63 227.906 767.934 225.751 769.181 225.666 769.238 225.581 769.294 225.496 769.351 224.929 769.72 224.391 768.813 224.957 768.472Z" fill="#a9294f" fill-rule="evenodd"/>
<path transform="matrix(2.4,0,0,-2.4,0,1900.8)" d="M231.194 777.628C232.668 776.721 234.113 775.843 235.587 774.935 239.528 772.526 243.496 770.117 247.465 767.707 253.304 764.135 259.143 760.564 265.011 756.992 272.154 752.627 279.326 748.233 286.469 743.868 294.265 739.106 302.06 734.343 309.855 729.581 317.792 724.762 325.701 719.943 333.638 715.096 340.98 710.617 348.35 706.139 355.691 701.631 361.928 697.861 368.135 694.063 374.343 690.265 378.85 687.515 383.329 684.794 387.808 682.072 389.906 680.769 392.003 679.465 394.129 678.189 394.214 678.132 394.328 678.076 394.413 678.019 394.98 677.679 395.518 678.586 394.923 678.926 393.477 679.833 392.003 680.712 390.557 681.591 386.589 684.028 382.649 686.438 378.68 688.847 372.841 692.419 366.973 695.991 361.134 699.562 353.962 703.928 346.819 708.293 339.647 712.658 331.852 717.42 324.028 722.183 316.233 726.917 308.324 731.764 300.416 736.583 292.507 741.402 285.137 745.909 277.795 750.416 270.425 754.894 264.217 758.693 257.981 762.491 251.773 766.29 247.294 769.011 242.816 771.761 238.337 774.482 236.211 775.786 234.142 777.09 231.987 778.337 231.902 778.394 231.817 778.45 231.732 778.507 231.137 778.876 230.627 777.969 231.194 777.628Z" fill="#a6caf0" fill-rule="evenodd"/>
<path transform="matrix(2.4,0,0,-2.4,0,1900.8)" d="M213.534 760.422C214.98 759.543 216.454 758.636 217.899 757.757 221.868 755.348 225.808 752.91 229.776 750.501 235.616 746.901 241.483 743.329 247.323 739.757 254.494 735.392 261.638 731.027 268.809 726.661 276.605 721.928 284.4 717.165 292.195 712.403 300.104 707.584 308.013 702.737 315.921 697.918 323.291 693.439 330.633 688.932 338.031 684.454L356.683 673.058C361.162 670.337 365.641 667.616 370.12 664.866 372.246 663.591 374.343 662.258 376.469 661.011 376.554 660.954 376.639 660.898 376.724 660.841 377.32 660.501 377.83 661.38 377.263 661.748 375.789 662.627 374.343 663.534 372.869 664.413 368.929 666.822 364.961 669.231 361.02 671.669 355.153 675.241 349.313 678.813 343.446 682.356 336.302 686.75 329.102 691.115 321.959 695.48 314.164 700.214 306.369 704.976 298.573 709.739 290.665 714.557 282.728 719.405 274.819 724.224 267.477 728.702 260.107 733.209 252.765 737.688 246.529 741.487 240.321 745.285 234.113 749.055 229.606 751.833 225.128 754.554 220.649 757.304 218.551 758.58 216.454 759.912 214.328 761.159 214.243 761.216 214.129 761.272 214.044 761.329 213.477 761.669 212.939 760.762 213.534 760.422Z" fill="#a6caf0" fill-rule="evenodd"/>
<path transform="matrix(2.4,0,0,-2.4,0,1900.8)" d="M230.598 765.581V689.443C230.598 688.422 230.513 687.373 230.598 686.353 230.598 686.296 230.598 686.239 230.598 686.211 230.598 685.928 230.825 685.672 231.109 685.672H380.721C382.734 685.672 384.775 685.644 386.787 685.672 386.872 685.672 386.957 685.672 387.043 685.672 387.723 685.672 387.723 686.721 387.043 686.721H233.461C232.781 686.721 232.044 686.778 231.364 686.721 231.279 686.721 231.194 686.721 231.109 686.721 231.279 686.551 231.449 686.381 231.619 686.211V762.321C231.619 763.37 231.704 764.419 231.619 765.439 231.619 765.496 231.619 765.524 231.619 765.581 231.619 766.233 230.598 766.261 230.598 765.581Z" fill="#466699" fill-rule="evenodd"/>
<path transform="matrix(2.4,0,0,-2.4,0,1900.8)" d="M383.924 688.62C384.831 687.713 385.767 686.806 386.674 685.899V686.636C385.739 685.672 384.775 684.709 383.811 683.745 383.329 683.291 384.094 682.554 384.548 683.008 385.54 683.972 386.476 684.935 387.411 685.899 387.638 686.098 387.638 686.438 387.411 686.636L384.661 689.357C384.18 689.839 383.443 689.102 383.924 688.62Z" fill="#466699" fill-rule="evenodd"/>
<path transform="matrix(2.4,0,0,-2.4,0,1900.8)" d="M228.699 763.852C229.606 764.787 230.513 765.694 231.42 766.602H230.683C231.647 765.638 232.583 764.702 233.518 763.767 234 763.257 234.765 764.022 234.255 764.504 233.32 765.439 232.384 766.375 231.42 767.339 231.222 767.565 230.882 767.565 230.683 767.339 229.776 766.431 228.869 765.524 227.962 764.589 227.452 764.135 228.217 763.37 228.699 763.852Z" fill="#466699" fill-rule="evenodd"/>
<path transform="matrix(2.4,0,0,-2.4,0,1900.8)" d="M278.362 764.164C278.362 762.746 277.228 761.584 275.811 761.584 274.365 761.584 273.231 762.746 273.231 764.164 273.231 765.553 274.365 766.715 275.811 766.715 277.228 766.715 278.362 765.553 278.362 764.164Z" fill="#4c9b95" fill-rule="evenodd"/>
<path transform="matrix(2.4,0,0,-2.4,0,1900.8)" d="M286.781 770.4C286.781 769.011 285.619 767.849 284.202 767.849 282.784 767.849 281.65 769.011 281.65 770.4 281.65 771.817 282.784 772.98 284.202 772.98 285.619 772.98 286.781 771.817 286.781 770.4Z" fill="#4c9b95" fill-rule="evenodd"/>
<path transform="matrix(2.4,0,0,-2.4,0,1900.8)" d="M295.88 776.154C295.88 774.737 294.69 773.603 293.301 773.603 291.883 773.603 290.75 774.737 290.75 776.154 290.75 777.6 291.883 778.734 293.301 778.734 294.69 778.734 295.88 777.6 295.88 776.154Z" fill="#4c9b95" fill-rule="evenodd"/>
<path transform="matrix(2.4,0,0,-2.4,0,1900.8)" d="M295.398 764.391C295.398 762.973 294.265 761.783 292.847 761.783 291.458 761.783 290.268 762.973 290.268 764.391 290.268 765.78 291.458 766.942 292.847 766.942 294.265 766.942 295.398 765.78 295.398 764.391Z" fill="#4c9b95" fill-rule="evenodd"/>
<path transform="matrix(2.4,0,0,-2.4,0,1900.8)" d="M302.683 754.016C302.683 752.598 301.55 751.436 300.104 751.436 298.687 751.436 297.553 752.598 297.553 754.016 297.553 755.433 298.687 756.567 300.104 756.567 301.55 756.567 302.683 755.433 302.683 754.016Z" fill="#4c9b95" fill-rule="evenodd"/>
<path transform="matrix(2.4,0,0,-2.4,0,1900.8)" d="M274.45 774.283C274.45 772.894 273.288 771.704 271.899 771.704 270.482 771.704 269.32 772.894 269.32 774.283 269.32 775.701 270.482 776.835 271.899 776.835 273.288 776.835 274.45 775.701 274.45 774.283Z" fill="#4c9b95" fill-rule="evenodd"/>
<path transform="matrix(2.4,0,0,-2.4,0,1900.8)" d="M262.8 780.605C262.8 779.187 261.666 778.054 260.249 778.054 258.803 778.054 257.669 779.187 257.669 780.605 257.669 781.994 258.803 783.184 260.249 783.184 261.666 783.184 262.8 781.994 262.8 780.605Z" fill="#4c9b95" fill-rule="evenodd"/>
<path transform="matrix(2.4,0,0,-2.4,0,1900.8)" d="M286.328 758.013C286.328 756.567 285.165 755.433 283.748 755.433 282.331 755.433 281.197 756.567 281.197 758.013 281.197 759.43 282.331 760.564 283.748 760.564 285.165 760.564 286.328 759.43 286.328 758.013Z" fill="#4c9b95" fill-rule="evenodd"/>
<path transform="matrix(2.4,0,0,-2.4,0,1900.8)" d="M274.45 754.016C274.45 752.598 273.288 751.436 271.899 751.436 270.482 751.436 269.32 752.598 269.32 754.016 269.32 755.433 270.482 756.567 271.899 756.567 273.288 756.567 274.45 755.433 274.45 754.016Z" fill="#4c9b95" fill-rule="evenodd"/>
<path transform="matrix(2.4,0,0,-2.4,0,1900.8)" d="M304.101 705.742C304.554 706.422 304.98 707.074 305.405 707.754L308.551 712.573C309.798 714.501 311.046 716.457 312.293 718.384 313.37 720.057 314.476 721.757 315.553 723.43 316.063 724.224 316.63 725.046 317.112 725.868L317.14 725.896C317.509 726.491 316.602 727.03 316.233 726.435 315.808 725.754 315.383 725.102 314.957 724.422 313.909 722.835 312.888 721.219 311.839 719.603 310.592 717.676 309.345 715.72 308.098 713.792 306.992 712.12 305.887 710.447 304.809 708.746 304.299 707.953 303.704 707.159 303.222 706.309V706.28C302.854 705.713 303.761 705.146 304.101 705.742Z" fill="#466699" fill-rule="evenodd"/>
<path transform="matrix(2.4,0,0,-2.4,0,1900.8)" d="M323.915 708.69C324.624 709.795 325.332 710.901 326.041 712.006 327.146 713.707 328.28 715.436 329.386 717.165 329.641 717.562 329.896 717.959 330.151 718.356 330.52 718.923 329.613 719.461 329.244 718.894 328.564 717.789 327.855 716.712 327.146 715.635 326.041 713.906 324.879 712.176 323.773 710.447 323.518 710.022 323.263 709.625 323.008 709.228 322.639 708.661 323.546 708.151 323.915 708.69Z" fill="#466699" fill-rule="evenodd"/>
<path transform="matrix(2.4,0,0,-2.4,0,1900.8)" d="M325.616 693.213C326.353 694.375 327.146 695.537 327.912 696.699 329.102 698.57 330.321 700.441 331.512 702.283 331.795 702.737 332.05 703.162 332.334 703.587 332.702 704.183 331.795 704.693 331.427 704.126 330.69 702.935 329.924 701.773 329.159 700.611 327.969 698.74 326.75 696.869 325.531 695.027 325.276 694.602 324.992 694.148 324.709 693.723 324.34 693.156 325.247 692.646 325.616 693.213Z" fill="#466699" fill-rule="evenodd"/>
<use data-text="M" xlink:href="#font_3_13" transform="matrix(19.6608,0,0,-19.6608,760.5912,313.89845)" fill="#466699"/>
<use data-text=" " xlink:href="#font_3_2" transform="matrix(19.6608,0,0,-19.6608,777.38156,313.89845)" fill="#466699"/>
<use data-text="=" xlink:href="#font_3_8" transform="matrix(19.6608,0,0,-19.6608,783.8303,313.89845)" fill="#466699"/>
<use data-text="x" xlink:href="#font_4_2" transform="matrix(17.5512,0,0,-17.5512,849.37448,98.37366)" fill="#a9294f"/>
<use data-text="T" xlink:href="#font_3_5" transform="matrix(10.3416,0,0,-10.3416,859.7136,92.18152)" fill="#a9294f"/>
<use data-text="θ" xlink:href="#font_4_1" transform="matrix(17.5512,0,0,-17.5512,865.90567,98.37366)" fill="#a9294f"/>
<use data-text=" " xlink:href="#font_3_2" transform="matrix(17.5512,0,0,-17.5512,877.9465,98.37366)" fill="#a9294f"/>
<use data-text="+" xlink:href="#font_3_9" transform="matrix(17.5512,0,0,-17.5512,883.1856,98.37366)" fill="#a9294f"/>
<use data-text=" " xlink:href="#font_3_2" transform="matrix(17.5512,0,0,-17.5512,897.85836,98.37366)" fill="#a9294f"/>
<use data-text="θ" xlink:href="#font_3_10" transform="matrix(17.5512,0,0,-17.5512,899.0352,98.37366)" fill="#a9294f"/>
<use data-text="0" xlink:href="#font_3_3" transform="matrix(10.3416,0,0,-10.3416,910.5336,103.95117)" fill="#a9294f"/>
<use data-text=" " xlink:href="#font_3_2" transform="matrix(17.5512,0,0,-17.5512,917.5416,98.37366)" fill="#a9294f"/>
<use data-text="=" xlink:href="#font_3_8" transform="matrix(17.5512,0,0,-17.5512,923.05209,98.37366)" fill="#a9294f"/>
<use data-text=" " xlink:href="#font_3_2" transform="matrix(17.5512,0,0,-17.5512,937.7248,98.37366)" fill="#a9294f"/>
<use data-text="0" xlink:href="#font_3_3" transform="matrix(17.5512,0,0,-17.5512,943.2534,98.37366)" fill="#a9294f"/>
<use data-text="p" xlink:href="#font_2_1" transform="matrix(17.5512,0,0,-17.5512,792.02169,60.7511)" fill="#466699"/>
<use data-text="o" xlink:href="#font_2_3" transform="matrix(17.5512,0,0,-17.5512,802.605,60.7511)" fill="#466699"/>
<use data-text="n" xlink:href="#font_2_17" transform="matrix(17.5512,0,0,-17.5512,813.399,60.7511)" fill="#466699"/>
<use data-text="t" xlink:href="#font_2_15" transform="matrix(17.5512,0,0,-17.5512,823.98239,60.7511)" fill="#466699"/>
<use data-text="o" xlink:href="#font_2_3" transform="matrix(17.5512,0,0,-17.5512,829.75668,60.7511)" fill="#466699"/>
<use data-text="s" xlink:href="#font_2_20" transform="matrix(17.5512,0,0,-17.5512,840.34,60.7511)" fill="#466699"/>
<use data-text=" " xlink:href="#font_2_8" transform="matrix(17.5512,0,0,-17.5512,850.1863,60.7511)" fill="#466699"/>
<use data-text="d" xlink:href="#font_2_9" transform="matrix(17.5512,0,0,-17.5512,855.2235,60.7511)" fill="#466699"/>
<use data-text="e" xlink:href="#font_2_5" transform="matrix(17.5512,0,0,-17.5512,865.8068,60.7511)" fill="#466699"/>
<use data-text=" " xlink:href="#font_2_8" transform="matrix(17.5512,0,0,-17.5512,875.6531,60.7511)" fill="#466699"/>
<use data-text="s" xlink:href="#font_2_20" transform="matrix(17.5512,0,0,-17.5512,880.4621,60.7511)" fill="#466699"/>
<use data-text="u" xlink:href="#font_2_16" transform="matrix(17.5512,0,0,-17.5512,890.30838,60.7511)" fill="#466699"/>
<use data-text="p" xlink:href="#font_2_1" transform="matrix(17.5512,0,0,-17.5512,900.89169,60.7511)" fill="#466699"/>
<use data-text="o" xlink:href="#font_2_3" transform="matrix(17.5512,0,0,-17.5512,911.68569,60.7511)" fill="#466699"/>
<use data-text="r" xlink:href="#font_2_2" transform="matrix(17.5512,0,0,-17.5512,922.26907,60.7511)" fill="#466699"/>
<use data-text="t" xlink:href="#font_2_15" transform="matrix(17.5512,0,0,-17.5512,929.2193,60.7511)" fill="#466699"/>
<use data-text="e" xlink:href="#font_2_5" transform="matrix(17.5512,0,0,-17.5512,934.9936,60.7511)" fill="#466699"/>
<use data-text="1" xlink:href="#font_3_12" transform="matrix(16.5312,0,0,-16.5312,954.9576,158.37842)" fill="#466699"/>
<use data-text="|" xlink:href="#font_3_11" transform="matrix(16.5312,0,0,-16.5312,946.1136,183.34558)" fill="#466699"/>
<use data-text=" " xlink:href="#font_3_2" transform="matrix(16.5312,0,0,-16.5312,951.61849,183.34558)" fill="#466699"/>
<use data-text="θ" xlink:href="#font_4_1" transform="matrix(17.5512,0,0,-17.5512,954.7536,183.61682)" fill="#466699"/>
<path transform="matrix(2.4,0,0,-2.4,0,1900.8)" d="M394.186 723.713H405.978V722.948H394.186V723.713Z" fill="#466699" fill-rule="evenodd"/>
<use data-text=" " xlink:href="#font_3_2" transform="matrix(16.5312,0,0,-16.5312,966.45608,183.34558)" fill="#466699"/>
<use data-text="|" xlink:href="#font_3_11" transform="matrix(16.5312,0,0,-16.5312,971.76248,183.34558)" fill="#466699"/>
<use data-text="M" xlink:href="#font_3_13" transform="matrix(22.111203,0,0,-22.111203,894.47769,170.89441)" fill="#466699"/>
<use data-text=" " xlink:href="#font_3_2" transform="matrix(22.111203,0,0,-22.111203,913.4712,170.89441)" fill="#466699"/>
<use data-text="=" xlink:href="#font_3_8" transform="matrix(22.111203,0,0,-22.111203,920.4362,170.89441)" fill="#466699"/>
<path transform="matrix(2.4,0,0,-2.4,0,1900.8)" stroke-width=".62361" stroke-linecap="butt" stroke-miterlimit="3.8637033" stroke-linejoin="miter" fill="none" stroke="#466699" d="M329.499 766.602 271.786 753.506"/>
<path transform="matrix(2.4,0,0,-2.4,0,1900.8)" stroke-width=".62361" stroke-linecap="butt" stroke-miterlimit="3.8637033" stroke-linejoin="miter" fill="none" stroke="#466699" d="M407.906 717.704V711.609H365.669L323.49 709.88"/>
<path transform="matrix(2.4,0,0,-2.4,0,1900.8)" stroke-width=".62361" stroke-linecap="butt" stroke-miterlimit="3.8637033" stroke-linejoin="miter" fill="none" stroke="#466699" d="M315.099 667.304V672.52H331.88L328.507 698.683"/>
<path transform="matrix(2.4,0,0,-2.4,0,1900.8)" d="M272.126 712.602 274.706 714.019 274.677 711.099 274.649 708.151 272.098 709.625 269.575 711.156 272.126 712.602Z" fill="#466699" fill-rule="evenodd"/>
<path transform="matrix(2.4,0,0,-2.4,0,1900.8)" d="M259.058 716.542 261.609 717.987 261.553 712.091 256.479 715.068 259.058 716.542Z" fill="#466699" fill-rule="evenodd"/>
<path transform="matrix(2.4,0,0,-2.4,0,1900.8)" d="M250.611 728.447 253.191 729.893 253.134 723.997 248.06 726.973 250.611 728.447Z" fill="#466699" fill-rule="evenodd"/>
<path transform="matrix(2.4,0,0,-2.4,0,1900.8)" d="M252.17 710.022 254.75 711.468 254.693 705.6 249.619 708.576 252.17 710.022Z" fill="#466699" fill-rule="evenodd"/>
<path transform="matrix(2.4,0,0,-2.4,0,1900.8)" d="M243.893 718.753 246.444 720.198 246.387 714.302 243.865 715.805 241.313 717.307 243.893 718.753Z" fill="#466699" fill-rule="evenodd"/>
<path transform="matrix(2.4,0,0,-2.4,0,1900.8)" d="M243.893 744.123 246.444 745.597 246.416 742.649 246.387 739.729 243.865 741.203 241.313 742.706 243.893 744.123Z" fill="#466699" fill-rule="evenodd"/>
<path transform="matrix(2.4,0,0,-2.4,0,1900.8)" d="M267.024 728.447 269.603 729.893 269.575 723.997 264.501 726.973 267.024 728.447Z" fill="#466699" fill-rule="evenodd"/>
<use data-text="m" xlink:href="#font_2_13" transform="matrix(17.5512,0,0,-17.5512,854.8848,134.90637)" fill="#466699"/>
<use data-text="a" xlink:href="#font_2_21" transform="matrix(17.5512,0,0,-17.5512,870.48788,134.90637)" fill="#466699"/>
<use data-text="r" xlink:href="#font_2_2" transform="matrix(17.5512,0,0,-17.5512,880.1059,134.90637)" fill="#466699"/>
<use data-text="g" xlink:href="#font_2_22" transform="matrix(17.5512,0,0,-17.5512,887.05618,134.90637)" fill="#466699"/>
<use data-text="e" xlink:href="#font_2_5" transform="matrix(17.5512,0,0,-17.5512,897.85018,134.90637)" fill="#466699"/>
<use data-text="m" xlink:href="#font_2_13" transform="matrix(17.5512,0,0,-17.5512,907.46829,134.90637)" fill="#466699"/>
</g>
</g>
</svg>