<svg xmlns="http://www.w3.org/2000/svg" xmlns:xlink="http://www.w3.org/1999/xlink" width="900" height="350">
<defs>
<path id="font_1_1" d="M.21099854 .7441406H.125C.09498596 .6741333 .06098938 .58013918 .06098938 .5001373V.45913697H.16899109V.50712588C.16899109 .59013369 .18798828 .6671295 .21099854 .7441406M.4099884 .7441406H.32398988C.2939911 .6741333 .2599945 .58013918 .2599945 .5001373V.45913697H.36799623V.50712588C.36799623 .59013369 .3869934 .6671295 .4099884 .7441406Z"/>
<path id="font_1_2" d="M.24198914 .5731354H.24499512L.43399049 0H.5389862L.7279968 .5771332H.73098757L.80999758 0H.9269867L.81599429 .7441406H.6729889L.48999024 .18103028H.4889984L.30099488 .7441406H.1579895L.04598999 0H.1619873L.24198914 .5731354Z"/>
<path id="font_1_3" d="M.2899933-.0126953129C.36999513-.0126953129 .43998719 .027297974 .47898866 .09429932L.49198915 0H.58999636V.54589846H.49198915L.47898866 .4519043C.43998719 .5185852 .36999513 .55859377 .2899933 .55859377 .16499329 .55859377 .04499817 .44560243 .04499817 .27194215 .04499817 .10028076 .16499329-.0126953129 .2899933-.0126953129M.31999208 .09529114C.23098755 .09529114 .16299439 .16815186 .16299439 .27294923 .16299439 .3767395 .23098755 .45059205 .31999208 .45059205 .40699769 .45059205 .47499085 .3767395 .47499085 .27294923 .47499085 .16815186 .40699769 .09529114 .31999208 .09529114Z"/>
<path id="font_1_4" d="M.54499819 .54589846H.4229889L.2849884 .15196228H.2829895L.1459961 .54589846H.017990113L.22299195 .017990113 .1289978-.20996094H.24798584L.54499819 .54589846Z"/>
<path id="font_1_5" d="M.054992677 .45913697H.14099121C.17098999 .529129 .20498657 .6231384 .20498657 .70314028V.7441406H.09700012V.6961365C.09700012 .61312869 .07798767 .5361328 .054992677 .45913697M.2519989 .45913697H.33799745C.36799623 .529129 .4019928 .6231384 .4019928 .70314028V.7441406H.2939911V.6961365C.2939911 .61312869 .2749939 .5361328 .2519989 .45913697Z"/>
<path id="font_1_6" d="M.21998596 .67289736H.10598755V.54589846H.023986817V.44589234H.10398865V.19810486C.10398865 .06820679 .18099976-.0087890629 .30999757-.0087890629 .34298707-.0087890629 .36799623-.0047912599 .3829956-.0018005371V.09919739C.36499024 .096206668 .34899903 .09420776 .33399964 .09420776 .2679901 .09420776 .21998596 .12617493 .21998596 .20410156V.44589234H.37098695V.54589846H.21998596V.67289736Z"/>
<path id="font_1_7" d="M.19499207 .80078127H.07699585V0H.19499207V.33268739C.19499207 .4116211 .25 .45059205 .31599427 .45059205 .3899994 .45059205 .42599488 .4096222 .42599488 .32569886V0H.5439911V.36166383C.5439911 .4895935 .46798707 .55859377 .34899903 .55859377 .28399659 .55859377 .22799683 .5275879 .19699097 .48458863H.19499207V.80078127Z"/>
<path id="font_1_8" d="M.55400088 .28329469C.55400088 .46359254 .44499208 .55859377 .31298829 .55859377 .16699219 .55859377 .04499817 .44566346 .04499817 .27130128 .04499817 .103302 .15299988-.0126953129 .33198548-.0126953129 .4019928-.0126953129 .46598817 .00630188 .5219879 .044296266V.15029907C.46699525 .107299808 .4059906 .08529663 .34399415 .08529663 .24798584 .08529663 .1749878 .14129639 .1579895 .23730469H.5509949C.5529938 .251297 .55400088 .2662964 .55400088 .28329469M.1579895 .31629945C.17199707 .40585328 .23799134 .46058656 .31199647 .46058656 .37998963 .46058656 .43899537 .41282655 .44198609 .31629945H.1579895Z"/>
<path id="font_2_1" d="M.21099854 .7441406H.125C.09498596 .6741333 .06098938 .58013918 .06098938 .5001373V.45913697H.16899109V.50712588C.16899109 .59013369 .18798828 .6671295 .21099854 .7441406M.4099884 .7441406H.32398988C.2939911 .6741333 .2599945 .58013918 .2599945 .5001373V.45913697H.36799623V.50712588C.36799623 .59013369 .3869934 .6671295 .4099884 .7441406Z"/>
<path id="font_2_9" d="M.09399414 0H.21398926V.29785157H.5049896V.4028473H.21398926V.63414H.5209961V.7441406H.09399414V0Z"/>
<path id="font_2_10" d="M.32199098-.0126953129C.47999574-.0126953129 .598999 .10726929 .598999 .27294923 .598999 .4386139 .47999574 .55859377 .32199098 .55859377 .16499329 .55859377 .04399109 .4386139 .04399109 .27294923 .04399109 .10726929 .1639862-.0126953129 .32199098-.0126953129M.32199098 .09529114C.24099732 .09529114 .16299439 .16017151 .16299439 .27294923 .16299439 .38571168 .24099732 .45059205 .32199098 .45059205 .40299989 .45059205 .47999574 .38571168 .47999574 .27294923 .47999574 .16017151 .40299989 .09529114 .32199098 .09529114Z"/>
<path id="font_2_11" d="M.07699585 0H.19499207V.29389955C.19499207 .3987732 .2649994 .44075013 .33499146 .44075013 .34899903 .44075013 .36299134 .4397583 .37599183 .43675233V.5488281C.36499024 .55075076 .35299684 .5517578 .33799745 .5517578 .2889862 .5517578 .22200012 .52975466 .18499756 .4607544H.18299866L.17098999 .54589846H.07699585V0Z"/>
<path id="font_2_12" d="M.16299439 .27294923C.16299439 .38272096 .24499512 .45059205 .33599855 .45059205 .3889923 .45059205 .43299867 .4376068 .47898866 .40567018V.5195923C.43399049 .54759219 .37998963 .55859377 .32398988 .55859377 .16499329 .55859377 .04399109 .436615 .04399109 .27394105 .04399109 .10926819 .16499329-.0126953129 .32398988-.0126953129 .3829956-.0126953129 .43699647 .0012969971 .47898866 .025299073V.13821411C.43299867 .104278568 .3809967 .09529114 .33699037 .09529114 .24499512 .09529114 .16299439 .16217041 .16299439 .27294923Z"/>
<path id="font_2_8" d="M.55400088 .28329469C.55400088 .46359254 .44499208 .55859377 .31298829 .55859377 .16699219 .55859377 .04499817 .44566346 .04499817 .27130128 .04499817 .103302 .15299988-.0126953129 .33198548-.0126953129 .4019928-.0126953129 .46598817 .00630188 .5219879 .044296266V.15029907C.46699525 .107299808 .4059906 .08529663 .34399415 .08529663 .24798584 .08529663 .1749878 .14129639 .1579895 .23730469H.5509949C.5529938 .251297 .55400088 .2662964 .55400088 .28329469M.1579895 .31629945C.17199707 .40585328 .23799134 .46058656 .31199647 .46058656 .37998963 .46058656 .43899537 .41282655 .44198609 .31629945H.1579895Z"/>
<path id="font_2_5" d="M.054992677 .45913697H.14099121C.17098999 .529129 .20498657 .6231384 .20498657 .70314028V.7441406H.09700012V.6961365C.09700012 .61312869 .07798767 .5361328 .054992677 .45913697M.2519989 .45913697H.33799745C.36799623 .529129 .4019928 .6231384 .4019928 .70314028V.7441406H.2939911V.6961365C.2939911 .61312869 .2749939 .5361328 .2519989 .45913697Z"/>
<path id="font_2_13" d="M.19499207 .80078127H.07699585V0H.1749878L.18798828 .09390259C.22698975 .027297974 .29699708-.0126953129 .375-.0126953129 .5029907-.0126953129 .6230011 .09829712 .6230011 .27294923 .6230011 .44758607 .5069885 .55859377 .3789978 .55859377 .30499269 .55859377 .23098755 .5205841 .19499207 .45558167V.80078127M.34700013 .45059205C.43598939 .45059205 .5039978 .3767395 .5039978 .27194215 .5039978 .16815186 .43598939 .09529114 .34799195 .09529114 .2599945 .09529114 .19299317 .16815186 .19299317 .27294923 .19299317 .3767395 .2599945 .45059205 .34700013 .45059205Z"/>
<path id="font_3_14" d="M.09399414 0H.21398926V.23632813H.29599C.48199464 .23632813 .59399417 .34431459 .59399417 .495224 .59399417 .6501312 .47799684 .7441406 .29100038 .7441406H.09399414V0M.3019867 .34532167H.21398926V.63414H.3019867C.4059906 .63414 .47299195 .5841675 .47299195 .4912262 .47299195 .399292 .4059906 .34532167 .3019867 .34532167Z"/>
<path id="font_3_15" d="M0 0Z"/>
<path id="font_3_16" d="M.34498597 .7441406H.22299195C.117996219 .63012698 .04899597 .48112489 .04899597 .3101349 .04899597 .13513184 .117996219-.012863159 .22299195-.12786865H.34498597C.24598694-.02986145 .1599884 .12513733 .1599884 .3091278 .1599884 .49313355 .24499512 .64712527 .34498597 .7441406Z"/>
<path id="font_3_17" d="M.72898867 0H.85198977L1.0699921 .7441406H.94999697L.78900149 .1499939H.7879944L.6029968 .7441406H.4889984L.30599977 .15098572H.30499269L.13999939 .7441406H.016998291L.23899842 0H.3639984L.54599 .5791321H.5469971L.72898867 0Z"/>
<path id="font_3_18" d="M.07598877-.18321228H.18199158V.9248047H.07598877V-.18321228Z"/>
<path id="font_3_1" d="M.21099854 .7441406H.125C.09498596 .6741333 .06098938 .58013918 .06098938 .5001373V.45913697H.16899109V.50712588C.16899109 .59013369 .18798828 .6671295 .21099854 .7441406M.4099884 .7441406H.32398988C.2939911 .6741333 .2599945 .58013918 .2599945 .5001373V.45913697H.36799623V.50712588C.36799623 .59013369 .3869934 .6671295 .4099884 .7441406Z"/>
<path id="font_3_2" d="M.24198914 .5731354H.24499512L.43399049 0H.5389862L.7279968 .5771332H.73098757L.80999758 0H.9269867L.81599429 .7441406H.6729889L.48999024 .18103028H.4889984L.30099488 .7441406H.1579895L.04598999 0H.1619873L.24198914 .5731354Z"/>
<path id="font_3_3" d="M.2899933-.0126953129C.36999513-.0126953129 .43998719 .027297974 .47898866 .09429932L.49198915 0H.58999636V.54589846H.49198915L.47898866 .4519043C.43998719 .5185852 .36999513 .55859377 .2899933 .55859377 .16499329 .55859377 .04499817 .44560243 .04499817 .27194215 .04499817 .10028076 .16499329-.0126953129 .2899933-.0126953129M.31999208 .09529114C.23098755 .09529114 .16299439 .16815186 .16299439 .27294923 .16299439 .3767395 .23098755 .45059205 .31999208 .45059205 .40699769 .45059205 .47499085 .3767395 .47499085 .27294923 .47499085 .16815186 .40699769 .09529114 .31999208 .09529114Z"/>
<path id="font_3_4" d="M.54499819 .54589846H.4229889L.2849884 .15196228H.2829895L.1459961 .54589846H.017990113L.22299195 .017990113 .1289978-.20996094H.24798584L.54499819 .54589846Z"/>
<path id="font_3_5" d="M.054992677 .45913697H.14099121C.17098999 .529129 .20498657 .6231384 .20498657 .70314028V.7441406H.09700012V.6961365C.09700012 .61312869 .07798767 .5361328 .054992677 .45913697M.2519989 .45913697H.33799745C.36799623 .529129 .4019928 .6231384 .4019928 .70314028V.7441406H.2939911V.6961365C.2939911 .61312869 .2749939 .5361328 .2519989 .45913697Z"/>
<path id="font_3_19" d="M.005996704 .7441406C.10598755 .64712527 .19099427 .49313355 .19099427 .3091278 .19099427 .12513733 .10499573-.02986145 .005996704-.12786865H.12799073C.23298645-.012863159 .3019867 .13513184 .3019867 .3101349 .3019867 .48112489 .23298645 .63012698 .12799073 .7441406H.005996704Z"/>
<path id="font_3_20" d="M.12998963-.0048828127C.17098999-.0048828127 .20298767 .026107789 .20298767 .067108158 .20298767 .1091156 .17098999 .1401062 .12998963 .1401062 .08898926 .1401062 .056991579 .1091156 .056991579 .067108158 .056991579 .026107789 .08898926-.0048828127 .12998963-.0048828127Z"/>
<path id="font_3_6" d="M.21998596 .67289736H.10598755V.54589846H.023986817V.44589234H.10398865V.19810486C.10398865 .06820679 .18099976-.0087890629 .30999757-.0087890629 .34298707-.0087890629 .36799623-.0047912599 .3829956-.0018005371V.09919739C.36499024 .096206668 .34899903 .09420776 .33399964 .09420776 .2679901 .09420776 .21998596 .12617493 .21998596 .20410156V.44589234H.37098695V.54589846H.21998596V.67289736Z"/>
<path id="font_3_7" d="M.19499207 .80078127H.07699585V0H.19499207V.33268739C.19499207 .4116211 .25 .45059205 .31599427 .45059205 .3899994 .45059205 .42599488 .4096222 .42599488 .32569886V0H.5439911V.36166383C.5439911 .4895935 .46798707 .55859377 .34899903 .55859377 .28399659 .55859377 .22799683 .5275879 .19699097 .48458863H.19499207V.80078127Z"/>
<path id="font_3_8" d="M.55400088 .28329469C.55400088 .46359254 .44499208 .55859377 .31298829 .55859377 .16699219 .55859377 .04499817 .44566346 .04499817 .27130128 .04499817 .103302 .15299988-.0126953129 .33198548-.0126953129 .4019928-.0126953129 .46598817 .00630188 .5219879 .044296266V.15029907C.46699525 .107299808 .4059906 .08529663 .34399415 .08529663 .24798584 .08529663 .1749878 .14129639 .1579895 .23730469H.5509949C.5529938 .251297 .55400088 .2662964 .55400088 .28329469M.1579895 .31629945C.17199707 .40585328 .23799134 .46058656 .31199647 .46058656 .37998963 .46058656 .43899537 .41282655 .44198609 .31629945H.1579895Z"/>
<path id="font_3_9" d="M.09399414 0H.21398926V.29785157H.5049896V.4028473H.21398926V.63414H.5209961V.7441406H.09399414V0Z"/>
<path id="font_3_10" d="M.32199098-.0126953129C.47999574-.0126953129 .598999 .10726929 .598999 .27294923 .598999 .4386139 .47999574 .55859377 .32199098 .55859377 .16499329 .55859377 .04399109 .4386139 .04399109 .27294923 .04399109 .10726929 .1639862-.0126953129 .32199098-.0126953129M.32199098 .09529114C.24099732 .09529114 .16299439 .16017151 .16299439 .27294923 .16299439 .38571168 .24099732 .45059205 .32199098 .45059205 .40299989 .45059205 .47999574 .38571168 .47999574 .27294923 .47999574 .16017151 .40299989 .09529114 .32199098 .09529114Z"/>
<path id="font_3_11" d="M.07699585 0H.19499207V.29389955C.19499207 .3987732 .2649994 .44075013 .33499146 .44075013 .34899903 .44075013 .36299134 .4397583 .37599183 .43675233V.5488281C.36499024 .55075076 .35299684 .5517578 .33799745 .5517578 .2889862 .5517578 .22200012 .52975466 .18499756 .4607544H.18299866L.17098999 .54589846H.07699585V0Z"/>
<path id="font_3_12" d="M.16299439 .27294923C.16299439 .38272096 .24499512 .45059205 .33599855 .45059205 .3889923 .45059205 .43299867 .4376068 .47898866 .40567018V.5195923C.43399049 .54759219 .37998963 .55859377 .32398988 .55859377 .16499329 .55859377 .04399109 .436615 .04399109 .27394105 .04399109 .10926819 .16499329-.0126953129 .32398988-.0126953129 .3829956-.0126953129 .43699647 .0012969971 .47898866 .025299073V.13821411C.43299867 .104278568 .3809967 .09529114 .33699037 .09529114 .24499512 .09529114 .16299439 .16217041 .16299439 .27294923Z"/>
<path id="font_3_13" d="M.19499207 .80078127H.07699585V0H.1749878L.18798828 .09390259C.22698975 .027297974 .29699708-.0126953129 .375-.0126953129 .5029907-.0126953129 .6230011 .09829712 .6230011 .27294923 .6230011 .44758607 .5069885 .55859377 .3789978 .55859377 .30499269 .55859377 .23098755 .5205841 .19499207 .45558167V.80078127M.34700013 .45059205C.43598939 .45059205 .5039978 .3767395 .5039978 .27194215 .5039978 .16815186 .43598939 .09529114 .34799195 .09529114 .2599945 .09529114 .19299317 .16815186 .19299317 .27294923 .19299317 .3767395 .2599945 .45059205 .34700013 .45059205Z"/>
<path id="font_4_7" d="M.19499207 .80078127H.07699585V0H.19499207V.33268739C.19499207 .4116211 .25 .45059205 .31599427 .45059205 .3899994 .45059205 .42599488 .4096222 .42599488 .32569886V0H.5439911V.36166383C.5439911 .4895935 .46798707 .55859377 .34899903 .55859377 .28399659 .55859377 .22799683 .5275879 .19699097 .48458863H.19499207V.80078127Z"/>
<path id="font_5_21" d="M.34700013 .7597656C.18699646 .7597656 .057998659 .6127472 .057998659 .37171937 .057998659 .13070679 .18699646-.016311646 .34700013-.016311646 .5059967-.016311646 .6359863 .13070679 .6359863 .37171937 .6359863 .6127472 .5059967 .7597656 .34700013 .7597656M.34700013 .64875796C.43998719 .64875796 .5179901 .5467377 .5179901 .37171937 .5179901 .19670105 .43998719 .095703128 .34700013 .095703128 .25299073 .095703128 .17799378 .19570923 .17799378 .37171937 .17799378 .5467377 .25299073 .64875796 .34700013 .64875796Z"/>
<path id="font_6_7" d="M.19499207 .80078127H.07699585V0H.19499207V.33268739C.19499207 .4116211 .25 .45059205 .31599427 .45059205 .3899994 .45059205 .42599488 .4096222 .42599488 .32569886V0H.5439911V.36166383C.5439911 .4895935 .46798707 .55859377 .34899903 .55859377 .28399659 .55859377 .22799683 .5275879 .19699097 .48458863H.19499207V.80078127Z"/>
<path id="font_7_22" d="M.21398926 0H.33198548V.74902346H.32199098L.036987306 .63401797V.51301577L.21398926 .5870056V0Z"/>
<path id="font_8_7" d="M.19499207 .80078127H.07699585V0H.19499207V.33268739C.19499207 .4116211 .25 .45059205 .31599427 .45059205 .3899994 .45059205 .42599488 .4096222 .42599488 .32569886V0H.5439911V.36166383C.5439911 .4895935 .46798707 .55859377 .34899903 .55859377 .28399659 .55859377 .22799683 .5275879 .19699097 .48458863H.19499207V.80078127Z"/>
<path id="font_9_23" d="M.032989503 0H.5469971V.10998535H.25698854C.4229889 .2919159 .5179901 .40885926 .5179901 .52381899 .5179901 .65675356 .4249878 .7597656 .272995 .7597656 .18998719 .7597656 .114990238 .7277527 .070999149 .6877594V.5617981C.11299133 .6087799 .1789856 .64875796 .2559967 .64875796 .34498597 .64875796 .3959961 .5847931 .3959961 .51382449 .3959961 .43185426 .35798646 .3698883 .032989503 0Z"/>
<path id="font_10_7" d="M.19499207 .80078127H.07699585V0H.19499207V.33268739C.19499207 .4116211 .25 .45059205 .31599427 .45059205 .3899994 .45059205 .42599488 .4096222 .42599488 .32569886V0H.5439911V.36166383C.5439911 .4895935 .46798707 .55859377 .34899903 .55859377 .28399659 .55859377 .22799683 .5275879 .19699097 .48458863H.19499207V.80078127Z"/>
<path id="font_11_24" d="M.07699585 .6937561V.57684329C.115997318 .61979678 .1789856 .6517639 .25099183 .6517639 .33799745 .6517639 .38598634 .6028137 .38598634 .54089358 .38598634 .4759674 .33499146 .4280243 .22898865 .4280243H.1539917V.33203126H.24798584C.34999085 .33203126 .40699769 .28308106 .40699769 .21418762 .40699769 .14427185 .34700013 .09434509 .2539978 .09434509 .17298889 .09434509 .10598755 .12930298 .05899048 .18222046V.05734253C.114990238 .010345459 .18499756-.0146484379 .2679901-.0146484379 .43699647-.0146484379 .5279999 .09034729 .5279999 .20219422 .5279999 .29907228 .46598817 .36102296 .3959961 .38702394V.3900299C.46299745 .4210205 .5039978 .48295594 .5039978 .5588684 .5039978 .6647644 .41799928 .7597656 .2679901 .7597656 .18899536 .7597656 .12098694 .73275759 .07699585 .6937561Z"/>
<path id="font_12_7" d="M.19499207 .80078127H.07699585V0H.19499207V.33268739C.19499207 .4116211 .25 .45059205 .31599427 .45059205 .3899994 .45059205 .42599488 .4096222 .42599488 .32569886V0H.5439911V.36166383C.5439911 .4895935 .46798707 .55859377 .34899903 .55859377 .28399659 .55859377 .22799683 .5275879 .19699097 .48458863H.19499207V.80078127Z"/>
<path id="font_13_25" d="M.6289978 .2709198H.5039978V.7441406H.4019928L.032989503 .24092102V.16992188H.3919983V0H.5039978V.16992188H.6289978V.2709198M.1639862 .2709198V.2729187L.3919983 .58406069V.2709198H.1639862Z"/>
<path id="font_14_26" d="M.30699159 .7597656C.16499329 .7597656 .06199646 .6787567 .06199646 .5497589 .06199646 .425766 .1579895 .379776 .2599945 .33477784 .35598756 .2927704 .4099884 .2637787 .4099884 .20178223 .4099884 .13278198 .34599305 .091796878 .2669983 .091796878 .19099427 .091796878 .11199951 .12678528 .05999756 .17678833V.05178833C.10798645 .015792847 .18598938-.016204834 .2749939-.016204834 .42199708-.016204834 .5319977 .06878662 .5319977 .20678711 .5319977 .33576966 .43199159 .3837738 .32199098 .43077088 .22898865 .47177125 .18099976 .49876405 .18099976 .5557556 .18099976 .61875918 .23899842 .6517639 .31199647 .6517639 .37098695 .6517639 .43998719 .63075259 .4909973 .59376528V.7107544C.44499208 .7387543 .3789978 .7597656 .30699159 .7597656Z"/>
<path id="font_14_10" d="M.32199098-.0126953129C.47999574-.0126953129 .598999 .10726929 .598999 .27294923 .598999 .4386139 .47999574 .55859377 .32199098 .55859377 .16499329 .55859377 .04399109 .4386139 .04399109 .27294923 .04399109 .10726929 .1639862-.0126953129 .32199098-.0126953129M.32199098 .09529114C.24099732 .09529114 .16299439 .16017151 .16299439 .27294923 .16299439 .38571168 .24099732 .45059205 .32199098 .45059205 .40299989 .45059205 .47999574 .38571168 .47999574 .27294923 .47999574 .16017151 .40299989 .09529114 .32199098 .09529114Z"/>
<path id="font_14_27" d="M.11099243 0H.22898865V.44589234H.37998963V.54589846H.22799683V.6047821C.22799683 .6716614 .2619934 .7016144 .32598878 .7016144 .35398866 .7016144 .3849945 .69462588 .40499879 .6876373V.7916107C.37399293 .8016052 .34199525 .8076172 .30799867 .8076172 .18598938 .8076172 .11099243 .7226105 .11099243 .61776736V.54589846H.033996583V.44589234H.11099243V0Z"/>
<path id="font_14_6" d="M.21998596 .67289736H.10598755V.54589846H.023986817V.44589234H.10398865V.19810486C.10398865 .06820679 .18099976-.0087890629 .30999757-.0087890629 .34298707-.0087890629 .36799623-.0047912599 .3829956-.0018005371V.09919739C.36499024 .096206668 .34899903 .09420776 .33399964 .09420776 .2679901 .09420776 .21998596 .12617493 .21998596 .20410156V.44589234H.37098695V.54589846H.21998596V.67289736Z"/>
<path id="font_14_28" d="M.6419983 .55859377C.56999209 .55859377 .5179901 .5205841 .4850006 .46359254 .45799256 .522583 .4099884 .55859377 .33198548 .55859377 .26098634 .55859377 .21199036 .5175934 .18399048 .46658326H.18099976L.16799927 .54589846H.07699585V0H.19499207V.33792115C.19499207 .39562989 .22898865 .44859315 .29499818 .44859315 .3600006 .44859315 .3869934 .4116211 .3869934 .3416748V0H.5049896V.3436737C.5049896 .39863587 .5419922 .44859315 .60598757 .44859315 .67099 .44859315 .69799807 .4116211 .69799807 .3416748V0H.81599429V.36265565C.81599429 .47859193 .7609863 .55859377 .6419983 .55859377Z"/>
<path id="font_14_3" d="M.2899933-.0126953129C.36999513-.0126953129 .43998719 .027297974 .47898866 .09429932L.49198915 0H.58999636V.54589846H.49198915L.47898866 .4519043C.43998719 .5185852 .36999513 .55859377 .2899933 .55859377 .16499329 .55859377 .04499817 .44560243 .04499817 .27194215 .04499817 .10028076 .16499329-.0126953129 .2899933-.0126953129M.31999208 .09529114C.23098755 .09529114 .16299439 .16815186 .16299439 .27294923 .16299439 .3767395 .23098755 .45059205 .31999208 .45059205 .40699769 .45059205 .47499085 .3767395 .47499085 .27294923 .47499085 .16815186 .40699769 .09529114 .31999208 .09529114Z"/>
<path id="font_14_29" d="M.5289917 .54589846H.40098573L.2769928 .35292054H.2749939L.15098572 .54589846H.019989014L.20698548 .27293397 .017990113 0H.14698792L.27398683 .19395447H.2749939L.40098573 0H.5349884L.34399415 .27793885 .5289917 .54589846Z"/>
<path id="font_15_30" d="M.35699464 .29110719C.5130005 .31210328 .57899478 .40811158 .57899478 .51512148 .57899478 .6551361 .48098756 .7441406 .30599977 .7441406H.09399414V0H.21398926V.28710938H.22200012L.46299745 0H.6119995L.35699464 .29110719M.21398926 .38310243V.63414H.30099488C.40098573 .63414 .45799256 .5881195 .45799256 .5101166 .45799256 .43310548 .4079895 .38310243 .29499818 .38310243H.21398926Z"/>
<path id="font_15_31" d="M.70399478 .7441406H.58799746V.20103455H.58699038L.21199036 .7441406H.09399414V0H.20899964V.5531006H.20999146L.59199526 0H.70399478V.7441406Z"/>
<path id="font_16_30" d="M.35699464 .29110719C.5130005 .31210328 .57899478 .40811158 .57899478 .51512148 .57899478 .6551361 .48098756 .7441406 .30599977 .7441406H.09399414V0H.21398926V.28710938H.22200012L.46299745 0H.6119995L.35699464 .29110719M.21398926 .38310243V.63414H.30099488C.40098573 .63414 .45799256 .5881195 .45799256 .5101166 .45799256 .43310548 .4079895 .38310243 .29499818 .38310243H.21398926Z"/>
<path id="font_16_31" d="M.70399478 .7441406H.58799746V.20103455H.58699038L.21199036 .7441406H.09399414V0H.20899964V.5531006H.20999146L.59199526 0H.70399478V.7441406Z"/>
<path id="font_17_26" d="M.30699159 .7597656C.16499329 .7597656 .06199646 .6787567 .06199646 .5497589 .06199646 .425766 .1579895 .379776 .2599945 .33477784 .35598756 .2927704 .4099884 .2637787 .4099884 .20178223 .4099884 .13278198 .34599305 .091796878 .2669983 .091796878 .19099427 .091796878 .11199951 .12678528 .05999756 .17678833V.05178833C.10798645 .015792847 .18598938-.016204834 .2749939-.016204834 .42199708-.016204834 .5319977 .06878662 .5319977 .20678711 .5319977 .33576966 .43199159 .3837738 .32199098 .43077088 .22898865 .47177125 .18099976 .49876405 .18099976 .5557556 .18099976 .61875918 .23899842 .6517639 .31199647 .6517639 .37098695 .6517639 .43998719 .63075259 .4909973 .59376528V.7107544C.44499208 .7387543 .3789978 .7597656 .30699159 .7597656Z"/>
<path id="font_17_10" d="M.32199098-.0126953129C.47999574-.0126953129 .598999 .10726929 .598999 .27294923 .598999 .4386139 .47999574 .55859377 .32199098 .55859377 .16499329 .55859377 .04399109 .4386139 .04399109 .27294923 .04399109 .10726929 .1639862-.0126953129 .32199098-.0126953129M.32199098 .09529114C.24099732 .09529114 .16299439 .16017151 .16299439 .27294923 .16299439 .38571168 .24099732 .45059205 .32199098 .45059205 .40299989 .45059205 .47999574 .38571168 .47999574 .27294923 .47999574 .16017151 .40299989 .09529114 .32199098 .09529114Z"/>
<path id="font_17_27" d="M.11099243 0H.22898865V.44589234H.37998963V.54589846H.22799683V.6047821C.22799683 .6716614 .2619934 .7016144 .32598878 .7016144 .35398866 .7016144 .3849945 .69462588 .40499879 .6876373V.7916107C.37399293 .8016052 .34199525 .8076172 .30799867 .8076172 .18598938 .8076172 .11099243 .7226105 .11099243 .61776736V.54589846H.033996583V.44589234H.11099243V0Z"/>
<path id="font_17_6" d="M.21998596 .67289736H.10598755V.54589846H.023986817V.44589234H.10398865V.19810486C.10398865 .06820679 .18099976-.0087890629 .30999757-.0087890629 .34298707-.0087890629 .36799623-.0047912599 .3829956-.0018005371V.09919739C.36499024 .096206668 .34899903 .09420776 .33399964 .09420776 .2679901 .09420776 .21998596 .12617493 .21998596 .20410156V.44589234H.37098695V.54589846H.21998596V.67289736Z"/>
<path id="font_17_28" d="M.6419983 .55859377C.56999209 .55859377 .5179901 .5205841 .4850006 .46359254 .45799256 .522583 .4099884 .55859377 .33198548 .55859377 .26098634 .55859377 .21199036 .5175934 .18399048 .46658326H.18099976L.16799927 .54589846H.07699585V0H.19499207V.33792115C.19499207 .39562989 .22898865 .44859315 .29499818 .44859315 .3600006 .44859315 .3869934 .4116211 .3869934 .3416748V0H.5049896V.3436737C.5049896 .39863587 .5419922 .44859315 .60598757 .44859315 .67099 .44859315 .69799807 .4116211 .69799807 .3416748V0H.81599429V.36265565C.81599429 .47859193 .7609863 .55859377 .6419983 .55859377Z"/>
<path id="font_17_3" d="M.2899933-.0126953129C.36999513-.0126953129 .43998719 .027297974 .47898866 .09429932L.49198915 0H.58999636V.54589846H.49198915L.47898866 .4519043C.43998719 .5185852 .36999513 .55859377 .2899933 .55859377 .16499329 .55859377 .04499817 .44560243 .04499817 .27194215 .04499817 .10028076 .16499329-.0126953129 .2899933-.0126953129M.31999208 .09529114C.23098755 .09529114 .16299439 .16815186 .16299439 .27294923 .16299439 .3767395 .23098755 .45059205 .31999208 .45059205 .40699769 .45059205 .47499085 .3767395 .47499085 .27294923 .47499085 .16815186 .40699769 .09529114 .31999208 .09529114Z"/>
<path id="font_17_29" d="M.5289917 .54589846H.40098573L.2769928 .35292054H.2749939L.15098572 .54589846H.019989014L.20698548 .27293397 .017990113 0H.14698792L.27398683 .19395447H.2749939L.40098573 0H.5349884L.34399415 .27793885 .5289917 .54589846Z"/>
<path id="font_18_26" d="M.30699159 .7597656C.16499329 .7597656 .06199646 .6787567 .06199646 .5497589 .06199646 .425766 .1579895 .379776 .2599945 .33477784 .35598756 .2927704 .4099884 .2637787 .4099884 .20178223 .4099884 .13278198 .34599305 .091796878 .2669983 .091796878 .19099427 .091796878 .11199951 .12678528 .05999756 .17678833V.05178833C.10798645 .015792847 .18598938-.016204834 .2749939-.016204834 .42199708-.016204834 .5319977 .06878662 .5319977 .20678711 .5319977 .33576966 .43199159 .3837738 .32199098 .43077088 .22898865 .47177125 .18099976 .49876405 .18099976 .5557556 .18099976 .61875918 .23899842 .6517639 .31199647 .6517639 .37098695 .6517639 .43998719 .63075259 .4909973 .59376528V.7107544C.44499208 .7387543 .3789978 .7597656 .30699159 .7597656Z"/>
<path id="font_18_10" d="M.32199098-.0126953129C.47999574-.0126953129 .598999 .10726929 .598999 .27294923 .598999 .4386139 .47999574 .55859377 .32199098 .55859377 .16499329 .55859377 .04399109 .4386139 .04399109 .27294923 .04399109 .10726929 .1639862-.0126953129 .32199098-.0126953129M.32199098 .09529114C.24099732 .09529114 .16299439 .16017151 .16299439 .27294923 .16299439 .38571168 .24099732 .45059205 .32199098 .45059205 .40299989 .45059205 .47999574 .38571168 .47999574 .27294923 .47999574 .16017151 .40299989 .09529114 .32199098 .09529114Z"/>
<path id="font_18_27" d="M.11099243 0H.22898865V.44589234H.37998963V.54589846H.22799683V.6047821C.22799683 .6716614 .2619934 .7016144 .32598878 .7016144 .35398866 .7016144 .3849945 .69462588 .40499879 .6876373V.7916107C.37399293 .8016052 .34199525 .8076172 .30799867 .8076172 .18598938 .8076172 .11099243 .7226105 .11099243 .61776736V.54589846H.033996583V.44589234H.11099243V0Z"/>
<path id="font_18_6" d="M.21998596 .67289736H.10598755V.54589846H.023986817V.44589234H.10398865V.19810486C.10398865 .06820679 .18099976-.0087890629 .30999757-.0087890629 .34298707-.0087890629 .36799623-.0047912599 .3829956-.0018005371V.09919739C.36499024 .096206668 .34899903 .09420776 .33399964 .09420776 .2679901 .09420776 .21998596 .12617493 .21998596 .20410156V.44589234H.37098695V.54589846H.21998596V.67289736Z"/>
<path id="font_18_28" d="M.6419983 .55859377C.56999209 .55859377 .5179901 .5205841 .4850006 .46359254 .45799256 .522583 .4099884 .55859377 .33198548 .55859377 .26098634 .55859377 .21199036 .5175934 .18399048 .46658326H.18099976L.16799927 .54589846H.07699585V0H.19499207V.33792115C.19499207 .39562989 .22898865 .44859315 .29499818 .44859315 .3600006 .44859315 .3869934 .4116211 .3869934 .3416748V0H.5049896V.3436737C.5049896 .39863587 .5419922 .44859315 .60598757 .44859315 .67099 .44859315 .69799807 .4116211 .69799807 .3416748V0H.81599429V.36265565C.81599429 .47859193 .7609863 .55859377 .6419983 .55859377Z"/>
<path id="font_18_3" d="M.2899933-.0126953129C.36999513-.0126953129 .43998719 .027297974 .47898866 .09429932L.49198915 0H.58999636V.54589846H.49198915L.47898866 .4519043C.43998719 .5185852 .36999513 .55859377 .2899933 .55859377 .16499329 .55859377 .04499817 .44560243 .04499817 .27194215 .04499817 .10028076 .16499329-.0126953129 .2899933-.0126953129M.31999208 .09529114C.23098755 .09529114 .16299439 .16815186 .16299439 .27294923 .16299439 .3767395 .23098755 .45059205 .31999208 .45059205 .40699769 .45059205 .47499085 .3767395 .47499085 .27294923 .47499085 .16815186 .40699769 .09529114 .31999208 .09529114Z"/>
<path id="font_18_29" d="M.5289917 .54589846H.40098573L.2769928 .35292054H.2749939L.15098572 .54589846H.019989014L.20698548 .27293397 .017990113 0H.14698792L.27398683 .19395447H.2749939L.40098573 0H.5349884L.34399415 .27793885 .5289917 .54589846Z"/>
</defs>
<path transform="matrix(2.4,0,0,2.4,-243.00002,-253.80005)" d="M438.18 207.477H454.133L452.656 210.957 462.5 206.801 452.656 202.648 454.133 206.125H438.18V207.477Z" fill="#5874a9"/>
<path transform="matrix(2.4,0,0,2.4,-243.00002,-253.80005)" d="M360.887 207.477H379.879L378.402 210.957 388.242 206.801 378.402 202.648 379.879 206.125H360.887V207.477Z" fill="#5874a9"/>
<path transform="matrix(2.4,0,0,2.4,-243.00002,-253.80005)" d="M284.023 207.477H300.738L299.258 210.957 309.102 206.801 299.258 202.648 300.738 206.125H284.023V207.477Z" fill="#5874a9"/>
<path transform="matrix(2.4,0,0,2.4,-243.00002,-253.80005)" d="M205.859 207.477H223.672L222.195 210.957 232.039 206.801 222.195 202.648 223.672 206.125H205.859V207.477Z" fill="#5874a9"/>
<path transform="matrix(2.4,0,0,2.4,-243.00002,-253.80005)" d="M110.566 207.477H145.711L144.234 210.957 154.074 206.801 144.234 202.648 145.711 206.125H110.566V207.477Z" fill="#5874a9"/>
<path transform="matrix(2.4,0,0,2.4,-243.00002,-253.80005)" d="M201.227 162.672H160.535C159.359 162.672 158.41 161.719 158.41 160.543V137.766C158.41 136.59 159.359 135.641 160.535 135.641H201.227C202.402 135.641 203.352 136.59 203.352 137.766V160.543C203.352 161.719 202.402 162.672 201.227 162.672" fill="#b5518f"/>
<path transform="matrix(2.4,0,0,2.4,-243.00002,-253.80005)" d="M201.227 220.316H160.535C159.359 220.316 158.41 219.363 158.41 218.191V195.41C158.41 194.238 159.359 193.285 160.535 193.285H201.227C202.402 193.285 203.352 194.238 203.352 195.41V218.191C203.352 219.363 202.402 220.316 201.227 220.316" fill="#9ec6ec"/>
<path transform="matrix(2.4,0,0,2.4,-243.00002,-253.80005)" d="M279.066 162.672H238.375C237.199 162.672 236.246 161.719 236.246 160.543V137.766C236.246 136.59 237.199 135.641 238.375 135.641H279.066C280.238 135.641 281.191 136.59 281.191 137.766V160.543C281.191 161.719 280.238 162.672 279.066 162.672" fill="#b5518f"/>
<path transform="matrix(2.4,0,0,2.4,-243.00002,-253.80005)" d="M279.066 220.316H238.375C237.199 220.316 236.246 219.363 236.246 218.191V195.41C236.246 194.238 237.199 193.285 238.375 193.285H279.066C280.238 193.285 281.191 194.238 281.191 195.41V218.191C281.191 219.363 280.238 220.316 279.066 220.316" fill="#9ec6ec"/>
<path transform="matrix(2.4,0,0,2.4,-243.00002,-253.80005)" d="M356.906 162.672H316.211C315.039 162.672 314.086 161.719 314.086 160.543V137.766C314.086 136.59 315.039 135.641 316.211 135.641H356.906C358.078 135.641 359.031 136.59 359.031 137.766V160.543C359.031 161.719 358.078 162.672 356.906 162.672" fill="#b5518f"/>
<path transform="matrix(2.4,0,0,2.4,-243.00002,-253.80005)" d="M356.906 220.316H316.211C315.039 220.316 314.086 219.363 314.086 218.191V195.41C314.086 194.238 315.039 193.285 316.211 193.285H356.906C358.078 193.285 359.031 194.238 359.031 195.41V218.191C359.031 219.363 358.078 220.316 356.906 220.316" fill="#9ec6ec"/>
<path transform="matrix(2.4,0,0,2.4,-243.00002,-253.80005)" d="M434.742 162.672H394.051C392.875 162.672 391.926 161.719 391.926 160.543V137.766C391.926 136.59 392.875 135.641 394.051 135.641H434.742C435.918 135.641 436.867 136.59 436.867 137.766V160.543C436.867 161.719 435.918 162.672 434.742 162.672" fill="#b5518f"/>
<path transform="matrix(2.4,0,0,2.4,-243.00002,-253.80005)" d="M434.742 220.316H394.051C392.875 220.316 391.926 219.363 391.926 218.191V195.41C391.926 194.238 392.875 193.285 394.051 193.285H434.742C435.918 193.285 436.867 194.238 436.867 195.41V218.191C436.867 219.363 435.918 220.316 434.742 220.316" fill="#9ec6ec"/>
<use data-text="“" xlink:href="#font_1_1" transform="matrix(18.36864,0,0,-18.36864,162.74423,334.51826)" fill="#4766a1"/>
<use data-text="M" xlink:href="#font_1_2" transform="matrix(18.36864,0,0,-18.36864,170.71623,334.51826)" fill="#4766a1"/>
<use data-text="a" xlink:href="#font_1_3" transform="matrix(18.36864,0,0,-18.36864,188.60729,334.51826)" fill="#4766a1"/>
<use data-text="y" xlink:href="#font_1_4" transform="matrix(18.36864,0,0,-18.36864,200.85916,334.51826)" fill="#4766a1"/>
<use data-text="”" xlink:href="#font_1_5" transform="matrix(18.36864,0,0,-18.36864,211.16397,334.51826)" fill="#4766a1"/>
<use data-text="“" xlink:href="#font_1_1" transform="matrix(18.36864,0,0,-18.36864,354.75163,334.51826)" fill="#4766a1"/>
<use data-text="t" xlink:href="#font_1_6" transform="matrix(18.36864,0,0,-18.36864,363.10939,334.51826)" fill="#4766a1"/>
<use data-text="h" xlink:href="#font_1_7" transform="matrix(18.36864,0,0,-18.36864,370.62214,334.51826)" fill="#4766a1"/>
<use data-text="e" xlink:href="#font_1_8" transform="matrix(18.36864,0,0,-18.36864,381.93724,334.51826)" fill="#4766a1"/>
<use data-text="”" xlink:href="#font_1_5" transform="matrix(18.36864,0,0,-18.36864,392.77473,334.51826)" fill="#4766a1"/>
<use data-text="“" xlink:href="#font_2_1" transform="matrix(18.36864,0,0,-18.36864,531.66006,334.51826)" fill="#4766a1"/>
<use data-text="F" xlink:href="#font_2_9" transform="matrix(18.36864,0,0,-18.36864,540.01779,334.51826)" fill="#4766a1"/>
<use data-text="o" xlink:href="#font_2_10" transform="matrix(18.36864,0,0,-18.36864,550.3593,334.51826)" fill="#4766a1"/>
<use data-text="r" xlink:href="#font_2_11" transform="matrix(18.36864,0,0,-18.36864,562.17037,334.51826)" fill="#4766a1"/>
<use data-text="c" xlink:href="#font_2_12" transform="matrix(18.36864,0,0,-18.36864,569.0953,334.51826)" fill="#4766a1"/>
<use data-text="e" xlink:href="#font_2_8" transform="matrix(18.36864,0,0,-18.36864,578.647,334.51826)" fill="#4766a1"/>
<use data-text="”" xlink:href="#font_2_5" transform="matrix(18.36864,0,0,-18.36864,589.4845,334.51826)" fill="#4766a1"/>
<use data-text="“" xlink:href="#font_2_1" transform="matrix(18.36864,0,0,-18.36864,731.6578,334.51826)" fill="#4766a1"/>
<use data-text="b" xlink:href="#font_2_13" transform="matrix(18.36864,0,0,-18.36864,740.0155,334.51826)" fill="#4766a1"/>
<use data-text="e" xlink:href="#font_2_8" transform="matrix(18.36864,0,0,-18.36864,752.28579,334.51826)" fill="#4766a1"/>
<use data-text="”" xlink:href="#font_2_5" transform="matrix(18.36864,0,0,-18.36864,763.1233,334.51826)" fill="#4766a1"/>
<use data-text="P" xlink:href="#font_3_14" transform="matrix(18.36864,0,0,-18.36864,131.27881,29.891999)" fill="#b5518f"/>
<use data-text=" " xlink:href="#font_3_15" transform="matrix(18.36864,0,0,-18.36864,142.33673,29.891999)" fill="#b5518f"/>
<use data-text="(" xlink:href="#font_3_16" transform="matrix(18.36864,0,0,-18.36864,147.16768,29.891999)" fill="#b5518f"/>
<use data-text="W" xlink:href="#font_3_17" transform="matrix(18.36864,0,0,-18.36864,153.87223,29.891999)" fill="#b5518f"/>
<use data-text=" " xlink:href="#font_3_15" transform="matrix(18.36864,0,0,-18.36864,173.34299,29.891999)" fill="#b5518f"/>
<use data-text="|" xlink:href="#font_3_18" transform="matrix(18.36864,0,0,-18.36864,178.17394,29.891999)" fill="#b5518f"/>
<use data-text=" " xlink:href="#font_3_15" transform="matrix(18.36864,0,0,-18.36864,182.93141,29.891999)" fill="#b5518f"/>
<use data-text="“" xlink:href="#font_3_1" transform="matrix(18.36864,0,0,-18.36864,187.76236,29.891999)" fill="#b5518f"/>
<use data-text="M" xlink:href="#font_3_2" transform="matrix(18.36864,0,0,-18.36864,195.73436,29.891999)" fill="#b5518f"/>
<use data-text="a" xlink:href="#font_3_3" transform="matrix(18.36864,0,0,-18.36864,213.62541,29.891999)" fill="#b5518f"/>
<use data-text="y" xlink:href="#font_3_4" transform="matrix(18.36864,0,0,-18.36864,225.87729,29.891999)" fill="#b5518f"/>
<use data-text="”" xlink:href="#font_3_5" transform="matrix(18.36864,0,0,-18.36864,236.1821,29.891999)" fill="#b5518f"/>
<use data-text=")" xlink:href="#font_3_19" transform="matrix(18.36864,0,0,-18.36864,244.50308,29.891999)" fill="#b5518f"/>
<use data-text="P" xlink:href="#font_3_14" transform="matrix(18.36864,0,0,-18.36864,317.57356,29.891999)" fill="#b5518f"/>
<use data-text=" " xlink:href="#font_3_15" transform="matrix(18.36864,0,0,-18.36864,328.63148,29.891999)" fill="#b5518f"/>
<use data-text="(" xlink:href="#font_3_16" transform="matrix(18.36864,0,0,-18.36864,333.46244,29.891999)" fill="#b5518f"/>
<use data-text="W" xlink:href="#font_3_17" transform="matrix(18.36864,0,0,-18.36864,340.167,29.891999)" fill="#b5518f"/>
<use data-text=" " xlink:href="#font_3_15" transform="matrix(18.36864,0,0,-18.36864,359.63777,29.891999)" fill="#b5518f"/>
<use data-text="|" xlink:href="#font_3_18" transform="matrix(18.36864,0,0,-18.36864,364.4687,29.891999)" fill="#b5518f"/>
<use data-text=" " xlink:href="#font_3_15" transform="matrix(18.36864,0,0,-18.36864,369.2262,29.891999)" fill="#b5518f"/>
<use data-text="“" xlink:href="#font_3_1" transform="matrix(18.36864,0,0,-18.36864,374.05714,29.891999)" fill="#b5518f"/>
<use data-text="." xlink:href="#font_3_20" transform="matrix(18.36864,0,0,-18.36864,379.97184,29.891999)" fill="#b5518f"/>
<use data-text="." xlink:href="#font_3_20" transform="matrix(18.36864,0,0,-18.36864,384.74769,29.891999)" fill="#b5518f"/>
<use data-text="." xlink:href="#font_3_20" transform="matrix(18.36864,0,0,-18.36864,389.5235,29.891999)" fill="#b5518f"/>
<use data-text="t" xlink:href="#font_3_6" transform="matrix(18.36864,0,0,-18.36864,393.8585,29.891999)" fill="#b5518f"/>
<use data-text="h" xlink:href="#font_3_7" transform="matrix(18.36864,0,0,-18.36864,401.37129,29.891999)" fill="#b5518f"/>
<use data-text="e" xlink:href="#font_3_8" transform="matrix(18.36864,0,0,-18.36864,412.68635,29.891999)" fill="#b5518f"/>
<use data-text="”" xlink:href="#font_3_5" transform="matrix(18.36864,0,0,-18.36864,423.52384,29.891999)" fill="#b5518f"/>
<use data-text=")" xlink:href="#font_3_19" transform="matrix(18.36864,0,0,-18.36864,431.84486,29.891999)" fill="#b5518f"/>
<use data-text="P" xlink:href="#font_3_14" transform="matrix(18.36864,0,0,-18.36864,494.335,29.891999)" fill="#b5518f"/>
<use data-text=" " xlink:href="#font_3_15" transform="matrix(18.36864,0,0,-18.36864,505.3929,29.891999)" fill="#b5518f"/>
<use data-text="(" xlink:href="#font_3_16" transform="matrix(18.36864,0,0,-18.36864,510.22386,29.891999)" fill="#b5518f"/>
<use data-text="W" xlink:href="#font_3_17" transform="matrix(18.36864,0,0,-18.36864,516.9284,29.891999)" fill="#b5518f"/>
<use data-text=" " xlink:href="#font_3_15" transform="matrix(18.36864,0,0,-18.36864,536.3992,29.891999)" fill="#b5518f"/>
<use data-text="|" xlink:href="#font_3_18" transform="matrix(18.36864,0,0,-18.36864,541.2301,29.891999)" fill="#b5518f"/>
<use data-text=" " xlink:href="#font_3_15" transform="matrix(18.36864,0,0,-18.36864,545.9876,29.891999)" fill="#b5518f"/>
<use data-text="“" xlink:href="#font_3_1" transform="matrix(18.36864,0,0,-18.36864,550.81857,29.891999)" fill="#b5518f"/>
<use data-text="." xlink:href="#font_3_20" transform="matrix(18.36864,0,0,-18.36864,556.7333,29.891999)" fill="#b5518f"/>
<use data-text="." xlink:href="#font_3_20" transform="matrix(18.36864,0,0,-18.36864,561.5091,29.891999)" fill="#b5518f"/>
<use data-text="." xlink:href="#font_3_20" transform="matrix(18.36864,0,0,-18.36864,566.2849,29.891999)" fill="#b5518f"/>
<use data-text="F" xlink:href="#font_3_9" transform="matrix(18.36864,0,0,-18.36864,570.9322,29.891999)" fill="#b5518f"/>
<use data-text="o" xlink:href="#font_3_10" transform="matrix(18.36864,0,0,-18.36864,581.27377,29.891999)" fill="#b5518f"/>
<use data-text="r" xlink:href="#font_3_11" transform="matrix(18.36864,0,0,-18.36864,593.0848,29.891999)" fill="#b5518f"/>
<use data-text="c" xlink:href="#font_3_12" transform="matrix(18.36864,0,0,-18.36864,600.0097,29.891999)" fill="#b5518f"/>
<use data-text="e" xlink:href="#font_3_8" transform="matrix(18.36864,0,0,-18.36864,609.5614,29.891999)" fill="#b5518f"/>
<use data-text="”" xlink:href="#font_3_5" transform="matrix(18.36864,0,0,-18.36864,620.3989,29.891999)" fill="#b5518f"/>
<use data-text=")" xlink:href="#font_3_19" transform="matrix(18.36864,0,0,-18.36864,628.7199,29.891999)" fill="#b5518f"/>
<use data-text="P" xlink:href="#font_3_14" transform="matrix(18.36864,0,0,-18.36864,694.2592,29.891999)" fill="#b5518f"/>
<use data-text=" " xlink:href="#font_3_15" transform="matrix(18.36864,0,0,-18.36864,705.3171,29.891999)" fill="#b5518f"/>
<use data-text="(" xlink:href="#font_3_16" transform="matrix(18.36864,0,0,-18.36864,710.1481,29.891999)" fill="#b5518f"/>
<use data-text="W" xlink:href="#font_3_17" transform="matrix(18.36864,0,0,-18.36864,716.8526,29.891999)" fill="#b5518f"/>
<use data-text=" " xlink:href="#font_3_15" transform="matrix(18.36864,0,0,-18.36864,736.32339,29.891999)" fill="#b5518f"/>
<use data-text="|" xlink:href="#font_3_18" transform="matrix(18.36864,0,0,-18.36864,741.15438,29.891999)" fill="#b5518f"/>
<use data-text=" " xlink:href="#font_3_15" transform="matrix(18.36864,0,0,-18.36864,745.9118,29.891999)" fill="#b5518f"/>
<use data-text="“" xlink:href="#font_3_1" transform="matrix(18.36864,0,0,-18.36864,750.7428,29.891999)" fill="#b5518f"/>
<use data-text="." xlink:href="#font_3_20" transform="matrix(18.36864,0,0,-18.36864,756.65756,29.891999)" fill="#b5518f"/>
<use data-text="." xlink:href="#font_3_20" transform="matrix(18.36864,0,0,-18.36864,761.43338,29.891999)" fill="#b5518f"/>
<use data-text="." xlink:href="#font_3_20" transform="matrix(18.36864,0,0,-18.36864,766.20919,29.891999)" fill="#b5518f"/>
<use data-text="b" xlink:href="#font_3_13" transform="matrix(18.36864,0,0,-18.36864,770.98507,29.891999)" fill="#b5518f"/>
<use data-text="e" xlink:href="#font_3_8" transform="matrix(18.36864,0,0,-18.36864,783.2553,29.891999)" fill="#b5518f"/>
<use data-text="”" xlink:href="#font_3_5" transform="matrix(18.36864,0,0,-18.36864,794.0928,29.891999)" fill="#b5518f"/>
<use data-text=")" xlink:href="#font_3_19" transform="matrix(18.36864,0,0,-18.36864,802.41378,29.891999)" fill="#b5518f"/>
<path transform="matrix(2.4,0,0,2.4,-243.00002,-253.80005)" d="M259.395 190.547V173.773L262.875 175.25 258.719 165.406 254.566 175.25 258.047 173.773V190.547H259.395Z" fill="#bd609a"/>
<path transform="matrix(2.4,0,0,2.4,-243.00002,-253.80005)" d="M181.555 190.547V173.773L185.035 175.25 180.883 165.406 176.727 175.25 180.207 173.773V190.547H181.555Z" fill="#bd609a"/>
<path transform="matrix(2.4,0,0,2.4,-243.00002,-253.80005)" d="M337.23 190.547V173.773L340.711 175.25 336.559 165.406 332.402 175.25 335.883 173.773V190.547H337.23Z" fill="#bd609a"/>
<path transform="matrix(2.4,0,0,2.4,-243.00002,-253.80005)" d="M415.07 190.547V173.773L418.551 175.25 414.398 165.406 410.242 175.25 413.723 173.773V190.547H415.07Z" fill="#bd609a"/>
<path transform="matrix(2.4,0,0,2.4,-243.00002,-253.80005)" d="M259.395 236.34V230.637L262.875 232.113 258.719 222.27 254.566 232.113 258.047 230.637V236.34H259.395Z" fill="#5874a9"/>
<path transform="matrix(2.4,0,0,2.4,-243.00002,-253.80005)" d="M181.555 236.34V230.637L185.035 232.113 180.883 222.27 176.727 232.113 180.207 230.637V236.34H181.555Z" fill="#5874a9"/>
<path transform="matrix(2.4,0,0,2.4,-243.00002,-253.80005)" d="M337.23 236.34V230.637L340.711 232.113 336.559 222.27 332.402 232.113 335.883 230.637V236.34H337.23Z" fill="#5874a9"/>
<path transform="matrix(2.4,0,0,2.4,-243.00002,-253.80005)" d="M415.07 236.34V230.637L418.551 232.113 414.398 222.27 410.242 232.113 413.723 230.637V236.34H415.07Z" fill="#5874a9"/>
<path transform="matrix(2.4,0,0,2.4,-243.00002,-253.80005)" d="M259.395 133.684V127.98L262.875 129.457 258.719 119.617 254.566 129.457 258.047 127.98V133.684H259.395Z" fill="#bd609a"/>
<path transform="matrix(2.4,0,0,2.4,-243.00002,-253.80005)" d="M181.555 133.684V127.98L185.035 129.457 180.883 119.617 176.727 129.457 180.207 127.98V133.684H181.555Z" fill="#bd609a"/>
<path transform="matrix(2.4,0,0,2.4,-243.00002,-253.80005)" d="M337.23 133.684V127.98L340.711 129.457 336.559 119.617 332.402 129.457 335.883 127.98V133.684H337.23Z" fill="#bd609a"/>
<path transform="matrix(2.4,0,0,2.4,-243.00002,-253.80005)" d="M415.07 133.684V127.98L418.551 129.457 414.398 119.617 410.242 129.457 413.723 127.98V133.684H415.07Z" fill="#bd609a"/>
<use data-text="h" xlink:href="#font_4_7" transform="matrix(18.36864,0,0,-18.36864,57.6528,231.98809)" fill="#4766a1"/>
<use data-text="0" xlink:href="#font_5_21" transform="matrix(10.7089209,0,0,-10.7089209,68.96784,238.10495)" fill="#4766a1"/>
<use data-text="h" xlink:href="#font_6_7" transform="matrix(18.36864,0,0,-18.36864,267.92643,231.98809)" fill="#4766a1"/>
<use data-text="1" xlink:href="#font_7_22" transform="matrix(10.7089209,0,0,-10.7089209,279.24003,238.10495)" fill="#4766a1"/>
<use data-text="h" xlink:href="#font_8_7" transform="matrix(18.36864,0,0,-18.36864,452.1816,231.98809)" fill="#4766a1"/>
<use data-text="2" xlink:href="#font_9_23" transform="matrix(10.7089209,0,0,-10.7089209,463.4976,238.10495)" fill="#4766a1"/>
<use data-text="h" xlink:href="#font_10_7" transform="matrix(18.36864,0,0,-18.36864,637.6848,231.98809)" fill="#4766a1"/>
<use data-text="3" xlink:href="#font_11_24" transform="matrix(10.7089209,0,0,-10.7089209,648.9984,238.10495)" fill="#4766a1"/>
<use data-text="h" xlink:href="#font_12_7" transform="matrix(18.36864,0,0,-18.36864,819.62167,231.98809)" fill="#4766a1"/>
<use data-text="4" xlink:href="#font_13_25" transform="matrix(10.7089209,0,0,-10.7089209,830.9376,238.10495)" fill="#4766a1"/>
<use data-text="S" xlink:href="#font_14_26" transform="matrix(18.36864,0,0,-18.36864,153.23857,108.14879)" fill="#ffffff"/>
<use data-text="o" xlink:href="#font_14_10" transform="matrix(18.36864,0,0,-18.36864,163.85564,108.14879)" fill="#ffffff"/>
<use data-text="f" xlink:href="#font_14_27" transform="matrix(18.36864,0,0,-18.36864,175.51973,108.14879)" fill="#ffffff"/>
<use data-text="t" xlink:href="#font_14_6" transform="matrix(18.36864,0,0,-18.36864,182.7937,108.14879)" fill="#ffffff"/>
<use data-text="m" xlink:href="#font_14_28" transform="matrix(18.36864,0,0,-18.36864,190.30649,108.14879)" fill="#ffffff"/>
<use data-text="a" xlink:href="#font_14_3" transform="matrix(18.36864,0,0,-18.36864,206.61783,108.14879)" fill="#ffffff"/>
<use data-text="x" xlink:href="#font_14_29" transform="matrix(18.36864,0,0,-18.36864,218.8697,108.14879)" fill="#ffffff"/>
<use data-text="R" xlink:href="#font_15_30" transform="matrix(18.36864,0,0,-18.36864,170.59705,248.65103)" fill="#ffffff"/>
<use data-text="N" xlink:href="#font_15_31" transform="matrix(18.36864,0,0,-18.36864,182.31624,248.65103)" fill="#ffffff"/>
<use data-text="N" xlink:href="#font_15_31" transform="matrix(18.36864,0,0,-18.36864,196.97441,248.65103)" fill="#ffffff"/>
<use data-text="R" xlink:href="#font_15_30" transform="matrix(18.36864,0,0,-18.36864,357.40614,248.65103)" fill="#ffffff"/>
<use data-text="N" xlink:href="#font_15_31" transform="matrix(18.36864,0,0,-18.36864,369.12535,248.65103)" fill="#ffffff"/>
<use data-text="N" xlink:href="#font_15_31" transform="matrix(18.36864,0,0,-18.36864,383.7835,248.65103)" fill="#ffffff"/>
<use data-text="R" xlink:href="#font_16_30" transform="matrix(18.36864,0,0,-18.36864,544.2144,248.65103)" fill="#ffffff"/>
<use data-text="N" xlink:href="#font_16_31" transform="matrix(18.36864,0,0,-18.36864,555.9336,248.65103)" fill="#ffffff"/>
<use data-text="N" xlink:href="#font_16_31" transform="matrix(18.36864,0,0,-18.36864,570.5918,248.65103)" fill="#ffffff"/>
<use data-text="R" xlink:href="#font_16_30" transform="matrix(18.36864,0,0,-18.36864,731.0235,248.65103)" fill="#ffffff"/>
<use data-text="N" xlink:href="#font_16_31" transform="matrix(18.36864,0,0,-18.36864,742.7427,248.65103)" fill="#ffffff"/>
<use data-text="N" xlink:href="#font_16_31" transform="matrix(18.36864,0,0,-18.36864,757.4009,248.65103)" fill="#ffffff"/>
<use data-text="S" xlink:href="#font_17_26" transform="matrix(18.36864,0,0,-18.36864,340.04643,108.14879)" fill="#ffffff"/>
<use data-text="o" xlink:href="#font_17_10" transform="matrix(18.36864,0,0,-18.36864,350.6635,108.14879)" fill="#ffffff"/>
<use data-text="f" xlink:href="#font_17_27" transform="matrix(18.36864,0,0,-18.36864,362.32759,108.14879)" fill="#ffffff"/>
<use data-text="t" xlink:href="#font_17_6" transform="matrix(18.36864,0,0,-18.36864,369.60157,108.14879)" fill="#ffffff"/>
<use data-text="m" xlink:href="#font_17_28" transform="matrix(18.36864,0,0,-18.36864,377.11433,108.14879)" fill="#ffffff"/>
<use data-text="a" xlink:href="#font_17_3" transform="matrix(18.36864,0,0,-18.36864,393.4257,108.14879)" fill="#ffffff"/>
<use data-text="x" xlink:href="#font_17_29" transform="matrix(18.36864,0,0,-18.36864,405.67759,108.14879)" fill="#ffffff"/>
<use data-text="S" xlink:href="#font_17_26" transform="matrix(18.36864,0,0,-18.36864,526.8555,108.14879)" fill="#ffffff"/>
<use data-text="o" xlink:href="#font_17_10" transform="matrix(18.36864,0,0,-18.36864,537.4726,108.14879)" fill="#ffffff"/>
<use data-text="f" xlink:href="#font_17_27" transform="matrix(18.36864,0,0,-18.36864,549.13668,108.14879)" fill="#ffffff"/>
<use data-text="t" xlink:href="#font_17_6" transform="matrix(18.36864,0,0,-18.36864,556.41067,108.14879)" fill="#ffffff"/>
<use data-text="m" xlink:href="#font_17_28" transform="matrix(18.36864,0,0,-18.36864,563.9234,108.14879)" fill="#ffffff"/>
<use data-text="a" xlink:href="#font_17_3" transform="matrix(18.36864,0,0,-18.36864,580.2348,108.14879)" fill="#ffffff"/>
<use data-text="x" xlink:href="#font_17_29" transform="matrix(18.36864,0,0,-18.36864,592.48666,108.14879)" fill="#ffffff"/>
<use data-text="S" xlink:href="#font_18_26" transform="matrix(18.36864,0,0,-18.36864,713.6664,108.14879)" fill="#ffffff"/>
<use data-text="o" xlink:href="#font_18_10" transform="matrix(18.36864,0,0,-18.36864,724.28347,108.14879)" fill="#ffffff"/>
<use data-text="f" xlink:href="#font_18_27" transform="matrix(18.36864,0,0,-18.36864,735.9476,108.14879)" fill="#ffffff"/>
<use data-text="t" xlink:href="#font_18_6" transform="matrix(18.36864,0,0,-18.36864,743.22158,108.14879)" fill="#ffffff"/>
<use data-text="m" xlink:href="#font_18_28" transform="matrix(18.36864,0,0,-18.36864,750.73428,108.14879)" fill="#ffffff"/>
<use data-text="a" xlink:href="#font_18_3" transform="matrix(18.36864,0,0,-18.36864,767.0456,108.14879)" fill="#ffffff"/>
<use data-text="x" xlink:href="#font_18_29" transform="matrix(18.36864,0,0,-18.36864,779.2975,108.14879)" fill="#ffffff"/>
</svg>