<svg xmlns="http://www.w3.org/2000/svg" xmlns:xlink="http://www.w3.org/1999/xlink" width="1050" height="480">
<defs>
<path id="font_1_1" d="M.6142578 .19384766C.6142578 .13264974 .59195968 .08504232 .5473633 .05102539 .5027669 .017008463 .44075523 0 .36132813 0H.08203125V.68847659H.33203126C.4934896 .68847659 .57421877 .63273116 .57421877 .52124026 .57421877 .4804891 .5628255 .44625346 .54003909 .41853334 .5172526 .39082337 .48502604 .37224327 .44335938 .36279298 .49804688 .35628257 .54020187 .33797203 .5698242 .30786134 .5994466 .27775065 .6142578 .2397461 .6142578 .19384766M.48046876 .510025C.48046876 .54721578 .46777345 .5738017 .4423828 .5897827 .4169922 .6057739 .38020835 .61376956 .33203126 .61376956H.17529297V.3955078H.33203126C.38183595 .3955078 .4190267 .40488688 .44360353 .42364503 .46818034 .44240318 .48046876 .4711965 .48046876 .510025M.52001956 .20117188C.52001956 .28222657 .46305339 .3227539 .3491211 .3227539H.17529297V.07470703H.3564453C.41341148 .07470703 .45491538 .08528646 .48095704 .10644531 .5069987 .12760417 .52001956 .15917969 .52001956 .20117188Z"/>
<path id="font_1_2" d="M.5698242 0 .49121095 .20166016H.17773438L.09863281 0H.001953125L.28271485 .68847659H.38867188L.66503909 0H.5698242M.33447267 .61816409 .33007813 .6044922C.3219401 .57747396 .30989585 .54280599 .2939453 .5004883L.20605469 .27441407H.4633789L.375 .50146487C.3658854 .5239258 .35677085 .5493164 .34765626 .5776367L.33447267 .61816409Z"/>
<path id="font_1_3" d="M.092285159 0V.68847659H.18554688V0H.092285159Z"/>
<path id="font_1_4" d="M.54296877 0 .33642579 .30099488 .12548828 0H.022460938L.2841797 .35768128 .04248047 .68847659H.14550781L.33691407 .41825868 .5229492 .68847659H.62597659L.390625 .36109925 .6459961 0H.54296877Z"/>
<path id="font_1_5" d="M.72998049 .34716798C.72998049 .27522788 .71622726 .21223958 .6887207 .15820313 .6612142 .104166667 .6217448 .06266276 .5703125 .033691408 .5188802 .0047200524 .45817057-.009765625 .3881836-.009765625 .31754557-.009765625 .2565918 .0045572917 .20532227 .033203126 .15405274 .061848958 .11490885 .103271488 .087890628 .1574707 .060872396 .21166992 .04736328 .27490235 .04736328 .34716798 .04736328 .457194 .07747396 .5432129 .13769531 .6052246 .19791667 .6672363 .28173829 .6982422 .38916017 .6982422 .45914714 .6982422 .51985678 .6843262 .57128909 .65649417 .6227214 .6286621 .662028 .5882161 .689209 .53515627 .71638998 .48209635 .72998049 .4194336 .72998049 .34716798M.6347656 .34716798C.6347656 .43277995 .6133626 .5 .57055667 .5488281 .5277507 .59765627 .46728517 .6220703 .38916017 .6220703 .31038413 .6220703 .24951172 .59798178 .20654297 .5498047 .16357422 .5016276 .14208985 .43408204 .14208985 .34716798 .14208985 .26090495 .16381836 .19246419 .20727539 .1418457 .25073243 .09122721 .31103517 .06591797 .3881836 .06591797 .4676107 .06591797 .52856448 .090413417 .5710449 .1394043 .6135254 .18839519 .6347656 .25764976 .6347656 .34716798Z"/>
<path id="font_1_6" d="M0 0Z"/>
<path id="font_1_7" d="M.08203125 0V.68847659H.17529297V.076171878H.5229492V0H.08203125Z"/>
<path id="font_1_8" d="M.3515625 .6123047V0H.25878907V.6123047H.022460938V.68847659H.5878906V.6123047H.3515625Z"/>
<path id="font_1_9" d="M.38671876 .6220703C.31054688 .6220703 .2513021 .5975749 .20898438 .548584 .16666667 .4995931 .14550781 .43245445 .14550781 .34716798 .14550781 .26285807 .16756185 .19506836 .21166992 .14379883 .25577799 .0925293 .3154297 .06689453 .390625 .06689453 .48697917 .06689453 .55940756 .114583339 .60791018 .20996094L.68408206 .171875C.6557617 .11263021 .6159668 .06754557 .56469729 .036621095 .51342776 .0056966149 .4539388-.009765625 .38623048-.009765625 .31689454-.009765625 .25691734 .004638672 .20629883 .033447267 .15568035 .06225586 .11710612 .10343424 .09057617 .15698242 .06404623 .2105306 .05078125 .27392579 .05078125 .34716798 .05078125 .4568685 .08040365 .54280599 .13964844 .60498049 .19889324 .66715499 .28092448 .6982422 .3857422 .6982422 .45898438 .6982422 .5201823 .6839549 .56933596 .65538027 .61848959 .6268056 .6546224 .5844269 .6777344 .528244L.58935549 .49902345C.57340499 .5388997 .5477702 .56937667 .5124512 .5904541 .47713218 .61153158 .43522135 .6220703 .38671876 .6220703Z"/>
<path id="font_1_10" d="M.51416018 .26464845C.51416018 .17220052 .4938151 .10335287 .453125 .05810547 .4124349 .012858073 .35335288-.009765625 .2758789-.009765625 .19873047-.009765625 .14046224 .013753255 .10107422 .060791017 .0616862 .10782877 .041992189 .17578125 .041992189 .26464845 .041992189 .4469401 .12093099 .53808596 .2788086 .53808596 .35953776 .53808596 .4189453 .51586917 .45703126 .47143556 .4951172 .42700196 .51416018 .3580729 .51416018 .26464845M.421875 .26464845C.421875 .3375651 .41105143 .3905436 .3894043 .42358399 .36775718 .45662437 .33138023 .47314454 .28027345 .47314454 .22884114 .47314454 .19165039 .45629884 .16870117 .42260743 .14575196 .38891603 .13427735 .33626304 .13427735 .26464845 .13427735 .19498699 .14558919 .1426595 .16821289 .107666019 .1908366 .07267252 .22639974 .05517578 .27490235 .05517578 .32763673 .05517578 .36531578 .07210287 .38793946 .10595703 .41056315 .1398112 .421875 .19270833 .421875 .26464845Z"/>
<path id="font_1_11" d="M.375 0V.33496095C.375 .38606773 .3680013 .42138673 .3540039 .44091798 .3400065 .46044923 .31477867 .47021485 .2783203 .47021485 .24088542 .47021485 .21126302 .45589195 .18945313 .4272461 .16764324 .39860026 .15673828 .3582357 .15673828 .30615235V0H.06933594V.41552735C.06933594 .47705079 .068359378 .51464846 .06640625 .5283203H.14941406C.14973958 .5266927 .15006511 .52229818 .15039063 .5151367 .15071614 .5079753 .15112305 .49975587 .15161133 .49047853 .15209961 .48120118 .15266927 .46370445 .15332031 .43798829H.15478516C.17366536 .4754232 .1953125 .50146487 .21972656 .5161133 .24414063 .5307617 .27392579 .53808596 .30908204 .53808596 .3491211 .53808596 .38077799 .53011068 .40405274 .51416018 .42732749 .49820964 .44352214 .472819 .45263673 .43798829H.45410157C.47233073 .47347007 .49438478 .49902345 .5202637 .51464846 .5461426 .53027346 .57747396 .53808596 .6142578 .53808596 .66764327 .53808596 .7064616 .5236003 .7307129 .4946289 .7549642 .46565757 .76708987 .4181315 .76708987 .35205079V0H.6801758V.33496095C.6801758 .38606773 .67317709 .42138673 .6591797 .44091798 .6451823 .46044923 .6199544 .47021485 .5834961 .47021485 .54508468 .47021485 .5152181 .4559733 .49389649 .42749024 .47257487 .39900718 .46191407 .3585612 .46191407 .30615235V0H.375Z"/>
<path id="font_1_12" d="M.51416018 .2668457C.51416018 .08243815 .4493815-.009765625 .31982423-.009765625 .23844402-.009765625 .18375652 .020858765 .15576172 .082107547H.15332031C.15462239 .07950338 .15527344 .051778158 .15527344-.0010681152V-.20800781H.06738281V.42033387C.06738281 .47473655 .06640625 .510732 .064453128 .5283203H.14941406C.14973958 .5270284 .15022786 .5224101 .1508789 .51446536 .15152996 .50653079 .15226238 .4942983 .15307617 .47776795 .15388997 .46124778 .15429688 .4499105 .15429688 .4437561H.15625C.171875 .4763387 .19254558 .50020346 .21826172 .51535037 .24397786 .5305074 .27783204 .53808596 .31982423 .53808596 .38492839 .53808596 .43359376 .5162557 .4658203 .4725952 .49804688 .42893473 .51416018 .36035157 .51416018 .2668457M.421875 .26489259C.421875 .33855186 .41194663 .39118449 .39208985 .42279054 .37223307 .45440675 .34065757 .47021485 .29736329 .47021485 .26253257 .47021485 .23527019 .46288047 .21557617 .44821168 .19588216 .43355308 .1809082 .4106598 .1706543 .37953187 .16040039 .34840394 .15527344 .3079122 .15527344 .25805665 .15527344 .18863933 .16634114 .13747151 .18847656 .10455322 .21061199 .071634929 .24658203 .05517578 .29638673 .05517578 .3400065 .05517578 .37182618 .07122294 .3918457 .10331726 .41186524 .13542176 .421875 .1892802 .421875 .26489259Z"/>
<path id="font_1_13" d="M.06738281 0V.7246094H.15527344V0H.06738281Z"/>
<path id="font_1_14" d="M.13476563 .24609375C.13476563 .18539429 .14729817 .13855998 .17236328 .10559082 .19742839 .072631839 .23404949 .056152345 .28222657 .056152345 .3203125 .056152345 .35083009 .06384786 .3737793 .07923889 .39672853 .09462992 .41227214 .114115398 .42041017 .13769531L.4975586 .11564636C.46598307 .032038373 .39420573-.009765625 .28222657-.009765625 .20410156-.009765625 .14461263 .013509114 .103759769 .060058595 .0629069 .10660807 .04248047 .17578125 .04248047 .26757813 .04248047 .35481773 .0629069 .42171226 .103759769 .46826173 .14461263 .5148112 .20296224 .53808596 .2788086 .53808596 .43408204 .53808596 .51171877 .44465638 .51171877 .25779725V.24609375H.13476563M.42089845 .31347657C.41601563 .36896769 .40185548 .40944926 .37841798 .43492127 .35498048 .46040345 .32128907 .47314454 .27734376 .47314454 .23470052 .47314454 .20092774 .4589437 .17602539 .430542 .15112305 .40215049 .13769531 .36312867 .13574219 .31347657H.42089845Z"/>
<path id="font_1_15" d="M.39111329 0 .24902344 .21679688 .10595703 0H.011230469L.19921875 .27148438 .020019532 .5283203H.1171875L.24902344 .3227539 .3798828 .5283203H.47802735L.29882813 .27246095 .4892578 0H.39111329Z"/>
<path id="font_1_16" d="M.06689453 .640625V.7246094H.15478516V.640625H.06689453M.06689453 0V.5283203H.15478516V0H.06689453Z"/>
<path id="font_1_17" d="M.4008789 .08496094C.38460288 .05110677 .3630371 .026855469 .33618165 .012207031 .30932618-.0024414063 .27604167-.009765625 .23632813-.009765625 .16959636-.009765625 .120524089 .0126953129 .08911133 .057617189 .057698568 .10253906 .041992189 .17057292 .041992189 .26171876 .041992189 .44596354 .106770839 .53808596 .23632813 .53808596 .2763672 .53808596 .30973307 .5307617 .33642579 .5161133 .3631185 .50146487 .38460288 .4781901 .4008789 .44628907H.40185548L.4008789 .5053711V.7246094H.48876954V.10888672C.48876954 .0538737 .4897461 .017578125 .49169923 0H.40771485C.40673829 .0052083337 .40568034 .017252604 .40454103 .036132814 .4034017 .05501302 .40283204 .07128906 .40283204 .08496094H.4008789M.13427735 .26464845C.13427735 .1907552 .14404297 .13785808 .16357422 .10595703 .18310547 .07405599 .21484375 .05810547 .25878907 .05810547 .30859376 .05810547 .34472657 .07535807 .3671875 .10986328 .38964845 .14436849 .4008789 .19791667 .4008789 .2705078 .4008789 .34049479 .38964845 .3917643 .3671875 .4243164 .34472657 .4568685 .30891929 .47314454 .25976563 .47314454 .2154948 .47314454 .18351238 .4567871 .16381836 .42407228 .14412435 .39135743 .13427735 .33821617 .13427735 .26464845Z"/>
<path id="font_1_18" d="M.20214844-.009765625C.14908855-.009765625 .10921224 .004231771 .08251953 .032226564 .055826826 .060221357 .04248047 .09863281 .04248047 .14746094 .04248047 .20214844 .060465497 .24414063 .09643555 .2734375 .1324056 .30273438 .19042969 .31835938 .2705078 .3203125L.38916017 .32226563V.35107423C.38916017 .39404298 .38004557 .4248047 .3618164 .44335938 .34358726 .46191407 .3149414 .4711914 .2758789 .4711914 .23649089 .4711914 .20784505 .46455384 .1899414 .4512787 .17203777 .4380137 .16129558 .41681925 .15771485 .3876953L.06591797 .39596559C.08089193 .4907125 .15152996 .53808596 .27783204 .53808596 .34423829 .53808596 .39420573 .52286788 .42773438 .49243165 .46126304 .46199546 .47802735 .41796876 .47802735 .36035157V.1328125C.47802735 .106770839 .4814453 .0871582 .48828126 .07397461 .4951172 .060791017 .508138 .05419922 .52734377 .05419922 .5358073 .05419922 .54541018 .055338544 .55615237 .057617189V.0029296876C.5340169-.0022786458 .51139327-.0048828127 .48828126-.0048828127 .45572917-.0048828127 .43204753 .0036621094 .41723634 .020751954 .40242515 .037841798 .39404298 .06461588 .39208985 .10107422H.38916017C.36669923 .060709638 .34057618 .032145185 .31079103 .015380859 .28100587-.0013834635 .24479167-.009765625 .20214844-.009765625M.22216797 .056152345C.25439454 .056152345 .28304038 .06347656 .30810548 .078125 .33317057 .09277344 .35294596 .11287435 .36743165 .13842774 .38191734 .16398113 .38916017 .19026692 .38916017 .21728516V.2607422L.29296876 .25878907C.2516276 .25813804 .22029622 .25390626 .19897461 .24609375 .177653 .23828125 .16129558 .22623699 .14990235 .20996094 .13850911 .19368489 .1328125 .17236328 .1328125 .1459961 .1328125 .11735026 .14054363 .095214847 .15600586 .079589847 .1714681 .063964847 .19352214 .056152345 .22216797 .056152345Z"/>
<path id="font_1_19" d="M.6669922 0V.4593506C.6669922 .51017257 .66845706 .5590413 .6713867 .60595706 .6554362 .54763796 .6411133 .5020294 .62841799 .46913148L.4506836 0H.3852539L.20507813 .46913148 .17773438 .5522003 .1616211 .60595706 .16308594 .55171206 .16503906 .4593506V0H.08203125V.68847659H.20458985L.3876953 .21102906C.39420573 .19180298 .40047203 .17119344 .40649415 .14920044 .41251628 .1272176 .4165039 .111338298 .41845704 .1015625 .4210612 .114593509 .42651368 .13438416 .43481446 .16093445 .44311524 .18748474 .44873048 .20418294 .45166017 .21102906L.63134768 .68847659H.75097659V0H.6669922Z"/>
<path id="font_1_20" d="M.08203125 0V.68847659H.6040039V.6123047H.17529297V.39160157H.57470706V.31640626H.17529297V.076171878H.62402346V0H.08203125Z"/>
<path id="font_1_21" d="M.06933594 0V.40527345C.06933594 .4423828 .068359378 .48339845 .06640625 .5283203H.14941406C.15201824 .46842448 .15332031 .43245445 .15332031 .42041017H.15527344C.16927083 .46565757 .18538411 .49658204 .20361328 .5131836 .22184246 .52978518 .2475586 .53808596 .28076173 .53808596 .29248048 .53808596 .30436198 .5364583 .31640626 .5332031V.45263673C.3046875 .45589195 .2890625 .45751954 .26953126 .45751954 .23307292 .45751954 .20524089 .44181315 .18603516 .4104004 .16682942 .37898765 .15722656 .33398438 .15722656 .27539063V0H.06933594Z"/>
<path id="font_1_22" d="M.2705078 .00390625C.24153646-.00390625 .21191406-.0078125 .18164063-.0078125 .111328128-.0078125 .076171878 .0320638 .076171878 .111816409V.46435548H.015136719V.5283203H.079589847L.10546875 .6464844H.1640625V.5283203H.26171876V.46435548H.1640625V.13085938C.1640625 .10546875 .16821289 .087646488 .17651367 .07739258 .18481446 .06713867 .19921875 .06201172 .21972656 .06201172 .23144531 .06201172 .24837239 .06429037 .2705078 .068847659V.00390625Z"/>
<path id="font_1_23" d="M.2993164 0H.1953125L.0034179688 .5283203H.09716797L.2133789 .18457031C.21761067 .17154949 .22884114 .13297527 .24707031 .068847659L.26416017 .12597656 .28320313 .18359375 .4033203 .5283203H.49658204L.2993164 0Z"/>
<path id="font_1_24" d="M.13476563 .24609375C.13476563 .18539429 .14729817 .13855998 .17236328 .10559082 .19742839 .072631839 .23404949 .056152345 .28222657 .056152345 .3203125 .056152345 .35083009 .06384786 .3737793 .07923889 .39672853 .09462992 .41227214 .114115398 .42041017 .13769531L.4975586 .11564636C.46598307 .032038373 .39420573-.009765625 .28222657-.009765625 .20410156-.009765625 .14461263 .013509114 .103759769 .060058595 .0629069 .10660807 .04248047 .17578125 .04248047 .26757813 .04248047 .35481773 .0629069 .42171226 .103759769 .46826173 .14461263 .5148112 .20296224 .53808596 .2788086 .53808596 .43408204 .53808596 .51171877 .44465638 .51171877 .25779725V.24609375H.13476563M.42089845 .31347657C.41601563 .36896769 .40185548 .40944926 .37841798 .43492127 .35498048 .46040345 .32128907 .47314454 .27734376 .47314454 .23470052 .47314454 .20092774 .4589437 .17602539 .430542 .15112305 .40215049 .13769531 .36312867 .13574219 .31347657H.42089845M.21484375 .58691409V.5967102L.32080079 .7373047H.421875V.72309878L.2607422 .58691409H.21484375Z"/>
<path id="font_1_26" d="M.4638672 .14613343C.4638672 .09628805 .44506837 .057840986 .4074707 .030792237 .36987306 .003753662 .31722007-.009765625 .24951172-.009765625 .18375652-.009765625 .13305664 .0010579428 .09741211 .022705079 .061767579 .044352216 .03857422 .078125 .027832032 .12402344L.10546875 .13916016C.11295573 .110839847 .12841797 .09008789 .15185547 .0769043 .17529297 .0637207 .20784505 .057128908 .24951172 .057128908 .29410807 .057128908 .32674156 .063975017 .3474121 .07766724 .36808268 .09136963 .37841798 .11191305 .37841798 .13929749 .37841798 .16015117 .3712565 .1770935 .3569336 .19012451 .3426107 .20315552 .3194987 .21390789 .28759767 .22238159L.22460938 .23899842C.17415364 .25202943 .13826497 .26481629 .11694336 .277359 .09562174 .28990174 .078938808 .30513 .06689453 .32304383 .05485026 .3409678 .048828126 .36296083 .048828126 .38902284 .048828126 .43725077 .06599935 .47398887 .1003418 .49923707 .13468425 .5244853 .18473308 .5371094 .25048829 .5371094 .3087565 .5371094 .35506187 .52685549 .3894043 .50634768 .42374674 .48583985 .44547526 .45296226 .45458985 .40771485L.37548829 .39794923C.37060548 .42138673 .35750328 .43937174 .33618165 .4519043 .31486003 .46443687 .28629557 .47070313 .25048829 .47070313 .21077474 .47070313 .18147786 .4646708 .16259766 .4526062 .14371746 .4405416 .13427735 .4222819 .13427735 .39782716 .13427735 .38284303 .1381836 .37046305 .1459961 .36068727 .1538086 .35091148 .16536458 .3426005 .18066406 .3357544 .19596355 .32891847 .22819011 .31947328 .27734376 .30741883 .32389323 .2956899 .35742188 .28485618 .3779297 .2749176 .3984375 .26497904 .41463218 .25398255 .42651368 .2419281 .43839518 .22987366 .44759117 .21594239 .45410157 .20013428 .46061198 .18433635 .4638672 .16633606 .4638672 .14613343Z"/>
<path id="font_1_27" d="M.20214844-.009765625C.14908855-.009765625 .10921224 .004231771 .08251953 .032226564 .055826826 .060221357 .04248047 .09863281 .04248047 .14746094 .04248047 .20214844 .060465497 .24414063 .09643555 .2734375 .1324056 .30273438 .19042969 .31835938 .2705078 .3203125L.38916017 .32226563V.35107423C.38916017 .39404298 .38004557 .4248047 .3618164 .44335938 .34358726 .46191407 .3149414 .4711914 .2758789 .4711914 .23649089 .4711914 .20784505 .46455384 .1899414 .4512787 .17203777 .4380137 .16129558 .41681925 .15771485 .3876953L.06591797 .39596559C.08089193 .4907125 .15152996 .53808596 .27783204 .53808596 .34423829 .53808596 .39420573 .52286788 .42773438 .49243165 .46126304 .46199546 .47802735 .41796876 .47802735 .36035157V.1328125C.47802735 .106770839 .4814453 .0871582 .48828126 .07397461 .4951172 .060791017 .508138 .05419922 .52734377 .05419922 .5358073 .05419922 .54541018 .055338544 .55615237 .057617189V.0029296876C.5340169-.0022786458 .51139327-.0048828127 .48828126-.0048828127 .45572917-.0048828127 .43204753 .0036621094 .41723634 .020751954 .40242515 .037841798 .39404298 .06461588 .39208985 .10107422H.38916017C.36669923 .060709638 .34057618 .032145185 .31079103 .015380859 .28100587-.0013834635 .24479167-.009765625 .20214844-.009765625M.22216797 .056152345C.25439454 .056152345 .28304038 .06347656 .30810548 .078125 .33317057 .09277344 .35294596 .11287435 .36743165 .13842774 .38191734 .16398113 .38916017 .19026692 .38916017 .21728516V.2607422L.29296876 .25878907C.2516276 .25813804 .22029622 .25390626 .19897461 .24609375 .177653 .23828125 .16129558 .22623699 .14990235 .20996094 .13850911 .19368489 .1328125 .17236328 .1328125 .1459961 .1328125 .11735026 .14054363 .095214847 .15600586 .079589847 .1714681 .063964847 .19352214 .056152345 .22216797 .056152345M.4296875 .5966797V.58691409H.37841798L.27148438 .6694336H.2705078L.15722656 .58691409H.10644531V.5966797L.22070313 .7285156H.3203125L.4296875 .5966797Z"/>
<path id="font_1_29" d="M.40283204 0V.33496095C.40283204 .36979167 .39941407 .3968099 .39257813 .41601563 .3857422 .43522135 .37483726 .449056 .35986329 .45751954 .3448893 .46598307 .32291667 .47021485 .2939453 .47021485 .2516276 .47021485 .21826172 .45572917 .19384766 .4267578 .1694336 .39778648 .15722656 .35758464 .15722656 .30615235V0H.06933594V.41552735C.06933594 .47705079 .068359378 .51464846 .06640625 .5283203H.14941406C.14973958 .5266927 .15006511 .52229818 .15039063 .5151367 .15071614 .5079753 .15112305 .49975587 .15161133 .49047853 .15209961 .48120118 .15266927 .46370445 .15332031 .43798829H.15478516C.17496746 .47444663 .19832357 .50024417 .22485352 .51538088 .25138346 .5305176 .28434245 .53808596 .32373048 .53808596 .3816732 .53808596 .42407228 .52368167 .45092774 .49487306 .4777832 .46606446 .49121095 .41845704 .49121095 .35205079V0H.40283204Z"/>
<path id="font_1_30" d="M.13427735 .26660157C.13427735 .19628906 .14534505 .14420574 .16748047 .11035156 .18961589 .0764974 .22298177 .059570314 .26757813 .059570314 .29882813 .059570314 .32495118 .06803385 .34594728 .08496094 .36694337 .10188802 .3798828 .12792969 .38476563 .16308594L.4736328 .15722656C.46679688 .10644531 .44514976 .06591797 .4086914 .03564453 .37223307 .0053710939 .32600913-.009765625 .27001954-.009765625 .1961263-.009765625 .13972982 .013590495 .10083008 .060302736 .06193034 .10701498 .04248047 .1751302 .04248047 .26464845 .04248047 .35351563 .06201172 .42130534 .10107422 .46801759 .14013672 .5147298 .1961263 .53808596 .26904298 .53808596 .32307945 .53808596 .36791993 .5241292 .40356446 .49621583 .43920899 .4683024 .46158854 .42984519 .47070313 .38084413L.3803711 .37402345C.3758138 .40316773 .3642578 .4263204 .34570313 .44348146 .32714845 .46065269 .30078126 .46923829 .26660157 .46923829 .22005208 .46923829 .18636067 .45377604 .16552735 .42285157 .14469402 .3919271 .13427735 .33984376 .13427735 .26660157Z"/>
<path id="font_2_1" d="M.4013672 .08496094C.38509117 .05110677 .36360679 .026855469 .33691407 .012207031 .3095703-.0024414063 .27620445-.009765625 .2368164-.009765625 .16975911-.009765625 .12076823 .0126953129 .08984375 .057617189 .057942708 .10221354 .04215495 .17024739 .04248047 .26171876 .04248047 .44563804 .10725912 .53776046 .2368164 .53808596 .27652995 .53808596 .30989585 .5307617 .33691407 .5161133 .36360679 .50113937 .38509117 .4778646 .4013672 .44628907H.40234376L.4013672 .5053711V.7246094H.4892578V.10888672C.4892578 .053548177 .49023438 .017252604 .4921875 0H.40820313C.40722657 .0048828127 .40625 .016927084 .40527345 .036132814 .40364585 .05501302 .40299479 .07128906 .4033203 .08496094H.4013672M.13476563 .26464845C.13476563 .19042969 .14453125 .13753255 .1640625 .10595703 .18359375 .07405599 .21533203 .05810547 .25927735 .05810547 .30908204 .05777995 .34521485 .075032558 .36767579 .10986328 .39013673 .14404297 .4013672 .19759114 .4013672 .2705078 .4013672 .34016929 .39013673 .3914388 .36767579 .4243164 .34521485 .4568685 .30940757 .47314454 .2602539 .47314454 .21565755 .47314454 .18375652 .4568685 .16455078 .4243164 .14436849 .3914388 .13444011 .33821617 .13476563 .26464845Z"/>
<path id="font_2_2" d="M.20263672-.009765625C.1492513-.009765625 .109375 .004231771 .08300781 .032226564 .055989583 .059895833 .04264323 .09830729 .04296875 .14746094 .04296875 .20214844 .061035158 .24414063 .09716797 .2734375 .13264974 .30273438 .19059246 .31835938 .2709961 .3203125L.38964845 .32226563V.35107423C.3893229 .39404298 .38020835 .4248047 .3623047 .44335938 .34407554 .46191407 .3154297 .4711914 .2763672 .4711914 .23665364 .47086589 .20800781 .46419273 .19042969 .45117188 .17220052 .43782554 .16145833 .4165039 .15820313 .38720704L.06640625 .3955078C.08105469 .4905599 .1516927 .53808596 .2783203 .53808596 .34440104 .53808596 .3943685 .5229492 .42822267 .49267579 .4617513 .4617513 .47851563 .41764323 .47851563 .36035157V.1328125C.47851563 .106770839 .4819336 .087239589 .48876954 .07421875 .49560548 .060872396 .5086263 .05419922 .52783206 .05419922 .53597006 .0538737 .54557296 .05501302 .5566406 .057617189V.0029296876C.5341797-.0026041668 .51155599-.0052083337 .48876954-.0048828127 .45589195-.0048828127 .43229167 .0037434896 .41796876 .020996094 .40266929 .037597658 .39420573 .06429037 .39257813 .10107422H.38964845C.3671875 .060384115 .34114585 .031901044 .31152345 .015625 .28125-.0016276041 .24495442-.0100911459 .20263672-.009765625M.22265625 .056152345C.2548828 .056152345 .28352867 .06347656 .30859376 .078125 .33333335 .092447917 .3531901 .11263021 .36816407 .13867188 .38216148 .1640625 .3893229 .19026692 .38964845 .21728516V.2607422L.29345704 .25878907C.25179038 .25813804 .22054036 .25390626 .19970703 .24609375 .17789714 .23795574 .16145833 .22591146 .15039063 .20996094 .13899739 .19368489 .13330078 .17236328 .13330078 .1459961 .13330078 .11702474 .14111328 .09488932 .15673828 .079589847 .17171224 .063964847 .19368489 .056152345 .22265625 .056152345Z"/>
<path id="font_2_3" d="M.51464846 .26464845C.51432296 .17220052 .49397788 .10335287 .45361329 .05810547 .4129232 .012532552 .35384117-.0100911459 .2763672-.009765625 .19921875-.0100911459 .14095052 .013509114 .1015625 .061035158 .061848958 .107910159 .04215495 .17578125 .04248047 .26464845 .04248047 .4466146 .12141927 .53776046 .27929688 .53808596 .35970054 .53808596 .41910807 .5159505 .45751954 .4716797 .49560548 .4267578 .51464846 .3577474 .51464846 .26464845M.42236329 .26464845C.42236329 .3372396 .4116211 .39029948 .39013673 .42382813 .3680013 .45638023 .33154298 .472819 .28076173 .47314454 .22932942 .47314454 .19222005 .45638023 .1694336 .42285157 .14632161 .3889974 .13476563 .33626304 .13476563 .26464845 .13444011 .19466146 .14583333 .14241536 .16894531 .107910159 .19140625 .072753909 .22688802 .05517578 .27539063 .05517578 .32779948 .05517578 .3655599 .07210287 .38867188 .10595703 .4111328 .13948567 .42236329 .19238281 .42236329 .26464845Z"/>
<path id="font_2_4" d="M.4638672 .1459961C.4638672 .09586588 .44514976 .057454427 .40771485 .030761719 .36995445 .0037434896 .31722007-.009765625 .24951172-.009765625 .18343099-.0100911459 .1328125 .00081380209 .09765625 .022949219 .061848958 .044433595 .03857422 .078125 .027832032 .12402344L.10546875 .13916016C.11263021 .110839847 .12809246 .09016927 .15185547 .07714844 .17529297 .063802089 .20784505 .057128908 .24951172 .057128908 .29378257 .057128908 .3264974 .063964847 .34765626 .07763672 .36816407 .091308597 .37841798 .111816409 .37841798 .13916016 .37809245 .15966797 .370931 .17659505 .3569336 .1899414 .34228517 .20296224 .3191732 .21370442 .28759767 .22216797L.22460938 .23876953C.17382813 .25179038 .13802083 .26464845 .1171875 .27734376 .095703128 .28938804 .078938808 .30452476 .06689453 .3227539 .05452474 .34065757 .048502607 .36263023 .048828126 .38867188 .048502607 .43684898 .06575521 .4736328 .10058594 .49902345 .13444011 .523763 .18440755 .5362956 .25048829 .5366211 .308431 .5366211 .35481773 .5263672 .38964845 .5058594 .4235026 .48535157 .44514976 .45247398 .45458985 .40722657L.37548829 .39746095C.37027995 .42089845 .35725913 .43896485 .33642579 .45166017 .31461589 .46370445 .28597007 .4698893 .25048829 .47021485 .21077474 .47021485 .18147786 .46419273 .16259766 .45214845 .14339192 .43977867 .13395183 .42154948 .13427735 .39746095 .13427735 .38216148 .1381836 .36979167 .1459961 .36035157 .1538086 .35058595 .16536458 .34228517 .18066406 .33544923 .19563802 .32861329 .22786458 .3191732 .27734376 .3071289 .32356773 .29541017 .35709635 .28466798 .3779297 .27490235 .39811198 .2644857 .41438804 .25341798 .4267578 .24169922 .43847657 .22932942 .44759117 .2154948 .45410157 .20019531 .46028648 .18391927 .46354167 .16585286 .4638672 .1459961Z"/>
<path id="font_2_5" d="M0 0Z"/>
<path id="font_2_6" d="M.13476563 .24560547C.13476563 .18473308 .14729817 .13802083 .17236328 .10546875 .19710286 .07259115 .23372396 .056152345 .28222657 .056152345 .3203125 .056152345 .35091148 .063802089 .37402345 .07910156 .39648438 .09407552 .41194663 .11344401 .42041017 .13720703L.4975586 .115234378C.46565757 .03157552 .39388023-.0100911459 .28222657-.009765625 .20377605-.009765625 .14436849 .013509114 .104003909 .060058595 .06298828 .106282558 .04248047 .17545574 .04248047 .26757813 .04248047 .35481773 .06298828 .42171226 .104003909 .46826173 .14436849 .51448568 .20263672 .53776046 .2788086 .53808596 .43408204 .53776046 .51171877 .4441732 .51171877 .25732423V.24560547H.13476563M.42089845 .31298829C.41601563 .3683268 .40185548 .40901695 .37841798 .4350586 .35498048 .46044923 .32128907 .47314454 .27734376 .47314454 .23470052 .47314454 .20100911 .45898438 .17626953 .43066407 .15120442 .40169273 .13769531 .36246745 .13574219 .31298829H.42089845Z"/>
<path id="font_2_7" d="M.2705078 .00390625C.24153646-.00390625 .21191406-.0078125 .18164063-.0078125 .111328128-.0078125 .076171878 .0320638 .076171878 .111816409V.46435548H.015136719V.5283203H.079589847L.10546875 .6464844H.1640625V.5283203H.26171876V.46435548H.1640625V.13085938C.1640625 .10546875 .16829427 .08772787 .17675781 .07763672 .18489583 .067220058 .19921875 .06201172 .21972656 .06201172 .23144531 .06201172 .24837239 .06429037 .2705078 .068847659V.00390625Z"/>
<path id="font_2_8" d="M.06933594 0V.40527345C.06933594 .4423828 .068359378 .48339845 .06640625 .5283203H.14941406C.1516927 .46809898 .1529948 .4321289 .15332031 .42041017H.15527344C.16927083 .46565757 .18538411 .49658204 .20361328 .5131836 .22151692 .52978518 .24723308 .53808596 .28076173 .53808596 .29215495 .53808596 .30403648 .5364583 .31640626 .5332031V.45263673C.3046875 .45589195 .2890625 .45751954 .26953126 .45751954 .23274739 .45751954 .20491536 .44189454 .18603516 .41064454 .16682942 .3787435 .15722656 .33365885 .15722656 .27539063V0H.06933594Z"/>
<path id="font_2_9" d="M.06689453 .640625V.7246094H.15478516V.640625H.06689453M.06689453 0V.5283203H.15478516V0H.06689453Z"/>
<path id="font_2_10" d="M.40283204 0V.33496095C.40283204 .36946617 .39941407 .39648438 .39257813 .41601563 .3857422 .43489585 .37483726 .44873048 .35986329 .45751954 .3445638 .46565757 .32259117 .4698893 .2939453 .47021485 .2513021 .4698893 .2179362 .45540367 .19384766 .4267578 .1694336 .39746095 .15722656 .35725913 .15722656 .30615235V0H.06933594V.41552735C.06933594 .47705079 .068359378 .51464846 .06640625 .5283203H.14941406C.14941406 .5266927 .14973958 .52229818 .15039063 .5151367 .15071614 .5076497 .15120442 .49951173 .15185547 .49072267 .15218099 .48128257 .15266927 .46370445 .15332031 .43798829H.15478516C.17464192 .47444663 .19807942 .5003255 .22509766 .515625 .2511393 .53059896 .28401695 .53808596 .32373048 .53808596 .3816732 .53808596 .42415367 .523763 .45117188 .4951172 .4778646 .46614585 .49121095 .41845704 .49121095 .35205079V0H.40283204Z"/>
</defs>
<g>
<path transform="matrix(2.4,0,0,-2.4,0,551.94009)" stroke-width="1.98421" stroke-linecap="round" stroke-linejoin="round" fill="none" stroke="#0000ff" d="M33.789 156.982C33.789 156.982 68.57 128.55 73.077 123.42 77.584 118.289 92.523 101.054 97.994 96.519 103.408 91.983 117.808 83.394 122.372 81.268 131.074 76.421 157.975 71.12 166.649 69.165 174.161 67.35 228.331 62.22 228.331 62.22"/>
<path transform="matrix(2.4,0,0,-2.4,0,551.94009)" stroke-width="1.07714" stroke-linecap="round" stroke-miterlimit="3.8637" stroke-linejoin="miter" fill="none" stroke="#466699" d="M249.449 58.478H26.929"/>
<path transform="matrix(2.4,0,0,-2.4,0,551.94009)" d="M240.746 64.091C240.491 63.807 240.633 63.439 240.917 63.268L248.627 58.393 240.917 53.432C240.633 53.234 240.491 52.865 240.746 52.61 240.917 52.327 241.228 52.242 241.54 52.412L250.044 57.911C250.214 58.024 250.299 58.194 250.299 58.393 250.299 58.591 250.214 58.79 250.044 58.903L241.54 64.261C241.455 64.317 241.313 64.374 241.228 64.374 240.973 64.374 240.831 64.261 240.746 64.091Z" fill="#466699" fill-rule="evenodd"/>
<path transform="matrix(2.4,0,0,-2.4,0,551.94009)" stroke-width="1.07714" stroke-linecap="round" stroke-miterlimit="3.8637" stroke-linejoin="miter" fill="none" stroke="#466699" d="M27.865 205.483V58.393"/>
<path transform="matrix(2.4,0,0,-2.4,0,551.94009)" d="M22.139 197.262C22.479 197.092 22.904 197.177 23.074 197.432L27.921 205.171 32.854 197.432C32.995 197.177 33.42 197.092 33.647 197.262 33.902 197.432 33.987 197.801 33.817 198.084L28.488 206.617C28.318 206.787 28.148 206.9 27.921 206.9 27.751 206.9 27.581 206.787 27.411 206.617L21.997 198.084C21.969 197.971 21.912 197.857 21.912 197.772 21.912 197.574 21.997 197.376 22.139 197.262Z" fill="#466699" fill-rule="evenodd"/>
<path transform="matrix(2.4,0,0,-2.4,0,551.94009)" stroke-width="1.98421" stroke-linecap="round" stroke-miterlimit="3.8637" stroke-linejoin="miter" fill="none" stroke="#ff0000" d="M36.624 164.239 87.109 120.755C87.109 120.755 115.739 102.131 142.157 106.383 142.157 106.383 177.676 107.886 228.416 143.092"/>
<path transform="matrix(2.4,0,0,-2.4,0,551.94009)" stroke-width="1.07714" stroke-linecap="round" stroke-dasharray="3.54325,3.54325" stroke-miterlimit="10" stroke-linejoin="miter" fill="none" stroke="#466699" d="M185.811 217.246H227.622"/>
<path transform="matrix(2.4,0,0,-2.4,0,551.94009)" d="M228.926 214.1 230.202 217.161 228.926 220.28 236.211 217.161 228.926 214.1Z" fill="#466699" fill-rule="evenodd"/>
<path transform="matrix(2.4,0,0,-2.4,0,551.94009)" stroke-width="1.07714" stroke-linecap="round" stroke-dasharray="3.54325,3.54325" stroke-miterlimit="10" stroke-linejoin="miter" fill="none" stroke="#466699" d="M84.161 217.757H42.35"/>
<path transform="matrix(2.4,0,0,-2.4,0,551.94009)" d="M41.187 220.79 39.883 217.672 41.187 214.639 33.931 217.672 41.187 220.79Z" fill="#466699" fill-rule="evenodd"/>
<use data-text="B" xlink:href="#font_1_1" transform="matrix(26.3952,0,0,-26.3952,67.2144,450.03126)" fill="#a6caf0"/>
<use data-text="A" xlink:href="#font_1_2" transform="matrix(26.3952,0,0,-26.3952,84.74082,450.03126)" fill="#a6caf0"/>
<use data-text="I" xlink:href="#font_1_3" transform="matrix(26.3952,0,0,-26.3952,102.267238,450.03126)" fill="#a6caf0"/>
<use data-text="X" xlink:href="#font_1_4" transform="matrix(26.3952,0,0,-26.3952,109.68429,450.03126)" fill="#a6caf0"/>
<use data-text="O" xlink:href="#font_1_5" transform="matrix(26.3952,0,0,-26.3952,127.21071,450.03126)" fill="#a6caf0"/>
<use data-text=" " xlink:href="#font_1_6" transform="matrix(26.3952,0,0,-26.3952,148.06291,450.03126)" fill="#a6caf0"/>
<use data-text=" " xlink:href="#font_1_6" transform="matrix(26.3952,0,0,-26.3952,155.47997,450.03126)" fill="#a6caf0"/>
<use data-text=" " xlink:href="#font_1_6" transform="matrix(26.3952,0,0,-26.3952,162.89702,450.03126)" fill="#a6caf0"/>
<use data-text=" " xlink:href="#font_1_6" transform="matrix(26.3952,0,0,-26.3952,170.31407,450.03126)" fill="#a6caf0"/>
<use data-text=" " xlink:href="#font_1_6" transform="matrix(26.3952,0,0,-26.3952,177.96869,450.03126)" fill="#a6caf0"/>
<use data-text=" " xlink:href="#font_1_6" transform="matrix(26.3952,0,0,-26.3952,185.38574,450.03126)" fill="#a6caf0"/>
<use data-text=" " xlink:href="#font_1_6" transform="matrix(26.3952,0,0,-26.3952,192.8028,450.03126)" fill="#a6caf0"/>
<use data-text=" " xlink:href="#font_1_6" transform="matrix(26.3952,0,0,-26.3952,200.21985,450.03126)" fill="#a6caf0"/>
<use data-text=" " xlink:href="#font_1_6" transform="matrix(26.3952,0,0,-26.3952,207.6369,450.03126)" fill="#a6caf0"/>
<use data-text=" " xlink:href="#font_1_6" transform="matrix(26.3952,0,0,-26.3952,215.29152,450.03126)" fill="#a6caf0"/>
<use data-text=" " xlink:href="#font_1_6" transform="matrix(26.3952,0,0,-26.3952,222.70858,450.03126)" fill="#a6caf0"/>
<use data-text=" " xlink:href="#font_1_6" transform="matrix(26.3952,0,0,-26.3952,230.12563,450.03126)" fill="#a6caf0"/>
<use data-text=" " xlink:href="#font_1_6" transform="matrix(26.3952,0,0,-26.3952,237.54268,450.03126)" fill="#a6caf0"/>
<use data-text=" " xlink:href="#font_1_6" transform="matrix(26.3952,0,0,-26.3952,244.95973,450.03126)" fill="#a6caf0"/>
<use data-text=" " xlink:href="#font_1_6" transform="matrix(26.3952,0,0,-26.3952,252.61435,450.03126)" fill="#a6caf0"/>
<use data-text=" " xlink:href="#font_1_6" transform="matrix(26.3952,0,0,-26.3952,260.0314,450.03126)" fill="#a6caf0"/>
<use data-text=" " xlink:href="#font_1_6" transform="matrix(26.3952,0,0,-26.3952,267.44847,450.03126)" fill="#a6caf0"/>
<use data-text=" " xlink:href="#font_1_6" transform="matrix(26.3952,0,0,-26.3952,274.8655,450.03126)" fill="#a6caf0"/>
<use data-text=" " xlink:href="#font_1_6" transform="matrix(26.3952,0,0,-26.3952,282.28257,450.03126)" fill="#a6caf0"/>
<use data-text=" " xlink:href="#font_1_6" transform="matrix(26.3952,0,0,-26.3952,289.93717,450.03126)" fill="#a6caf0"/>
<use data-text=" " xlink:href="#font_1_6" transform="matrix(26.3952,0,0,-26.3952,297.35423,450.03126)" fill="#a6caf0"/>
<use data-text=" " xlink:href="#font_1_6" transform="matrix(26.3952,0,0,-26.3952,304.77128,450.03126)" fill="#a6caf0"/>
<use data-text=" " xlink:href="#font_1_6" transform="matrix(26.3952,0,0,-26.3952,312.18833,450.03126)" fill="#a6caf0"/>
<use data-text=" " xlink:href="#font_1_6" transform="matrix(26.3952,0,0,-26.3952,319.60539,450.03126)" fill="#a6caf0"/>
<use data-text=" " xlink:href="#font_1_6" transform="matrix(26.3952,0,0,-26.3952,327.25999,450.03126)" fill="#a6caf0"/>
<use data-text=" " xlink:href="#font_1_6" transform="matrix(26.3952,0,0,-26.3952,334.67704,450.03126)" fill="#a6caf0"/>
<use data-text=" " xlink:href="#font_1_6" transform="matrix(26.3952,0,0,-26.3952,342.0941,450.03126)" fill="#a6caf0"/>
<use data-text=" " xlink:href="#font_1_6" transform="matrix(26.3952,0,0,-26.3952,349.51115,450.03126)" fill="#a6caf0"/>
<use data-text=" " xlink:href="#font_1_6" transform="matrix(26.3952,0,0,-26.3952,356.9282,450.03126)" fill="#a6caf0"/>
<use data-text=" " xlink:href="#font_1_6" transform="matrix(26.3952,0,0,-26.3952,364.58283,450.03126)" fill="#a6caf0"/>
<use data-text=" " xlink:href="#font_1_6" transform="matrix(26.3952,0,0,-26.3952,371.99989,450.03126)" fill="#a6caf0"/>
<use data-text=" " xlink:href="#font_1_6" transform="matrix(26.3952,0,0,-26.3952,379.41694,450.03126)" fill="#a6caf0"/>
<use data-text=" " xlink:href="#font_1_6" transform="matrix(26.3952,0,0,-26.3952,386.83399,450.03126)" fill="#a6caf0"/>
<use data-text=" " xlink:href="#font_1_6" transform="matrix(26.3952,0,0,-26.3952,394.25105,450.03126)" fill="#a6caf0"/>
<use data-text=" " xlink:href="#font_1_6" transform="matrix(26.3952,0,0,-26.3952,401.90565,450.03126)" fill="#a6caf0"/>
<use data-text=" " xlink:href="#font_1_6" transform="matrix(26.3952,0,0,-26.3952,409.3227,450.03126)" fill="#a6caf0"/>
<use data-text=" " xlink:href="#font_1_6" transform="matrix(26.3952,0,0,-26.3952,416.73976,450.03126)" fill="#a6caf0"/>
<use data-text=" " xlink:href="#font_1_6" transform="matrix(26.3952,0,0,-26.3952,424.1568,450.03126)" fill="#a6caf0"/>
<use data-text=" " xlink:href="#font_1_6" transform="matrix(26.3952,0,0,-26.3952,431.57386,450.03126)" fill="#a6caf0"/>
<use data-text=" " xlink:href="#font_1_6" transform="matrix(26.3952,0,0,-26.3952,439.2285,450.03126)" fill="#a6caf0"/>
<use data-text=" " xlink:href="#font_1_6" transform="matrix(26.3952,0,0,-26.3952,446.64555,450.03126)" fill="#a6caf0"/>
<use data-text=" " xlink:href="#font_1_6" transform="matrix(26.3952,0,0,-26.3952,454.0626,450.03126)" fill="#a6caf0"/>
<use data-text=" " xlink:href="#font_1_6" transform="matrix(26.3952,0,0,-26.3952,461.47966,450.03126)" fill="#a6caf0"/>
<use data-text=" " xlink:href="#font_1_6" transform="matrix(26.3952,0,0,-26.3952,468.8967,450.03126)" fill="#a6caf0"/>
<use data-text=" " xlink:href="#font_1_6" transform="matrix(26.3952,0,0,-26.3952,476.5513,450.03126)" fill="#a6caf0"/>
<use data-text=" " xlink:href="#font_1_6" transform="matrix(26.3952,0,0,-26.3952,483.96836,450.03126)" fill="#a6caf0"/>
<use data-text=" " xlink:href="#font_1_6" transform="matrix(26.3952,0,0,-26.3952,491.3854,450.03126)" fill="#a6caf0"/>
<use data-text="A" xlink:href="#font_1_2" transform="matrix(26.3952,0,0,-26.3952,498.80247,450.03126)" fill="#a6caf0"/>
<use data-text="L" xlink:href="#font_1_7" transform="matrix(26.3952,0,0,-26.3952,516.32888,450.03126)" fill="#a6caf0"/>
<use data-text="T" xlink:href="#font_1_8" transform="matrix(26.3952,0,0,-26.3952,531.18936,450.03126)" fill="#a6caf0"/>
<use data-text="O" xlink:href="#font_1_5" transform="matrix(26.3952,0,0,-26.3952,547.264,450.03126)" fill="#a6caf0"/>
<use data-text="C" xlink:href="#font_1_9" transform="matrix(26.3952,0,0,-26.3952,172.8,473.97846)" fill="#2a6099"/>
<use data-text="o" xlink:href="#font_1_10" transform="matrix(26.3952,0,0,-26.3952,191.75177,473.97846)" fill="#2a6099"/>
<use data-text="m" xlink:href="#font_1_11" transform="matrix(26.3952,0,0,-26.3952,206.40111,473.97846)" fill="#2a6099"/>
<use data-text="p" xlink:href="#font_1_12" transform="matrix(26.3952,0,0,-26.3952,228.44109,473.97846)" fill="#2a6099"/>
<use data-text="l" xlink:href="#font_1_13" transform="matrix(26.3952,0,0,-26.3952,243.09043,473.97846)" fill="#2a6099"/>
<use data-text="e" xlink:href="#font_1_14" transform="matrix(26.3952,0,0,-26.3952,249.05574,473.97846)" fill="#2a6099"/>
<use data-text="x" xlink:href="#font_1_15" transform="matrix(26.3952,0,0,-26.3952,263.70509,473.97846)" fill="#2a6099"/>
<use data-text="i" xlink:href="#font_1_16" transform="matrix(26.3952,0,0,-26.3952,276.90269,473.97846)" fill="#2a6099"/>
<use data-text="d" xlink:href="#font_1_17" transform="matrix(26.3952,0,0,-26.3952,282.65687,473.97846)" fill="#2a6099"/>
<use data-text="a" xlink:href="#font_1_18" transform="matrix(26.3952,0,0,-26.3952,297.30619,473.97846)" fill="#2a6099"/>
<use data-text="d" xlink:href="#font_1_17" transform="matrix(26.3952,0,0,-26.3952,311.9555,473.97846)" fill="#2a6099"/>
<use data-text="e" xlink:href="#font_1_14" transform="matrix(26.3952,0,0,-26.3952,326.81599,473.97846)" fill="#2a6099"/>
<use data-text=" " xlink:href="#font_1_6" transform="matrix(26.3952,0,0,-26.3952,341.4653,473.97846)" fill="#2a6099"/>
<use data-text="d" xlink:href="#font_1_17" transform="matrix(26.3952,0,0,-26.3952,348.88236,473.97846)" fill="#2a6099"/>
<use data-text="o" xlink:href="#font_1_10" transform="matrix(26.3952,0,0,-26.3952,363.53169,473.97846)" fill="#2a6099"/>
<use data-text=" " xlink:href="#font_1_6" transform="matrix(26.3952,0,0,-26.3952,378.181,473.97846)" fill="#2a6099"/>
<use data-text="M" xlink:href="#font_1_19" transform="matrix(26.3952,0,0,-26.3952,385.8356,473.97846)" fill="#2a6099"/>
<use data-text="o" xlink:href="#font_1_10" transform="matrix(26.3952,0,0,-26.3952,407.8756,473.97846)" fill="#2a6099"/>
<use data-text="d" xlink:href="#font_1_17" transform="matrix(26.3952,0,0,-26.3952,422.52494,473.97846)" fill="#2a6099"/>
<use data-text="e" xlink:href="#font_1_14" transform="matrix(26.3952,0,0,-26.3952,437.17427,473.97846)" fill="#2a6099"/>
<use data-text="l" xlink:href="#font_1_13" transform="matrix(26.3952,0,0,-26.3952,451.82359,473.97846)" fill="#2a6099"/>
<use data-text="o" xlink:href="#font_1_10" transform="matrix(26.3952,0,0,-26.3952,457.78889,473.97846)" fill="#2a6099"/>
<use data-text="E" xlink:href="#font_1_20" transform="matrix(0,-26.3952,-26.3952,-0,41.976,303.83045)" fill="#2a6099"/>
<use data-text="r" xlink:href="#font_1_21" transform="matrix(0,-26.3952,-26.3952,-0,41.976,286.34645)" fill="#2a6099"/>
<use data-text="r" xlink:href="#font_1_21" transform="matrix(0,-26.3952,-26.3952,-0,41.976,277.43525)" fill="#2a6099"/>
<use data-text="o" xlink:href="#font_1_10" transform="matrix(0,-26.3952,-26.3952,-0,41.976,268.31767)" fill="#2a6099"/>
<use data-text=" " xlink:href="#font_1_6" transform="matrix(0,-26.3952,-26.3952,-0,41.976,253.69205)" fill="#2a6099"/>
<use data-text="d" xlink:href="#font_1_17" transform="matrix(0,-26.3952,-26.3952,-0,41.976,246.27606)" fill="#2a6099"/>
<use data-text="o" xlink:href="#font_1_10" transform="matrix(0,-26.3952,-26.3952,-0,41.976,231.58084)" fill="#2a6099"/>
<use data-text=" " xlink:href="#font_1_6" transform="matrix(0,-26.3952,-26.3952,-0,41.976,216.95526)" fill="#2a6099"/>
<use data-text="M" xlink:href="#font_1_19" transform="matrix(0,-26.3952,-26.3952,-0,41.976,209.26807)" fill="#2a6099"/>
<use data-text="o" xlink:href="#font_1_10" transform="matrix(0,-26.3952,-26.3952,-0,41.976,187.22406)" fill="#2a6099"/>
<use data-text="d" xlink:href="#font_1_17" transform="matrix(0,-26.3952,-26.3952,-0,41.976,172.53125)" fill="#2a6099"/>
<use data-text="e" xlink:href="#font_1_14" transform="matrix(0,-26.3952,-26.3952,-0,41.976,157.90323)" fill="#2a6099"/>
<use data-text="l" xlink:href="#font_1_13" transform="matrix(0,-26.3952,-26.3952,-0,41.976,143.27765)" fill="#2a6099"/>
<use data-text="o" xlink:href="#font_1_10" transform="matrix(0,-26.3952,-26.3952,-0,41.976,137.28964)" fill="#2a6099"/>
<use data-text="A" xlink:href="#font_1_2" transform="matrix(26.3952,0,0,-26.3952,81.5688,61.23123)" fill="#2a6099"/>
<use data-text="l" xlink:href="#font_1_13" transform="matrix(26.3952,0,0,-26.3952,99.09522,61.23123)" fill="#2a6099"/>
<use data-text="t" xlink:href="#font_1_22" transform="matrix(26.3952,0,0,-26.3952,104.84937,61.23123)" fill="#2a6099"/>
<use data-text="o" xlink:href="#font_1_10" transform="matrix(26.3952,0,0,-26.3952,112.266429,61.23123)" fill="#2a6099"/>
<use data-text=" " xlink:href="#font_1_6" transform="matrix(26.3952,0,0,-26.3952,127.126918,61.23123)" fill="#2a6099"/>
<use data-text="v" xlink:href="#font_1_23" transform="matrix(26.3952,0,0,-26.3952,134.54398,61.23123)" fill="#2a6099"/>
<use data-text="i" xlink:href="#font_1_16" transform="matrix(26.3952,0,0,-26.3952,147.74158,61.23123)" fill="#2a6099"/>
<use data-text="é" xlink:href="#font_1_24" transform="matrix(26.3952,0,0,-26.3952,153.49573,61.23123)" fill="#2a6099"/>
<use data-text="s" xlink:href="#font_1_26" transform="matrix(26.3952,0,0,-26.3952,168.14507,61.23123)" fill="#2a6099"/>
<use data-text="B" xlink:href="#font_1_1" transform="matrix(26.3952,0,0,-26.3952,81.5688,90.75604)" fill="#2a6099"/>
<use data-text="a" xlink:href="#font_1_18" transform="matrix(26.3952,0,0,-26.3952,99.09522,90.75604)" fill="#2a6099"/>
<use data-text="i" xlink:href="#font_1_16" transform="matrix(26.3952,0,0,-26.3952,113.74455,90.75604)" fill="#2a6099"/>
<use data-text="x" xlink:href="#font_1_15" transform="matrix(26.3952,0,0,-26.3952,119.49871,90.75604)" fill="#2a6099"/>
<use data-text="a" xlink:href="#font_1_18" transform="matrix(26.3952,0,0,-26.3952,132.90747,90.75604)" fill="#2a6099"/>
<use data-text=" " xlink:href="#font_1_6" transform="matrix(26.3952,0,0,-26.3952,147.55681,90.75604)" fill="#2a6099"/>
<use data-text="v" xlink:href="#font_1_23" transform="matrix(26.3952,0,0,-26.3952,154.97385,90.75604)" fill="#2a6099"/>
<use data-text="a" xlink:href="#font_1_18" transform="matrix(26.3952,0,0,-26.3952,168.17145,90.75604)" fill="#2a6099"/>
<use data-text="r" xlink:href="#font_1_21" transform="matrix(26.3952,0,0,-26.3952,182.82079,90.75604)" fill="#2a6099"/>
<use data-text="i" xlink:href="#font_1_16" transform="matrix(26.3952,0,0,-26.3952,191.66316,90.75604)" fill="#2a6099"/>
<use data-text="â" xlink:href="#font_1_27" transform="matrix(26.3952,0,0,-26.3952,197.41733,90.75604)" fill="#2a6099"/>
<use data-text="n" xlink:href="#font_1_29" transform="matrix(26.3952,0,0,-26.3952,212.27785,90.75604)" fill="#2a6099"/>
<use data-text="c" xlink:href="#font_1_30" transform="matrix(26.3952,0,0,-26.3952,226.92717,90.75604)" fill="#2a6099"/>
<use data-text="i" xlink:href="#font_1_16" transform="matrix(26.3952,0,0,-26.3952,240.12477,90.75604)" fill="#2a6099"/>
<use data-text="a" xlink:href="#font_1_18" transform="matrix(26.3952,0,0,-26.3952,245.87894,90.75604)" fill="#2a6099"/>
<use data-text="B" xlink:href="#font_1_1" transform="matrix(26.3952,0,0,-26.3952,415.944,61.23123)" fill="#2a6099"/>
<use data-text="a" xlink:href="#font_1_18" transform="matrix(26.3952,0,0,-26.3952,433.4704,61.23123)" fill="#2a6099"/>
<use data-text="i" xlink:href="#font_1_16" transform="matrix(26.3952,0,0,-26.3952,448.11973,61.23123)" fill="#2a6099"/>
<use data-text="x" xlink:href="#font_1_15" transform="matrix(26.3952,0,0,-26.3952,453.87388,61.23123)" fill="#2a6099"/>
<use data-text="o" xlink:href="#font_1_10" transform="matrix(26.3952,0,0,-26.3952,467.07145,61.23123)" fill="#2a6099"/>
<use data-text=" " xlink:href="#font_1_6" transform="matrix(26.3952,0,0,-26.3952,481.72077,61.23123)" fill="#2a6099"/>
<use data-text="v" xlink:href="#font_1_23" transform="matrix(26.3952,0,0,-26.3952,489.3754,61.23123)" fill="#2a6099"/>
<use data-text="i" xlink:href="#font_1_16" transform="matrix(26.3952,0,0,-26.3952,502.57298,61.23123)" fill="#2a6099"/>
<use data-text="é" xlink:href="#font_1_24" transform="matrix(26.3952,0,0,-26.3952,508.32713,61.23123)" fill="#2a6099"/>
<use data-text="s" xlink:href="#font_1_26" transform="matrix(26.3952,0,0,-26.3952,522.97647,61.23123)" fill="#2a6099"/>
<use data-text="A" xlink:href="#font_1_2" transform="matrix(26.3952,0,0,-26.3952,415.944,90.75604)" fill="#2a6099"/>
<use data-text="l" xlink:href="#font_1_13" transform="matrix(26.3952,0,0,-26.3952,433.4704,90.75604)" fill="#2a6099"/>
<use data-text="t" xlink:href="#font_1_22" transform="matrix(26.3952,0,0,-26.3952,439.22456,90.75604)" fill="#2a6099"/>
<use data-text="a" xlink:href="#font_1_18" transform="matrix(26.3952,0,0,-26.3952,446.6416,90.75604)" fill="#2a6099"/>
<use data-text=" " xlink:href="#font_1_6" transform="matrix(26.3952,0,0,-26.3952,461.29093,90.75604)" fill="#2a6099"/>
<use data-text="v" xlink:href="#font_1_23" transform="matrix(26.3952,0,0,-26.3952,468.70799,90.75604)" fill="#2a6099"/>
<use data-text="a" xlink:href="#font_1_18" transform="matrix(26.3952,0,0,-26.3952,482.11674,90.75604)" fill="#2a6099"/>
<use data-text="r" xlink:href="#font_1_21" transform="matrix(26.3952,0,0,-26.3952,496.76603,90.75604)" fill="#2a6099"/>
<use data-text="i" xlink:href="#font_1_16" transform="matrix(26.3952,0,0,-26.3952,505.60847,90.75604)" fill="#2a6099"/>
<use data-text="â" xlink:href="#font_1_27" transform="matrix(26.3952,0,0,-26.3952,511.3626,90.75604)" fill="#2a6099"/>
<use data-text="n" xlink:href="#font_1_29" transform="matrix(26.3952,0,0,-26.3952,526.01199,90.75604)" fill="#2a6099"/>
<use data-text="c" xlink:href="#font_1_30" transform="matrix(26.3952,0,0,-26.3952,540.66128,90.75604)" fill="#2a6099"/>
<use data-text="i" xlink:href="#font_1_16" transform="matrix(26.3952,0,0,-26.3952,554.07,90.75604)" fill="#2a6099"/>
<use data-text="a" xlink:href="#font_1_18" transform="matrix(26.3952,0,0,-26.3952,559.82418,90.75604)" fill="#2a6099"/>
<use data-text="d" xlink:href="#font_2_1" transform="matrix(28.800002,0,0,-28.800002,241.20001,252.00006)" fill="#ff0000"/>
<use data-text="a" xlink:href="#font_2_2" transform="matrix(28.800002,0,0,-28.800002,257.2128,252.00006)" fill="#ff0000"/>
<use data-text="d" xlink:href="#font_2_1" transform="matrix(28.800002,0,0,-28.800002,273.2256,252.00006)" fill="#ff0000"/>
<use data-text="o" xlink:href="#font_2_3" transform="matrix(28.800002,0,0,-28.800002,289.2384,252.00006)" fill="#ff0000"/>
<use data-text="s" xlink:href="#font_2_4" transform="matrix(28.800002,0,0,-28.800002,305.2512,252.00006)" fill="#ff0000"/>
<use data-text=" " xlink:href="#font_2_5" transform="matrix(28.800002,0,0,-28.800002,319.65119,252.00006)" fill="#ff0000"/>
<use data-text="d" xlink:href="#font_2_1" transform="matrix(28.800002,0,0,-28.800002,327.62879,252.00006)" fill="#ff0000"/>
<use data-text="e" xlink:href="#font_2_6" transform="matrix(28.800002,0,0,-28.800002,343.6416,252.00006)" fill="#ff0000"/>
<use data-text=" " xlink:href="#font_2_5" transform="matrix(28.800002,0,0,-28.800002,359.6544,252.00006)" fill="#ff0000"/>
<use data-text="t" xlink:href="#font_2_7" transform="matrix(28.800002,0,0,-28.800002,367.632,252.00006)" fill="#ff0000"/>
<use data-text="e" xlink:href="#font_2_6" transform="matrix(28.800002,0,0,-28.800002,375.60963,252.00006)" fill="#ff0000"/>
<use data-text="s" xlink:href="#font_2_4" transform="matrix(28.800002,0,0,-28.800002,391.6224,252.00006)" fill="#ff0000"/>
<use data-text="t" xlink:href="#font_2_7" transform="matrix(28.800002,0,0,-28.800002,406.0224,252.00006)" fill="#ff0000"/>
<use data-text="e" xlink:href="#font_2_6" transform="matrix(28.800002,0,0,-28.800002,414.00004,252.00006)" fill="#ff0000"/>
<use data-text="d" xlink:href="#font_2_1" transform="matrix(28.800002,0,0,-28.800002,95.4,324.00056)" fill="#0000ff"/>
<use data-text="a" xlink:href="#font_2_2" transform="matrix(28.800002,0,0,-28.800002,111.4128,324.00056)" fill="#0000ff"/>
<use data-text="d" xlink:href="#font_2_1" transform="matrix(28.800002,0,0,-28.800002,127.425609,324.00056)" fill="#0000ff"/>
<use data-text="o" xlink:href="#font_2_3" transform="matrix(28.800002,0,0,-28.800002,143.43842,324.00056)" fill="#0000ff"/>
<use data-text="s" xlink:href="#font_2_4" transform="matrix(28.800002,0,0,-28.800002,159.45122,324.00056)" fill="#0000ff"/>
<use data-text=" " xlink:href="#font_2_5" transform="matrix(28.800002,0,0,-28.800002,173.85121,324.00056)" fill="#0000ff"/>
<use data-text="d" xlink:href="#font_2_1" transform="matrix(28.800002,0,0,-28.800002,181.82881,324.00056)" fill="#0000ff"/>
<use data-text="e" xlink:href="#font_2_6" transform="matrix(28.800002,0,0,-28.800002,197.8416,324.00056)" fill="#0000ff"/>
<use data-text="t" xlink:href="#font_2_7" transform="matrix(28.800002,0,0,-28.800002,95.4,362.40055)" fill="#0000ff"/>
<use data-text="r" xlink:href="#font_2_8" transform="matrix(28.800002,0,0,-28.800002,103.37761,362.40055)" fill="#0000ff"/>
<use data-text="e" xlink:href="#font_2_6" transform="matrix(28.800002,0,0,-28.800002,112.968,362.40055)" fill="#0000ff"/>
<use data-text="i" xlink:href="#font_2_9" transform="matrix(28.800002,0,0,-28.800002,128.9808,362.40055)" fill="#0000ff"/>
<use data-text="n" xlink:href="#font_2_10" transform="matrix(28.800002,0,0,-28.800002,135.3744,362.40055)" fill="#0000ff"/>
<use data-text="o" xlink:href="#font_2_3" transform="matrix(28.800002,0,0,-28.800002,151.3872,362.40055)" fill="#0000ff"/>
</g>
</svg>