<svg xmlns="http://www.w3.org/2000/svg" xmlns:xlink="http://www.w3.org/1999/xlink" width="850" height="550">
<defs>
<clipPath id="clip_1">
<path transform="matrix(2.4,0,0,-2.4,0,564)" d="M8.996 215.531H83.746V7.0470125H8.996Z"/>
</clipPath>
<clipPath id="clip_2">
<path transform="matrix(2.4,0,0,-2.4,0,564)" d="M132.758 191.383H193.168V32.528H132.758Z"/>
</clipPath>
<clipPath id="clip_3">
<path transform="matrix(2.4,0,0,-2.4,0,564)" d="M234.066 215.203H308.81599V6.7190096H234.066Z"/>
</clipPath>
<path id="font_4_1" d="M.3881836 .103515628C.47509767 .1031901 .53548178 .14680989 .56933596 .234375L.6948242 .18701172C.66780599 .12060547 .6282552 .07128906 .5761719 .0390625 .5234375 .006184896 .46077476-.0100911459 .3881836-.009765625 .277181-.0100911459 .19173177 .021321616 .13183594 .084472659 .07128906 .14664714 .041015626 .23421224 .041015626 .34716798 .041015626 .4597982 .07014974 .5465495 .12841797 .6074219 .18636067 .66796877 .27083335 .6982422 .38183595 .6982422 .4622396 .6982422 .5279948 .6821289 .57910159 .64990237 .6298828 .6170247 .66552737 .56933596 .68603518 .50683596L.55908206 .47216798C.54833987 .50667318 .52734377 .5341797 .49609376 .5546875 .46419273 .57454428 .42708335 .58463546 .38476563 .58496096 .31966148 .58496096 .27034507 .5647786 .2368164 .52441409 .20296224 .48372398 .18603516 .42464195 .18603516 .34716798 .18603516 .26774089 .20345052 .20735677 .23828125 .16601563 .27278648 .12434896 .3227539 .103515628 .3881836 .103515628Z"/>
<path id="font_4_2" d="M.55322268 0 .4921875 .17578125H.22998047L.16894531 0H.024902344L.2758789 .6879883H.44580079L.6958008 0H.55322268M.36083985 .58203127 .35791017 .57128909C.35432945 .5595703 .3504232 .54622396 .3461914 .53125 .3413086 .5159505 .3133138 .43359376 .26220704 .2841797H.45996095L.39208985 .4819336 .37109376 .54833987 .36083985 .58203127Z"/>
<path id="font_4_3" d="M.6381836 0V.4169922C.6378581 .42610679 .6380208 .43554688 .6386719 .4453125 .6386719 .4544271 .6401367 .49495445 .6430664 .56689456 .6199544 .47932945 .60286459 .41829429 .5917969 .38378907L.46777345 0H.36523438L.24121094 .38378907 .18896485 .56689456C.1928711 .4910482 .19482422 .44108073 .19482422 .4169922V0H.06689453V.6879883H.25976563L.3828125 .30322267 .3935547 .26611329 .4169922 .17382813 .4477539 .2841797 .57421877 .6879883H.7661133V0H.6381836Z"/>
<path id="font_4_4" d="M.6801758 .3491211C.6801758 .27815757 .6663411 .2163086 .6386719 .16357422 .61067709 .110188808 .57128909 .06966146 .5205078 .041992189 .46907554 .0139973959 .41064454 0 .34521485 0H.06689453V.6879883H.31591798C.43147788 .6876628 .5211589 .6585286 .58496096 .60058596 .6484375 .5416667 .6801758 .45784507 .6801758 .3491211M.53515627 .3491211C.53515627 .4226888 .5159505 .47916667 .47753907 .5185547 .4388021 .5569661 .3839518 .57633468 .31298829 .57666018H.2109375V.111328128H.3330078C.39453126 .111328128 .4436849 .13264974 .48046876 .17529297 .51692709 .21761067 .53515627 .27555339 .53515627 .3491211Z"/>
<path id="font_4_5" d="M0 0Z"/>
<path id="font_4_6" d="M.06689453 0V.6879883H.60791018V.57666018H.2109375V.4038086H.578125V.29248048H.2109375V.111328128H.6279297V0H.06689453Z"/>
<path id="font_4_7" d="M.06689453 0V.6879883H.2109375V0H.06689453Z"/>
<path id="font_4_8" d="M.48583985 0 .18603516 .52978518C.19189453 .47835288 .19482422 .43701173 .19482422 .40576173V0H.06689453V.6879883H.23144531L.53564456 .1538086C.52978518 .20263672 .52685549 .24739583 .52685549 .28808595V.6879883H.65478518V0H.48583985Z"/>
<path id="font_4_9" d="M.6328125 .47021485C.632487 .4256185 .6223958 .38606773 .60253909 .3515625 .58235678 .31673179 .55354818 .2898763 .5161133 .2709961 .47835288 .25179038 .43359376 .2421875 .38183595 .2421875H.2109375V0H.06689453V.6879883H.37597657C.45833335 .6876628 .5218099 .66878256 .56640627 .63134768 .61067709 .5932617 .6328125 .5395508 .6328125 .47021485M.48779298 .46777345C.48779298 .54003909 .44514976 .5761719 .35986329 .5761719H.2109375V.35302735H.36376954C.40315757 .3527018 .4337565 .36263023 .4555664 .3828125 .47705079 .40234376 .48779298 .43066407 .48779298 .46777345Z"/>
<path id="font_4_10" d="M.35302735-.009765625C.25830079-.0100911459 .18587239 .013020833 .13574219 .059570314 .08528646 .10579427 .060058595 .171875 .060058595 .2578125V.6879883H.20410156V.26904298C.20410156 .21435547 .21712239 .17317708 .24316406 .14550781 .2685547 .1171875 .30647788 .103027347 .3569336 .103027347 .40804038 .10270182 .44759117 .11751302 .47558595 .14746094 .5032552 .1764323 .51708987 .21858724 .51708987 .27392579V.6879883H.6611328V.26513673C.6611328 .17757161 .63427737 .11002604 .5805664 .0625 .5262044 .0139973959 .45035807-.0100911459 .35302735-.009765625Z"/>
<path id="font_4_11" d="M.3774414 .57666018V0H.23339844V.57666018H.011230469V.6879883H.60009768V.57666018H.3774414Z"/>
<path id="font_5_1" d="M.3881836 .103515628C.47509767 .1031901 .53548178 .14680989 .56933596 .234375L.6948242 .18701172C.66780599 .12060547 .6282552 .07128906 .5761719 .0390625 .5234375 .006184896 .46077476-.0100911459 .3881836-.009765625 .277181-.0100911459 .19173177 .021321616 .13183594 .084472659 .07128906 .14664714 .041015626 .23421224 .041015626 .34716798 .041015626 .4597982 .07014974 .5465495 .12841797 .6074219 .18636067 .66796877 .27083335 .6982422 .38183595 .6982422 .4622396 .6982422 .5279948 .6821289 .57910159 .64990237 .6298828 .6170247 .66552737 .56933596 .68603518 .50683596L.55908206 .47216798C.54833987 .50667318 .52734377 .5341797 .49609376 .5546875 .46419273 .57454428 .42708335 .58463546 .38476563 .58496096 .31966148 .58496096 .27034507 .5647786 .2368164 .52441409 .20296224 .48372398 .18603516 .42464195 .18603516 .34716798 .18603516 .26774089 .20345052 .20735677 .23828125 .16601563 .27278648 .12434896 .3227539 .103515628 .3881836 .103515628Z"/>
<path id="font_5_2" d="M.55322268 0 .4921875 .17578125H.22998047L.16894531 0H.024902344L.2758789 .6879883H.44580079L.6958008 0H.55322268M.36083985 .58203127 .35791017 .57128909C.35432945 .5595703 .3504232 .54622396 .3461914 .53125 .3413086 .5159505 .3133138 .43359376 .26220704 .2841797H.45996095L.39208985 .4819336 .37109376 .54833987 .36083985 .58203127Z"/>
<path id="font_5_3" d="M.6381836 0V.4169922C.6378581 .42610679 .6380208 .43554688 .6386719 .4453125 .6386719 .4544271 .6401367 .49495445 .6430664 .56689456 .6199544 .47932945 .60286459 .41829429 .5917969 .38378907L.46777345 0H.36523438L.24121094 .38378907 .18896485 .56689456C.1928711 .4910482 .19482422 .44108073 .19482422 .4169922V0H.06689453V.6879883H.25976563L.3828125 .30322267 .3935547 .26611329 .4169922 .17382813 .4477539 .2841797 .57421877 .6879883H.7661133V0H.6381836Z"/>
<path id="font_5_4" d="M.6801758 .3491211C.6801758 .27815757 .6663411 .2163086 .6386719 .16357422 .61067709 .110188808 .57128909 .06966146 .5205078 .041992189 .46907554 .0139973959 .41064454 0 .34521485 0H.06689453V.6879883H.31591798C.43147788 .6876628 .5211589 .6585286 .58496096 .60058596 .6484375 .5416667 .6801758 .45784507 .6801758 .3491211M.53515627 .3491211C.53515627 .4226888 .5159505 .47916667 .47753907 .5185547 .4388021 .5569661 .3839518 .57633468 .31298829 .57666018H.2109375V.111328128H.3330078C.39453126 .111328128 .4436849 .13264974 .48046876 .17529297 .51692709 .21761067 .53515627 .27555339 .53515627 .3491211Z"/>
<path id="font_5_5" d="M0 0Z"/>
<path id="font_5_6" d="M.73583987 .34716798C.73583987 .27522788 .7216797 .21223958 .6933594 .15820313 .66503909 .10384115 .6245117 .06233724 .57177737 .033691408 .51904299 .0047200524 .45751954-.009765625 .38720704-.009765625 .2788086-.0100911459 .19417317 .021809897 .13330078 .0859375 .071777347 .14908855 .041015626 .23616536 .041015626 .34716798 .041015626 .457194 .071614589 .54329428 .1328125 .60546877 .19368489 .6673177 .2788086 .6982422 .3881836 .6982422 .49690757 .6982422 .58219406 .6669922 .64404299 .6044922 .70491537 .5416667 .73551437 .45589195 .73583987 .34716798M.5888672 .34716798C.5888672 .4210612 .57128909 .47932945 .5361328 .52197268 .50097659 .56396487 .45166017 .58496096 .3881836 .58496096 .32373048 .58463546 .27392579 .56380209 .23876953 .52246096 .20361328 .48014323 .18603516 .42171226 .18603516 .34716798 .18603516 .27132163 .20410156 .21191406 .24023438 .16894531 .27571617 .12532552 .32470704 .103515628 .38720704 .103515628 .45166017 .1031901 .50146487 .12434896 .5366211 .16699219 .5711263 .20930989 .5885417 .2693685 .5888672 .34716798Z"/>
<path id="font_5_7" d="M.35302735-.009765625C.25830079-.0100911459 .18587239 .013020833 .13574219 .059570314 .08528646 .10579427 .060058595 .171875 .060058595 .2578125V.6879883H.20410156V.26904298C.20410156 .21435547 .21712239 .17317708 .24316406 .14550781 .2685547 .1171875 .30647788 .103027347 .3569336 .103027347 .40804038 .10270182 .44759117 .11751302 .47558595 .14746094 .5032552 .1764323 .51708987 .21858724 .51708987 .27392579V.6879883H.6611328V.26513673C.6611328 .17757161 .63427737 .11002604 .5805664 .0625 .5262044 .0139973959 .45035807-.0100911459 .35302735-.009765625Z"/>
<path id="font_5_8" d="M.06689453 0V.6879883H.2109375V.111328128H.5800781V0H.06689453Z"/>
<path id="font_5_9" d="M.3774414 .57666018V0H.23339844V.57666018H.011230469V.6879883H.60009768V.57666018H.3774414Z"/>
<path id="font_6_14" d="M.22399903 .74609377H.12399292C.09098816 .67108157 .057998659 .5760803 .057998659 .49308778V.4500885H.18299866V.50209048C.18299866 .5860901 .19898987 .66108706 .22399903 .74609377M.43699647 .74609377H.33699037C.3039856 .67108157 .2709961 .5760803 .2709961 .49308778V.4500885H.3959961V.50209048C.3959961 .5860901 .4119873 .66108706 .43699647 .74609377Z"/>
<path id="font_6_15" d="M.20999146 .8017578H.07199097V0H.18798828L.20199585 .09008789C.23999024 .027313233 .30699159-.013671875 .38598634-.013671875 .5139923-.013671875 .6339874 .09931946 .6339874 .27539063 .6339874 .4514618 .5189972 .56347659 .3909912 .56347659 .31799317 .56347659 .24598694 .5254669 .20999146 .46446229V.8017578M.34999085 .4384613C.43299867 .4384613 .49499513 .37043763 .49499513 .2743988 .49499513 .1793518 .43299867 .11231995 .35099793 .11231995 .269989 .11231995 .20799256 .1793518 .20799256 .27539063 .20799256 .37142945 .269989 .4384613 .34999085 .4384613Z"/>
<path id="font_6_16" d="M.32499696-.013671875C.48599244-.013671875 .60798647 .10731506 .60798647 .27539063 .60798647 .44447328 .48599244 .56347659 .32499696 .56347659 .16499329 .56347659 .040985109 .44447328 .040985109 .27539063 .040985109 .10632324 .1639862-.013671875 .32499696-.013671875M.32499696 .11231995C.25099183 .11231995 .17999268 .17134094 .17999268 .27539063 .17999268 .3794403 .25099183 .4384613 .32499696 .4384613 .39898683 .4384613 .46899415 .3794403 .46899415 .27539063 .46899415 .17234802 .39898683 .11231995 .32499696 .11231995Z"/>
<path id="font_6_17" d="M.23699951 .6777954H.10398865V.5498047H.022994996V.4347992H.102996829V.20611573C.102996829 .071243289 .18099976-.0107421879 .31799317-.0107421879 .35398866-.0107421879 .3789978-.0067443849 .39698792-.002746582V.115249637C.37998963 .11224365 .36299134 .11024475 .34799195 .11024475 .28399659 .11024475 .23699951 .13920594 .23699951 .21310425V.4347992H.3869934V.5498047H.23699951V.6777954Z"/>
<path id="font_6_18" d="M.07398987 0H.21199036V.8017578H.07398987V0Z"/>
<path id="font_6_19" d="M.5629883 .28533937C.5629883 .46746827 .45098878 .56347659 .31399537 .56347659 .1639862 .56347659 .040985109 .4494629 .040985109 .27334596 .040985109 .10531616 .1519928-.013671875 .33799745-.013671875 .4079895-.013671875 .47299195 .0053253176 .5289917 .04031372V.1583252C.47499085 .12033081 .4149933 .09832764 .35398866 .09832764 .2639923 .09832764 .19299317 .14633179 .17399597 .23535156H.5589905C.5609894 .25035096 .5629883 .26634217 .5629883 .28533937M.17199707 .32234193C.18699646 .40242005 .24499512 .45246888 .31298829 .45246888 .3769989 .45246888 .42900086 .40742494 .43099977 .32234193H.17199707Z"/>
<path id="font_6_20" d="M.36299134 .56347659C.2869873 .56347659 .22898865 .5224762 .19699097 .47146607H.19400025L.1789856 .5498047H.07199097V0H.20999146V.32887269C.20999146 .39242555 .2559967 .43746949 .31900025 .43746949 .3849945 .43746949 .4189911 .40142823 .4189911 .3253479V0H.5569916V.36738587C.5569916 .48846437 .48298646 .56347659 .36299134 .56347659Z"/>
<path id="font_6_21" d="M.17999268 .27539063C.17999268 .37643434 .2559967 .4384613 .34298707 .4384613 .394989 .4384613 .43899537 .4264679 .4850006 .39544679V.5254669C.43899537 .552475 .38198854 .56347659 .32598878 .56347659 .16499329 .56347659 .040985109 .44247438 .040985109 .2763977 .040985109 .10832214 .1639862-.013671875 .32598878-.013671875 .3849945-.013671875 .44099427 .0013275147 .4850006 .025314331V.15434265C.43899537 .12132263 .3880005 .11231995 .34399415 .11231995 .2559967 .11231995 .17999268 .1733551 .17999268 .27539063Z"/>
<path id="font_6_22" d="M.5970001 0 .36299134 .28788758 .58999636 .5498047H.42399598L.20999146 .29588319V.8017578H.07199097V0H.20999146V.27088929L.42599488 0H.5970001Z"/>
<path id="font_6_23" d="M.051986696 .4500885H.1519928C.18499756 .52508547 .21798706 .62008669 .21798706 .7030792V.74609377H.09298706V.6940918C.09298706 .61009219 .07699585 .53507998 .051986696 .4500885M.2639923 .4500885H.3639984C.39698792 .52508547 .42999269 .62008669 .42999269 .7030792V.74609377H.30499269V.6940918C.30499269 .61009219 .2889862 .53507998 .2639923 .4500885Z"/>
<path id="font_7_1" d="M.3881836 .103515628C.47509767 .1031901 .53548178 .14680989 .56933596 .234375L.6948242 .18701172C.66780599 .12060547 .6282552 .07128906 .5761719 .0390625 .5234375 .006184896 .46077476-.0100911459 .3881836-.009765625 .277181-.0100911459 .19173177 .021321616 .13183594 .084472659 .07128906 .14664714 .041015626 .23421224 .041015626 .34716798 .041015626 .4597982 .07014974 .5465495 .12841797 .6074219 .18636067 .66796877 .27083335 .6982422 .38183595 .6982422 .4622396 .6982422 .5279948 .6821289 .57910159 .64990237 .6298828 .6170247 .66552737 .56933596 .68603518 .50683596L.55908206 .47216798C.54833987 .50667318 .52734377 .5341797 .49609376 .5546875 .46419273 .57454428 .42708335 .58463546 .38476563 .58496096 .31966148 .58496096 .27034507 .5647786 .2368164 .52441409 .20296224 .48372398 .18603516 .42464195 .18603516 .34716798 .18603516 .26774089 .20345052 .20735677 .23828125 .16601563 .27278648 .12434896 .3227539 .103515628 .3881836 .103515628Z"/>
<path id="font_7_2" d="M.55322268 0 .4921875 .17578125H.22998047L.16894531 0H.024902344L.2758789 .6879883H.44580079L.6958008 0H.55322268M.36083985 .58203127 .35791017 .57128909C.35432945 .5595703 .3504232 .54622396 .3461914 .53125 .3413086 .5159505 .3133138 .43359376 .26220704 .2841797H.45996095L.39208985 .4819336 .37109376 .54833987 .36083985 .58203127Z"/>
<path id="font_7_3" d="M.6381836 0V.4169922C.6378581 .42610679 .6380208 .43554688 .6386719 .4453125 .6386719 .4544271 .6401367 .49495445 .6430664 .56689456 .6199544 .47932945 .60286459 .41829429 .5917969 .38378907L.46777345 0H.36523438L.24121094 .38378907 .18896485 .56689456C.1928711 .4910482 .19482422 .44108073 .19482422 .4169922V0H.06689453V.6879883H.25976563L.3828125 .30322267 .3935547 .26611329 .4169922 .17382813 .4477539 .2841797 .57421877 .6879883H.7661133V0H.6381836Z"/>
<path id="font_7_4" d="M.6801758 .3491211C.6801758 .27815757 .6663411 .2163086 .6386719 .16357422 .61067709 .110188808 .57128909 .06966146 .5205078 .041992189 .46907554 .0139973959 .41064454 0 .34521485 0H.06689453V.6879883H.31591798C.43147788 .6876628 .5211589 .6585286 .58496096 .60058596 .6484375 .5416667 .6801758 .45784507 .6801758 .3491211M.53515627 .3491211C.53515627 .4226888 .5159505 .47916667 .47753907 .5185547 .4388021 .5569661 .3839518 .57633468 .31298829 .57666018H.2109375V.111328128H.3330078C.39453126 .111328128 .4436849 .13264974 .48046876 .17529297 .51692709 .21761067 .53515627 .27555339 .53515627 .3491211Z"/>
<path id="font_7_5" d="M0 0Z"/>
<path id="font_7_6" d="M.06689453 0V.6879883H.60791018V.57666018H.2109375V.4038086H.578125V.29248048H.2109375V.111328128H.6279297V0H.06689453Z"/>
<path id="font_7_7" d="M.6279297 .19824219C.6279297 .13085938 .60302737 .079427089 .55322268 .043945314 .5027669 .0081380209 .42936198-.009765625 .3330078-.009765625 .24446614-.009765625 .17529297 .005859375 .12548828 .037109376 .075032558 .068359378 .04280599 .115722659 .028808594 .17919922L.16796875 .20214844C.17708333 .16536458 .19547527 .13899739 .22314453 .123046878 .25048829 .10644531 .28841148 .09814453 .33691407 .09814453 .4375 .09814453 .48779298 .12874349 .48779298 .1899414 .48746745 .20947266 .48177085 .22558594 .47070313 .23828125 .45898438 .25097657 .44270835 .261556 .421875 .27001954 .40071617 .27815757 .36035157 .28841148 .30078126 .30078126 .24902344 .31282554 .21321614 .32259117 .19335938 .33007813 .17285156 .33691407 .15462239 .34554038 .13867188 .35595704 .12207031 .36539714 .10823568 .37727867 .09716797 .39160157 .08577474 .40527345 .07698568 .42171226 .07080078 .44091798 .06429037 .4597982 .061035158 .4814453 .061035158 .5058594 .061035158 .5677083 .084472659 .61539718 .13134766 .6489258 .17757161 .68147787 .2454427 .6979167 .33496095 .6982422 .4202474 .6982422 .484375 .6848958 .52734377 .6582031 .56966146 .6311849 .59716799 .58707687 .6098633 .5258789L.47021485 .50683596C.46272788 .5361328 .4482422 .55843099 .4267578 .57373049 .4046224 .5887044 .37304688 .5961914 .33203126 .5961914 .24446614 .5961914 .20084636 .56884768 .20117188 .51416018 .20117188 .495931 .20589192 .48128257 .21533203 .47021485 .22444661 .45882163 .23811849 .44921876 .25634767 .44140626 .2742513 .43294273 .3111979 .42285157 .3671875 .4111328 .43294273 .3968099 .480306 .3839518 .50927737 .3725586 .53759768 .3601888 .5600586 .34635417 .57666018 .3310547 .5932617 .31477867 .60595706 .29589845 .6147461 .27441407 .62353518 .25227867 .6279297 .22688802 .6279297 .19824219Z"/>
<path id="font_7_8" d="M.06689453 0V.6879883H.2109375V0H.06689453M.05078125 .7470703V.76220706L.17382813 .88623049H.2998047V.8652344L.13378906 .7470703H.05078125Z"/>
<path id="font_8_25" d="M.2869873-.013671875C.36799623-.013671875 .43499757 .027313233 .47299195 .09031677L.4869995 0H.6029968V.5498047H.4869995L.47299195 .4598236C.43499757 .523468 .36799623 .56347659 .2869873 .56347659 .1619873 .56347659 .040985109 .4494629 .040985109 .2743988 .040985109 .10131836 .1619873-.013671875 .2869873-.013671875M.32499696 .11231995C.24198914 .11231995 .17999268 .18035889 .17999268 .27539063 .17999268 .37043763 .24198914 .4384613 .32499696 .4384613 .4059906 .4384613 .46699525 .37142945 .46699525 .27539063 .46699525 .1793518 .4059906 .11231995 .32499696 .11231995Z"/>
<path id="font_9_26" d="M.02999878 0H.5589905V.12799073H.2869873C.43798829 .29289247 .5289917 .405838 .5289917 .5177765 .5289917 .65771487 .42999269 .76171877 .27398683 .76171877 .19099427 .76171877 .114990238 .7297058 .069992069 .6897125V.5457611C.11199951 .59272769 .1769867 .63171389 .25099183 .63171389 .33499146 .63171389 .3849945 .57273867 .3849945 .504776 .3849945 .42582704 .35198976 .3698578 .02999878 0Z"/>
<path id="font_10_25" d="M.2869873-.013671875C.36799623-.013671875 .43499757 .027313233 .47299195 .09031677L.4869995 0H.6029968V.5498047H.4869995L.47299195 .4598236C.43499757 .523468 .36799623 .56347659 .2869873 .56347659 .1619873 .56347659 .040985109 .4494629 .040985109 .2743988 .040985109 .10131836 .1619873-.013671875 .2869873-.013671875M.32499696 .11231995C.24198914 .11231995 .17999268 .18035889 .17999268 .27539063 .17999268 .37043763 .24198914 .4384613 .32499696 .4384613 .4059906 .4384613 .46699525 .37142945 .46699525 .27539063 .46699525 .1793518 .4059906 .11231995 .32499696 .11231995Z"/>
<path id="font_11_27" d="M.20799256 0H.34599305V.75097659H.33499146L.035995485 .63298037V.49298097L.20799256 .5639801V0Z"/>
<path id="font_12_25" d="M.2869873-.013671875C.36799623-.013671875 .43499757 .027313233 .47299195 .09031677L.4869995 0H.6029968V.5498047H.4869995L.47299195 .4598236C.43499757 .523468 .36799623 .56347659 .2869873 .56347659 .1619873 .56347659 .040985109 .4494629 .040985109 .2743988 .040985109 .10131836 .1619873-.013671875 .2869873-.013671875M.32499696 .11231995C.24198914 .11231995 .17999268 .18035889 .17999268 .27539063 .17999268 .37043763 .24198914 .4384613 .32499696 .4384613 .4059906 .4384613 .46699525 .37142945 .46699525 .27539063 .46699525 .1793518 .4059906 .11231995 .32499696 .11231995Z"/>
<path id="font_13_28" d="M.07398987 .6957092V.56365969C.11399841 .60569766 .17599488 .63571169 .24899292 .63571169 .33299256 .63571169 .37799073 .59169009 .37799073 .5366516 .37799073 .47761537 .33099366 .43359376 .22898865 .43359376H.15299988V.32458497H.24699402C.34498597 .32458497 .39698792 .28074647 .39698792 .21896363 .39698792 .15518189 .33799745 .11035156 .25099183 .11035156 .17199707 .11035156 .10499573 .14422608 .056991579 .19604492V.055343629C.114990238 .008346558 .18798828-.015655518 .2709961-.015655518 .44499208-.015655518 .5389862 .09133911 .5389862 .20401001 .5389862 .29867555 .47799684 .36058045 .4099884 .38658143V.3895874C.47499085 .42158509 .5149994 .48262025 .5149994 .55766299 .5149994 .66571047 .42799378 .76171877 .27198792 .76171877 .18998719 .76171877 .11999512 .7347107 .07398987 .6957092Z"/>
<path id="font_14_29" d="M.548996 .5498047H.3999939L.2849884 .36686708H.28399659L.16799927 .5498047H.016998291L.20298767 .27488709 .01499939 0H.1639862L.2809906 .18492127H.2829895L.3999939 0H.55599978L.36499024 .27989198 .548996 .5498047Z"/>
<path id="font_15_28" d="M.07398987 .6957092V.56365969C.11399841 .60569766 .17599488 .63571169 .24899292 .63571169 .33299256 .63571169 .37799073 .59169009 .37799073 .5366516 .37799073 .47761537 .33099366 .43359376 .22898865 .43359376H.15299988V.32458497H.24699402C.34498597 .32458497 .39698792 .28074647 .39698792 .21896363 .39698792 .15518189 .33799745 .11035156 .25099183 .11035156 .17199707 .11035156 .10499573 .14422608 .056991579 .19604492V.055343629C.114990238 .008346558 .18798828-.015655518 .2709961-.015655518 .44499208-.015655518 .5389862 .09133911 .5389862 .20401001 .5389862 .29867555 .47799684 .36058045 .4099884 .38658143V.3895874C.47499085 .42158509 .5149994 .48262025 .5149994 .55766299 .5149994 .66571047 .42799378 .76171877 .27198792 .76171877 .18998719 .76171877 .11999512 .7347107 .07398987 .6957092Z"/>
<path id="font_16_30" d="M.375 .79704287H.27398683L.13398743 .6230469H.2539978L.32398988 .71603396 .3939972 .6230469H.5149994L.375 .79704287Z"/>
<path id="font_17_29" d="M.548996 .5498047H.3999939L.2849884 .36686708H.28399659L.16799927 .5498047H.016998291L.20298767 .27488709 .01499939 0H.1639862L.2809906 .18492127H.2829895L.3999939 0H.55599978L.36499024 .27989198 .548996 .5498047Z"/>
<path id="font_18_27" d="M.20799256 0H.34599305V.75097659H.33499146L.035995485 .63298037V.49298097L.20799256 .5639801V0Z"/>
<path id="font_19_30" d="M.375 .79704287H.27398683L.13398743 .6230469H.2539978L.32398988 .71603396 .3939972 .6230469H.5149994L.375 .79704287Z"/>
<path id="font_20_29" d="M.548996 .5498047H.3999939L.2849884 .36686708H.28399659L.16799927 .5498047H.016998291L.20298767 .27488709 .01499939 0H.1639862L.2809906 .18492127H.2829895L.3999939 0H.55599978L.36499024 .27989198 .548996 .5498047Z"/>
<path id="font_21_26" d="M.02999878 0H.5589905V.12799073H.2869873C.43798829 .29289247 .5289917 .405838 .5289917 .5177765 .5289917 .65771487 .42999269 .76171877 .27398683 .76171877 .19099427 .76171877 .114990238 .7297058 .069992069 .6897125V.5457611C.11199951 .59272769 .1769867 .63171389 .25099183 .63171389 .33499146 .63171389 .3849945 .57273867 .3849945 .504776 .3849945 .42582704 .35198976 .3698578 .02999878 0Z"/>
<path id="font_22_30" d="M.375 .79704287H.27398683L.13398743 .6230469H.2539978L.32398988 .71603396 .3939972 .6230469H.5149994L.375 .79704287Z"/>
<path id="font_23_29" d="M.548996 .5498047H.3999939L.2849884 .36686708H.28399659L.16799927 .5498047H.016998291L.20298767 .27488709 .01499939 0H.1639862L.2809906 .18492127H.2829895L.3999939 0H.55599978L.36499024 .27989198 .548996 .5498047Z"/>
<path id="font_24_31" d="M.6399994 .28100587H.5179901V.7451172H.39698792L.0309906 .2480011V.16601563H.3880005V0H.5179901V.16601563H.6399994V.28100587M.1789856 .28100587V.28300477L.3880005 .56707766V.28100587H.1789856Z"/>
<path id="font_25_30" d="M.375 .79704287H.27398683L.13398743 .6230469H.2539978L.32398988 .71603396 .3939972 .6230469H.5149994L.375 .79704287Z"/>
<path id="font_26_29" d="M.548996 .5498047H.3999939L.2849884 .36686708H.28399659L.16799927 .5498047H.016998291L.20298767 .27488709 .01499939 0H.1639862L.2809906 .18492127H.2829895L.3999939 0H.55599978L.36499024 .27989198 .548996 .5498047Z"/>
<path id="font_27_32" d="M.5009918 .7451172H.1459961L.083999637 .34732057 .10499573 .3323059C.13699341 .34732057 .1769867 .36132813 .23199463 .36132813 .33699037 .36132813 .3919983 .30729676 .3919983 .23626709 .3919983 .16725159 .33699037 .115234378 .24499512 .115234378 .17399597 .115234378 .101989749 .14523316 .050994874 .19625855V.048233034C.102996829 .008224487 .17599488-.01676941 .25698854-.01676941 .44599916-.01676941 .5369873 .11222839 .5369873 .23826599 .5369873 .35931397 .44699098 .47131349 .2829895 .47131349 .2579956 .47131349 .23098755 .46632386 .21499634 .46131898L.24499512 .618103H.5009918V.7451172Z"/>
<path id="font_28_30" d="M.375 .79704287H.27398683L.13398743 .6230469H.2539978L.32398988 .71603396 .3939972 .6230469H.5149994L.375 .79704287Z"/>
<path id="font_29_29" d="M.548996 .5498047H.3999939L.2849884 .36686708H.28399659L.16799927 .5498047H.016998291L.20298767 .27488709 .01499939 0H.1639862L.2809906 .18492127H.2829895L.3999939 0H.55599978L.36499024 .27989198 .548996 .5498047Z"/>
<path id="font_30_33" d="M.35099793 .4921875C.34199525 .4921875 .33299256 .49118043 .32398988 .49118043L.5289917 .7451172H.3619995L.1559906 .49017335C.09098816 .4131775 .04598999 .33621217 .04598999 .24629212 .04598999 .102386478 .15899658-.016616822 .32299806-.016616822 .4869995-.016616822 .59999087 .102386478 .59999087 .25028993 .59999087 .39117433 .47799684 .4921875 .35099793 .4921875M.32199098 .10839844C.23999024 .10839844 .18299866 .17434693 .18299866 .24829102 .18299866 .2952423 .19898987 .33122254 .23098755 .37219239 .2559967 .3831787 .28199769 .3881836 .30799867 .3881836 .3880005 .3881836 .46099855 .33821107 .46099855 .24728394 .46099855 .17333985 .4039917 .10839844 .32199098 .10839844Z"/>
<path id="font_31_30" d="M.375 .79704287H.27398683L.13398743 .6230469H.2539978L.32398988 .71603396 .3939972 .6230469H.5149994L.375 .79704287Z"/>
<path id="font_32_29" d="M.548996 .5498047H.3999939L.2849884 .36686708H.28399659L.16799927 .5498047H.016998291L.20298767 .27488709 .01499939 0H.1639862L.2809906 .18492127H.2829895L.3999939 0H.55599978L.36499024 .27989198 .548996 .5498047Z"/>
<path id="font_33_28" d="M.07398987 .6957092V.56365969C.11399841 .60569766 .17599488 .63571169 .24899292 .63571169 .33299256 .63571169 .37799073 .59169009 .37799073 .5366516 .37799073 .47761537 .33099366 .43359376 .22898865 .43359376H.15299988V.32458497H.24699402C.34498597 .32458497 .39698792 .28074647 .39698792 .21896363 .39698792 .15518189 .33799745 .11035156 .25099183 .11035156 .17199707 .11035156 .10499573 .14422608 .056991579 .19604492V.055343629C.114990238 .008346558 .18798828-.015655518 .2709961-.015655518 .44499208-.015655518 .5389862 .09133911 .5389862 .20401001 .5389862 .29867555 .47799684 .36058045 .4099884 .38658143V.3895874C.47499085 .42158509 .5149994 .48262025 .5149994 .55766299 .5149994 .66571047 .42799378 .76171877 .27198792 .76171877 .18998719 .76171877 .11999512 .7347107 .07398987 .6957092Z"/>
<path id="font_34_29" d="M.548996 .5498047H.3999939L.2849884 .36686708H.28399659L.16799927 .5498047H.016998291L.20298767 .27488709 .01499939 0H.1639862L.2809906 .18492127H.2829895L.3999939 0H.55599978L.36499024 .27989198 .548996 .5498047Z"/>
<path id="font_35_27" d="M.20799256 0H.34599305V.75097659H.33499146L.035995485 .63298037V.49298097L.20799256 .5639801V0Z"/>
<path id="font_36_29" d="M.548996 .5498047H.3999939L.2849884 .36686708H.28399659L.16799927 .5498047H.016998291L.20298767 .27488709 .01499939 0H.1639862L.2809906 .18492127H.2829895L.3999939 0H.55599978L.36499024 .27989198 .548996 .5498047Z"/>
<path id="font_37_26" d="M.02999878 0H.5589905V.12799073H.2869873C.43798829 .29289247 .5289917 .405838 .5289917 .5177765 .5289917 .65771487 .42999269 .76171877 .27398683 .76171877 .19099427 .76171877 .114990238 .7297058 .069992069 .6897125V.5457611C.11199951 .59272769 .1769867 .63171389 .25099183 .63171389 .33499146 .63171389 .3849945 .57273867 .3849945 .504776 .3849945 .42582704 .35198976 .3698578 .02999878 0Z"/>
<path id="font_38_29" d="M.548996 .5498047H.3999939L.2849884 .36686708H.28399659L.16799927 .5498047H.016998291L.20298767 .27488709 .01499939 0H.1639862L.2809906 .18492127H.2829895L.3999939 0H.55599978L.36499024 .27989198 .548996 .5498047Z"/>
<path id="font_39_31" d="M.6399994 .28100587H.5179901V.7451172H.39698792L.0309906 .2480011V.16601563H.3880005V0H.5179901V.16601563H.6399994V.28100587M.1789856 .28100587V.28300477L.3880005 .56707766V.28100587H.1789856Z"/>
<path id="font_40_29" d="M.548996 .5498047H.3999939L.2849884 .36686708H.28399659L.16799927 .5498047H.016998291L.20298767 .27488709 .01499939 0H.1639862L.2809906 .18492127H.2829895L.3999939 0H.55599978L.36499024 .27989198 .548996 .5498047Z"/>
<path id="font_41_32" d="M.5009918 .7451172H.1459961L.083999637 .34732057 .10499573 .3323059C.13699341 .34732057 .1769867 .36132813 .23199463 .36132813 .33699037 .36132813 .3919983 .30729676 .3919983 .23626709 .3919983 .16725159 .33699037 .115234378 .24499512 .115234378 .17399597 .115234378 .101989749 .14523316 .050994874 .19625855V.048233034C.102996829 .008224487 .17599488-.01676941 .25698854-.01676941 .44599916-.01676941 .5369873 .11222839 .5369873 .23826599 .5369873 .35931397 .44699098 .47131349 .2829895 .47131349 .2579956 .47131349 .23098755 .46632386 .21499634 .46131898L.24499512 .618103H.5009918V.7451172Z"/>
<path id="font_42_29" d="M.548996 .5498047H.3999939L.2849884 .36686708H.28399659L.16799927 .5498047H.016998291L.20298767 .27488709 .01499939 0H.1639862L.2809906 .18492127H.2829895L.3999939 0H.55599978L.36499024 .27989198 .548996 .5498047Z"/>
<path id="font_43_33" d="M.35099793 .4921875C.34199525 .4921875 .33299256 .49118043 .32398988 .49118043L.5289917 .7451172H.3619995L.1559906 .49017335C.09098816 .4131775 .04598999 .33621217 .04598999 .24629212 .04598999 .102386478 .15899658-.016616822 .32299806-.016616822 .4869995-.016616822 .59999087 .102386478 .59999087 .25028993 .59999087 .39117433 .47799684 .4921875 .35099793 .4921875M.32199098 .10839844C.23999024 .10839844 .18299866 .17434693 .18299866 .24829102 .18299866 .2952423 .19898987 .33122254 .23098755 .37219239 .2559967 .3831787 .28199769 .3881836 .30799867 .3881836 .3880005 .3881836 .46099855 .33821107 .46099855 .24728394 .46099855 .17333985 .4039917 .10839844 .32199098 .10839844Z"/>
</defs>
<g clip-path="url(#clip_1)">
<path transform="matrix(2.4,0,0,2.4,19.2,45.599977)" d="M67.273 10.883C58.363-8.094 23.66-1.586 9.246 34.129-8.703 78.613 4.094 170.215 33.59 198.473 45.305 209.695 63.598 214.707 71.938 199.082 84.676 175.215 60.852 128.195 67.203 48.352 68.734 29.086 71.133 19.102 67.273 10.883" fill="#f78e63" fill-opacity=".360784"/>
</g>
<g clip-path="url(#clip_2)">
<path transform="matrix(2.4,0,0,2.4,316.80003,103.19998)" d="M61.168 80.043C61.168 123.91 47.645 159.473 30.965 159.473 14.281 159.473 .758 123.91 .758 80.043 .758 36.18 14.281 .617 30.965 .617 47.645 .617 61.168 36.18 61.168 80.043" fill="#9ec6ec" fill-opacity=".388235"/>
</g>
<g clip-path="url(#clip_3)">
<path transform="matrix(2.4,0,0,2.4,561.60006,45.599977)" d="M8.539 11.211C17.449-7.766 52.156-1.258 66.566 34.457 84.516 78.941 71.719 170.543 42.223 198.805 30.508 210.023 12.215 215.035 3.875 199.41-8.863 175.543 14.961 128.523 8.609 48.68 7.078 29.414 4.68 19.43 8.539 11.211" fill="#f78e63" fill-opacity=".360784"/>
</g>
<path transform="matrix(2.4,0,0,-2.4,-31.2,-19.200013)" stroke-width=".808079" stroke-linecap="butt" stroke-miterlimit="10" stroke-linejoin="miter" fill="none" stroke="#4765a0" d="M67.418-48.605 167.711-95.75"/>
<path transform="matrix(2.4,0,0,-2.4,-31.2,-19.200013)" stroke-width=".808079" stroke-linecap="butt" stroke-miterlimit="10" stroke-linejoin="miter" fill="none" stroke="#4765a0" d="M67.418-48.605 168.902-134.145"/>
<path transform="matrix(2.4,0,0,-2.4,-31.2,-19.200013)" stroke-width=".808079" stroke-linecap="butt" stroke-miterlimit="10" stroke-linejoin="miter" fill="none" stroke="#4765a0" d="M67.418-48.605 170.098-172.539"/>
<path transform="matrix(2.4,0,0,-2.4,-31.2,-19.200013)" stroke-width=".808079" stroke-linecap="butt" stroke-miterlimit="10" stroke-linejoin="miter" fill="none" stroke="#4765a0" d="M68.414-80.695 168.902-134.145"/>
<path transform="matrix(2.4,0,0,-2.4,-31.2,-19.200013)" stroke-width=".808079" stroke-linecap="butt" stroke-miterlimit="10" stroke-linejoin="miter" fill="none" stroke="#4765a0" d="M68.414-80.695 170.098-172.539"/>
<path transform="matrix(2.4,0,0,-2.4,-31.2,-19.200013)" stroke-width=".808079" stroke-linecap="butt" stroke-miterlimit="10" stroke-linejoin="miter" fill="none" stroke="#4765a0" d="M68.414-80.695 167.711-95.75"/>
<path transform="matrix(2.4,0,0,-2.4,-31.2,-19.200013)" stroke-width=".808079" stroke-linecap="butt" stroke-miterlimit="10" stroke-linejoin="miter" fill="none" stroke="#4765a0" d="M69.414-112.785 170.098-172.539"/>
<path transform="matrix(2.4,0,0,-2.4,-31.2,-19.200013)" stroke-width=".808079" stroke-linecap="butt" stroke-miterlimit="10" stroke-linejoin="miter" fill="none" stroke="#4765a0" d="M69.414-112.785 167.711-95.75"/>
<path transform="matrix(2.4,0,0,-2.4,-31.2,-19.200013)" stroke-width=".808079" stroke-linecap="butt" stroke-miterlimit="10" stroke-linejoin="miter" fill="none" stroke="#4765a0" d="M69.414-112.785 168.902-134.145"/>
<path transform="matrix(2.4,0,0,-2.4,-31.2,-19.200013)" stroke-width=".808079" stroke-linecap="butt" stroke-miterlimit="10" stroke-linejoin="miter" fill="none" stroke="#4765a0" d="M70.41-144.875 167.707-95.75"/>
<path transform="matrix(2.4,0,0,-2.4,-31.2,-19.200013)" stroke-width=".808079" stroke-linecap="butt" stroke-miterlimit="10" stroke-linejoin="miter" fill="none" stroke="#4765a0" d="M70.41-144.875 168.902-134.145"/>
<path transform="matrix(2.4,0,0,-2.4,-31.2,-19.200013)" stroke-width=".808079" stroke-linecap="butt" stroke-miterlimit="10" stroke-linejoin="miter" fill="none" stroke="#4765a0" d="M69.023-145.766 170.098-172.539"/>
<path transform="matrix(2.4,0,0,-2.4,-31.2,-19.200013)" stroke-width=".808079" stroke-linecap="butt" stroke-miterlimit="10" stroke-linejoin="miter" fill="none" stroke="#4765a0" d="M71.41-176.965 168.902-134.145"/>
<path transform="matrix(2.4,0,0,-2.4,-31.2,-19.200013)" stroke-width=".808079" stroke-linecap="butt" stroke-miterlimit="10" stroke-linejoin="miter" fill="none" stroke="#4765a0" d="M71.41-176.965 170.098-172.539"/>
<path transform="matrix(2.4,0,0,-2.4,-31.2,-19.200013)" stroke-width=".808079" stroke-linecap="butt" stroke-miterlimit="10" stroke-linejoin="miter" fill="none" stroke="#4765a0" d="M71.41-176.965 167.707-95.75"/>
<path transform="matrix(2.4,0,0,-2.4,-31.2,-19.200013)" stroke-width=".808079" stroke-linecap="butt" stroke-miterlimit="10" stroke-linejoin="miter" fill="none" stroke="#4765a0" d="M72.453-205.445 170.098-172.539"/>
<path transform="matrix(2.4,0,0,-2.4,-31.2,-19.200013)" stroke-width=".808079" stroke-linecap="butt" stroke-miterlimit="10" stroke-linejoin="miter" fill="none" stroke="#4765a0" d="M69.277-207.316 167.707-95.75"/>
<path transform="matrix(2.4,0,0,-2.4,-31.2,-19.200013)" stroke-width=".808079" stroke-linecap="butt" stroke-miterlimit="10" stroke-linejoin="miter" fill="none" stroke="#4765a0" d="M69.277-207.316 168.902-134.145"/>
<path transform="matrix(2.4,0,0,-2.4,-31.2,-19.200013)" stroke-width=".808079" stroke-linecap="butt" stroke-miterlimit="10" stroke-linejoin="miter" fill="none" stroke="#4765a0" d="M284.477-45.383 181.035-92.398"/>
<path transform="matrix(2.4,0,0,-2.4,-31.2,-19.200013)" stroke-width=".808079" stroke-linecap="butt" stroke-miterlimit="10" stroke-linejoin="miter" fill="none" stroke="#4765a0" d="M284.477-45.383 179.156-131.418"/>
<path transform="matrix(2.4,0,0,-2.4,-31.2,-19.200013)" stroke-width=".808079" stroke-linecap="butt" stroke-miterlimit="10" stroke-linejoin="miter" fill="none" stroke="#4765a0" d="M284.477-45.383 177.277-170.441"/>
<path transform="matrix(2.4,0,0,-2.4,-31.2,-19.200013)" stroke-width=".808079" stroke-linecap="butt" stroke-miterlimit="10" stroke-linejoin="miter" fill="none" stroke="#4765a0" d="M282.906-77.996 179.156-131.418"/>
<path transform="matrix(2.4,0,0,-2.4,-31.2,-19.200013)" stroke-width=".808079" stroke-linecap="butt" stroke-miterlimit="10" stroke-linejoin="miter" fill="none" stroke="#4765a0" d="M282.906-77.996 177.277-170.441"/>
<path transform="matrix(2.4,0,0,-2.4,-31.2,-19.200013)" stroke-width=".808079" stroke-linecap="butt" stroke-miterlimit="10" stroke-linejoin="miter" fill="none" stroke="#4765a0" d="M282.906-77.996 181.035-92.398"/>
<path transform="matrix(2.4,0,0,-2.4,-31.2,-19.200013)" stroke-width=".808079" stroke-linecap="butt" stroke-miterlimit="10" stroke-linejoin="miter" fill="none" stroke="#4765a0" d="M281.34-110.609 177.277-170.441"/>
<path transform="matrix(2.4,0,0,-2.4,-31.2,-19.200013)" stroke-width=".808079" stroke-linecap="butt" stroke-miterlimit="10" stroke-linejoin="miter" fill="none" stroke="#4765a0" d="M281.34-110.609 181.035-92.398"/>
<path transform="matrix(2.4,0,0,-2.4,-31.2,-19.200013)" stroke-width=".808079" stroke-linecap="butt" stroke-miterlimit="10" stroke-linejoin="miter" fill="none" stroke="#4765a0" d="M281.34-110.609 179.156-131.418"/>
<path transform="matrix(2.4,0,0,-2.4,-31.2,-19.200013)" stroke-width=".808079" stroke-linecap="butt" stroke-miterlimit="10" stroke-linejoin="miter" fill="none" stroke="#4765a0" d="M279.77-143.223 181.035-92.398"/>
<path transform="matrix(2.4,0,0,-2.4,-31.2,-19.200013)" stroke-width=".808079" stroke-linecap="butt" stroke-miterlimit="10" stroke-linejoin="miter" fill="none" stroke="#4765a0" d="M279.77-143.223 179.156-131.418"/>
<path transform="matrix(2.4,0,0,-2.4,-31.2,-19.200013)" stroke-width=".808079" stroke-linecap="butt" stroke-miterlimit="10" stroke-linejoin="miter" fill="none" stroke="#4765a0" d="M281.172-144.141 177.277-170.441"/>
<path transform="matrix(2.4,0,0,-2.4,-31.2,-19.200013)" stroke-width=".808079" stroke-linecap="butt" stroke-miterlimit="10" stroke-linejoin="miter" fill="none" stroke="#4765a0" d="M278.199-175.836 179.156-131.418"/>
<path transform="matrix(2.4,0,0,-2.4,-31.2,-19.200013)" stroke-width=".808079" stroke-linecap="butt" stroke-miterlimit="10" stroke-linejoin="miter" fill="none" stroke="#4765a0" d="M278.199-175.836 177.277-170.441"/>
<path transform="matrix(2.4,0,0,-2.4,-31.2,-19.200013)" stroke-width=".808079" stroke-linecap="butt" stroke-miterlimit="10" stroke-linejoin="miter" fill="none" stroke="#4765a0" d="M278.199-175.836 181.035-92.398"/>
<path transform="matrix(2.4,0,0,-2.4,-31.2,-19.200013)" stroke-width=".808079" stroke-linecap="butt" stroke-miterlimit="10" stroke-linejoin="miter" fill="none" stroke="#4765a0" d="M276.559-204.195 177.277-170.441"/>
<path transform="matrix(2.4,0,0,-2.4,-31.2,-19.200013)" stroke-width=".808079" stroke-linecap="butt" stroke-miterlimit="10" stroke-linejoin="miter" fill="none" stroke="#4765a0" d="M280.543-205.926 181.035-92.398"/>
<path transform="matrix(2.4,0,0,-2.4,-31.2,-19.200013)" stroke-width=".808079" stroke-linecap="butt" stroke-miterlimit="10" stroke-linejoin="miter" fill="none" stroke="#4765a0" d="M276.559-204.195 179.156-131.418"/>
<path transform="matrix(2.4,0,0,2.4,-31.2,-19.200013)" d="M74.133 54.879C74.133 61.488 68.773 66.848 62.168 66.848 55.559 66.848 50.199 61.488 50.199 54.879 50.199 48.27 55.559 42.914 62.168 42.914 68.773 42.914 74.133 48.27 74.133 54.879" fill="#f78e63"/>
<path transform="matrix(2.4,0,0,2.4,-31.2,-19.200013)" d="M74.133 84.59C74.133 91.195 68.773 96.555 62.168 96.555 55.559 96.555 50.199 91.195 50.199 84.59 50.199 77.98 55.559 72.621 62.168 72.621 68.773 72.621 74.133 77.98 74.133 84.59" fill="#f78e63"/>
<path transform="matrix(2.4,0,0,2.4,-31.2,-19.200013)" d="M74.133 114.297C74.133 120.906 68.773 126.262 62.168 126.262 55.559 126.262 50.199 120.906 50.199 114.297 50.199 107.688 55.559 102.332 62.168 102.332 68.773 102.332 74.133 107.688 74.133 114.297" fill="#f78e63"/>
<path transform="matrix(2.4,0,0,2.4,-31.2,-19.200013)" d="M74.133 144.008C74.133 150.613 68.773 155.973 62.168 155.973 55.559 155.973 50.199 150.613 50.199 144.008 50.199 137.398 55.559 132.039 62.168 132.039 68.773 132.039 74.133 137.398 74.133 144.008" fill="#f78e63"/>
<path transform="matrix(2.4,0,0,2.4,-31.2,-19.200013)" d="M74.133 173.715C74.133 180.324 68.773 185.68 62.168 185.68 55.559 185.68 50.199 180.324 50.199 173.715 50.199 167.105 55.559 161.75 62.168 161.75 68.773 161.75 74.133 167.105 74.133 173.715" fill="#f78e63"/>
<path transform="matrix(2.4,0,0,2.4,-31.2,-19.200013)" d="M74.133 203.422C74.133 210.031 68.773 215.391 62.168 215.391 55.559 215.391 50.199 210.031 50.199 203.422 50.199 196.816 55.559 191.457 62.168 191.457 68.773 191.457 74.133 196.816 74.133 203.422" fill="#f78e63"/>
<path transform="matrix(2.4,0,0,2.4,-31.2,-19.200013)" d="M296.406 54.551C296.406 61.16 291.051 66.516 284.441 66.516 277.832 66.516 272.477 61.16 272.477 54.551 272.477 47.941 277.832 42.586 284.441 42.586 291.051 42.586 296.406 47.941 296.406 54.551" fill="#f78e63"/>
<path transform="matrix(2.4,0,0,2.4,-31.2,-19.200013)" d="M296.406 84.262C296.406 90.867 291.051 96.227 284.441 96.227 277.832 96.227 272.477 90.867 272.477 84.262 272.477 77.652 277.832 72.293 284.441 72.293 291.051 72.293 296.406 77.652 296.406 84.262" fill="#f78e63"/>
<path transform="matrix(2.4,0,0,2.4,-31.2,-19.200013)" d="M296.406 113.969C296.406 120.578 291.051 125.934 284.441 125.934 277.832 125.934 272.477 120.578 272.477 113.969 272.477 107.359 277.832 102.004 284.441 102.004 291.051 102.004 296.406 107.359 296.406 113.969" fill="#f78e63"/>
<path transform="matrix(2.4,0,0,2.4,-31.2,-19.200013)" d="M296.406 143.68C296.406 150.285 291.051 155.645 284.441 155.645 277.832 155.645 272.477 150.285 272.477 143.68 272.477 137.07 277.832 131.711 284.441 131.711 291.051 131.711 296.406 137.07 296.406 143.68" fill="#f78e63"/>
<path transform="matrix(2.4,0,0,2.4,-31.2,-19.200013)" d="M296.406 173.387C296.406 179.996 291.051 185.352 284.441 185.352 277.832 185.352 272.477 179.996 272.477 173.387 272.477 166.777 277.832 161.422 284.441 161.422 291.051 161.422 296.406 166.777 296.406 173.387" fill="#f78e63"/>
<path transform="matrix(2.4,0,0,2.4,-31.2,-19.200013)" d="M296.406 203.094C296.406 209.703 291.051 215.062 284.441 215.062 277.832 215.062 272.477 209.703 272.477 203.094 272.477 196.488 277.832 191.129 284.441 191.129 291.051 191.129 296.406 196.488 296.406 203.094" fill="#f78e63"/>
<path transform="matrix(2.4,0,0,2.4,-31.2,-19.200013)" d="M188.508 131.211C188.508 138.504 182.594 144.414 175.301 144.414 168.012 144.414 162.098 138.504 162.098 131.211 162.098 123.918 168.012 118.008 175.301 118.008 182.594 118.008 188.508 123.918 188.508 131.211" fill="#9ec6ec"/>
<path transform="matrix(2.4,0,0,2.4,-31.2,-19.200013)" d="M188.508 95.668C188.508 102.957 182.594 108.871 175.301 108.871 168.012 108.871 162.098 102.957 162.098 95.668 162.098 88.375 168.012 82.461 175.301 82.461 182.594 82.461 188.508 88.375 188.508 95.668" fill="#9ec6ec"/>
<path transform="matrix(2.4,0,0,2.4,-31.2,-19.200013)" d="M188.508 166.758C188.508 174.051 182.594 179.961 175.301 179.961 168.012 179.961 162.098 174.051 162.098 166.758 162.098 159.465 168.012 153.555 175.301 153.555 182.594 153.555 188.508 159.465 188.508 166.758" fill="#9ec6ec"/>
<use data-text="C" xlink:href="#font_4_1" transform="matrix(17.454504,0,0,-17.454504,79.68985,34.929567)" fill="#4765a0"/>
<use data-text="A" xlink:href="#font_4_2" transform="matrix(17.454504,0,0,-17.454504,92.292,34.929567)" fill="#4765a0"/>
<use data-text="M" xlink:href="#font_4_3" transform="matrix(17.454504,0,0,-17.454504,104.89415,34.929567)" fill="#4765a0"/>
<use data-text="A" xlink:href="#font_4_2" transform="matrix(17.454504,0,0,-17.454504,119.433757,34.929567)" fill="#4765a0"/>
<use data-text="D" xlink:href="#font_4_4" transform="matrix(17.454504,0,0,-17.454504,132.0359,34.929567)" fill="#4765a0"/>
<use data-text="A" xlink:href="#font_4_2" transform="matrix(17.454504,0,0,-17.454504,144.63806,34.929567)" fill="#4765a0"/>
<use data-text=" " xlink:href="#font_4_5" transform="matrix(17.454504,0,0,-17.454504,157.24022,34.929567)" fill="#4765a0"/>
<use data-text="D" xlink:href="#font_4_4" transform="matrix(17.454504,0,0,-17.454504,162.07512,34.929567)" fill="#4765a0"/>
<use data-text="E" xlink:href="#font_4_6" transform="matrix(17.454504,0,0,-17.454504,174.67728,34.929567)" fill="#4765a0"/>
<use data-text=" " xlink:href="#font_4_5" transform="matrix(17.454504,0,0,-17.454504,186.30199,34.929567)" fill="#4765a0"/>
<use data-text="I" xlink:href="#font_4_7" transform="matrix(17.454504,0,0,-17.454504,191.13689,34.929567)" fill="#4765a0"/>
<use data-text="N" xlink:href="#font_4_8" transform="matrix(17.454504,0,0,-17.454504,195.97179,34.929567)" fill="#4765a0"/>
<use data-text="P" xlink:href="#font_4_9" transform="matrix(17.454504,0,0,-17.454504,208.57395,34.929567)" fill="#4765a0"/>
<use data-text="U" xlink:href="#font_4_10" transform="matrix(17.454504,0,0,-17.454504,220.19866,34.929567)" fill="#4765a0"/>
<use data-text="T" xlink:href="#font_4_11" transform="matrix(17.454504,0,0,-17.454504,232.80081,34.929567)" fill="#4765a0"/>
<use data-text="C" xlink:href="#font_5_1" transform="matrix(17.454504,0,0,-17.454504,324.8208,33.935976)" fill="#4765a0"/>
<use data-text="A" xlink:href="#font_5_2" transform="matrix(17.454504,0,0,-17.454504,337.42298,33.935976)" fill="#4765a0"/>
<use data-text="M" xlink:href="#font_5_3" transform="matrix(17.454504,0,0,-17.454504,350.02513,33.935976)" fill="#4765a0"/>
<use data-text="A" xlink:href="#font_5_2" transform="matrix(17.454504,0,0,-17.454504,364.56474,33.935976)" fill="#4765a0"/>
<use data-text="D" xlink:href="#font_5_4" transform="matrix(17.454504,0,0,-17.454504,377.16688,33.935976)" fill="#4765a0"/>
<use data-text="A" xlink:href="#font_5_2" transform="matrix(17.454504,0,0,-17.454504,389.76905,33.935976)" fill="#4765a0"/>
<use data-text=" " xlink:href="#font_5_5" transform="matrix(17.454504,0,0,-17.454504,402.37123,33.935976)" fill="#4765a0"/>
<use data-text="O" xlink:href="#font_5_6" transform="matrix(17.454504,0,0,-17.454504,407.20613,33.935976)" fill="#4765a0"/>
<use data-text="C" xlink:href="#font_5_1" transform="matrix(17.454504,0,0,-17.454504,420.76826,33.935976)" fill="#4765a0"/>
<use data-text="U" xlink:href="#font_5_7" transform="matrix(17.454504,0,0,-17.454504,433.37043,33.935976)" fill="#4765a0"/>
<use data-text="L" xlink:href="#font_5_8" transform="matrix(17.454504,0,0,-17.454504,445.97257,33.935976)" fill="#4765a0"/>
<use data-text="T" xlink:href="#font_5_9" transform="matrix(17.454504,0,0,-17.454504,456.61985,33.935976)" fill="#4765a0"/>
<use data-text="A" xlink:href="#font_5_2" transform="matrix(17.454504,0,0,-17.454504,467.2671,33.935976)" fill="#4765a0"/>
<use data-text="“" xlink:href="#font_6_14" transform="matrix(18.424225,0,0,-18.424225,330.83763,157.13278)" fill="#4765a0"/>
<use data-text="b" xlink:href="#font_6_15" transform="matrix(18.424225,0,0,-18.424225,339.68125,157.13278)" fill="#4765a0"/>
<use data-text="o" xlink:href="#font_6_16" transform="matrix(18.424225,0,0,-18.424225,352.136,157.13278)" fill="#4765a0"/>
<use data-text="t" xlink:href="#font_6_17" transform="matrix(18.424225,0,0,-18.424225,363.96437,157.13278)" fill="#4765a0"/>
<use data-text="t" xlink:href="#font_6_17" transform="matrix(18.424225,0,0,-18.424225,371.7762,157.13278)" fill="#4765a0"/>
<use data-text="l" xlink:href="#font_6_18" transform="matrix(18.424225,0,0,-18.424225,379.58808,157.13278)" fill="#4765a0"/>
<use data-text="e" xlink:href="#font_6_19" transform="matrix(18.424225,0,0,-18.424225,384.83903,157.13278)" fill="#4765a0"/>
<use data-text="n" xlink:href="#font_6_20" transform="matrix(18.424225,0,0,-18.424225,395.94883,157.13278)" fill="#4765a0"/>
<use data-text="e" xlink:href="#font_6_19" transform="matrix(18.424225,0,0,-18.424225,407.44554,157.13278)" fill="#4765a0"/>
<use data-text="c" xlink:href="#font_6_21" transform="matrix(18.424225,0,0,-18.424225,418.55537,157.13278)" fill="#4765a0"/>
<use data-text="k" xlink:href="#font_6_22" transform="matrix(18.424225,0,0,-18.424225,428.3755,157.13278)" fill="#4765a0"/>
<use data-text="”" xlink:href="#font_6_23" transform="matrix(18.424225,0,0,-18.424225,439.43,157.13278)" fill="#4765a0"/>
<use data-text="C" xlink:href="#font_7_1" transform="matrix(17.454504,0,0,-17.454504,575.15286,34.142396)" fill="#4765a0"/>
<use data-text="A" xlink:href="#font_7_2" transform="matrix(17.454504,0,0,-17.454504,587.755,34.142396)" fill="#4765a0"/>
<use data-text="M" xlink:href="#font_7_3" transform="matrix(17.454504,0,0,-17.454504,600.3572,34.142396)" fill="#4765a0"/>
<use data-text="A" xlink:href="#font_7_2" transform="matrix(17.454504,0,0,-17.454504,614.8967,34.142396)" fill="#4765a0"/>
<use data-text="D" xlink:href="#font_7_4" transform="matrix(17.454504,0,0,-17.454504,627.4989,34.142396)" fill="#4765a0"/>
<use data-text="A" xlink:href="#font_7_2" transform="matrix(17.454504,0,0,-17.454504,640.101,34.142396)" fill="#4765a0"/>
<use data-text=" " xlink:href="#font_7_5" transform="matrix(17.454504,0,0,-17.454504,652.7031,34.142396)" fill="#4765a0"/>
<use data-text="D" xlink:href="#font_7_4" transform="matrix(17.454504,0,0,-17.454504,657.53799,34.142396)" fill="#4765a0"/>
<use data-text="E" xlink:href="#font_7_6" transform="matrix(17.454504,0,0,-17.454504,670.14016,34.142396)" fill="#4765a0"/>
<use data-text=" " xlink:href="#font_7_5" transform="matrix(17.454504,0,0,-17.454504,681.76486,34.142396)" fill="#4765a0"/>
<use data-text="S" xlink:href="#font_7_7" transform="matrix(17.454504,0,0,-17.454504,686.5997,34.142396)" fill="#4765a0"/>
<use data-text="A" xlink:href="#font_7_2" transform="matrix(17.454504,0,0,-17.454504,698.22439,34.142396)" fill="#4765a0"/>
<use data-text="Í" xlink:href="#font_7_8" transform="matrix(17.454504,0,0,-17.454504,710.82656,34.142396)" fill="#4765a0"/>
<use data-text="D" xlink:href="#font_7_4" transform="matrix(17.454504,0,0,-17.454504,715.6614,34.142396)" fill="#4765a0"/>
<use data-text="A" xlink:href="#font_7_2" transform="matrix(17.454504,0,0,-17.454504,728.2635,34.142396)" fill="#4765a0"/>
<use data-text="a" xlink:href="#font_8_25" transform="matrix(21.33329,0,0,-21.33329,378.54005,300.94319)" fill="#4765a0"/>
<use data-text="2" xlink:href="#font_9_26" transform="matrix(12.4373049,0,0,-12.4373049,392.94004,308.04719)" fill="#4765a0"/>
<use data-text="a" xlink:href="#font_10_25" transform="matrix(21.33329,0,0,-21.33329,379.41603,213.6312)" fill="#4765a0"/>
<use data-text="1" xlink:href="#font_11_27" transform="matrix(12.4373049,0,0,-12.4373049,393.816,220.7352)" fill="#4765a0"/>
<use data-text="a" xlink:href="#font_12_25" transform="matrix(21.33329,0,0,-21.33329,378.63844,386.77369)" fill="#4765a0"/>
<use data-text="3" xlink:href="#font_13_28" transform="matrix(12.4373049,0,0,-12.4373049,393.03843,393.8777)" fill="#4765a0"/>
<use data-text="x" xlink:href="#font_14_29" transform="matrix(20.420905,0,0,-20.420905,643.5816,261.4272)" fill="#ffffff"/>
<use data-text="3" xlink:href="#font_15_28" transform="matrix(11.90544,0,0,-11.90544,655.18087,268.22639)" fill="#ffffff"/>
<use data-text="ˆ" xlink:href="#font_16_30" transform="matrix(30.6312,0,0,-30.6312,639.3696,265.86)" fill="#ffffff"/>
<use data-text="x" xlink:href="#font_17_29" transform="matrix(20.420905,0,0,-20.420905,644.3256,117.13681)" fill="#ffffff"/>
<use data-text="1" xlink:href="#font_18_27" transform="matrix(11.90544,0,0,-11.90544,655.9248,123.938388)" fill="#ffffff"/>
<use data-text="ˆ" xlink:href="#font_19_30" transform="matrix(30.6312,0,0,-30.6312,639.3696,121.57199)" fill="#ffffff"/>
<use data-text="x" xlink:href="#font_20_29" transform="matrix(20.420905,0,0,-20.420905,645.288,192.9624)" fill="#ffffff"/>
<use data-text="2" xlink:href="#font_21_26" transform="matrix(11.90544,0,0,-11.90544,656.8872,199.76157)" fill="#ffffff"/>
<use data-text="ˆ" xlink:href="#font_22_30" transform="matrix(30.6312,0,0,-30.6312,641.172,197.3952)" fill="#ffffff"/>
<use data-text="x" xlink:href="#font_23_29" transform="matrix(20.420905,0,0,-20.420905,644.8776,334.10426)" fill="#ffffff"/>
<use data-text="4" xlink:href="#font_24_31" transform="matrix(11.90544,0,0,-11.90544,656.4744,340.90443)" fill="#ffffff"/>
<use data-text="ˆ" xlink:href="#font_25_30" transform="matrix(30.6312,0,0,-30.6312,641.172,338.5409)" fill="#ffffff"/>
<use data-text="x" xlink:href="#font_26_29" transform="matrix(20.420905,0,0,-20.420905,643.97048,405.36073)" fill="#ffffff"/>
<use data-text="5" xlink:href="#font_27_32" transform="matrix(11.90544,0,0,-11.90544,655.5696,412.1609)" fill="#ffffff"/>
<use data-text="ˆ" xlink:href="#font_28_30" transform="matrix(30.6312,0,0,-30.6312,639.71768,409.79615)" fill="#ffffff"/>
<use data-text="x" xlink:href="#font_29_29" transform="matrix(20.420905,0,0,-20.420905,645.11526,475.57466)" fill="#ffffff"/>
<use data-text="6" xlink:href="#font_30_33" transform="matrix(11.90544,0,0,-11.90544,656.71206,482.3748)" fill="#ffffff"/>
<use data-text="ˆ" xlink:href="#font_31_30" transform="matrix(30.6312,0,0,-30.6312,641.172,480.01008)" fill="#ffffff"/>
<use data-text="x" xlink:href="#font_32_29" transform="matrix(21.878066,0,0,-21.878066,108.00529,258.288)" fill="#ffffff"/>
<use data-text="3" xlink:href="#font_33_28" transform="matrix(12.754896,0,0,-12.754896,120.43152,265.572)" fill="#ffffff"/>
<use data-text="x" xlink:href="#font_34_29" transform="matrix(21.878066,0,0,-21.878066,111.27144,116.34238)" fill="#ffffff"/>
<use data-text="1" xlink:href="#font_35_27" transform="matrix(12.754896,0,0,-12.754896,123.69744,123.62875)" fill="#ffffff"/>
<use data-text="x" xlink:href="#font_36_29" transform="matrix(21.878066,0,0,-21.878066,110.37169,188.76477)" fill="#ffffff"/>
<use data-text="2" xlink:href="#font_37_26" transform="matrix(12.754896,0,0,-12.754896,122.79792,196.04877)" fill="#ffffff"/>
<use data-text="x" xlink:href="#font_38_29" transform="matrix(21.878066,0,0,-21.878066,109.93224,327.39768)" fill="#ffffff"/>
<use data-text="4" xlink:href="#font_39_31" transform="matrix(12.754896,0,0,-12.754896,122.35848,334.68287)" fill="#ffffff"/>
<use data-text="x" xlink:href="#font_40_29" transform="matrix(21.878066,0,0,-21.878066,108.04968,405.36073)" fill="#ffffff"/>
<use data-text="5" xlink:href="#font_41_32" transform="matrix(12.754896,0,0,-12.754896,120.47592,412.6457)" fill="#ffffff"/>
<use data-text="x" xlink:href="#font_42_29" transform="matrix(21.878066,0,0,-21.878066,110.187129,473.07936)" fill="#ffffff"/>
<use data-text="6" xlink:href="#font_43_33" transform="matrix(12.754896,0,0,-12.754896,122.61312,480.36433)" fill="#ffffff"/>
</svg>