<svg xmlns="http://www.w3.org/2000/svg" xmlns:xlink="http://www.w3.org/1999/xlink" width="1050" height="380">
<defs>
<clipPath id="clip_1">
<path transform="matrix(2.4,0,0,-2.4,0,1900.8)" d="M0 .028H611.971V791.999H0Z" clip-rule="evenodd"/>
</clipPath>
<path id="font_2_1" d="M.08691406 .7294922H.18603516V.28596498C.18603516 .20772808 .20019531 .15141297 .22851563 .11701965 .25683595 .08262634 .30273438 .06542969 .36621095 .06542969 .42936198 .06542969 .47509767 .08262634 .50341799 .11701965 .5317383 .15141297 .54589846 .20772808 .54589846 .28596498V.7294922H.64501956V.27374269C.64501956 .17858887 .6215007 .10673523 .5744629 .058181764 .5274251 .009628296 .4580078-.0146484379 .36621095-.0146484379 .27408854-.0146484379 .20450847 .009628296 .1574707 .058181764 .110432948 .10673523 .08691406 .17858887 .08691406 .27374269V.7294922Z"/>
<path id="font_2_2" d="M.09814453 .7294922H.23095703L.5541992 .11921692V.7294922H.64990237V0H.51708987L.19384766 .61027529V0H.09814453V.7294922Z"/>
<path id="font_2_3" d="M.19677735 .6484375V.08105469H.31591798C.4165039 .08105469 .49015299 .10386149 .53686526 .1494751 .58357748 .1950887 .6069336 .26708985 .6069336 .36547853 .6069336 .46321617 .58357748 .53481039 .53686526 .58026126 .49015299 .6257121 .4165039 .6484375 .31591798 .6484375H.19677735M.09814453 .7294922H.30078126C.44205729 .7294922 .54573568 .70009359 .6118164 .6412964 .67789718 .5824992 .7109375 .4905599 .7109375 .36547853 .7109375 .2397461 .6777344 .1473999 .6113281 .08843994 .5449219 .02947998 .44140626 0 .30078126 0H.09814453V.7294922Z"/>
<path id="font_2_4" d="M.09814453 .7294922H.55908206V.6464844H.19677735V.43066407H.5439453V.34765626H.19677735V.08300781H.5678711V0H.09814453V.7294922Z"/>
<path id="font_2_5" d="M.44384767 .34228517C.4650065 .33511354 .4855957 .3197937 .50561526 .29632569 .52563479 .27286784 .54573568 .24060567 .56591799 .19953919L.6660156 0H.5600586L.46679688 .18730164C.44270835 .23621114 .4193522 .26865135 .39672853 .2846222 .37410484 .30060325 .34326173 .30859376 .30419923 .30859376H.19677735V0H.09814453V.7294922H.32080079C.40413413 .7294922 .4663086 .71207687 .5073242 .6772461 .54833987 .64241537 .56884768 .58984377 .56884768 .51953127 .56884768 .4736328 .5581868 .43554688 .53686526 .40527345 .51554366 .375 .48453776 .3540039 .44384767 .34228517M.19677735 .6484375V.38964845H.32080079C.3683268 .38964845 .40421549 .40063478 .4284668 .42260743 .4527181 .44458009 .46484376 .47688804 .46484376 .51953127 .46484376 .5621745 .4527181 .59431967 .4284668 .6159668 .40421549 .63761398 .3683268 .6484375 .32080079 .6484375H.19677735Z"/>
<path id="font_2_6" d="M.09814453 .7294922H.51708987V.6464844H.19677735V.43164063H.48583985V.3486328H.19677735V0H.09814453V.7294922Z"/>
<path id="font_2_7" d="M.09814453 .7294922H.19677735V0H.09814453V.7294922Z"/>
<path id="font_2_8" d="M-.0029296876 .7294922H.61376956V.6464844H.35498048V0H.25585938V.6464844H-.0029296876V.7294922Z"/>
<path id="font_2_9" d="M.59521487 .10359192V.2998047H.43408204V.38085938H.6928711V.06738281C.65478518 .040364583 .61279299 .01993815 .56689456 .0061035158 .5209961-.0077311198 .47200523-.0146484379 .41992188-.0146484379 .3059896-.0146484379 .21687825 .018656413 .15258789 .08526611 .08829752 .15187581 .056152345 .2446289 .056152345 .3635254 .056152345 .4827474 .08829752 .57566329 .15258789 .64227297 .21687825 .70888265 .3059896 .7421875 .41992188 .7421875 .4674479 .7421875 .51261398 .7363281 .5554199 .7246094 .5982259 .7128906 .6376953 .695638 .6738281 .67285159V.5673828C.6373698 .59847006 .5986328 .6218669 .5576172 .63757327 .51660159 .6532796 .47347007 .6611328 .42822267 .6611328 .33902995 .6611328 .27205406 .63621017 .22729492 .58636477 .18253581 .53651937 .16015625 .4622396 .16015625 .3635254 .16015625 .26513673 .18253581 .1910197 .22729492 .14117432 .27205406 .09132894 .33902995 .06640625 .42822267 .06640625 .46305339 .06640625 .49414063 .0694224 .5214844 .07545471 .5488281 .08148702 .57340499 .09086609 .59521487 .10359192Z"/>
<path id="font_2_10" d="M.3100586 .75878909C.2664388 .68391928 .23404949 .6098633 .21289063 .5366211 .19173177 .4633789 .18115235 .38916017 .18115235 .31396485 .18115235 .23876953 .19181316 .16430664 .21313477 .09057617 .23445638 .016845704 .2667643-.057291669 .3100586-.13183594H.2319336C.18310547-.055338544 .14656575 .019856772 .12231445 .09375 .09806315 .16764324 .0859375 .24104817 .0859375 .31396485 .0859375 .386556 .09798177 .4596354 .12207031 .5332031 .14615886 .6067708 .18277996 .6819661 .2319336 .75878909H.3100586Z"/>
<path id="font_2_11" d="M.34277345 .27539063C.27018229 .27539063 .21988933 .26704917 .19189453 .2503662 .16389974 .23369344 .14990235 .20524597 .14990235 .1650238 .14990235 .13298035 .16040039 .107554119 .18139649 .08874512 .20239258 .06994629 .23095703 .060546876 .26708985 .060546876 .31689454 .060546876 .3568522 .07828776 .3869629 .11376953 .41707359 .14926148 .4321289 .19644673 .4321289 .25532533V.27539063H.34277345M.52197268 .3125V0H.4321289V.08300781C.4116211 .049641927 .38606773 .025024414 .35546876 .009155273 .32486979-.006713867 .2874349-.0146484379 .24316406-.0146484379 .18717449-.0146484379 .1426595 .0010986328 .10961914 .032592775 .07657877 .064097087 .060058595 .106287639 .060058595 .15916443 .060058595 .22085063 .08064779 .2673594 .12182617 .2986908 .16300456 .33003236 .22444661 .34570313 .30615235 .34570313H.4321289V.3544922C.4321289 .39583335 .41853843 .42781578 .39135743 .45043946 .36417643 .47306315 .32600913 .484375 .27685548 .484375 .24560547 .484375 .21516927 .4806315 .18554688 .47314454 .15592449 .46565757 .1274414 .4544271 .100097659 .43945313V.52246096C.13297527 .53515627 .1648763 .54467776 .19580078 .5510254 .22672527 .55737307 .25683595 .5605469 .2861328 .5605469 .36523438 .5605469 .4243164 .54003909 .4633789 .49902345 .5024414 .4580078 .52197268 .39583335 .52197268 .3125Z"/>
<path id="font_2_12" d="M.080078128 .75878909H.15820313C.20703125 .6819661 .24357097 .6067708 .26782228 .5332031 .29207359 .4596354 .30419923 .386556 .30419923 .31396485 .30419923 .24104817 .29207359 .16764324 .26782228 .09375 .24357097 .019856772 .20703125-.055338544 .15820313-.13183594H.080078128C.1233724-.057291669 .15568035 .016845704 .17700196 .09057617 .19832357 .16430664 .20898438 .23876953 .20898438 .31396485 .20898438 .38916017 .19832357 .4633789 .17700196 .5366211 .15568035 .6098633 .1233724 .68391928 .080078128 .75878909Z"/>
<path id="font_2_13" d="M.4868164 .27294923C.4868164 .33918254 .47322593 .3911387 .44604493 .42881776 .41886393 .46650697 .3815104 .48535157 .33398438 .48535157 .28645835 .48535157 .24910482 .46650697 .22192383 .42881776 .19474285 .3911387 .18115235 .33918254 .18115235 .27294923 .18115235 .2067159 .19474285 .15475464 .22192383 .11706543 .24910482 .07938639 .28645835 .060546876 .33398438 .060546876 .3815104 .060546876 .41886393 .07938639 .44604493 .11706543 .47322593 .15475464 .4868164 .2067159 .4868164 .27294923M.18115235 .4638672C.20003255 .49658204 .22387696 .520874 .25268556 .53674319 .28149415 .5526123 .31591798 .5605469 .35595704 .5605469 .42236329 .5605469 .47631837 .5341339 .51782229 .48130799 .5593262 .42848207 .5800781 .35902915 .5800781 .27294923 .5800781 .18686931 .5593262 .11741638 .51782229 .064590457 .47631837 .011764526 .42236329-.0146484379 .35595704-.0146484379 .31591798-.0146484379 .28149415-.006713867 .25268556 .009155273 .22387696 .025024414 .20003255 .049316408 .18115235 .08203125V0H.09082031V.7597656H.18115235V.4638672Z"/>
<path id="font_2_14" d="M.48779298 .5263672V.4423828C.46240235 .45638023 .43693034 .46687828 .41137696 .47387696 .38582359 .48087565 .36002604 .484375 .33398438 .484375 .27571617 .484375 .23046875 .46585594 .19824219 .42881776 .16601563 .39178977 .14990235 .3398336 .14990235 .27294923 .14990235 .20606487 .16601563 .15410359 .19824219 .11706543 .23046875 .08003744 .27571617 .061523439 .33398438 .061523439 .36002604 .061523439 .38582359 .06502279 .41137696 .072021488 .43693034 .07902018 .46240235 .08951823 .48779298 .103515628V.020507813C.46272788 .0087890629 .43676759 0 .4099121-.005859375 .38305665-.01171875 .3544922-.0146484379 .32421876-.0146484379 .24186199-.0146484379 .1764323 .011271159 .12792969 .06311035 .079427089 .11495972 .05517578 .184906 .05517578 .27294923 .05517578 .36229453 .07967123 .43256126 .12866211 .4837494 .177653 .5349477 .24479167 .5605469 .33007813 .5605469 .3577474 .5605469 .38476563 .55769857 .4111328 .55200198 .4375 .54630538 .46305339 .53776046 .48779298 .5263672Z"/>
<path id="font_2_15" d="M0 0Z"/>
<path id="font_2_16" d="M.34179688 .6323242 .20800781 .26953126H.47607423L.34179688 .6323242M.2861328 .7294922H.39794923L.67578127 0H.5732422L.50683596 .1875H.17822266L.111816409 0H.0078125L.2861328 .7294922Z"/>
<path id="font_2_17" d="M.19677735 .6484375V.37402345H.32080079C.36669923 .37402345 .402181 .3859253 .4272461 .409729 .4523112 .4335327 .46484376 .4674479 .46484376 .5114746 .46484376 .5551758 .4523112 .5889282 .4272461 .61273196 .402181 .63653567 .36669923 .6484375 .32080079 .6484375H.19677735M.09814453 .7294922H.32080079C.4025065 .7294922 .46427409 .71099856 .5061035 .67401126 .5479329 .6370239 .56884768 .58284506 .56884768 .5114746 .56884768 .43945313 .5479329 .38503013 .5061035 .34820558 .46427409 .311381 .4025065 .29296876 .32080079 .29296876H.19677735V0H.09814453V.7294922Z"/>
<path id="font_2_18" d="M.39404298 .6621094C.32242839 .6621094 .2655436 .63539126 .22338867 .58195498 .18123372 .52852889 .16015625 .455719 .16015625 .3635254 .16015625 .27165733 .18123372 .19900513 .22338867 .14556885 .2655436 .09214274 .32242839 .06542969 .39404298 .06542969 .46565757 .06542969 .5223796 .09214274 .564209 .14556885 .6060384 .19900513 .6269531 .27165733 .6269531 .3635254 .6269531 .455719 .6060384 .52852889 .564209 .58195498 .5223796 .63539126 .46565757 .6621094 .39404298 .6621094M.39404298 .7421875C.4962565 .7421875 .5779622 .707901 .63916018 .639328 .7003581 .5707652 .73095706 .47883097 .73095706 .3635254 .73095706 .24854534 .7003581 .1567688 .63916018 .0881958 .5779622 .019632975 .4962565-.0146484379 .39404298-.0146484379 .2915039-.0146484379 .20955403 .019551596 .14819336 .08795166 .08683268 .1563619 .056152345 .2482198 .056152345 .3635254 .056152345 .47883097 .08683268 .5707652 .14819336 .639328 .20955403 .707901 .2915039 .7421875 .39404298 .7421875Z"/>
<path id="font_2_19" d="M.2861328 0 .0078125 .7294922H.110839847L.34179688 .11531067 .5732422 .7294922H.67578127L.39794923 0H.2861328Z"/>
<path id="font_2_20" d="M.5488281 .546875 .35107423 .28076173 .55908206 0H.453125L.2939453 .21484375 .13476563 0H.028808594L.24121094 .2861328 .046875 .546875H.15283203L.29785157 .35205079 .4428711 .546875H.5488281Z"/>
<path id="font_2_21" d="M.19189453 .08300781H.5361328V0H.07324219V.08300781C.110677089 .12174479 .16170247 .17374675 .22631836 .23901367 .29093424 .3042806 .33154298 .34635417 .34814454 .36523438 .37972007 .40071617 .40177409 .43074546 .41430665 .45532228 .4268392 .47989909 .43310548 .50406906 .43310548 .52783206 .43310548 .56656906 .41951499 .59814456 .39233399 .6225586 .36515299 .64697268 .3297526 .6591797 .2861328 .6591797 .25520835 .6591797 .22257488 .6537679 .18823242 .64294436 .15388997 .6321208 .1171875 .61572268 .078125 .59375V.6933594C.11783854 .70947268 .15494792 .721639 .18945313 .7298584 .22395833 .7380778 .25553385 .7421875 .2841797 .7421875 .35970054 .7421875 .41992188 .7233073 .46484376 .6855469 .5097656 .64778646 .53222659 .59733077 .53222659 .5341797 .53222659 .50423178 .5266113 .47583009 .51538088 .4489746 .5041504 .42211915 .48372398 .39046226 .45410157 .3540039 .44596354 .3445638 .42008464 .31730143 .37646485 .2722168 .33284507 .22713216 .27132163 .1640625 .19189453 .08300781Z"/>
<path id="font_2_22" d="M.12402344 .08300781H.28515626V.63964846L.10986328 .6044922V.69433596L.2841797 .7294922H.3828125V.08300781H.5439453V0H.12402344V.08300781Z"/>
</defs>
<g>
<g clip-path="url(#clip_1)">
<path transform="matrix(2.4,0,0,-2.4,0,1900.8)" d="M0 792H611.972V.028H0V792Z" fill="#ffffff" fill-rule="evenodd"/>
<path transform="matrix(2.4,0,0,-2.4,0,1900.8)" d="M21.373 755.32V658.743C21.373 657.439 21.345 656.135 21.373 654.831 21.373 654.775 21.373 654.718 21.373 654.661 21.373 654.435 21.543 654.265 21.77 654.265H133.682C135.213 654.265 136.715 654.236 138.217 654.265 138.302 654.265 138.359 654.265 138.444 654.265 138.954 654.265 138.954 655.087 138.444 655.087H23.528C23.017 655.087 22.479 655.143 21.969 655.087 21.912 655.087 21.855 655.087 21.77 655.087L22.195 654.661V751.238C22.195 752.542 22.224 753.846 22.195 755.15 22.195 755.206 22.195 755.263 22.195 755.32 22.195 755.858 21.373 755.858 21.373 755.32Z" fill="#4765a0" fill-rule="evenodd"/>
<path transform="matrix(2.4,0,0,-2.4,0,1900.8)" d="M136.063 656.476C136.772 655.795 137.452 655.115 138.132 654.435V655.03C137.424 654.293 136.715 653.584 135.978 652.876 135.609 652.507 136.205 651.912 136.602 652.28 137.31 652.989 138.019 653.698 138.728 654.435 138.869 654.605 138.869 654.888 138.728 655.03 138.047 655.71 137.367 656.391 136.687 657.071 136.261 657.468 135.694 656.872 136.063 656.476Z" fill="#4765a0" fill-rule="evenodd"/>
<path transform="matrix(2.4,0,0,-2.4,0,1900.8)" d="M19.984 754.016C20.665 754.724 21.345 755.405 22.025 756.085H21.458C22.167 755.376 22.876 754.668 23.584 753.931 23.981 753.562 24.576 754.157 24.18 754.554 23.471 755.263 22.734 755.972 22.025 756.68 21.883 756.822 21.6 756.822 21.458 756.68 20.778 756 20.098 755.32 19.389 754.639 19.02 754.214 19.616 753.647 19.984 754.016Z" fill="#4765a0" fill-rule="evenodd"/>
<path transform="matrix(2.4,0,0,-2.4,0,1900.8)" d="M159.846 755.32V658.743C159.846 657.439 159.846 656.135 159.846 654.831 159.874 654.775 159.846 654.718 159.846 654.661 159.846 654.435 160.044 654.265 160.271 654.265H272.183C273.713 654.265 275.216 654.236 276.718 654.265 276.803 654.265 276.86 654.265 276.917 654.265 277.455 654.265 277.455 655.087 276.917 655.087H162.028C161.518 655.087 160.98 655.143 160.469 655.087 160.413 655.087 160.356 655.087 160.271 655.087 160.413 654.945 160.554 654.803 160.696 654.661V751.238C160.696 752.542 160.724 753.846 160.696 755.15 160.696 755.206 160.696 755.263 160.696 755.32 160.696 755.858 159.846 755.858 159.846 755.32Z" fill="#4765a0" fill-rule="evenodd"/>
<path transform="matrix(2.4,0,0,-2.4,0,1900.8)" d="M274.564 656.476C275.272 655.795 275.953 655.115 276.633 654.435V655.03C275.924 654.293 275.216 653.584 274.479 652.876 274.11 652.507 274.677 651.912 275.074 652.28 275.811 652.989 276.52 653.698 277.228 654.435 277.37 654.605 277.37 654.888 277.228 655.03 276.548 655.71 275.868 656.391 275.187 657.071 274.762 657.468 274.167 656.872 274.564 656.476Z" fill="#4765a0" fill-rule="evenodd"/>
<path transform="matrix(2.4,0,0,-2.4,0,1900.8)" d="M158.513 754.016C159.194 754.724 159.874 755.405 160.554 756.085H159.959C160.668 755.376 161.376 754.668 162.085 753.931 162.482 753.562 163.106 754.157 162.68 754.554 161.972 755.263 161.263 755.972 160.554 756.68 160.413 756.822 160.129 756.822 159.959 756.68 159.279 756 158.598 755.32 157.89 754.639 157.521 754.214 158.145 753.647 158.513 754.016Z" fill="#4765a0" fill-rule="evenodd"/>
<path transform="matrix(2.4,0,0,-2.4,0,1900.8)" d="M294.18 755.32V658.743C294.18 657.439 294.151 656.135 294.18 654.831 294.18 654.775 294.18 654.718 294.18 654.661 294.18 654.435 294.35 654.265 294.576 654.265H406.488C408.019 654.265 409.521 654.236 411.024 654.265 411.109 654.265 411.165 654.265 411.222 654.265 411.761 654.265 411.761 655.087 411.222 655.087H296.334C295.824 655.087 295.285 655.143 294.775 655.087 294.718 655.087 294.661 655.087 294.576 655.087 294.718 654.945 294.86 654.803 295.002 654.661V751.238C295.002 752.542 295.03 753.846 295.002 755.15 295.002 755.206 295.002 755.263 295.002 755.32 295.002 755.858 294.18 755.858 294.18 755.32Z" fill="#4765a0" fill-rule="evenodd"/>
<path transform="matrix(2.4,0,0,-2.4,0,1900.8)" d="M408.869 656.476C409.55 655.795 410.23 655.115 410.939 654.435V655.03C410.202 654.293 409.493 653.584 408.784 652.876 408.416 652.507 409.011 651.912 409.38 652.28 410.088 652.989 410.825 653.698 411.534 654.435 411.676 654.605 411.676 654.888 411.534 655.03L409.465 657.071C409.068 657.468 408.501 656.872 408.869 656.476Z" fill="#4765a0" fill-rule="evenodd"/>
<path transform="matrix(2.4,0,0,-2.4,0,1900.8)" d="M292.819 754.016C293.499 754.724 294.18 755.405 294.86 756.085H294.293C295.002 755.376 295.682 754.668 296.419 753.931 296.787 753.562 297.383 754.157 296.986 754.554L294.86 756.68C294.718 756.822 294.435 756.822 294.293 756.68 293.584 756 292.904 755.32 292.195 754.639 291.827 754.214 292.422 753.647 292.819 754.016Z" fill="#4765a0" fill-rule="evenodd"/>
<use data-text="U" xlink:href="#font_2_1" transform="matrix(17.0088,0,0,-17.0088,118.7832,37.689577)" fill="#4765a0"/>
<use data-text="N" xlink:href="#font_2_2" transform="matrix(17.0088,0,0,-17.0088,131.21663,37.689577)" fill="#4765a0"/>
<use data-text="D" xlink:href="#font_2_3" transform="matrix(17.0088,0,0,-17.0088,144.38144,37.689577)" fill="#4765a0"/>
<use data-text="E" xlink:href="#font_2_4" transform="matrix(17.0088,0,0,-17.0088,157.54627,37.689577)" fill="#4765a0"/>
<use data-text="R" xlink:href="#font_2_5" transform="matrix(17.0088,0,0,-17.0088,168.31282,37.689577)" fill="#4765a0"/>
<use data-text="F" xlink:href="#font_2_6" transform="matrix(17.0088,0,0,-17.0088,180.50815,37.689577)" fill="#4765a0"/>
<use data-text="I" xlink:href="#font_2_7" transform="matrix(17.0088,0,0,-17.0088,190.56037,37.689577)" fill="#4765a0"/>
<use data-text="T" xlink:href="#font_2_8" transform="matrix(17.0088,0,0,-17.0088,195.57796,37.689577)" fill="#4765a0"/>
<use data-text="T" xlink:href="#font_2_8" transform="matrix(17.0088,0,0,-17.0088,206.34453,37.689577)" fill="#4765a0"/>
<use data-text="I" xlink:href="#font_2_7" transform="matrix(17.0088,0,0,-17.0088,216.87297,37.689577)" fill="#4765a0"/>
<use data-text="N" xlink:href="#font_2_2" transform="matrix(17.0088,0,0,-17.0088,222.1287,37.689577)" fill="#4765a0"/>
<use data-text="G" xlink:href="#font_2_9" transform="matrix(17.0088,0,0,-17.0088,235.05539,37.689577)" fill="#4765a0"/>
<use data-text="(" xlink:href="#font_2_10" transform="matrix(17.0088,0,0,-17.0088,35.512804,37.689577)" fill="#4765a0"/>
<use data-text="a" xlink:href="#font_2_11" transform="matrix(17.0088,0,0,-17.0088,41.976148,37.689577)" fill="#4765a0"/>
<use data-text=")" xlink:href="#font_2_12" transform="matrix(17.0088,0,0,-17.0088,52.742719,37.689577)" fill="#4765a0"/>
<use data-text="(" xlink:href="#font_2_10" transform="matrix(17.0088,0,0,-17.0088,369.81843,37.689577)" fill="#4765a0"/>
<use data-text="b" xlink:href="#font_2_13" transform="matrix(17.0088,0,0,-17.0088,376.28175,37.689577)" fill="#4765a0"/>
<use data-text=")" xlink:href="#font_2_12" transform="matrix(17.0088,0,0,-17.0088,387.28648,37.689577)" fill="#4765a0"/>
<use data-text="(" xlink:href="#font_2_10" transform="matrix(17.0088,0,0,-17.0088,693.37686,37.689577)" fill="#4765a0"/>
<use data-text="c" xlink:href="#font_2_14" transform="matrix(17.0088,0,0,-17.0088,699.8402,37.689577)" fill="#4765a0"/>
<use data-text=")" xlink:href="#font_2_12" transform="matrix(17.0088,0,0,-17.0088,709.3992,37.689577)" fill="#4765a0"/>
<use data-text="F" xlink:href="#font_2_6" transform="matrix(17.0088,0,0,-17.0088,405.3312,37.689577)" fill="#4765a0"/>
<use data-text="I" xlink:href="#font_2_7" transform="matrix(17.0088,0,0,-17.0088,415.38343,37.689577)" fill="#4765a0"/>
<use data-text="T" xlink:href="#font_2_8" transform="matrix(17.0088,0,0,-17.0088,420.40098,37.689577)" fill="#4765a0"/>
<use data-text="T" xlink:href="#font_2_8" transform="matrix(17.0088,0,0,-17.0088,431.16755,37.689577)" fill="#4765a0"/>
<use data-text="I" xlink:href="#font_2_7" transform="matrix(17.0088,0,0,-17.0088,441.696,37.689577)" fill="#4765a0"/>
<use data-text="N" xlink:href="#font_2_2" transform="matrix(17.0088,0,0,-17.0088,446.95173,37.689577)" fill="#4765a0"/>
<use data-text="G" xlink:href="#font_2_9" transform="matrix(17.0088,0,0,-17.0088,459.8784,37.689577)" fill="#4765a0"/>
<use data-text=" " xlink:href="#font_2_15" transform="matrix(17.0088,0,0,-17.0088,473.04319,37.689577)" fill="#4765a0"/>
<use data-text="A" xlink:href="#font_2_16" transform="matrix(17.0088,0,0,-17.0088,478.53706,37.689577)" fill="#4765a0"/>
<use data-text="P" xlink:href="#font_2_17" transform="matrix(17.0088,0,0,-17.0088,490.25608,37.689577)" fill="#4765a0"/>
<use data-text="R" xlink:href="#font_2_5" transform="matrix(17.0088,0,0,-17.0088,500.54643,37.689577)" fill="#4765a0"/>
<use data-text="O" xlink:href="#font_2_18" transform="matrix(17.0088,0,0,-17.0088,512.74179,37.689577)" fill="#4765a0"/>
<use data-text="P" xlink:href="#font_2_17" transform="matrix(17.0088,0,0,-17.0088,526.14468,37.689577)" fill="#4765a0"/>
<use data-text="R" xlink:href="#font_2_5" transform="matrix(17.0088,0,0,-17.0088,536.435,37.689577)" fill="#4765a0"/>
<use data-text="I" xlink:href="#font_2_7" transform="matrix(17.0088,0,0,-17.0088,548.6303,37.689577)" fill="#4765a0"/>
<use data-text="A" xlink:href="#font_2_16" transform="matrix(17.0088,0,0,-17.0088,553.6479,37.689577)" fill="#4765a0"/>
<use data-text="D" xlink:href="#font_2_3" transform="matrix(17.0088,0,0,-17.0088,565.3669,37.689577)" fill="#4765a0"/>
<use data-text="O" xlink:href="#font_2_18" transform="matrix(17.0088,0,0,-17.0088,578.76986,37.689577)" fill="#4765a0"/>
<path transform="matrix(2.4,0,0,-2.4,0,1900.8)" d="M30.047 744.435 27.099 748.885H29.055L31.124 745.654 33.165 748.885H35.065L32.173 744.435 35.121 739.928H33.194L31.068 743.187 29.027 739.928H27.071L30.047 744.435Z" fill="#3c7571" fill-rule="evenodd"/>
<path transform="matrix(2.4,0,0,-2.4,0,1900.8)" d="M49.153 757.077 46.233 761.528H48.189L50.258 758.268 52.299 761.528H54.227L51.279 757.077 54.283 752.542H52.356L50.202 755.858 48.132 752.542H46.205L49.153 757.077Z" fill="#3c7571" fill-rule="evenodd"/>
<path transform="matrix(2.4,0,0,-2.4,0,1900.8)" d="M44.589 740.835 41.641 745.313H43.597L45.694 742.054 47.707 745.313H49.635L46.715 740.835 49.691 736.356H47.764L45.638 739.616 43.569 736.356H41.613L44.589 740.835Z" fill="#3c7571" fill-rule="evenodd"/>
<path transform="matrix(2.4,0,0,-2.4,0,1900.8)" d="M30.501 720.964 27.609 725.414H29.537L31.635 722.154 33.647 725.414H35.575L32.655 720.964 35.631 716.428H33.676L31.55 719.745 29.509 716.428H27.581L30.501 720.964Z" fill="#3c7571" fill-rule="evenodd"/>
<path transform="matrix(2.4,0,0,-2.4,0,1900.8)" d="M45.156 708.038 42.208 712.517H44.192L46.261 709.285 48.302 712.517H50.202L47.282 708.038 50.258 703.559H48.331L46.205 706.819 44.135 703.559H42.18L45.156 708.038Z" fill="#3c7571" fill-rule="evenodd"/>
<path transform="matrix(2.4,0,0,-2.4,0,1900.8)" d="M28.828 698.372 25.88 702.85H27.836L29.934 699.591 31.946 702.85H33.846L30.954 698.372 33.931 693.865H31.975L29.877 697.153 27.808 693.865H25.852L28.828 698.372Z" fill="#3c7571" fill-rule="evenodd"/>
<path transform="matrix(2.4,0,0,-2.4,0,1900.8)" d="M41.102 685.389 38.183 689.811H40.139L42.208 686.58 44.277 689.811H46.176L43.257 685.389 46.233 680.854H44.306L42.151 684.17 40.082 680.854H38.183L41.102 685.389Z" fill="#3c7571" fill-rule="evenodd"/>
<path transform="matrix(2.4,0,0,-2.4,0,1900.8)" d="M57.175 683.858 54.255 688.28H56.211L58.28 685.049 60.35 688.28H62.249L59.329 683.858 62.306 679.323H60.378L58.224 682.639 56.154 679.323H54.255L57.175 683.858Z" fill="#3c7571" fill-rule="evenodd"/>
<path transform="matrix(2.4,0,0,-2.4,0,1900.8)" d="M45.156 669.77 42.208 674.249H44.192L46.261 670.989 48.302 674.249H50.202L47.282 669.798 50.258 665.291H48.331L46.205 668.58 44.135 665.291H42.18L45.156 669.77Z" fill="#3c7571" fill-rule="evenodd"/>
<path transform="matrix(2.4,0,0,-2.4,0,1900.8)" d="M61.739 665.972 58.791 670.422H60.775L62.844 667.191 64.885 670.422H66.784L63.893 666 66.841 661.465H64.913L62.787 664.753 60.718 661.465H58.791L61.739 665.972Z" fill="#3c7571" fill-rule="evenodd"/>
<path transform="matrix(2.4,0,0,-2.4,0,1900.8)" d="M80.447 678.728 77.528 683.206H79.483L81.553 679.918 83.622 683.206H85.521L82.573 678.728 85.578 674.22H83.65L81.496 677.509 79.427 674.22H77.499L80.447 678.728Z" fill="#3c7571" fill-rule="evenodd"/>
<path transform="matrix(2.4,0,0,-2.4,0,1900.8)" d="M76.45 709.483 73.502 713.962H75.458L77.556 710.702 79.597 713.962H81.496L78.605 709.512 81.553 704.976H79.625L77.499 708.293 75.402 704.976H73.502L76.45 709.483Z" fill="#3c7571" fill-rule="evenodd"/>
<path transform="matrix(2.4,0,0,-2.4,0,1900.8)" d="M104.372 709.483 101.452 713.962H103.408L105.477 710.702 107.518 713.962H109.446L106.498 709.512 109.502 704.976H107.546L105.42 708.293 103.351 704.976H101.424L104.372 709.483Z" fill="#3c7571" fill-rule="evenodd"/>
<path transform="matrix(2.4,0,0,-2.4,0,1900.8)" d="M96.35 681.931 93.43 686.381H95.357L97.455 683.15 99.468 686.381H101.395L98.476 681.959 101.452 677.424H99.496L97.37 680.683 95.329 677.424H93.402L96.35 681.931Z" fill="#3c7571" fill-rule="evenodd"/>
<path transform="matrix(2.4,0,0,-2.4,0,1900.8)" d="M112.422 681.931 109.502 686.381H111.458L113.528 683.15 115.54 686.381H117.468L114.548 681.959 117.553 677.424H115.569L113.443 680.683 111.402 677.424H109.474L112.422 681.931Z" fill="#3c7571" fill-rule="evenodd"/>
<path transform="matrix(2.4,0,0,-2.4,0,1900.8)" d="M125.717 688.791 122.769 693.269H124.753L126.822 690.009 128.835 693.269H130.762L127.843 688.819 130.819 684.312H128.891L126.765 687.572 124.696 684.312H122.74L125.717 688.791Z" fill="#3c7571" fill-rule="evenodd"/>
<path transform="matrix(2.4,0,0,-2.4,0,1900.8)" d="M96.633 666.142 93.713 670.592H95.669L97.739 667.361 99.808 670.592H101.707L98.787 666.17 101.764 661.635H99.836L97.682 664.923 95.613 661.635H93.713L96.633 666.142Z" fill="#3c7571" fill-rule="evenodd"/>
<path transform="matrix(2.4,0,0,-2.4,0,1900.8)" stroke-width=".99211" stroke-linecap="butt" stroke-miterlimit="3.8637033" stroke-linejoin="miter" fill="none" stroke="#dfa154" d="M58.989 726.463C58.989 723.827 56.863 721.701 54.255 721.701 51.647 721.701 49.521 723.827 49.521 726.463 49.521 729.071 51.647 731.197 54.255 731.197 56.863 731.197 58.989 729.071 58.989 726.463Z"/>
<path transform="matrix(2.4,0,0,-2.4,0,1900.8)" stroke-width=".99211" stroke-linecap="butt" stroke-miterlimit="3.8637033" stroke-linejoin="miter" fill="none" stroke="#dfa154" d="M72.283 735.194C72.283 732.586 70.157 730.488 67.55 730.488 64.913 730.488 62.787 732.586 62.787 735.194 62.787 737.83 64.913 739.956 67.55 739.956 70.157 739.956 72.283 737.83 72.283 735.194Z"/>
<path transform="matrix(2.4,0,0,-2.4,0,1900.8)" stroke-width=".99211" stroke-linecap="butt" stroke-miterlimit="3.8637033" stroke-linejoin="miter" fill="none" stroke="#dfa154" d="M66.161 709.483C66.161 706.847 64.063 704.721 61.455 704.721 58.847 704.721 56.693 706.847 56.693 709.483 56.693 712.091 58.847 714.189 61.455 714.189 64.063 714.189 66.161 712.091 66.161 709.483Z"/>
<path transform="matrix(2.4,0,0,-2.4,0,1900.8)" stroke-width=".99211" stroke-linecap="butt" stroke-miterlimit="3.8637033" stroke-linejoin="miter" fill="none" stroke="#dfa154" d="M76.28 697.068C76.28 694.46 74.154 692.334 71.546 692.334 68.939 692.334 66.813 694.46 66.813 697.068 66.813 699.704 68.939 701.802 71.546 701.802 74.154 701.802 76.28 699.704 76.28 697.068Z"/>
<path transform="matrix(2.4,0,0,-2.4,0,1900.8)" stroke-width=".99211" stroke-linecap="butt" stroke-miterlimit="3.8637033" stroke-linejoin="miter" fill="none" stroke="#dfa154" d="M97.455 697.068C97.455 694.46 95.329 692.334 92.693 692.334 90.085 692.334 87.987 694.46 87.987 697.068 87.987 699.704 90.085 701.802 92.693 701.802 95.329 701.802 97.455 699.704 97.455 697.068Z"/>
<path transform="matrix(2.4,0,0,-2.4,0,1900.8)" stroke-width=".99211" stroke-linecap="butt" stroke-miterlimit="3.8637033" stroke-linejoin="miter" fill="none" stroke="#dfa154" d="M110.92 697.068C110.92 694.46 108.794 692.334 106.186 692.334 103.55 692.334 101.424 694.46 101.424 697.068 101.424 699.704 103.55 701.802 106.186 701.802 108.794 701.802 110.92 699.704 110.92 697.068Z"/>
<path transform="matrix(2.4,0,0,-2.4,0,1900.8)" stroke-width=".99211" stroke-linecap="butt" stroke-miterlimit="3.8637033" stroke-linejoin="miter" fill="none" stroke="#dfa154" d="M122.967 713.197C122.967 710.589 120.841 708.491 118.233 708.491 115.625 708.491 113.499 710.589 113.499 713.197 113.499 715.805 115.625 717.959 118.233 717.959 120.841 717.959 122.967 715.805 122.967 713.197Z"/>
<path transform="matrix(2.4,0,0,-2.4,0,1900.8)" stroke-width=".99211" stroke-linecap="butt" stroke-miterlimit="3.8637033" stroke-linejoin="miter" fill="none" stroke="#dfa154" d="M82.261 726.463C82.261 723.827 80.135 721.701 77.528 721.701 74.891 721.701 72.794 723.827 72.794 726.463 72.794 729.071 74.891 731.197 77.528 731.197 80.135 731.197 82.261 729.071 82.261 726.463Z"/>
<path transform="matrix(2.4,0,0,-2.4,0,1900.8)" stroke-width=".99211" stroke-linecap="butt" stroke-miterlimit="3.8637033" stroke-linejoin="miter" fill="none" stroke="#dfa154" d="M74.92 751.635C74.92 749.027 72.822 746.901 70.214 746.901 67.606 746.901 65.452 749.027 65.452 751.635 65.452 754.243 67.606 756.369 70.214 756.369 72.822 756.369 74.92 754.243 74.92 751.635Z"/>
<path transform="matrix(2.4,0,0,-2.4,0,1900.8)" stroke-width=".99211" stroke-linecap="butt" stroke-miterlimit="3.8637033" stroke-linejoin="miter" fill="none" stroke="#dfa154" d="M86.287 741.061C86.287 738.454 84.132 736.356 81.524 736.356 78.917 736.356 76.819 738.454 76.819 741.061 76.819 743.669 78.917 745.824 81.524 745.824 84.132 745.824 86.287 743.669 86.287 741.061Z"/>
<path transform="matrix(2.4,0,0,-2.4,0,1900.8)" stroke-width=".99211" stroke-linecap="butt" stroke-miterlimit="3.8637033" stroke-linejoin="miter" fill="none" stroke="#dfa154" d="M100.375 752.542C100.375 749.934 98.249 747.836 95.641 747.836 93.005 747.836 90.879 749.934 90.879 752.542 90.879 755.178 93.005 757.304 95.641 757.304 98.249 757.304 100.375 755.178 100.375 752.542Z"/>
<path transform="matrix(2.4,0,0,-2.4,0,1900.8)" stroke-width=".99211" stroke-linecap="butt" stroke-miterlimit="3.8637033" stroke-linejoin="miter" fill="none" stroke="#dfa154" d="M100.375 737.008C100.375 734.372 98.249 732.274 95.641 732.274 93.005 732.274 90.879 734.372 90.879 737.008 90.879 739.616 93.005 741.742 95.641 741.742 98.249 741.742 100.375 739.616 100.375 737.008Z"/>
<path transform="matrix(2.4,0,0,-2.4,0,1900.8)" stroke-width=".99211" stroke-linecap="butt" stroke-miterlimit="3.8637033" stroke-linejoin="miter" fill="none" stroke="#dfa154" d="M95.726 723.373C95.726 720.765 93.572 718.639 90.964 718.639 88.356 718.639 86.258 720.765 86.258 723.373 86.258 725.981 88.356 728.107 90.964 728.107 93.572 728.107 95.726 725.981 95.726 723.373Z"/>
<path transform="matrix(2.4,0,0,-2.4,0,1900.8)" stroke-width=".99211" stroke-linecap="butt" stroke-miterlimit="3.8637033" stroke-linejoin="miter" fill="none" stroke="#dfa154" d="M109.814 726.463C109.814 723.827 107.688 721.701 105.08 721.701 102.444 721.701 100.346 723.827 100.346 726.463 100.346 729.071 102.444 731.197 105.08 731.197 107.688 731.197 109.814 729.071 109.814 726.463Z"/>
<path transform="matrix(2.4,0,0,-2.4,0,1900.8)" stroke-width=".99211" stroke-linecap="butt" stroke-miterlimit="3.8637033" stroke-linejoin="miter" fill="none" stroke="#dfa154" d="M118.233 741.713C118.233 739.106 116.135 736.98 113.499 736.98 110.891 736.98 108.765 739.106 108.765 741.713 108.765 744.321 110.891 746.447 113.499 746.447 116.135 746.447 118.233 744.321 118.233 741.713Z"/>
<path transform="matrix(2.4,0,0,-2.4,0,1900.8)" d="M170.277 744.435 167.357 748.885H169.313L171.383 745.654 173.424 748.885H175.351L172.431 744.435 175.408 739.928H173.48L171.326 743.187 169.257 739.928H167.329L170.277 744.435Z" fill="#3c7571" fill-rule="evenodd"/>
<path transform="matrix(2.4,0,0,-2.4,0,1900.8)" d="M189.439 757.077 186.491 761.528H188.476L190.545 758.268 192.586 761.528H194.485L191.565 757.077 194.542 752.542H192.614L190.488 755.858 188.419 752.542H186.463L189.439 757.077Z" fill="#3c7571" fill-rule="evenodd"/>
<path transform="matrix(2.4,0,0,-2.4,0,1900.8)" d="M184.819 740.835 181.899 745.313H183.855L185.924 742.054 187.994 745.313H189.893L186.945 740.835 189.95 736.356H188.022L185.868 739.616 183.798 736.356H181.871L184.819 740.835Z" fill="#3c7571" fill-rule="evenodd"/>
<path transform="matrix(2.4,0,0,-2.4,0,1900.8)" d="M170.787 720.964 167.868 725.414H169.824L171.921 722.154 173.934 725.414H175.861L172.942 720.964 175.918 716.428H173.991L171.865 719.745 169.767 716.428H167.839L170.787 720.964Z" fill="#3c7571" fill-rule="evenodd"/>
<path transform="matrix(2.4,0,0,-2.4,0,1900.8)" d="M183.487 708.038 180.567 712.517H182.494L184.592 709.285 186.605 712.517H188.532L185.613 708.038 188.617 703.559H186.633L184.535 706.819 182.466 703.559H180.539L183.487 708.038Z" fill="#3c7571" fill-rule="evenodd"/>
<path transform="matrix(2.4,0,0,-2.4,0,1900.8)" d="M169.058 698.372 166.139 702.85H168.094L170.164 699.591 172.233 702.85H174.132L171.184 698.372 174.189 693.865H172.261L170.107 697.153 168.038 693.865H166.11L169.058 698.372Z" fill="#3c7571" fill-rule="evenodd"/>
<path transform="matrix(2.4,0,0,-2.4,0,1900.8)" d="M181.417 685.389 178.469 689.811H180.425L182.523 686.58 184.535 689.811H186.435L183.543 685.389 186.491 680.854H184.564L182.438 684.17 180.397 680.854H178.441L181.417 685.389Z" fill="#3c7571" fill-rule="evenodd"/>
<path transform="matrix(2.4,0,0,-2.4,0,1900.8)" d="M197.49 683.858 194.542 688.28H196.526L198.595 685.049 200.608 688.28H202.507L199.616 683.858 202.592 679.323H200.636L198.51 682.639 196.469 679.323H194.513L197.49 683.858Z" fill="#3c7571" fill-rule="evenodd"/>
<path transform="matrix(2.4,0,0,-2.4,0,1900.8)" d="M185.386 669.77 182.494 674.249H184.422L186.491 670.989 188.561 674.249H190.46L187.54 669.798 190.517 665.291H188.589L186.435 668.58 184.365 665.291H182.466L185.386 669.77Z" fill="#3c7571" fill-rule="evenodd"/>
<path transform="matrix(2.4,0,0,-2.4,0,1900.8)" d="M201.997 665.972 199.077 670.422H201.005L203.102 667.191 205.143 670.422H207.043L204.151 666 207.128 661.465H205.172L203.017 664.753 200.976 661.465H199.049L201.997 665.972Z" fill="#3c7571" fill-rule="evenodd"/>
<path transform="matrix(2.4,0,0,-2.4,0,1900.8)" d="M220.734 678.728 217.814 683.206H219.742L221.839 679.918 223.88 683.206H225.78L222.888 678.728 225.836 674.22H223.909L221.783 677.509 219.685 674.22H217.786L220.734 678.728Z" fill="#3c7571" fill-rule="evenodd"/>
<path transform="matrix(2.4,0,0,-2.4,0,1900.8)" d="M216.709 709.483 213.789 713.962H215.717L217.814 710.702 219.827 713.962H221.754L218.835 709.512 221.811 704.976H219.855L217.729 708.293 215.688 704.976H213.761L216.709 709.483Z" fill="#3c7571" fill-rule="evenodd"/>
<path transform="matrix(2.4,0,0,-2.4,0,1900.8)" d="M244.658 709.483 241.739 713.962H243.666L245.792 710.702 247.805 713.962H249.704L246.813 709.512 249.761 704.976H247.833L245.707 708.293 243.638 704.976H241.71L244.658 709.483Z" fill="#3c7571" fill-rule="evenodd"/>
<path transform="matrix(2.4,0,0,-2.4,0,1900.8)" d="M236.636 681.931 233.688 686.381H235.644L237.742 683.15 239.754 686.381H241.682L238.762 681.959 241.739 677.424H239.811L237.685 680.683 235.587 677.424H233.66L236.636 681.931Z" fill="#3c7571" fill-rule="evenodd"/>
<path transform="matrix(2.4,0,0,-2.4,0,1900.8)" d="M252.709 679.351 249.761 683.83H251.717L253.814 680.57 255.855 683.83H257.754L254.835 679.351 257.811 674.872H255.883L253.757 678.132 251.66 674.872H249.732L252.709 679.351Z" fill="#3c7571" fill-rule="evenodd"/>
<path transform="matrix(2.4,0,0,-2.4,0,1900.8)" d="M265.946 686.381 263.027 690.86H264.983L267.052 687.572 269.121 690.86H271.02L268.129 686.381 271.077 681.874H269.15L266.995 685.162 264.926 681.874H263.027L265.946 686.381Z" fill="#3c7571" fill-rule="evenodd"/>
<path transform="matrix(2.4,0,0,-2.4,0,1900.8)" d="M236.948 666.142 234 670.592H235.928L238.054 667.361 240.066 670.592H241.965L239.074 666.17 242.022 661.635H240.094L237.969 664.923 235.899 661.635H233.972L236.948 666.142Z" fill="#3c7571" fill-rule="evenodd"/>
<path transform="matrix(2.4,0,0,-2.4,0,1900.8)" stroke-width=".99211" stroke-linecap="butt" stroke-miterlimit="3.8637033" stroke-linejoin="miter" fill="none" stroke="#dfa154" d="M199.276 726.463C199.276 723.827 197.121 721.701 194.513 721.701 191.906 721.701 189.78 723.827 189.78 726.463 189.78 729.071 191.906 731.197 194.513 731.197 197.121 731.197 199.276 729.071 199.276 726.463Z"/>
<path transform="matrix(2.4,0,0,-2.4,0,1900.8)" stroke-width=".99211" stroke-linecap="butt" stroke-miterlimit="3.8637033" stroke-linejoin="miter" fill="none" stroke="#dfa154" d="M212.542 735.194C212.542 732.586 210.416 730.488 207.78 730.488 205.172 730.488 203.074 732.586 203.074 735.194 203.074 737.83 205.172 739.956 207.78 739.956 210.416 739.956 212.542 737.83 212.542 735.194Z"/>
<path transform="matrix(2.4,0,0,-2.4,0,1900.8)" stroke-width=".99211" stroke-linecap="butt" stroke-miterlimit="3.8637033" stroke-linejoin="miter" fill="none" stroke="#dfa154" d="M206.447 709.483C206.447 706.847 204.321 704.721 201.713 704.721 199.106 704.721 196.951 706.847 196.951 709.483 196.951 712.091 199.106 714.189 201.713 714.189 204.321 714.189 206.447 712.091 206.447 709.483Z"/>
<path transform="matrix(2.4,0,0,-2.4,0,1900.8)" stroke-width=".99211" stroke-linecap="butt" stroke-miterlimit="3.8637033" stroke-linejoin="miter" fill="none" stroke="#dfa154" d="M216.567 697.068C216.567 694.46 214.441 692.334 211.833 692.334 209.225 692.334 207.099 694.46 207.099 697.068 207.099 699.704 209.225 701.802 211.833 701.802 214.441 701.802 216.567 699.704 216.567 697.068Z"/>
<path transform="matrix(2.4,0,0,-2.4,0,1900.8)" stroke-width=".99211" stroke-linecap="butt" stroke-miterlimit="3.8637033" stroke-linejoin="miter" fill="none" stroke="#dfa154" d="M237.713 697.068C237.713 694.46 235.587 692.334 232.98 692.334 230.372 692.334 228.246 694.46 228.246 697.068 228.246 699.704 230.372 701.802 232.98 701.802 235.587 701.802 237.713 699.704 237.713 697.068Z"/>
<path transform="matrix(2.4,0,0,-2.4,0,1900.8)" stroke-width=".99211" stroke-linecap="butt" stroke-miterlimit="3.8637033" stroke-linejoin="miter" fill="none" stroke="#dfa154" d="M251.178 697.068C251.178 694.46 249.052 692.334 246.444 692.334 243.808 692.334 241.71 694.46 241.71 697.068 241.71 699.704 243.808 701.802 246.444 701.802 249.052 701.802 251.178 699.704 251.178 697.068Z"/>
<path transform="matrix(2.4,0,0,-2.4,0,1900.8)" stroke-width=".99211" stroke-linecap="butt" stroke-miterlimit="3.8637033" stroke-linejoin="miter" fill="none" stroke="#dfa154" d="M263.225 713.197C263.225 710.589 261.128 708.491 258.52 708.491 255.912 708.491 253.757 710.589 253.757 713.197 253.757 715.805 255.912 717.959 258.52 717.959 261.128 717.959 263.225 715.805 263.225 713.197Z"/>
<path transform="matrix(2.4,0,0,-2.4,0,1900.8)" stroke-width=".99211" stroke-linecap="butt" stroke-miterlimit="3.8637033" stroke-linejoin="miter" fill="none" stroke="#dfa154" d="M222.52 726.463C222.52 723.827 220.422 721.701 217.786 721.701 215.178 721.701 213.052 723.827 213.052 726.463 213.052 729.071 215.178 731.197 217.786 731.197 220.422 731.197 222.52 729.071 222.52 726.463Z"/>
<path transform="matrix(2.4,0,0,-2.4,0,1900.8)" stroke-width=".99211" stroke-linecap="butt" stroke-miterlimit="3.8637033" stroke-linejoin="miter" fill="none" stroke="#dfa154" d="M215.206 751.635C215.206 749.027 213.08 746.901 210.472 746.901 207.836 746.901 205.739 749.027 205.739 751.635 205.739 754.243 207.836 756.369 210.472 756.369 213.08 756.369 215.206 754.243 215.206 751.635Z"/>
<path transform="matrix(2.4,0,0,-2.4,0,1900.8)" stroke-width=".99211" stroke-linecap="butt" stroke-miterlimit="3.8637033" stroke-linejoin="miter" fill="none" stroke="#dfa154" d="M226.545 741.061C226.545 738.454 224.447 736.356 221.811 736.356 219.231 736.356 217.077 738.454 217.077 741.061 217.077 743.669 219.231 745.824 221.811 745.824 224.447 745.824 226.545 743.669 226.545 741.061Z"/>
<path transform="matrix(2.4,0,0,-2.4,0,1900.8)" stroke-width=".99211" stroke-linecap="butt" stroke-miterlimit="3.8637033" stroke-linejoin="miter" fill="none" stroke="#dfa154" d="M240.633 752.542C240.633 749.934 238.507 747.836 235.871 747.836 233.263 747.836 231.165 749.934 231.165 752.542 231.165 755.178 233.263 757.304 235.871 757.304 238.507 757.304 240.633 755.178 240.633 752.542Z"/>
<path transform="matrix(2.4,0,0,-2.4,0,1900.8)" stroke-width=".99211" stroke-linecap="butt" stroke-miterlimit="3.8637033" stroke-linejoin="miter" fill="none" stroke="#dfa154" d="M240.633 737.008C240.633 734.372 238.507 732.274 235.871 732.274 233.263 732.274 231.165 734.372 231.165 737.008 231.165 739.616 233.263 741.742 235.871 741.742 238.507 741.742 240.633 739.616 240.633 737.008Z"/>
<path transform="matrix(2.4,0,0,-2.4,0,1900.8)" stroke-width=".99211" stroke-linecap="butt" stroke-miterlimit="3.8637033" stroke-linejoin="miter" fill="none" stroke="#dfa154" d="M235.984 723.373C235.984 720.765 233.887 718.639 231.279 718.639 228.671 718.639 226.517 720.765 226.517 723.373 226.517 725.981 228.671 728.107 231.279 728.107 233.887 728.107 235.984 725.981 235.984 723.373Z"/>
<path transform="matrix(2.4,0,0,-2.4,0,1900.8)" stroke-width=".99211" stroke-linecap="butt" stroke-miterlimit="3.8637033" stroke-linejoin="miter" fill="none" stroke="#dfa154" d="M250.072 726.463C250.072 723.827 247.975 721.701 245.31 721.701 242.731 721.701 240.605 723.827 240.605 726.463 240.605 729.071 242.731 731.197 245.31 731.197 247.975 731.197 250.072 729.071 250.072 726.463Z"/>
<path transform="matrix(2.4,0,0,-2.4,0,1900.8)" stroke-width=".99211" stroke-linecap="butt" stroke-miterlimit="3.8637033" stroke-linejoin="miter" fill="none" stroke="#dfa154" d="M258.52 741.713C258.52 739.106 256.394 736.98 253.757 736.98 251.15 736.98 249.052 739.106 249.052 741.713 249.052 744.321 251.15 746.447 253.757 746.447 256.394 746.447 258.52 744.321 258.52 741.713Z"/>
<path transform="matrix(2.4,0,0,-2.4,0,1900.8)" d="M308.324 744.435 305.376 748.885H307.332L309.43 745.654 311.471 748.885H313.37L310.479 744.435 313.427 739.928H311.499L309.373 743.187 307.276 739.928H305.376L308.324 744.435Z" fill="#3c7571" fill-rule="evenodd"/>
<path transform="matrix(2.4,0,0,-2.4,0,1900.8)" d="M327.458 757.077 324.539 761.528H326.466L328.564 758.268 330.576 761.528H332.504L329.584 757.077 332.589 752.542H330.605L328.479 755.858 326.438 752.542H324.51L327.458 757.077Z" fill="#3c7571" fill-rule="evenodd"/>
<path transform="matrix(2.4,0,0,-2.4,0,1900.8)" d="M322.838 740.835 319.946 745.313H321.874L323.943 742.054 326.013 745.313H327.912L325.02 740.835 327.969 736.356H326.041L323.887 739.616 321.846 736.356H319.918L322.838 740.835Z" fill="#3c7571" fill-rule="evenodd"/>
<path transform="matrix(2.4,0,0,-2.4,0,1900.8)" d="M308.835 720.964 305.915 725.414H307.843L309.94 722.154 311.981 725.414H313.88L310.989 720.964 313.937 716.428H312.009L309.883 719.745 307.786 716.428H305.887L308.835 720.964Z" fill="#3c7571" fill-rule="evenodd"/>
<path transform="matrix(2.4,0,0,-2.4,0,1900.8)" d="M323.433 708.038 320.513 712.517H322.469L324.567 709.285 326.58 712.517H328.507L325.587 708.038 328.564 703.559H326.608L324.51 706.819 322.413 703.559H320.485L323.433 708.038Z" fill="#3c7571" fill-rule="evenodd"/>
<path transform="matrix(2.4,0,0,-2.4,0,1900.8)" d="M307.077 698.372 304.186 702.85H306.113L308.211 699.591 310.252 702.85H312.151L309.26 698.372 312.208 693.865H310.28L308.126 697.153 306.057 693.865H304.157L307.077 698.372Z" fill="#3c7571" fill-rule="evenodd"/>
<path transform="matrix(2.4,0,0,-2.4,0,1900.8)" d="M319.408 685.389 316.488 689.811H318.444L320.513 686.58 322.526 689.811H324.482L321.534 685.389 324.539 680.854H322.583L320.457 684.17 318.387 680.854H316.46L319.408 685.389Z" fill="#3c7571" fill-rule="evenodd"/>
<path transform="matrix(2.4,0,0,-2.4,0,1900.8)" d="M335.48 683.858 332.561 688.28H334.517L336.586 685.049 338.627 688.28H340.554L337.635 683.858 340.611 679.323H338.655L336.529 682.639 334.46 679.323H332.561L335.48 683.858Z" fill="#3c7571" fill-rule="evenodd"/>
<path transform="matrix(2.4,0,0,-2.4,0,1900.8)" d="M323.433 669.77 320.513 674.249H322.469L324.567 670.989 326.58 674.249H328.507L325.587 669.798 328.564 665.291H326.608L324.51 668.58 322.413 665.291H320.485L323.433 669.77Z" fill="#3c7571" fill-rule="evenodd"/>
<path transform="matrix(2.4,0,0,-2.4,0,1900.8)" d="M340.016 665.972 337.096 670.422H339.052L341.15 667.191 343.162 670.422H345.09L342.17 666 345.146 661.465H343.219L341.093 664.753 338.995 661.465H337.068L340.016 665.972Z" fill="#3c7571" fill-rule="evenodd"/>
<path transform="matrix(2.4,0,0,-2.4,0,1900.8)" d="M358.781 678.728 355.833 683.206H357.817L359.887 679.918 361.899 683.206H363.827L360.907 678.728 363.883 674.22H361.956L359.83 677.509 357.761 674.22H355.805L358.781 678.728Z" fill="#3c7571" fill-rule="evenodd"/>
<path transform="matrix(2.4,0,0,-2.4,0,1900.8)" d="M354.728 709.483 351.808 713.962H353.764L355.833 710.702 357.874 713.962H359.802L356.882 709.512 359.858 704.976H357.931L355.776 708.293 353.707 704.976H351.78L354.728 709.483Z" fill="#3c7571" fill-rule="evenodd"/>
<path transform="matrix(2.4,0,0,-2.4,0,1900.8)" d="M382.706 709.483 379.757 713.962H381.742L383.811 710.702 385.824 713.962H387.751L384.831 709.512 387.808 704.976H385.88L383.754 708.293 381.685 704.976H379.729L382.706 709.483Z" fill="#3c7571" fill-rule="evenodd"/>
<path transform="matrix(2.4,0,0,-2.4,0,1900.8)" d="M374.655 681.931 371.735 686.381H373.691L375.761 683.15 377.802 686.381H379.701L376.809 681.959 379.757 677.424H377.83L375.704 680.683 373.635 677.424H371.707L374.655 681.931Z" fill="#3c7571" fill-rule="evenodd"/>
<path transform="matrix(2.4,0,0,-2.4,0,1900.8)" d="M390.756 681.931 387.808 686.381H389.764L391.833 683.15 393.874 686.381H395.773L392.882 681.959 395.83 677.424H393.902L391.776 680.683 389.735 677.424H387.78L390.756 681.931Z" fill="#3c7571" fill-rule="evenodd"/>
<path transform="matrix(2.4,0,0,-2.4,0,1900.8)" d="M403.994 688.791 401.074 693.269H403.002L405.128 690.009 407.14 693.269H409.039L406.148 688.819 409.096 684.312H407.169L405.043 687.572 402.973 684.312H401.046L403.994 688.791Z" fill="#3c7571" fill-rule="evenodd"/>
<path transform="matrix(2.4,0,0,-2.4,0,1900.8)" d="M374.967 666.142 372.019 670.592H374.003L376.072 667.361 378.085 670.592H380.013L377.093 666.17 380.069 661.635H378.142L376.016 664.923 373.946 661.635H371.991L374.967 666.142Z" fill="#3c7571" fill-rule="evenodd"/>
<path transform="matrix(2.4,0,0,-2.4,0,1900.8)" stroke-width=".99211" stroke-linecap="butt" stroke-miterlimit="3.8637033" stroke-linejoin="miter" fill="none" stroke="#dfa154" d="M337.294 726.463C337.294 723.827 335.169 721.701 332.589 721.701 329.924 721.701 327.827 723.827 327.827 726.463 327.827 729.071 329.924 731.197 332.589 731.197 335.169 731.197 337.294 729.071 337.294 726.463Z"/>
<path transform="matrix(2.4,0,0,-2.4,0,1900.8)" stroke-width=".99211" stroke-linecap="butt" stroke-miterlimit="3.8637033" stroke-linejoin="miter" fill="none" stroke="#dfa154" d="M350.561 735.194C350.561 732.586 348.435 730.488 345.827 730.488 343.219 730.488 341.093 732.586 341.093 735.194 341.093 737.83 343.219 739.956 345.827 739.956 348.435 739.956 350.561 737.83 350.561 735.194Z"/>
<path transform="matrix(2.4,0,0,-2.4,0,1900.8)" stroke-width=".99211" stroke-linecap="butt" stroke-miterlimit="3.8637033" stroke-linejoin="miter" fill="none" stroke="#dfa154" d="M344.466 709.483C344.466 706.847 342.34 704.721 339.732 704.721 337.096 704.721 334.998 706.847 334.998 709.483 334.998 712.091 337.096 714.189 339.732 714.189 342.34 714.189 344.466 712.091 344.466 709.483Z"/>
<path transform="matrix(2.4,0,0,-2.4,0,1900.8)" stroke-width=".99211" stroke-linecap="butt" stroke-miterlimit="3.8637033" stroke-linejoin="miter" fill="none" stroke="#dfa154" d="M354.586 697.068C354.586 694.46 352.46 692.334 349.824 692.334 347.216 692.334 345.118 694.46 345.118 697.068 345.118 699.704 347.216 701.802 349.824 701.802 352.46 701.802 354.586 699.704 354.586 697.068Z"/>
<path transform="matrix(2.4,0,0,-2.4,0,1900.8)" stroke-width=".99211" stroke-linecap="butt" stroke-miterlimit="3.8637033" stroke-linejoin="miter" fill="none" stroke="#dfa154" d="M377.858 697.068C377.858 694.46 375.761 692.334 373.153 692.334 370.545 692.334 368.391 694.46 368.391 697.068 368.391 699.704 370.545 701.802 373.153 701.802 375.761 701.802 377.858 699.704 377.858 697.068Z"/>
<path transform="matrix(2.4,0,0,-2.4,0,1900.8)" stroke-width=".99211" stroke-linecap="butt" stroke-miterlimit="3.8637033" stroke-linejoin="miter" fill="none" stroke="#dfa154" d="M389.197 697.068C389.197 694.46 387.071 692.334 384.463 692.334 381.855 692.334 379.729 694.46 379.729 697.068 379.729 699.704 381.855 701.802 384.463 701.802 387.071 701.802 389.197 699.704 389.197 697.068Z"/>
<path transform="matrix(2.4,0,0,-2.4,0,1900.8)" stroke-width=".99211" stroke-linecap="butt" stroke-miterlimit="3.8637033" stroke-linejoin="miter" fill="none" stroke="#dfa154" d="M401.272 713.197C401.272 710.589 399.146 708.491 396.51 708.491 393.902 708.491 391.805 710.589 391.805 713.197 391.805 715.805 393.902 717.959 396.51 717.959 399.146 717.959 401.272 715.805 401.272 713.197Z"/>
<path transform="matrix(2.4,0,0,-2.4,0,1900.8)" stroke-width=".99211" stroke-linecap="butt" stroke-miterlimit="3.8637033" stroke-linejoin="miter" fill="none" stroke="#dfa154" d="M360.567 726.463C360.567 723.827 358.413 721.701 355.805 721.701 353.197 721.701 351.099 723.827 351.099 726.463 351.099 729.071 353.197 731.197 355.805 731.197 358.413 731.197 360.567 729.071 360.567 726.463Z"/>
<path transform="matrix(2.4,0,0,-2.4,0,1900.8)" stroke-width=".99211" stroke-linecap="butt" stroke-miterlimit="3.8637033" stroke-linejoin="miter" fill="none" stroke="#dfa154" d="M353.225 751.635C353.225 749.027 351.128 746.901 348.463 746.901 345.883 746.901 343.757 749.027 343.757 751.635 343.757 754.243 345.883 756.369 348.463 756.369 351.128 756.369 353.225 754.243 353.225 751.635Z"/>
<path transform="matrix(2.4,0,0,-2.4,0,1900.8)" stroke-width=".99211" stroke-linecap="butt" stroke-miterlimit="3.8637033" stroke-linejoin="miter" fill="none" stroke="#dfa154" d="M364.592 741.061C364.592 738.454 362.466 736.356 359.858 736.356 357.222 736.356 355.096 738.454 355.096 741.061 355.096 743.669 357.222 745.824 359.858 745.824 362.466 745.824 364.592 743.669 364.592 741.061Z"/>
<path transform="matrix(2.4,0,0,-2.4,0,1900.8)" stroke-width=".99211" stroke-linecap="butt" stroke-miterlimit="3.8637033" stroke-linejoin="miter" fill="none" stroke="#dfa154" d="M378.652 752.542C378.652 749.934 376.526 747.836 373.918 747.836 371.31 747.836 369.184 749.934 369.184 752.542 369.184 755.178 371.31 757.304 373.918 757.304 376.526 757.304 378.652 755.178 378.652 752.542Z"/>
<path transform="matrix(2.4,0,0,-2.4,0,1900.8)" stroke-width=".99211" stroke-linecap="butt" stroke-miterlimit="3.8637033" stroke-linejoin="miter" fill="none" stroke="#dfa154" d="M378.652 737.008C378.652 734.372 376.526 732.274 373.918 732.274 371.31 732.274 369.184 734.372 369.184 737.008 369.184 739.616 371.31 741.742 373.918 741.742 376.526 741.742 378.652 739.616 378.652 737.008Z"/>
<path transform="matrix(2.4,0,0,-2.4,0,1900.8)" stroke-width=".99211" stroke-linecap="butt" stroke-miterlimit="3.8637033" stroke-linejoin="miter" fill="none" stroke="#dfa154" d="M374.031 723.373C374.031 720.765 371.906 718.639 369.298 718.639 366.661 718.639 364.564 720.765 364.564 723.373 364.564 725.981 366.661 728.107 369.298 728.107 371.906 728.107 374.031 725.981 374.031 723.373Z"/>
<path transform="matrix(2.4,0,0,-2.4,0,1900.8)" stroke-width=".99211" stroke-linecap="butt" stroke-miterlimit="3.8637033" stroke-linejoin="miter" fill="none" stroke="#dfa154" d="M388.12 726.463C388.12 723.827 385.965 721.701 383.357 721.701 380.75 721.701 378.624 723.827 378.624 726.463 378.624 729.071 380.75 731.197 383.357 731.197 385.965 731.197 388.12 729.071 388.12 726.463Z"/>
<path transform="matrix(2.4,0,0,-2.4,0,1900.8)" stroke-width=".99211" stroke-linecap="butt" stroke-miterlimit="3.8637033" stroke-linejoin="miter" fill="none" stroke="#dfa154" d="M396.539 741.713C396.539 739.106 394.441 736.98 391.833 736.98 389.225 736.98 387.071 739.106 387.071 741.713 387.071 744.321 389.225 746.447 391.833 746.447 394.441 746.447 396.539 744.321 396.539 741.713Z"/>
<path transform="matrix(2.4,0,0,-2.4,0,1900.8)" d="M26.731 759.402 29.197 756.624C31.436 754.101 33.676 751.578 35.915 749.055 39.231 745.342 42.548 741.628 45.865 737.887 49.918 733.351 53.972 728.759 58.025 724.224 62.447 719.263 66.869 714.274 71.291 709.285 75.77 704.268 80.249 699.25 84.699 694.205 88.894 689.528 93.061 684.85 97.228 680.145 100.743 676.205 104.258 672.236 107.802 668.268 110.324 665.433 112.847 662.57 115.398 659.735 116.589 658.375 117.808 657.014 118.998 655.682 119.055 655.625 119.112 655.54 119.14 655.483 119.877 654.69 121.039 655.88 120.331 656.674L117.865 659.452C115.625 661.975 113.386 664.498 111.146 666.992 107.83 670.734 104.513 674.447 101.197 678.189 97.172 682.724 93.118 687.26 89.093 691.824 84.643 696.784 80.22 701.773 75.798 706.734 71.32 711.78 66.841 716.797 62.391 721.814 58.224 726.52 54.057 731.197 49.861 735.902 46.318 739.871 42.803 743.839 39.288 747.808 36.737 750.643 34.214 753.506 31.663 756.34 30.472 757.701 29.282 759.033 28.063 760.394 28.006 760.45 27.978 760.507 27.921 760.564 27.213 761.386 26.022 760.195 26.731 759.402Z" fill="#a31f51" fill-rule="evenodd"/>
<path transform="matrix(2.4,0,0,-2.4,0,1900.8)" d="M206.476 765.014C204.265 762.208 202.167 759.317 200.211 756.34 196.639 750.813 193.55 744.973 191.083 738.907 187.965 731.31 185.868 723.317 185.159 715.124 184.876 711.638 184.734 708.066 185.357 704.608 185.839 702.057 186.746 699.562 188.05 697.323 190.545 693.043 194.428 689.811 198.737 687.515 203.131 685.162 207.978 683.717 212.854 682.809 217.191 681.959 221.641 681.534 226.063 681.506 227.65 681.506 229.266 681.534 230.854 681.647 232.328 681.761 233.745 682.016 235.191 682.271 241.342 683.235 247.465 684.283 253.559 685.474 260.589 686.863 267.647 688.394 274.45 690.661 275.839 691.115 277.2 691.597 278.532 692.164 278.957 692.334 279.241 692.702 279.128 693.184 279.014 693.581 278.504 693.95 278.107 693.78 271.899 691.172 265.209 689.641 258.661 688.224 252.028 686.778 245.339 685.587 238.592 684.482 236.551 684.17 234.482 683.83 232.441 683.518 232.243 683.49 232.668 683.546 232.441 683.518 232.384 683.518 232.328 683.49 232.271 683.49 232.129 683.461 231.987 683.461 231.846 683.433 231.534 683.405 231.25 683.376 230.939 683.348 230.23 683.291 229.493 683.263 228.756 683.235 224.787 683.093 220.791 683.32 216.822 683.83 216.68 683.858 216.454 683.887 216.17 683.943 215.858 683.972 215.575 684.028 215.263 684.057 214.696 684.142 214.129 684.255 213.534 684.369 212.343 684.567 211.153 684.822 209.962 685.134 207.609 685.701 205.257 686.438 203.017 687.345 200.948 688.167 198.68 689.357 196.696 690.661 194.825 691.937 193.068 693.439 191.509 695.254 190.091 696.954 188.759 699.222 187.994 701.32 187.03 703.899 186.633 706.507 186.576 709.2 186.435 717.364 188.135 725.613 190.743 733.294 192.983 739.843 195.959 746.135 199.531 752.06 200.863 754.299 202.28 756.482 203.754 758.608 204.321 759.43 204.917 760.224 205.483 761.017 205.739 761.357 205.994 761.669 206.249 762.009 206.362 762.151 206.476 762.293 206.561 762.435 206.589 762.463 206.617 762.491 206.646 762.52 206.731 762.661 206.504 762.35 206.617 762.491 206.674 762.576 206.731 762.633 206.787 762.718 207.071 763.087 207.383 763.455 207.666 763.824 207.95 764.192 208.006 764.674 207.666 765.014 207.383 765.298 206.759 765.354 206.476 765.014Z" fill="#a31f51" fill-rule="evenodd"/>
<path transform="matrix(2.4,0,0,-2.4,0,1900.8)" d="M340.894 762.406C339.732 756.397 337.776 750.529 335.112 745.03 333.808 742.252 332.277 739.559 330.633 736.98 329.783 735.704 328.932 734.457 328.025 733.238 327.118 732.019 326.126 730.857 325.191 729.638 324.312 728.476 323.49 727.2 323.178 725.783 322.866 724.28 323.093 722.835 323.717 721.446 324.34 720.142 325.276 719.008 326.239 717.959 327.175 716.91 328.337 715.465 329.896 715.606 330.69 715.663 331.398 716.031 332.135 716.315 332.929 716.598 333.723 716.854 334.517 717.109 336.104 717.562 337.72 717.931 339.364 718.214 342.539 718.781 345.798 719.065 349.03 718.98 351.95 718.894 354.926 718.441 357.534 717.052 359.773 715.861 361.587 713.962 362.494 711.581 363.288 709.427 363.317 706.876 361.899 704.976 360.765 703.446 358.838 702.624 356.995 702.51 355.068 702.397 353.083 702.935 351.751 704.381 350.107 706.139 349.795 708.831 349.228 711.071 348.661 713.339 347.669 715.946 345.373 716.967 343.077 717.959 340.356 717.619 338.003 716.882 335.764 716.145 333.241 715.011 332.135 712.8 331.03 710.646 331.087 708.123 331.512 705.798 331.994 703.191 332.986 700.696 334.375 698.428 335.991 695.849 338.088 693.581 340.271 691.455 342.312 689.443 344.551 687.203 347.471 686.58 350.277 685.984 352.885 687.118 355.039 688.876 357.335 690.746 359.093 693.241 360.935 695.565 363.118 698.4 365.329 701.235 367.512 704.069 369.468 706.564 371.339 709.172 373.521 711.496 375.335 713.452 377.518 715.294 380.183 715.946 382.309 716.485 384.746 716.287 386.617 715.068 388.998 713.537 389.31 710.646 389.225 708.038 389.225 707.357 389.14 706.649 388.8 706.054 388.46 705.487 387.893 705.118 387.326 704.806 386.986 704.636 386.646 704.494 386.249 704.438 386.192 704.409 386.107 704.409 386.022 704.381 385.824 704.353 386.079 704.381 385.909 704.381 385.71 704.353 385.512 704.324 385.313 704.324 383.329 704.211 381.288 704.438 379.304 704.608 377.263 704.806 375.222 705.033 373.181 704.948 372.387 704.891 371.537 704.835 370.8 704.58 369.978 704.268 369.241 703.729 368.589 703.162 366.86 701.688 365.357 699.789 364.365 697.748 363.883 696.784 363.515 695.764 363.43 694.687 363.373 693.638 363.713 692.702 364.337 691.88 365.896 689.896 368.589 689.443 370.913 688.932 372.331 688.592 373.748 688.195 375.165 687.969 376.611 687.742 378.085 687.6 379.531 687.6 382.195 687.6 384.888 688.054 387.354 689.074 388.545 689.584 389.679 690.18 390.756 690.888 391.89 691.682 392.91 692.617 393.931 693.524 398.494 697.635 403.767 701.008 409.294 703.672 411.959 704.948 414.709 706.082 417.515 707.046 418.507 707.414 418.082 709.03 417.061 708.661 411.279 706.62 405.666 704.013 400.507 700.668 397.928 698.967 395.461 697.124 393.165 695.083 392.145 694.176 391.181 693.241 390.076 692.447 389.055 691.739 387.978 691.143 386.844 690.661 384.435 689.669 381.827 689.244 379.247 689.272 377.83 689.272 376.384 689.414 374.995 689.669 373.606 689.924 372.274 690.321 370.913 690.633 368.929 691.058 366.094 691.54 365.244 693.581 365.216 693.638 365.131 693.921 365.102 694.063 365.102 694.176 365.102 694.091 365.102 694.063 365.102 694.12 365.102 694.176 365.102 694.233 365.102 694.346 365.102 694.46 365.102 694.602 365.102 694.97 365.216 695.367 365.357 695.792 365.669 696.813 366.208 697.748 366.803 698.598 367.398 699.534 368.135 700.413 368.929 701.206 369.581 701.858 370.233 702.454 371.027 702.879 371.083 702.907 371.14 702.935 371.197 702.964 371.055 702.879 371.197 702.964 371.282 702.992 371.424 703.02 371.594 703.077 371.764 703.106 372.189 703.219 372.274 703.219 372.728 703.247 373.663 703.304 374.627 703.276 375.591 703.247 377.745 703.134 379.871 702.879 382.025 702.737 383.669 702.624 385.54 702.425 387.128 702.935 388.375 703.332 389.622 704.126 390.274 705.288 391.011 706.62 390.954 708.321 390.869 709.795 390.784 711.326 390.501 712.885 389.707 714.217 389.112 715.209 388.233 716.06 387.213 716.655 385.143 717.902 382.564 718.129 380.211 717.676 377.518 717.137 375.165 715.465 373.238 713.594 371.055 711.468 369.241 708.945 367.37 706.564 365.187 703.757 363.033 700.98 360.822 698.145 358.923 695.707 357.137 693.099 354.869 690.945 353.083 689.244 350.759 687.742 348.208 688.139 345.373 688.564 343.219 690.888 341.291 692.816 339.165 694.913 337.068 697.153 335.537 699.732 334.261 701.915 333.354 704.353 333.014 706.847 332.759 708.831 332.787 711.241 334.12 712.828 334.857 713.707 335.934 714.246 336.954 714.699 338.117 715.209 339.392 715.606 340.639 715.776 342.737 716.117 345.005 715.89 346.252 714.019 347.641 711.978 347.811 709.398 348.52 707.074 349.2 704.835 350.419 702.794 352.602 701.717 356.372 699.846 361.757 700.951 363.798 704.863 366.293 709.654 363.345 715.521 359.036 718.129 356.457 719.688 353.452 720.34 350.447 720.567 347.272 720.794 344.069 720.567 340.923 720.142 337.606 719.688 334.375 718.951 331.285 717.761 330.718 717.534 329.953 717.052 329.329 717.335 328.734 717.591 328.28 718.243 327.827 718.696 326.863 719.688 325.928 720.765 325.304 722.041 324.68 723.231 324.51 724.564 324.935 725.839 325.361 727.172 326.268 728.334 327.118 729.411 329.046 731.792 330.86 734.23 332.504 736.838 335.764 741.997 338.4 747.609 340.299 753.42 341.206 756.227 341.943 759.061 342.51 761.953 342.709 763.002 341.093 763.455 340.894 762.406Z" fill="#a31f51" fill-rule="evenodd"/>
<use data-text="O" xlink:href="#font_2_18" transform="matrix(17.0088,0,0,-17.0088,773.9952,37.689577)" fill="#4765a0"/>
<use data-text="V" xlink:href="#font_2_19" transform="matrix(17.0088,0,0,-17.0088,787.39816,37.689577)" fill="#4765a0"/>
<use data-text="E" xlink:href="#font_2_4" transform="matrix(17.0088,0,0,-17.0088,799.3553,37.689577)" fill="#4765a0"/>
<use data-text="R" xlink:href="#font_2_5" transform="matrix(17.0088,0,0,-17.0088,810.1218,37.689577)" fill="#4765a0"/>
<use data-text="F" xlink:href="#font_2_6" transform="matrix(17.0088,0,0,-17.0088,822.079,37.689577)" fill="#4765a0"/>
<use data-text="I" xlink:href="#font_2_7" transform="matrix(17.0088,0,0,-17.0088,832.13119,37.689577)" fill="#4765a0"/>
<use data-text="T" xlink:href="#font_2_8" transform="matrix(17.0088,0,0,-17.0088,837.3869,37.689577)" fill="#4765a0"/>
<use data-text="T" xlink:href="#font_2_8" transform="matrix(17.0088,0,0,-17.0088,847.91537,37.689577)" fill="#4765a0"/>
<use data-text="I" xlink:href="#font_2_7" transform="matrix(17.0088,0,0,-17.0088,858.6818,37.689577)" fill="#4765a0"/>
<use data-text="N" xlink:href="#font_2_2" transform="matrix(17.0088,0,0,-17.0088,863.93759,37.689577)" fill="#4765a0"/>
<use data-text="G" xlink:href="#font_2_9" transform="matrix(17.0088,0,0,-17.0088,876.8643,37.689577)" fill="#4765a0"/>
<use data-text="x" xlink:href="#font_2_20" transform="matrix(17.0088,0,0,-17.0088,20.4096,114.496707)" fill="#4765a0"/>
<use data-text="2" xlink:href="#font_2_21" transform="matrix(17.0088,0,0,-17.0088,30.699927,114.496707)" fill="#4765a0"/>
<use data-text="x" xlink:href="#font_2_20" transform="matrix(17.0088,0,0,-17.0088,357.09843,112.31995)" fill="#4765a0"/>
<use data-text="2" xlink:href="#font_2_21" transform="matrix(17.0088,0,0,-17.0088,367.38874,112.31995)" fill="#4765a0"/>
<use data-text="x" xlink:href="#font_2_20" transform="matrix(17.0088,0,0,-17.0088,682.2888,114.496707)" fill="#4765a0"/>
<use data-text="2" xlink:href="#font_2_21" transform="matrix(17.0088,0,0,-17.0088,692.5791,114.496707)" fill="#4765a0"/>
<use data-text="x" xlink:href="#font_2_20" transform="matrix(17.0088,0,0,-17.0088,299.5416,366.21363)" fill="#4765a0"/>
<use data-text="1" xlink:href="#font_2_22" transform="matrix(17.0088,0,0,-17.0088,309.83195,366.21363)" fill="#4765a0"/>
<use data-text="x" xlink:href="#font_2_20" transform="matrix(17.0088,0,0,-17.0088,632.89688,366.21363)" fill="#4765a0"/>
<use data-text="1" xlink:href="#font_2_22" transform="matrix(17.0088,0,0,-17.0088,643.18716,366.21363)" fill="#4765a0"/>
<use data-text="x" xlink:href="#font_2_20" transform="matrix(17.0088,0,0,-17.0088,966.2521,366.21363)" fill="#4765a0"/>
<use data-text="1" xlink:href="#font_2_22" transform="matrix(17.0088,0,0,-17.0088,976.54238,366.21363)" fill="#4765a0"/>
</g>
</g>
</svg>